<?xml version="1.0" encoding="UTF-8" standalone="no"?>
<!-- Created with Inkscape (http://www.inkscape.org/) -->

<svg
   xmlns:dc="http://purl.org/dc/elements/1.1/"
   xmlns:cc="http://creativecommons.org/ns#"
   xmlns:rdf="http://www.w3.org/1999/02/22-rdf-syntax-ns#"
   xmlns:svg="http://www.w3.org/2000/svg"
   xmlns="http://www.w3.org/2000/svg"
   xmlns:sodipodi="http://sodipodi.sourceforge.net/DTD/sodipodi-0.dtd"
   xmlns:inkscape="http://www.inkscape.org/namespaces/inkscape"
   id="svg2"
   version="1.1"
   inkscape:version="0.48.4 r9939"
   width="386.84625"
   height="216.7375"
   xml:space="preserve"
   sodipodi:docname="to_do_list_graph.svg"><metadata
     id="metadata8"><rdf:RDF><cc:Work
         rdf:about=""><dc:format>image/svg+xml</dc:format><dc:type
           rdf:resource="http://purl.org/dc/dcmitype/StillImage" /><dc:title></dc:title></cc:Work></rdf:RDF></metadata><defs
     id="defs6" /><sodipodi:namedview
     pagecolor="#ffffff"
     bordercolor="#666666"
     borderopacity="1"
     objecttolerance="10"
     gridtolerance="10"
     guidetolerance="10"
     inkscape:pageopacity="0"
     inkscape:pageshadow="2"
     inkscape:window-width="1680"
     inkscape:window-height="1030"
     id="namedview4"
     showgrid="false"
     inkscape:zoom="2.1577143"
     inkscape:cx="196.97523"
     inkscape:cy="78.724961"
     inkscape:window-x="-2"
     inkscape:window-y="-3"
     inkscape:window-maximized="1"
     inkscape:current-layer="g10"
     fit-margin-top="0"
     fit-margin-left="0"
     fit-margin-right="0"
     fit-margin-bottom="0" /><g
     id="g10"
     inkscape:groupmode="layer"
     inkscape:label="ink_ext_XXXXXX"
     transform="matrix(1.25,0,0,-1.25,-0.951875,217.74375)"><path
       inkscape:connector-curvature="0"
       id="path14"
       style="fill:none;stroke:#767676;stroke-width:0.63999999;stroke-linecap:round;stroke-linejoin:round;stroke-miterlimit:4;stroke-opacity:1;stroke-dasharray:none"
       d="m 2.076,1.125 306.848,0 0,172.75 -306.848,0 0,-172.75 z" /><path
       d="m 59.061882,13.697508 c 0,-4.2422162 -3.437483,-7.6793131 -7.679277,-7.6793131 -4.242564,0 -7.680144,3.4370969 -7.680144,7.6793131 0,4.238954 3.43758,7.679583 7.680144,7.679583 4.241794,0 7.679277,-3.440629 7.679277,-7.679583 z"
       style="fill:none;stroke:#767676;stroke-width:0.6399979;stroke-linecap:round;stroke-linejoin:round;stroke-miterlimit:4;stroke-opacity:1;stroke-dasharray:none"
       id="path18"
       inkscape:connector-curvature="0" /><text
       transform="scale(1,-1)"
       id="text22"
       x="48.1021"
       y="-10.197125"><tspan
         style="font-size:9.60000038px;font-style:oblique;font-variant:normal;writing-mode:lr-tb;fill:#000000;fill-opacity:1;fill-rule:nonzero;stroke:none;font-family:DejaVu Sans;-inkscape-font-specification:DejaVuSans-Oblique"
         x="48.1021"
         y="-10.197125"
         id="tspan24">A</tspan></text>
<path
       inkscape:connector-curvature="0"
       id="path26"
       style="fill:none;stroke:#000000;stroke-width:0.80000001;stroke-linecap:butt;stroke-linejoin:miter;stroke-miterlimit:4;stroke-opacity:1;stroke-dasharray:none"
       d="m 49.9256,25.244356 -11.602,27" /><path
       inkscape:connector-curvature="0"
       id="path28"
       style="fill:#000000;fill-opacity:1;fill-rule:evenodd;stroke:none"
       d="m 38.4377,42.983056 -0.5473,10.2301 7.0473,-7.4371 c -2.5282,0.5859 -5.1492,-0.5508 -6.5,-2.793 z" /><path
       inkscape:connector-curvature="0"
       id="path38"
       style="fill:none;stroke:#000000;stroke-width:0.80000001;stroke-linecap:butt;stroke-linejoin:miter;stroke-miterlimit:4;stroke-opacity:1;stroke-dasharray:none"
       d="m 65.6635,13.365456 40.598,0.4028" /><path
       inkscape:connector-curvature="0"
       id="path40"
       style="fill:#000000;fill-opacity:1;fill-rule:evenodd;stroke:none"
       d="m 97.6756,17.233056 9.6479,-3.4418 -9.5819,-3.62929 c 1.516,2.10239 1.4808,4.95819 -0.066,7.07109 z" /><path
       d="m 38.663783,62.338282 c 0,-4.242164 -3.437484,-7.6801 -7.680048,-7.6801 -4.241794,0 -7.679277,3.437936 -7.679277,7.6801 0,4.24175 3.437483,7.679583 7.679277,7.679583 4.242564,0 7.680048,-3.437833 7.680048,-7.679583 z"
       style="fill:none;stroke:#767676;stroke-width:0.6399979;stroke-linecap:round;stroke-linejoin:round;stroke-miterlimit:4;stroke-opacity:1;stroke-dasharray:none"
       id="path44"
       inkscape:connector-curvature="0" /><path
       d="m 194.21443,56.897283 c 0,-4.242993 -3.43768,-7.6801 -7.67957,-7.6801 -4.24189,0 -7.67956,3.437107 -7.67956,7.6801 0,4.241751 3.43767,7.678858 7.67956,7.678858 4.24189,0 7.67957,-3.437107 7.67957,-7.678858 z"
       style="fill:none;stroke:#767676;stroke-width:0.6399979;stroke-linecap:round;stroke-linejoin:round;stroke-miterlimit:4;stroke-opacity:1;stroke-dasharray:none"
       id="path48"
       inkscape:connector-curvature="0" /><path
       d="m 128.88316,13.697508 c 0,-4.2422162 -3.43865,-7.6793131 -7.68053,-7.6793131 -4.24189,0 -7.67957,3.4370969 -7.67957,7.6793131 0,4.238954 3.43768,7.679583 7.67957,7.679583 4.24188,0 7.68053,-3.440629 7.68053,-7.679583 z"
       style="fill:none;stroke:#767676;stroke-width:0.6399979;stroke-linecap:round;stroke-linejoin:round;stroke-miterlimit:4;stroke-opacity:1;stroke-dasharray:none"
       id="path52"
       inkscape:connector-curvature="0" /><path
       inkscape:connector-curvature="0"
       id="path54"
       style="fill:none;stroke:#000000;stroke-width:0.80000001;stroke-linecap:butt;stroke-linejoin:miter;stroke-miterlimit:4;stroke-opacity:1;stroke-dasharray:none"
       d="m 126.7885,22.604556 51.254,28.816" /><path
       inkscape:connector-curvature="0"
       id="path56"
       style="fill:#000000;fill-opacity:1;fill-rule:evenodd;stroke:none"
       d="m 168.8475,50.323256 10.113,1.6321 -6.648,-7.7961 c 0.316,2.5738 -1.09,5.0578 -3.465,6.164 z" /><path
       d="m 198.70703,13.697508 c 0,-4.2422162 -3.44153,-7.6793131 -7.68439,-7.6793131 -4.23803,0 -7.6786,3.4370969 -7.6786,7.6793131 0,4.238954 3.44057,7.679583 7.6786,7.679583 4.24286,0 7.68439,-3.440629 7.68439,-7.679583 z"
       style="fill:none;stroke:#767676;stroke-width:0.6399979;stroke-linecap:round;stroke-linejoin:round;stroke-miterlimit:4;stroke-opacity:1;stroke-dasharray:none"
       id="path66"
       inkscape:connector-curvature="0" /><path
       d="m 270.98405,15.811496 c 0,-4.242164 -3.43768,-7.6843262 -7.67957,-7.6843262 -4.24285,0 -7.67956,3.4421622 -7.67956,7.6843262 0,4.237918 3.43671,7.678858 7.67956,7.678858 4.24189,0 7.67957,-3.44094 7.67957,-7.678858 z"
       style="fill:none;stroke:#767676;stroke-width:0.6399979;stroke-linecap:round;stroke-linejoin:round;stroke-miterlimit:4;stroke-opacity:1;stroke-dasharray:none"
       id="path70"
       inkscape:connector-curvature="0" /><path
       inkscape:connector-curvature="0"
       id="path72"
       style="fill:#007506;fill-opacity:1;fill-rule:nonzero;stroke:none"
       d="m 258.6205,20.061156 c 1.203,-0.7031 2.153,-1.723 3.196,-2.6289 0.855,-0.7543 1.84,-1.1871 2.957,-1.359 1.199,-0.157 2.371,0.1911 3.468,0.6481 0.27,0.1207 0.543,0.2269 0.805,0.359 0.285,0.1488 1.113,0.6289 0.836,0.4726 -0.812,-0.4488 -1.582,-0.9918 -2.433,-1.359 -0.454,-0.1957 0.816,0.5582 1.222,0.8403 4.422,3.0969 -1.711,-1.1492 3.184,2.2301 3.156,2.207 6.418,4.2457 9.629,6.3668 l 3.683,1.4378 c -3.265,-2.1207 -6.586,-4.157 -9.765,-6.4097 -2.438,-1.6922 -0.848,-0.5672 -3.071,-2.184 -0.386,-0.277 -0.754,-0.5859 -1.16,-0.8359 -1.98,-1.2231 -3.984,-2.5192 -6.14,-3.4372 -1.176,-0.4261 -2.399,-0.7351 -3.653,-0.5 -1.152,0.25 -2.152,0.777 -3.031,1.57 -1.031,0.8941 -1.996,1.875 -3.176,2.5898 -1.058,0.7301 -2.14,1.4531 -3.359,1.8942 2.918,2.5511 4.101,2.1679 6.808,0.305 z" /><path
       inkscape:connector-curvature="0"
       id="path74"
       style="fill:none;stroke:#000000;stroke-width:0.80000001;stroke-linecap:butt;stroke-linejoin:miter;stroke-miterlimit:4;stroke-opacity:1;stroke-dasharray:none"
       d="m 205.9335,21.447556 25.941,16.9418" /><path
       inkscape:connector-curvature="0"
       id="path76"
       style="fill:#000000;fill-opacity:1;fill-rule:evenodd;stroke:none"
       d="m 222.7735,36.686156 9.984,2.2969 -6.117,-8.2148 c 0.144,2.5859 -1.426,4.973 -3.867,5.9179 z" /><path
       inkscape:connector-curvature="0"
       id="path78"
       style="fill:none;stroke:#000000;stroke-width:0.80000001;stroke-linecap:butt;stroke-linejoin:miter;stroke-miterlimit:4;stroke-opacity:1;stroke-dasharray:none"
       d="m 193.6565,52.803356 35.949,-6.0668" /><path
       inkscape:connector-curvature="0"
       id="path80"
       style="fill:#000000;fill-opacity:1;fill-rule:evenodd;stroke:none"
       d="m 221.7615,51.659256 8.891,-5.0821 -10.067,-1.891 c 1.86,1.8051 2.328,4.6211 1.176,6.9731 z" /><path
       d="m 248.6946,45.647298 c 0,-4.24289 -3.43671,-7.679997 -7.67956,-7.679997 -4.23804,0 -7.67957,3.437107 -7.67957,7.679997 0,4.24175 3.44153,7.678857 7.67957,7.678857 4.24285,0 7.67956,-3.437107 7.67956,-7.678857 z"
       style="fill:none;stroke:#767676;stroke-width:0.6399979;stroke-linecap:round;stroke-linejoin:round;stroke-miterlimit:4;stroke-opacity:1;stroke-dasharray:none"
       id="path84"
       inkscape:connector-curvature="0" /><path
       d="m 296.0545,47.440319 c 0,-4.242993 -3.43768,-7.680101 -7.67957,-7.680101 -4.24189,0 -7.68053,3.437108 -7.68053,7.680101 0,4.24175 3.43864,7.678857 7.68053,7.678857 4.24189,0 7.67957,-3.437107 7.67957,-7.678857 z"
       style="fill:none;stroke:#767676;stroke-width:0.6399979;stroke-linecap:round;stroke-linejoin:round;stroke-miterlimit:4;stroke-opacity:1;stroke-dasharray:none"
       id="path94"
       inkscape:connector-curvature="0" /><path
       inkscape:connector-curvature="0"
       id="path96"
       style="fill:#007506;fill-opacity:1;fill-rule:nonzero;stroke:none"
       d="m 283.6915,51.690056 c 1.207,-0.7031 2.156,-1.7187 3.195,-2.6289 0.859,-0.7539 1.844,-1.184 2.957,-1.359 1.203,-0.157 2.375,0.1911 3.469,0.652 0.269,0.1211 0.543,0.2262 0.804,0.359 0.286,0.1449 1.114,0.6289 0.836,0.473 -0.812,-0.4531 -1.578,-0.9922 -2.433,-1.359 -0.453,-0.196 0.82,0.554 1.222,0.8391 4.422,3.0938 -1.707,-1.148 3.184,2.2309 3.156,2.2031 6.418,4.2461 9.629,6.3629 l 3.684,1.4382 c -3.262,-2.1211 -6.586,-4.157 -9.766,-6.407 -2.438,-1.691 -0.844,-0.566 -3.07,-2.1832 -0.387,-0.2809 -0.754,-0.5859 -1.161,-0.8398 -1.976,-1.2192 -3.984,-2.52 -6.14,-3.4379 -1.172,-0.4211 -2.399,-0.734 -3.652,-0.5 -1.149,0.25 -2.153,0.7777 -3.032,1.575 -1.031,0.8937 -1.996,1.8707 -3.172,2.5859 -1.062,0.7301 -2.144,1.457 -3.363,1.8938 2.918,2.555 4.102,2.1722 6.809,0.305 z" /><path
       inkscape:connector-curvature="0"
       id="path98"
       style="fill:none;stroke:#000000;stroke-width:0.80000001;stroke-linecap:butt;stroke-linejoin:miter;stroke-miterlimit:4;stroke-opacity:1;stroke-dasharray:none"
       d="m 251.4455,45.697556 27.308,0.2578" /><path
       inkscape:connector-curvature="0"
       id="path100"
       style="fill:#000000;fill-opacity:1;fill-rule:evenodd;stroke:none"
       d="m 270.1675,49.424056 9.649,-3.4449 -9.582,-3.625 c 1.515,2.1012 1.48,4.957 -0.067,7.0699 z" /><path
       inkscape:connector-curvature="0"
       id="path102"
       style="fill:none;stroke:#000000;stroke-width:0.80000001;stroke-linecap:butt;stroke-linejoin:miter;stroke-miterlimit:4;stroke-opacity:1;stroke-dasharray:none"
       d="m 193.8635,59.733456 50.781,17.793" /><path
       inkscape:connector-curvature="0"
       id="path104"
       style="fill:#000000;fill-opacity:1;fill-rule:evenodd;stroke:none"
       d="m 235.3985,78.049056 10.242,-0.1597 -7.902,-6.5161 c 0.757,2.4809 -0.196,5.1719 -2.34,6.6758 z" /><path
       d="m 261.68256,80.885052 c 0,-4.237918 -3.44154,-7.679997 -7.6786,-7.679997 -4.24286,0 -7.68053,3.442079 -7.68053,7.679997 0,4.24175 3.43767,7.6801 7.68053,7.6801 4.23706,0 7.6786,-3.43835 7.6786,-7.6801 z"
       style="fill:none;stroke:#767676;stroke-width:0.6399979;stroke-linecap:round;stroke-linejoin:round;stroke-miterlimit:4;stroke-opacity:1;stroke-dasharray:none"
       id="path114"
       inkscape:connector-curvature="0" /><path
       inkscape:connector-curvature="0"
       id="path116"
       style="fill:#007506;fill-opacity:1;fill-rule:nonzero;stroke:none"
       d="m 249.3165,85.135056 c 1.207,-0.6989 2.156,-1.7188 3.195,-2.625 0.859,-0.7539 1.844,-1.1868 2.961,-1.359 1.199,-0.1559 2.371,0.1871 3.469,0.648 0.265,0.1211 0.539,0.227 0.804,0.3602 0.286,0.1437 1.114,0.6277 0.832,0.4719 -0.812,-0.4489 -1.578,-0.9918 -2.429,-1.359 -0.457,-0.195 0.816,0.555 1.222,0.8398 4.418,3.0973 -1.711,-1.1488 3.184,2.2301 3.152,2.207 6.414,4.2461 9.629,6.3672 l 3.683,1.4379 c -3.265,-2.125 -6.585,-4.1559 -9.769,-6.4102 -2.438,-1.6918 -0.844,-0.5668 -3.066,-2.184 -0.387,-0.2769 -0.758,-0.5859 -1.165,-0.8359 -1.976,-1.2219 -3.98,-2.5188 -6.14,-3.4367 -1.172,-0.4262 -2.395,-0.7352 -3.649,-0.5 -1.152,0.25 -2.152,0.7769 -3.031,1.5699 -1.035,0.8949 -2,1.875 -3.176,2.5898 -1.058,0.7301 -2.14,1.4532 -3.363,1.8942 2.918,2.5508 4.106,2.1679 6.809,0.3008 z" /><path
       d="m 110.54631,64.545277 c 0,-4.242165 -3.43767,-7.679997 -7.67956,-7.679997 -4.242858,0 -7.679859,3.437832 -7.679859,7.679997 0,4.24175 3.437001,7.679686 7.679859,7.679686 4.24189,0 7.67956,-3.437936 7.67956,-7.679686 z"
       style="fill:none;stroke:#767676;stroke-width:0.6399979;stroke-linecap:round;stroke-linejoin:round;stroke-miterlimit:4;stroke-opacity:1;stroke-dasharray:none"
       id="path126"
       inkscape:connector-curvature="0" /><path
       inkscape:connector-curvature="0"
       id="path134"
       style="fill:none;stroke:#000000;stroke-width:0.80000001;stroke-linecap:butt;stroke-linejoin:miter;stroke-miterlimit:4;stroke-opacity:1;stroke-dasharray:none"
       d="m 48.0467,62.322556 38.7968,0.0039" /><path
       inkscape:connector-curvature="0"
       id="path136"
       style="fill:#000000;fill-opacity:1;fill-rule:evenodd;stroke:none"
       d="m 78.2885,65.873256 9.6179,-3.5351 -9.6179,-3.5352 c 1.5351,2.0864 1.5281,4.9453 0,7.0703 z" /><path
       inkscape:connector-curvature="0"
       id="path138"
       style="fill:none;stroke:#000000;stroke-width:0.80000001;stroke-linecap:butt;stroke-linejoin:miter;stroke-miterlimit:4;stroke-opacity:1;stroke-dasharray:none"
       d="M 98.9603,76.389356 90.6916,105.12316" /><path
       inkscape:connector-curvature="0"
       id="path140"
       style="fill:#000000;fill-opacity:1;fill-rule:evenodd;stroke:none"
       d="m 89.6443,95.920156 0.7383,10.219004 6.059,-8.262004 c -2.434,0.8989 -5.1762,0.102 -6.7973,-1.957 z" /><path
       d="m 95.316105,117.00586 c 0,-4.24227 -3.437097,-7.67979 -7.680048,-7.67979 -4.241793,0 -7.678891,3.43752 -7.678891,7.67979 0,4.24226 3.437098,7.67979 7.678891,7.67979 4.242951,0 7.680048,-3.43753 7.680048,-7.67979 z"
       style="fill:none;stroke:#767676;stroke-width:0.6399979;stroke-linecap:round;stroke-linejoin:round;stroke-miterlimit:4;stroke-opacity:1;stroke-dasharray:none"
       id="path144"
       inkscape:connector-curvature="0" /><path
       inkscape:connector-curvature="0"
       id="path146"
       style="fill:#007506;fill-opacity:1;fill-rule:nonzero;stroke:none"
       d="m 82.9525,121.25616 c 1.2039,-0.703 2.1531,-1.719 3.1961,-2.629 0.8551,-0.754 1.8399,-1.183 2.957,-1.359 1.1989,-0.152 2.3707,0.191 3.468,0.652 0.2699,0.121 0.543,0.227 0.8051,0.36 0.2848,0.144 1.1129,0.629 0.8359,0.472 -0.8121,-0.453 -1.582,-0.992 -2.4332,-1.359 -0.4539,-0.195 0.816,0.555 1.2223,0.84 4.4219,3.097 -1.7113,-1.149 3.184,2.23 3.1558,2.203 6.4178,4.246 9.6288,6.364 l 3.683,1.437 c -3.265,-2.121 -6.586,-4.156 -9.765,-6.406 -2.4378,-1.692 -0.848,-0.567 -3.071,-2.184 -0.386,-0.281 -0.754,-0.586 -1.1598,-0.836 -1.9801,-1.222 -3.9844,-2.523 -6.1402,-3.437 -1.1758,-0.426 -2.3989,-0.739 -3.6532,-0.504 -1.1519,0.25 -2.1519,0.777 -3.0308,1.574 -1.0352,0.895 -1.9961,1.871 -3.1758,2.586 -1.0582,0.73 -2.1402,1.457 -3.3594,1.895 2.9184,2.554 4.1012,2.171 6.8082,0.304 z" /><path
       inkscape:connector-curvature="0"
       id="path148"
       style="fill:none;stroke:#000000;stroke-width:0.80000001;stroke-linecap:butt;stroke-linejoin:miter;stroke-miterlimit:4;stroke-opacity:1;stroke-dasharray:none"
       d="m 113.6205,68.854556 48.661,21.2848" /><path
       inkscape:connector-curvature="0"
       id="path150"
       style="fill:#000000;fill-opacity:1;fill-rule:evenodd;stroke:none"
       d="m 153.0235,89.963156 10.222,0.6172 -7.39,-7.0934 c 0.57,2.5274 -0.582,5.1402 -2.832,6.4762 z" /><path
       inkscape:connector-curvature="0"
       id="path152"
       style="fill:none;stroke:#000000;stroke-width:0.80000001;stroke-linecap:butt;stroke-linejoin:miter;stroke-miterlimit:4;stroke-opacity:1;stroke-dasharray:none"
       d="m 110.7225,73.815456 18.203,34.612704" /><path
       inkscape:connector-curvature="0"
       id="path154"
       style="fill:#000000;fill-opacity:1;fill-rule:evenodd;stroke:none"
       d="m 121.8045,102.51016 7.602,6.863 -1.344,-10.156104 c -1.133,2.332104 -3.664,3.656104 -6.258,3.293104 z" /><path
       d="m 144.41297,117.29482 c 0,-4.24227 -3.43672,-7.67979 -7.67861,-7.67979 -4.23899,0 -7.68053,3.43752 -7.68053,7.67979 0,4.24227 3.44154,7.67979 7.68053,7.67979 4.24189,0 7.67861,-3.43752 7.67861,-7.67979 z"
       style="fill:none;stroke:#767676;stroke-width:0.6399979;stroke-linecap:round;stroke-linejoin:round;stroke-miterlimit:4;stroke-opacity:1;stroke-dasharray:none"
       id="path158"
       inkscape:connector-curvature="0" /><path
       d="m 179.61708,93.697095 c 0,-4.242164 -3.44153,-7.679272 -7.68053,-7.679272 -4.24189,0 -7.68246,3.437108 -7.68246,7.679272 0,4.239058 3.44057,7.679695 7.68246,7.679695 4.239,0 7.68053,-3.440637 7.68053,-7.679695 z"
       style="fill:none;stroke:#767676;stroke-width:0.6399979;stroke-linecap:round;stroke-linejoin:round;stroke-miterlimit:4;stroke-opacity:1;stroke-dasharray:none"
       id="path162"
       inkscape:connector-curvature="0" /><path
       d="m 262.24956,158.40733 c 0,-4.24123 -3.43768,-7.67876 -7.67957,-7.67876 -4.24189,0 -7.67957,3.43753 -7.67957,7.67876 0,4.2433 3.43768,7.68082 7.67957,7.68082 4.24189,0 7.67957,-3.43752 7.67957,-7.68082 z"
       style="fill:none;stroke:#767676;stroke-width:0.6399979;stroke-linecap:round;stroke-linejoin:round;stroke-miterlimit:4;stroke-opacity:1;stroke-dasharray:none"
       id="path172"
       inkscape:connector-curvature="0" /><path
       inkscape:connector-curvature="0"
       id="path174"
       style="fill:#007506;fill-opacity:1;fill-rule:nonzero;stroke:none"
       d="m 249.8865,162.65916 c 1.203,-0.704 2.152,-1.723 3.195,-2.629 0.856,-0.754 1.84,-1.188 2.957,-1.36 1.2,-0.156 2.371,0.192 3.469,0.653 0.266,0.117 0.543,0.226 0.805,0.359 0.285,0.145 1.113,0.625 0.832,0.473 -0.809,-0.453 -1.578,-0.996 -2.43,-1.364 -0.457,-0.195 0.817,0.559 1.223,0.84 4.418,3.098 -1.711,-1.148 3.183,2.231 3.153,2.207 6.418,4.25 9.629,6.367 l 3.684,1.437 c -3.266,-2.121 -6.586,-4.156 -9.766,-6.41 -2.441,-1.691 -0.847,-0.566 -3.07,-2.179 -0.387,-0.282 -0.758,-0.59 -1.16,-0.84 -1.981,-1.219 -3.985,-2.52 -6.141,-3.438 -1.176,-0.426 -2.398,-0.734 -3.652,-0.5 -1.153,0.25 -2.153,0.778 -3.031,1.571 -1.036,0.894 -1.997,1.875 -3.176,2.589 -1.059,0.731 -2.141,1.453 -3.36,1.895 2.914,2.551 4.102,2.172 6.809,0.305 z" /><path
       inkscape:connector-curvature="0"
       id="path176"
       style="fill:none;stroke:#000000;stroke-width:0.80000001;stroke-linecap:butt;stroke-linejoin:miter;stroke-miterlimit:4;stroke-opacity:1;stroke-dasharray:none"
       d="m 201.0385,142.83016 41.707,12.059" /><path
       inkscape:connector-curvature="0"
       id="path178"
       style="fill:#000000;fill-opacity:1;fill-rule:evenodd;stroke:none"
       d="m 233.5465,155.92416 10.215,-0.726 -8.254,-6.067 c 0.899,2.434 0.094,5.172 -1.961,6.793 z" /><path
       d="m 261.4492,113.60769 c 0,-4.24227 -3.43768,-7.67979 -7.68053,-7.67979 -4.24189,0 -7.6786,3.43752 -7.6786,7.67979 0,4.24227 3.43671,7.67876 7.6786,7.67876 4.24285,0 7.68053,-3.43649 7.68053,-7.67876 z"
       style="fill:none;stroke:#767676;stroke-width:0.6399979;stroke-linecap:round;stroke-linejoin:round;stroke-miterlimit:4;stroke-opacity:1;stroke-dasharray:none"
       id="path182"
       inkscape:connector-curvature="0" /><path
       inkscape:connector-curvature="0"
       id="path184"
       style="fill:#007506;fill-opacity:1;fill-rule:nonzero;stroke:none"
       d="m 249.0855,117.85816 c 1.203,-0.703 2.153,-1.719 3.196,-2.629 0.855,-0.754 1.839,-1.184 2.957,-1.359 1.199,-0.157 2.375,0.191 3.468,0.652 0.27,0.121 0.543,0.226 0.805,0.359 0.285,0.145 1.113,0.629 0.836,0.473 -0.813,-0.453 -1.582,-0.992 -2.434,-1.359 -0.453,-0.196 0.817,0.554 1.223,0.839 4.422,3.094 -1.711,-1.148 3.184,2.231 3.156,2.203 6.418,4.246 9.629,6.363 l 3.683,1.438 c -3.266,-2.121 -6.586,-4.157 -9.766,-6.407 -2.437,-1.695 -0.847,-0.566 -3.07,-2.183 -0.387,-0.281 -0.754,-0.586 -1.16,-0.84 -1.98,-1.219 -3.984,-2.52 -6.141,-3.438 -1.175,-0.421 -2.398,-0.734 -3.652,-0.5 -1.152,0.25 -2.152,0.778 -3.031,1.575 -1.031,0.894 -1.996,1.871 -3.176,2.586 -1.059,0.73 -2.141,1.457 -3.359,1.894 2.918,2.555 4.101,2.172 6.808,0.305 z" /><path
       inkscape:connector-curvature="0"
       id="path186"
       style="fill:none;stroke:#000000;stroke-width:0.80000001;stroke-linecap:butt;stroke-linejoin:miter;stroke-miterlimit:4;stroke-opacity:1;stroke-dasharray:none"
       d="m 181.8905,98.627156 57.957,12.402004" /><path
       inkscape:connector-curvature="0"
       id="path188"
       style="fill:#000000;fill-opacity:1;fill-rule:evenodd;stroke:none"
       d="m 230.7415,112.70916 10.141,-1.445 -8.664,-5.469 c 1.066,2.364 0.461,5.153 -1.477,6.914 z" /><path
       d="m 195.85853,138.49787 c 0,-4.24226 -3.44056,-7.67875 -7.67956,-7.67875 -4.24189,0 -7.67957,3.43649 -7.67957,7.67875 0,4.24227 3.43768,7.67979 7.67957,7.67979 4.239,0 7.67956,-3.43752 7.67956,-7.67979 z"
       style="fill:none;stroke:#767676;stroke-width:0.6399979;stroke-linecap:round;stroke-linejoin:round;stroke-miterlimit:4;stroke-opacity:1;stroke-dasharray:none"
       id="path192"
       inkscape:connector-curvature="0" /><path
       inkscape:connector-curvature="0"
       id="path194"
       style="fill:none;stroke:#000000;stroke-width:0.80000001;stroke-linecap:butt;stroke-linejoin:miter;stroke-miterlimit:4;stroke-opacity:1;stroke-dasharray:none"
       d="m 131.4025,127.17016 -10.465,18.543" /><path
       inkscape:connector-curvature="0"
       id="path196"
       style="fill:#000000;fill-opacity:1;fill-rule:evenodd;stroke:none"
       d="m 122.0465,136.51816 -1.644,10.113 7.804,-6.636 c -2.574,0.312 -5.054,-1.098 -6.16,-3.477 z" /><path
       d="m 123.3983,155.5757 c 0,-4.24227 -3.43767,-7.6829 -7.68053,-7.6829 -4.24189,0 -7.6786,3.44063 -7.6786,7.6829 0,4.23916 3.43671,7.67979 7.6786,7.67979 4.24286,0 7.68053,-3.44063 7.68053,-7.67979 z"
       style="fill:none;stroke:#767676;stroke-width:0.6399979;stroke-linecap:round;stroke-linejoin:round;stroke-miterlimit:4;stroke-opacity:1;stroke-dasharray:none"
       id="path206"
       inkscape:connector-curvature="0" /><path
       inkscape:connector-curvature="0"
       id="path208"
       style="fill:#007506;fill-opacity:1;fill-rule:nonzero;stroke:none"
       d="m 111.0315,159.82716 c 1.207,-0.704 2.156,-1.723 3.199,-2.629 0.855,-0.754 1.84,-1.188 2.957,-1.36 1.199,-0.156 2.371,0.192 3.469,0.649 0.265,0.121 0.543,0.226 0.804,0.359 0.285,0.149 1.113,0.629 0.832,0.473 -0.812,-0.449 -1.578,-0.992 -2.429,-1.36 -0.457,-0.195 0.816,0.559 1.222,0.84 4.418,3.098 -1.711,-1.148 3.184,2.231 3.152,2.207 6.414,4.246 9.629,6.367 l 3.683,1.437 c -3.265,-2.121 -6.586,-4.156 -9.765,-6.41 -2.442,-1.691 -0.848,-0.566 -3.071,-2.183 -0.386,-0.278 -0.757,-0.586 -1.164,-0.836 -1.976,-1.223 -3.98,-2.52 -6.14,-3.438 -1.172,-0.426 -2.395,-0.734 -3.649,-0.5 -1.152,0.25 -2.152,0.778 -3.031,1.57 -1.035,0.895 -2,1.875 -3.176,2.59 -1.058,0.731 -2.14,1.453 -3.363,1.895 2.918,2.551 4.105,2.168 6.809,0.305 z" /><path
       d="m 19.933414,108.86932 c 0,-4.24227 -3.437579,-7.67927 -7.680144,-7.67927 -4.2417739,0 -7.6792764,3.437 -7.6792764,7.67927 0,4.24227 3.4375025,7.67979 7.6792764,7.67979 4.242565,0 7.680144,-3.43752 7.680144,-7.67979 z"
       style="fill:none;stroke:#767676;stroke-width:0.6399979;stroke-linecap:round;stroke-linejoin:round;stroke-miterlimit:4;stroke-opacity:1;stroke-dasharray:none"
       id="path212"
       inkscape:connector-curvature="0" /><path
       inkscape:connector-curvature="0"
       id="path214"
       style="fill:#007506;fill-opacity:1;fill-rule:nonzero;stroke:none"
       d="m 7.57048,113.12016 c 1.20704,-0.704 2.15586,-1.723 3.19492,-2.629 0.859,-0.754 1.8441,-1.184 2.957,-1.36 1.2032,-0.156 2.375,0.192 3.4692,0.653 0.2687,0.117 0.5429,0.226 0.8039,0.359 0.2859,0.144 1.114,0.625 0.8359,0.473 -0.8121,-0.454 -1.5777,-0.996 -2.4328,-1.364 -0.4531,-0.195 0.8199,0.559 1.2219,0.84 4.4219,3.098 -1.707,-1.144 3.184,2.231 3.1558,2.207 6.4179,4.25 9.6289,6.367 l 3.6832,1.437 c -3.261,-2.121 -6.5852,-4.156 -9.7653,-6.406 -2.4378,-1.695 -0.8437,-0.57 -3.0699,-2.184 -0.3871,-0.281 -0.7539,-0.589 -1.1609,-0.839 -1.9762,-1.219 -3.984,-2.52 -6.1399,-3.438 -1.1722,-0.426 -2.3992,-0.734 -3.65308,-0.5 -1.14805,0.25 -2.15196,0.777 -3.03086,1.57 -1.03125,0.895 -1.9961,1.875 -3.17227,2.59 -1.06172,0.731 -2.14375,1.453 -3.36289,1.895 2.91797,2.551 4.10195,2.172 6.80898,0.305 z" /><path
       inkscape:connector-curvature="0"
       id="path216"
       style="fill:none;stroke:#000000;stroke-width:0.80000001;stroke-linecap:butt;stroke-linejoin:miter;stroke-miterlimit:4;stroke-opacity:1;stroke-dasharray:none"
       d="m 30.7224,71.772556 -12.7968,26.1988" /><path
       inkscape:connector-curvature="0"
       id="path218"
       style="fill:#000000;fill-opacity:1;fill-rule:evenodd;stroke:none"
       d="m 18.4885,88.729156 -1.043,10.191 7.398,-7.0859 c -2.5511,0.4648 -5.1129,-0.7973 -6.355,-3.1051 z" /><path
       inkscape:connector-curvature="0"
       id="path226"
       style="fill:none;stroke:#000000;stroke-width:0.80000001;stroke-linecap:butt;stroke-linejoin:miter;stroke-miterlimit:4;stroke-opacity:1;stroke-dasharray:none"
       d="m 116.6955,22.803356 -8.793,29.1211" /><path
       inkscape:connector-curvature="0"
       id="path228"
       style="fill:#000000;fill-opacity:1;fill-rule:evenodd;stroke:none"
       d="m 106.9765,42.713156 0.605,10.2269 6.164,-8.1839 c -2.445,0.8671 -5.175,0.0308 -6.769,-2.043 z" /><path
       d="m 63.687268,145.5262 c 0,-4.2433 -3.437483,-7.68082 -7.680048,-7.68082 -4.241793,0 -7.679373,3.43752 -7.679373,7.68082 0,4.24124 3.43758,7.67876 7.679373,7.67876 4.242565,0 7.680048,-3.43752 7.680048,-7.67876 z"
       style="fill:none;stroke:#767676;stroke-width:0.6399979;stroke-linecap:round;stroke-linejoin:round;stroke-miterlimit:4;stroke-opacity:1;stroke-dasharray:none"
       id="path232"
       inkscape:connector-curvature="0" /><path
       inkscape:connector-curvature="0"
       id="path234"
       style="fill:#007506;fill-opacity:1;fill-rule:nonzero;stroke:none"
       d="m 51.3236,149.77616 c 1.2039,-0.703 2.1527,-1.719 3.1957,-2.629 0.8551,-0.754 1.8402,-1.184 2.957,-1.36 1.1993,-0.156 2.3711,0.192 3.4692,0.653 0.2648,0.117 0.543,0.226 0.8039,0.359 0.2851,0.145 1.1141,0.629 0.832,0.473 -0.8078,-0.453 -1.5777,-0.992 -2.4289,-1.36 -0.457,-0.199 0.816,0.555 1.2219,0.84 4.418,3.094 -1.7109,-1.148 3.184,2.231 3.1562,2.203 6.4179,4.246 9.6293,6.363 l 3.6828,1.438 c -3.2649,-2.122 -6.586,-4.157 -9.7649,-6.407 -2.4421,-1.695 -0.848,-0.566 -3.0711,-2.183 -0.3859,-0.282 -0.7531,-0.586 -1.1601,-0.84 -1.9801,-1.219 -3.984,-2.52 -6.1399,-3.438 -1.1761,-0.425 -2.3992,-0.734 -3.6531,-0.5 -1.1519,0.25 -2.1519,0.778 -3.0308,1.575 -1.0352,0.894 -1.9961,1.871 -3.1762,2.586 -1.0578,0.73 -2.1399,1.457 -3.359,1.894 2.9141,2.555 4.1012,2.172 6.8082,0.305 z" /><path
       d="m 63.214189,104.49344 c 0,-4.2374 -3.437097,-7.67834 -7.67889,-7.67834 -4.242951,0 -7.680048,3.44094 -7.680048,7.67834 0,4.24227 3.437097,7.68394 7.680048,7.68394 4.241793,0 7.67889,-3.44167 7.67889,-7.68394 z"
       style="fill:none;stroke:#767676;stroke-width:0.6399979;stroke-linecap:round;stroke-linejoin:round;stroke-miterlimit:4;stroke-opacity:1;stroke-dasharray:none"
       id="path238"
       inkscape:connector-curvature="0" /><path
       inkscape:connector-curvature="0"
       id="path246"
       style="fill:none;stroke:#000000;stroke-width:0.80000001;stroke-linecap:butt;stroke-linejoin:miter;stroke-miterlimit:4;stroke-opacity:1;stroke-dasharray:none"
       d="m 37.5736,72.721356 10,21.4019" /><path
       inkscape:connector-curvature="0"
       id="path248"
       style="fill:#000000;fill-opacity:1;fill-rule:evenodd;stroke:none"
       d="m 40.7385,87.877156 7.273,7.2149 -0.8672,-10.2109 c -1.2418,2.2781 -3.8316,3.4769 -6.4058,2.996 z" /><path
       inkscape:connector-curvature="0"
       id="path250"
       style="fill:none;stroke:#000000;stroke-width:0.80000001;stroke-linecap:butt;stroke-linejoin:miter;stroke-miterlimit:4;stroke-opacity:1;stroke-dasharray:none"
       d="m 54.1166,114.31116 0,21.402" /><path
       inkscape:connector-curvature="0"
       id="path252"
       style="fill:#000000;fill-opacity:1;fill-rule:evenodd;stroke:none"
       d="m 50.5666,127.15916 3.5347,9.617 3.5391,-9.617 c -2.0898,1.535 -4.9449,1.527 -7.0738,0 z" /><path
       inkscape:connector-curvature="0"
       id="path254"
       style="fill:none;stroke:#000000;stroke-width:0.80000001;stroke-linecap:butt;stroke-linejoin:miter;stroke-miterlimit:4;stroke-opacity:1;stroke-dasharray:none"
       d="m 205.3045,13.365456 40.598,0.4028" /><path
       inkscape:connector-curvature="0"
       id="path256"
       style="fill:#000000;fill-opacity:1;fill-rule:evenodd;stroke:none"
       d="m 237.3165,17.233056 9.648,-3.4418 -9.578,-3.62929 c 1.516,2.10239 1.477,4.95819 -0.07,7.07109 z" /><path
       inkscape:connector-curvature="0"
       id="path258"
       style="fill:none;stroke:#000000;stroke-width:0.80000001;stroke-linecap:butt;stroke-linejoin:miter;stroke-miterlimit:4;stroke-opacity:1;stroke-dasharray:none"
       d="m 135.4845,13.365456 40.597,0.4028" /><path
       inkscape:connector-curvature="0"
       id="path260"
       style="fill:#000000;fill-opacity:1;fill-rule:evenodd;stroke:none"
       d="m 167.4955,17.233056 9.649,-3.4418 -9.578,-3.62929 c 1.515,2.10239 1.476,4.95819 -0.071,7.07109 z" /><path
       inkscape:connector-curvature="0"
       id="path268"
       style="fill:none;stroke:#000000;stroke-width:0.80000001;stroke-linecap:butt;stroke-linejoin:miter;stroke-miterlimit:4;stroke-opacity:1;stroke-dasharray:none"
       d="m 145.5505,123.74416 32.508,11.66" /><path
       inkscape:connector-curvature="0"
       id="path270"
       style="fill:#000000;fill-opacity:1;fill-rule:evenodd;stroke:none"
       d="m 168.8085,135.85816 10.246,-0.082 -7.855,-6.574 c 0.738,2.484 -0.235,5.168 -2.391,6.656 z" /><path
       inkscape:connector-curvature="0"
       id="path272"
       style="fill:none;stroke:#000000;stroke-width:0.80000001;stroke-linecap:butt;stroke-linejoin:miter;stroke-miterlimit:4;stroke-opacity:1;stroke-dasharray:none"
       d="m 176.0345,104.16616 8.336,22.942" /><path
       inkscape:connector-curvature="0"
       id="path274"
       style="fill:#000000;fill-opacity:1;fill-rule:evenodd;stroke:none"
       d="m 178.1135,120.28416 6.609,7.828 0.039,-10.242 c -1.438,2.156 -4.125,3.121 -6.648,2.414 z" /><path
       inkscape:connector-curvature="0"
       id="path276"
       style="fill:none;stroke:#000000;stroke-width:0.80000001;stroke-linecap:butt;stroke-linejoin:miter;stroke-miterlimit:4;stroke-opacity:1;stroke-dasharray:none"
       d="m 179.8945,63.830356 -5.391,19.6211" /><path
       inkscape:connector-curvature="0"
       id="path278"
       style="fill:#000000;fill-opacity:1;fill-rule:evenodd;stroke:none"
       d="m 173.3475,74.264356 0.859,10.207 5.957,-8.3363 c -2.418,0.93 -5.172,0.164 -6.816,-1.8707 z" /><path
       inkscape:connector-curvature="0"
       id="path280"
       style="fill:none;stroke:#000000;stroke-width:0.80000001;stroke-linecap:butt;stroke-linejoin:miter;stroke-miterlimit:4;stroke-opacity:1;stroke-dasharray:none"
       d="m 185.1795,20.854556 -43.293,87.784604" /><path
       inkscape:connector-curvature="0"
       id="path282"
       style="fill:#000000;fill-opacity:1;fill-rule:evenodd;stroke:none"
       d="m 142.4885,99.401056 -1.082,10.187104 7.421,-7.062 c -2.55,0.457 -5.109,-0.817 -6.339,-3.125104 z" /><path
       inkscape:connector-curvature="0"
       id="path284"
       style="fill:none;stroke:#000000;stroke-width:0.80000001;stroke-linecap:butt;stroke-linejoin:miter;stroke-miterlimit:4;stroke-opacity:1;stroke-dasharray:none"
       d="m 236.5465,54.572556 -42.734,73.812604" /><path
       inkscape:connector-curvature="0"
       id="path286"
       style="fill:#000000;fill-opacity:1;fill-rule:evenodd;stroke:none"
       d="m 195.0275,119.20516 -1.758,10.09 7.875,-6.547 c -2.574,0.282 -5.043,-1.156 -6.117,-3.543 z" /><path
       style="fill:none;stroke:#c92424;stroke-width:1.60000002;stroke-linecap:round;stroke-linejoin:miter;stroke-miterlimit:4;stroke-opacity:1;stroke-dasharray:none"
       d="m 57.061537,13.182768 c 90.489753,-9.093872 119.027653,24.04572 128.149743,40.835008 6.71545,12.359856 -5.05006,25.514176 -12.61014,39.282864 -17.75306,32.33248 18.42302,60.25383 82.50358,61.41581"
       id="path3775"
       inkscape:connector-curvature="0"
       sodipodi:nodetypes="cssc" /><text
       style="font-size:12px"
       id="text60-5-8"
       x="47.816055"
       y="-33.115345"
       transform="scale(1,-1)"><tspan
         style="font-size:8px;font-style:oblique;font-variant:normal;font-weight:bold;writing-mode:lr-tb;fill:#008080;fill-opacity:1;fill-rule:nonzero;stroke:none;font-family:DejaVu Sans;-inkscape-font-specification:DejaVuSans-BoldOblique"
         x="47.816055"
         sodipodi:role="line"
         id="tspan62-1-3"
         y="-33.115345">10</tspan></text>
<text
       style="font-size:12px"
       id="text60-5-9"
       x="59.680462"
       y="-66.854752"
       transform="scale(1,-1)"><tspan
         style="font-size:8px;font-style:oblique;font-variant:normal;font-weight:bold;writing-mode:lr-tb;fill:#008080;fill-opacity:1;fill-rule:nonzero;stroke:none;font-family:DejaVu Sans;-inkscape-font-specification:DejaVuSans-BoldOblique"
         x="59.680462"
         sodipodi:role="line"
         id="tspan62-1-9"
         y="-66.854752">1</tspan></text>
<text
       style="font-size:12px"
       id="text60-5-8-1"
       x="75.252495"
       y="-16.801786"
       transform="scale(1,-1)"><tspan
         style="font-size:8px;font-style:oblique;font-variant:normal;font-weight:bold;writing-mode:lr-tb;fill:#008080;fill-opacity:1;fill-rule:nonzero;stroke:none;font-family:DejaVu Sans;-inkscape-font-specification:DejaVuSans-BoldOblique"
         x="75.252495"
         sodipodi:role="line"
         id="tspan62-1-3-6"
         y="-16.801786">10</tspan></text>
<text
       style="font-size:12px"
       id="text60-5-8-1-7"
       x="149.40504"
       y="-6.0496678"
       transform="scale(1,-1)"><tspan
         style="font-size:8px;font-style:oblique;font-variant:normal;font-weight:bold;writing-mode:lr-tb;fill:#008080;fill-opacity:1;fill-rule:nonzero;stroke:none;font-family:DejaVu Sans;-inkscape-font-specification:DejaVuSans-BoldOblique"
         x="149.40504"
         sodipodi:role="line"
         id="tspan62-1-3-6-8"
         y="-6.0496678">5</tspan></text>
<text
       style="font-size:12px"
       id="text60-5-8-1-0"
       x="219.10843"
       y="-6.0496678"
       transform="scale(1,-1)"><tspan
         style="font-size:8px;font-style:oblique;font-variant:normal;font-weight:bold;writing-mode:lr-tb;fill:#008080;fill-opacity:1;fill-rule:nonzero;stroke:none;font-family:DejaVu Sans;-inkscape-font-specification:DejaVuSans-BoldOblique"
         x="219.10843"
         sodipodi:role="line"
         id="tspan62-1-3-6-9"
         y="-6.0496678">5</tspan></text>
<text
       xml:space="preserve"
       style="font-size:12px;font-style:italic;font-weight:normal;line-height:125%;letter-spacing:0px;word-spacing:0px;fill:#000000;fill-opacity:1;stroke:none;font-family:Sans;-inkscape-font-specification:Sans Italic"
       x="271.12024"
       y="187.53995"
       id="text5699"
       sodipodi:linespacing="125%"
       transform="matrix(0.8,0,0,-0.8,0.7615,174.195)"><tspan
         sodipodi:role="line"
         id="tspan5701"></tspan></text>
<text
       style="font-size:12px"
       id="text60-5-8-1-0-1"
       x="215.39955"
       y="-22.045198"
       transform="scale(1,-1)"><tspan
         style="font-size:8px;font-style:oblique;font-variant:normal;font-weight:bold;writing-mode:lr-tb;fill:#008080;fill-opacity:1;fill-rule:nonzero;stroke:none;font-family:DejaVu Sans;-inkscape-font-specification:DejaVuSans-BoldOblique"
         x="215.39955"
         sodipodi:role="line"
         id="tspan62-1-3-6-9-0"
         y="-22.045198">2</tspan></text>
<text
       style="font-size:12px"
       id="text60-5-8-1-0-7"
       x="202.23747"
       y="-43.734818"
       transform="scale(1,-1)"><tspan
         style="font-size:8px;font-style:oblique;font-variant:normal;font-weight:bold;writing-mode:lr-tb;fill:#008080;fill-opacity:1;fill-rule:nonzero;stroke:none;font-family:DejaVu Sans;-inkscape-font-specification:DejaVuSans-BoldOblique"
         x="202.23747"
         sodipodi:role="line"
         id="tspan62-1-3-6-9-3"
         y="-43.734818">2</tspan></text>
<text
       style="font-size:12px"
       id="text60-5-8-1-0-77"
       x="143.47157"
       y="-34.836514"
       transform="scale(1,-1)"><tspan
         style="font-size:8px;font-style:oblique;font-variant:normal;font-weight:bold;writing-mode:lr-tb;fill:#008080;fill-opacity:1;fill-rule:nonzero;stroke:none;font-family:DejaVu Sans;-inkscape-font-specification:DejaVuSans-BoldOblique"
         x="143.47157"
         sodipodi:role="line"
         id="tspan62-1-3-6-9-7"
         y="-34.836514">8</tspan></text>
<text
       style="font-size:12px"
       id="text60-5-8-1-0-10"
       x="106.58069"
       y="-31.499647"
       transform="scale(1,-1)"><tspan
         style="font-size:8px;font-style:oblique;font-variant:normal;font-weight:bold;writing-mode:lr-tb;fill:#008080;fill-opacity:1;fill-rule:nonzero;stroke:none;font-family:DejaVu Sans;-inkscape-font-specification:DejaVuSans-BoldOblique"
         x="106.58069"
         sodipodi:role="line"
         id="tspan62-1-3-6-9-4"
         y="-31.499647">7</tspan></text>
<text
       style="font-size:12px"
       id="text60-5-8-1-0-9"
       x="127.15802"
       y="-76.918083"
       transform="scale(1,-1)"><tspan
         style="font-size:8px;font-style:oblique;font-variant:normal;font-weight:bold;writing-mode:lr-tb;fill:#008080;fill-opacity:1;fill-rule:nonzero;stroke:none;font-family:DejaVu Sans;-inkscape-font-specification:DejaVuSans-BoldOblique"
         x="127.15802"
         sodipodi:role="line"
         id="tspan62-1-3-6-9-1"
         y="-76.918083">5</tspan></text>
<text
       style="font-size:12px"
       id="text60-5-8-1-0-90"
       x="113.25442"
       y="-87.855583"
       transform="scale(1,-1)"><tspan
         style="font-size:8px;font-style:oblique;font-variant:normal;font-weight:bold;writing-mode:lr-tb;fill:#008080;fill-opacity:1;fill-rule:nonzero;stroke:none;font-family:DejaVu Sans;-inkscape-font-specification:DejaVuSans-BoldOblique"
         x="113.25442"
         sodipodi:role="line"
         id="tspan62-1-3-6-9-9"
         y="-87.855583">2</tspan></text>
<text
       style="font-size:12px"
       id="text60-5-8-1-0-0"
       x="90.452507"
       y="-84.333336"
       transform="scale(1,-1)"><tspan
         style="font-size:8px;font-style:oblique;font-variant:normal;font-weight:bold;writing-mode:lr-tb;fill:#008080;fill-opacity:1;fill-rule:nonzero;stroke:none;font-family:DejaVu Sans;-inkscape-font-specification:DejaVuSans-BoldOblique"
         x="90.452507"
         sodipodi:role="line"
         id="tspan62-1-3-6-9-5"
         y="-84.333336">5</tspan></text>
<text
       style="font-size:12px"
       id="text60-5-8-1-0-2"
       x="155.89212"
       y="-63.19986"
       transform="scale(1,-1)"><tspan
         style="font-size:8px;font-style:oblique;font-variant:normal;font-weight:bold;writing-mode:lr-tb;fill:#008080;fill-opacity:1;fill-rule:nonzero;stroke:none;font-family:DejaVu Sans;-inkscape-font-specification:DejaVuSans-BoldOblique"
         x="155.89212"
         sodipodi:role="line"
         id="tspan62-1-3-6-9-16"
         y="-63.19986">5</tspan></text>
<text
       style="font-size:12px"
       id="text60-5-8-1-0-02"
       x="41.32645"
       y="-76.918083"
       transform="scale(1,-1)"><tspan
         style="font-size:8px;font-style:oblique;font-variant:normal;font-weight:bold;writing-mode:lr-tb;fill:#008080;fill-opacity:1;fill-rule:nonzero;stroke:none;font-family:DejaVu Sans;-inkscape-font-specification:DejaVuSans-BoldOblique"
         x="41.32645"
         sodipodi:role="line"
         id="tspan62-1-3-6-9-12"
         y="-76.918083">5</tspan></text>
<text
       style="font-size:12px"
       id="text60-5-8-1-0-15"
       x="18.15378"
       y="-80.069565"
       transform="scale(1,-1)"><tspan
         style="font-size:8px;font-style:oblique;font-variant:normal;font-weight:bold;writing-mode:lr-tb;fill:#008080;fill-opacity:1;fill-rule:nonzero;stroke:none;font-family:DejaVu Sans;-inkscape-font-specification:DejaVuSans-BoldOblique"
         x="18.15378"
         sodipodi:role="line"
         id="tspan62-1-3-6-9-8"
         y="-80.069565">8</tspan></text>
<text
       style="font-size:12px"
       id="text60-5-8-1-0-05"
       x="55.04467"
       y="-120.85346"
       transform="scale(1,-1)"><tspan
         style="font-size:8px;font-style:oblique;font-variant:normal;font-weight:bold;writing-mode:lr-tb;fill:#008080;fill-opacity:1;fill-rule:nonzero;stroke:none;font-family:DejaVu Sans;-inkscape-font-specification:DejaVuSans-BoldOblique"
         x="55.04467"
         sodipodi:role="line"
         id="tspan62-1-3-6-9-127"
         y="-120.85346">3</tspan></text>
<text
       style="font-size:12px"
       id="text60-5-8-1-0-3"
       x="126.60188"
       y="-131.97635"
       transform="scale(1,-1)"><tspan
         style="font-size:8px;font-style:oblique;font-variant:normal;font-weight:bold;writing-mode:lr-tb;fill:#008080;fill-opacity:1;fill-rule:nonzero;stroke:none;font-family:DejaVu Sans;-inkscape-font-specification:DejaVuSans-BoldOblique"
         x="126.60188"
         sodipodi:role="line"
         id="tspan62-1-3-6-9-122"
         y="-131.97635">7</tspan></text>
<text
       style="font-size:12px"
       id="text60-5-8-1-0-09"
       x="153.48218"
       y="-129.19562"
       transform="scale(1,-1)"><tspan
         style="font-size:8px;font-style:oblique;font-variant:normal;font-weight:bold;writing-mode:lr-tb;fill:#008080;fill-opacity:1;fill-rule:nonzero;stroke:none;font-family:DejaVu Sans;-inkscape-font-specification:DejaVuSans-BoldOblique"
         x="153.48218"
         sodipodi:role="line"
         id="tspan62-1-3-6-9-31"
         y="-129.19562">1</tspan></text>
<text
       style="font-size:12px"
       id="text60-5-8-1-0-34"
       x="179.9917"
       y="-112.5113"
       transform="scale(1,-1)"><tspan
         style="font-size:8px;font-style:oblique;font-variant:normal;font-weight:bold;writing-mode:lr-tb;fill:#008080;fill-opacity:1;fill-rule:nonzero;stroke:none;font-family:DejaVu Sans;-inkscape-font-specification:DejaVuSans-BoldOblique"
         x="179.9917"
         sodipodi:role="line"
         id="tspan62-1-3-6-9-43"
         y="-112.5113">2</tspan></text>
<text
       style="font-size:12px"
       id="text60-5-8-1-0-4"
       x="219.29254"
       y="-85.816383"
       transform="scale(1,-1)"><tspan
         style="font-size:8px;font-style:oblique;font-variant:normal;font-weight:bold;writing-mode:lr-tb;fill:#008080;fill-opacity:1;fill-rule:nonzero;stroke:none;font-family:DejaVu Sans;-inkscape-font-specification:DejaVuSans-BoldOblique"
         x="219.29254"
         sodipodi:role="line"
         id="tspan62-1-3-6-9-45"
         y="-85.816383">5</tspan></text>
<text
       style="font-size:12px"
       id="text60-5-8-1-0-96"
       x="194.82222"
       y="-101.75919"
       transform="scale(1,-1)"><tspan
         style="font-size:8px;font-style:oblique;font-variant:normal;font-weight:bold;writing-mode:lr-tb;fill:#008080;fill-opacity:1;fill-rule:nonzero;stroke:none;font-family:DejaVu Sans;-inkscape-font-specification:DejaVuSans-BoldOblique"
         x="194.82222"
         sodipodi:role="line"
         id="tspan62-1-3-6-9-6"
         y="-101.75919">6</tspan></text>
<text
       style="font-size:12px"
       id="text60-5-8-1-0-78"
       x="210.02348"
       y="-65.795197"
       transform="scale(1,-1)"><tspan
         style="font-size:8px;font-style:oblique;font-variant:normal;font-weight:bold;writing-mode:lr-tb;fill:#008080;fill-opacity:1;fill-rule:nonzero;stroke:none;font-family:DejaVu Sans;-inkscape-font-specification:DejaVuSans-BoldOblique"
         x="210.02348"
         sodipodi:role="line"
         id="tspan62-1-3-6-9-81"
         y="-65.795197">5</tspan></text>
<text
       style="font-size:12px"
       id="text60-5-8-1-0-22"
       x="258.59341"
       y="-46.515537"
       transform="scale(1,-1)"><tspan
         style="font-size:8px;font-style:oblique;font-variant:normal;font-weight:bold;writing-mode:lr-tb;fill:#008080;fill-opacity:1;fill-rule:nonzero;stroke:none;font-family:DejaVu Sans;-inkscape-font-specification:DejaVuSans-BoldOblique"
         x="258.59341"
         sodipodi:role="line"
         id="tspan62-1-3-6-9-63"
         y="-46.515537">7</tspan></text>
<text
       style="font-size:12px"
       id="text60-5-8-1-0-21"
       x="215.77031"
       y="-141.06003"
       transform="scale(1,-1)"><tspan
         style="font-size:8px;font-style:oblique;font-variant:normal;font-weight:bold;writing-mode:lr-tb;fill:#008080;fill-opacity:1;fill-rule:nonzero;stroke:none;font-family:DejaVu Sans;-inkscape-font-specification:DejaVuSans-BoldOblique"
         x="215.77031"
         sodipodi:role="line"
         id="tspan62-1-3-6-9-46"
         y="-141.06003">5</tspan></text>
<text
       style="font-size:12px"
       id="text60-5-8-1-0-8"
       x="172.39107"
       y="-66.907486"
       transform="scale(1,-1)"><tspan
         style="font-size:8px;font-style:oblique;font-variant:normal;font-weight:bold;writing-mode:lr-tb;fill:#008080;fill-opacity:1;fill-rule:nonzero;stroke:none;font-family:DejaVu Sans;-inkscape-font-specification:DejaVuSans-BoldOblique"
         x="172.39107"
         sodipodi:role="line"
         id="tspan62-1-3-6-9-97"
         y="-66.907486">5</tspan></text>
</g></svg>