<?xml version="1.0" encoding="UTF-8" standalone="no"?>
<!-- Created with Inkscape (http://www.inkscape.org/) -->

<svg
   xmlns:dc="http://purl.org/dc/elements/1.1/"
   xmlns:cc="http://creativecommons.org/ns#"
   xmlns:rdf="http://www.w3.org/1999/02/22-rdf-syntax-ns#"
   xmlns:svg="http://www.w3.org/2000/svg"
   xmlns="http://www.w3.org/2000/svg"
   xmlns:sodipodi="http://sodipodi.sourceforge.net/DTD/sodipodi-0.dtd"
   xmlns:inkscape="http://www.inkscape.org/namespaces/inkscape"
   id="svg2"
   version="1.1"
   inkscape:version="0.48.4 r9939"
   width="386.84625"
   height="216.7375"
   xml:space="preserve"
   sodipodi:docname="to_do_list_graph.svg"><metadata
     id="metadata8"><rdf:RDF><cc:Work
         rdf:about=""><dc:format>image/svg+xml</dc:format><dc:type
           rdf:resource="http://purl.org/dc/dcmitype/StillImage" /></cc:Work></rdf:RDF></metadata><defs
     id="defs6" /><sodipodi:namedview
     pagecolor="#ffffff"
     bordercolor="#666666"
     borderopacity="1"
     objecttolerance="10"
     gridtolerance="10"
     guidetolerance="10"
     inkscape:pageopacity="0"
     inkscape:pageshadow="2"
     inkscape:window-width="1680"
     inkscape:window-height="1030"
     id="namedview4"
     showgrid="false"
     inkscape:zoom="2.1577143"
     inkscape:cx="208.23975"
     inkscape:cy="79.288301"
     inkscape:window-x="-2"
     inkscape:window-y="-3"
     inkscape:window-maximized="1"
     inkscape:current-layer="g10"
     fit-margin-top="0"
     fit-margin-left="0"
     fit-margin-right="0"
     fit-margin-bottom="0" /><g
     id="g10"
     inkscape:groupmode="layer"
     inkscape:label="ink_ext_XXXXXX"
     transform="matrix(1.25,0,0,-1.25,-0.951875,217.74375)"><path
       inkscape:connector-curvature="0"
       id="path14"
       style="fill:none;stroke:#767676;stroke-width:0.63999999;stroke-linecap:round;stroke-linejoin:round;stroke-miterlimit:4;stroke-opacity:1;stroke-dasharray:none"
       d="m 2.076,1.125 306.848,0 0,172.75 -306.848,0 0,-172.75 z" /><g
       id="g5312"
       transform="translate(0.7615,0.47915568)"><path
         inkscape:connector-curvature="0"
         id="path18"
         style="fill:none;stroke:#767676;stroke-width:0.6399979;stroke-linecap:round;stroke-linejoin:round;stroke-miterlimit:4;stroke-opacity:1;stroke-dasharray:none"
         d="m 58.300382,13.218352 c 0,-4.2422159 -3.437483,-7.6793128 -7.679277,-7.6793128 -4.242564,0 -7.680144,3.4370969 -7.680144,7.6793128 0,4.238954 3.43758,7.679583 7.680144,7.679583 4.241794,0 7.679277,-3.440629 7.679277,-7.679583 z" /><text
         y="-9.7179699"
         x="47.340599"
         id="text22"
         transform="scale(1,-1)"><tspan
           id="tspan24"
           y="-9.7179699"
           x="47.340599"
           style="font-size:9.60000038px;font-style:oblique;font-variant:normal;writing-mode:lr-tb;fill:#000000;fill-opacity:1;fill-rule:nonzero;stroke:none;font-family:DejaVu Sans;-inkscape-font-specification:DejaVuSans-Oblique">A</tspan></text>
<path
         d="m 49.1641,24.7652 -11.602,27"
         style="fill:none;stroke:#000000;stroke-width:0.80000001;stroke-linecap:butt;stroke-linejoin:miter;stroke-miterlimit:4;stroke-opacity:1;stroke-dasharray:none"
         id="path26"
         inkscape:connector-curvature="0" /><path
         d="m 37.6762,42.5039 -0.5473,10.2301 7.0473,-7.4371 c -2.5282,0.5859 -5.1492,-0.5508 -6.5,-2.793 z"
         style="fill:#000000;fill-opacity:1;fill-rule:evenodd;stroke:none"
         id="path28"
         inkscape:connector-curvature="0" /><path
         d="M 64.902,12.8863 105.5,13.2891"
         style="fill:none;stroke:#000000;stroke-width:0.80000001;stroke-linecap:butt;stroke-linejoin:miter;stroke-miterlimit:4;stroke-opacity:1;stroke-dasharray:none"
         id="path38"
         inkscape:connector-curvature="0" /><path
         d="m 96.9141,16.7539 9.6479,-3.4418 -9.5819,-3.62929 c 1.516,2.10239 1.4808,4.95819 -0.066,7.07109 z"
         style="fill:#000000;fill-opacity:1;fill-rule:evenodd;stroke:none"
         id="path40"
         inkscape:connector-curvature="0" /><path
         inkscape:connector-curvature="0"
         id="path44"
         style="fill:none;stroke:#767676;stroke-width:0.6399979;stroke-linecap:round;stroke-linejoin:round;stroke-miterlimit:4;stroke-opacity:1;stroke-dasharray:none"
         d="m 37.902283,61.859126 c 0,-4.242164 -3.437484,-7.6801 -7.680048,-7.6801 -4.241794,0 -7.679277,3.437936 -7.679277,7.6801 0,4.24175 3.437483,7.679583 7.679277,7.679583 4.242564,0 7.680048,-3.437833 7.680048,-7.679583 z" /><path
         inkscape:connector-curvature="0"
         id="path48"
         style="fill:none;stroke:#767676;stroke-width:0.6399979;stroke-linecap:round;stroke-linejoin:round;stroke-miterlimit:4;stroke-opacity:1;stroke-dasharray:none"
         d="m 193.45293,56.418127 c 0,-4.242993 -3.43768,-7.6801 -7.67957,-7.6801 -4.24189,0 -7.67956,3.437107 -7.67956,7.6801 0,4.241751 3.43767,7.678858 7.67956,7.678858 4.24189,0 7.67957,-3.437107 7.67957,-7.678858 z" /><path
         inkscape:connector-curvature="0"
         id="path52"
         style="fill:none;stroke:#767676;stroke-width:0.6399979;stroke-linecap:round;stroke-linejoin:round;stroke-miterlimit:4;stroke-opacity:1;stroke-dasharray:none"
         d="m 128.12166,13.218352 c 0,-4.2422159 -3.43865,-7.6793128 -7.68053,-7.6793128 -4.24189,0 -7.67957,3.4370969 -7.67957,7.6793128 0,4.238954 3.43768,7.679583 7.67957,7.679583 4.24188,0 7.68053,-3.440629 7.68053,-7.679583 z" /><path
         d="m 126.027,22.1254 51.254,28.816"
         style="fill:none;stroke:#000000;stroke-width:0.80000001;stroke-linecap:butt;stroke-linejoin:miter;stroke-miterlimit:4;stroke-opacity:1;stroke-dasharray:none"
         id="path54"
         inkscape:connector-curvature="0" /><path
         d="m 168.086,49.8441 10.113,1.6321 -6.648,-7.7961 c 0.316,2.5738 -1.09,5.0578 -3.465,6.164 z"
         style="fill:#000000;fill-opacity:1;fill-rule:evenodd;stroke:none"
         id="path56"
         inkscape:connector-curvature="0" /><text
         y="-30.174999"
         x="145.575"
         id="text60"
         transform="scale(1,-1)"><tspan
           id="tspan62"
           sodipodi:role="line"
           y="-30.174999"
           x="145.575 150.99899 156.159 161.655 164.439"
           style="font-size:8px;font-style:oblique;font-variant:normal;font-weight:bold;writing-mode:lr-tb;fill:#008080;fill-opacity:1;fill-rule:nonzero;stroke:none;font-family:DejaVu Sans;-inkscape-font-specification:DejaVuSans-BoldOblique">exo 1</tspan></text>
<path
         inkscape:connector-curvature="0"
         id="path66"
         style="fill:none;stroke:#767676;stroke-width:0.6399979;stroke-linecap:round;stroke-linejoin:round;stroke-miterlimit:4;stroke-opacity:1;stroke-dasharray:none"
         d="m 197.94553,13.218352 c 0,-4.2422159 -3.44153,-7.6793128 -7.68439,-7.6793128 -4.23803,0 -7.6786,3.4370969 -7.6786,7.6793128 0,4.238954 3.44057,7.679583 7.6786,7.679583 4.24286,0 7.68439,-3.440629 7.68439,-7.679583 z" /><path
         inkscape:connector-curvature="0"
         id="path70"
         style="fill:none;stroke:#767676;stroke-width:0.6399979;stroke-linecap:round;stroke-linejoin:round;stroke-miterlimit:4;stroke-opacity:1;stroke-dasharray:none"
         d="m 270.22255,15.33234 c 0,-4.242164 -3.43768,-7.6843259 -7.67957,-7.6843259 -4.24285,0 -7.67956,3.4421619 -7.67956,7.6843259 0,4.237918 3.43671,7.678858 7.67956,7.678858 4.24189,0 7.67957,-3.44094 7.67957,-7.678858 z" /><path
         d="m 257.859,19.582 c 1.203,-0.7031 2.153,-1.723 3.196,-2.6289 0.855,-0.7543 1.84,-1.1871 2.957,-1.359 1.199,-0.157 2.371,0.1911 3.468,0.6481 0.27,0.1207 0.543,0.2269 0.805,0.359 0.285,0.1488 1.113,0.6289 0.836,0.4726 -0.812,-0.4488 -1.582,-0.9918 -2.433,-1.359 -0.454,-0.1957 0.816,0.5582 1.222,0.8403 4.422,3.0969 -1.711,-1.1492 3.184,2.2301 3.156,2.207 6.418,4.2457 9.629,6.3668 l 3.683,1.4378 c -3.265,-2.1207 -6.586,-4.157 -9.765,-6.4097 -2.438,-1.6922 -0.848,-0.5672 -3.071,-2.184 -0.386,-0.277 -0.754,-0.5859 -1.16,-0.8359 -1.98,-1.2231 -3.984,-2.5192 -6.14,-3.4372 -1.176,-0.4261 -2.399,-0.7351 -3.653,-0.5 -1.152,0.25 -2.152,0.777 -3.031,1.57 -1.031,0.8941 -1.996,1.875 -3.176,2.5898 -1.058,0.7301 -2.14,1.4531 -3.359,1.8942 2.918,2.5511 4.101,2.1679 6.808,0.305 z"
         style="fill:#007506;fill-opacity:1;fill-rule:nonzero;stroke:none"
         id="path72"
         inkscape:connector-curvature="0" /><path
         d="m 205.172,20.9684 25.941,16.9418"
         style="fill:none;stroke:#000000;stroke-width:0.80000001;stroke-linecap:butt;stroke-linejoin:miter;stroke-miterlimit:4;stroke-opacity:1;stroke-dasharray:none"
         id="path74"
         inkscape:connector-curvature="0" /><path
         d="m 222.012,36.207 9.984,2.2969 -6.117,-8.2148 c 0.144,2.5859 -1.426,4.973 -3.867,5.9179 z"
         style="fill:#000000;fill-opacity:1;fill-rule:evenodd;stroke:none"
         id="path76"
         inkscape:connector-curvature="0" /><path
         d="m 192.895,52.3242 35.949,-6.0668"
         style="fill:none;stroke:#000000;stroke-width:0.80000001;stroke-linecap:butt;stroke-linejoin:miter;stroke-miterlimit:4;stroke-opacity:1;stroke-dasharray:none"
         id="path78"
         inkscape:connector-curvature="0" /><path
         d="m 221,51.1801 8.891,-5.0821 -10.067,-1.891 c 1.86,1.8051 2.328,4.6211 1.176,6.9731 z"
         style="fill:#000000;fill-opacity:1;fill-rule:evenodd;stroke:none"
         id="path80"
         inkscape:connector-curvature="0" /><path
         inkscape:connector-curvature="0"
         id="path84"
         style="fill:none;stroke:#767676;stroke-width:0.6399979;stroke-linecap:round;stroke-linejoin:round;stroke-miterlimit:4;stroke-opacity:1;stroke-dasharray:none"
         d="m 247.9331,45.168142 c 0,-4.24289 -3.43671,-7.679997 -7.67956,-7.679997 -4.23804,0 -7.67957,3.437107 -7.67957,7.679997 0,4.24175 3.44153,7.678857 7.67957,7.678857 4.24285,0 7.67956,-3.437107 7.67956,-7.678857 z" /><text
         y="-49.9781"
         x="249.533"
         id="text88"
         transform="scale(1,-1)"><tspan
           id="tspan90"
           sodipodi:role="line"
           y="-49.9781"
           x="249.533 256.229 261.72501 265.54901 270.97299"
           style="font-size:8px;font-style:oblique;font-variant:normal;font-weight:bold;writing-mode:lr-tb;fill:#008080;fill-opacity:1;fill-rule:nonzero;stroke:none;font-family:DejaVu Sans;-inkscape-font-specification:DejaVuSans-BoldOblique">Noter</tspan></text>
<path
         inkscape:connector-curvature="0"
         id="path94"
         style="fill:none;stroke:#767676;stroke-width:0.6399979;stroke-linecap:round;stroke-linejoin:round;stroke-miterlimit:4;stroke-opacity:1;stroke-dasharray:none"
         d="m 295.293,46.961163 c 0,-4.242993 -3.43768,-7.680101 -7.67957,-7.680101 -4.24189,0 -7.68053,3.437108 -7.68053,7.680101 0,4.24175 3.43864,7.678857 7.68053,7.678857 4.24189,0 7.67957,-3.437107 7.67957,-7.678857 z" /><path
         d="m 282.93,51.2109 c 1.207,-0.7031 2.156,-1.7187 3.195,-2.6289 0.859,-0.7539 1.844,-1.184 2.957,-1.359 1.203,-0.157 2.375,0.1911 3.469,0.652 0.269,0.1211 0.543,0.2262 0.804,0.359 0.286,0.1449 1.114,0.6289 0.836,0.473 -0.812,-0.4531 -1.578,-0.9922 -2.433,-1.359 -0.453,-0.196 0.82,0.554 1.222,0.8391 4.422,3.0938 -1.707,-1.148 3.184,2.2309 3.156,2.2031 6.418,4.2461 9.629,6.3629 l 3.684,1.4382 c -3.262,-2.1211 -6.586,-4.157 -9.766,-6.407 -2.438,-1.691 -0.844,-0.566 -3.07,-2.1832 -0.387,-0.2809 -0.754,-0.5859 -1.161,-0.8398 -1.976,-1.2192 -3.984,-2.52 -6.14,-3.4379 -1.172,-0.4211 -2.399,-0.734 -3.652,-0.5 -1.149,0.25 -2.153,0.7777 -3.032,1.575 -1.031,0.8937 -1.996,1.8707 -3.172,2.5859 -1.062,0.7301 -2.144,1.457 -3.363,1.8938 2.918,2.555 4.102,2.1722 6.809,0.305 z"
         style="fill:#007506;fill-opacity:1;fill-rule:nonzero;stroke:none"
         id="path96"
         inkscape:connector-curvature="0" /><path
         d="m 250.684,45.2184 27.308,0.2578"
         style="fill:none;stroke:#000000;stroke-width:0.80000001;stroke-linecap:butt;stroke-linejoin:miter;stroke-miterlimit:4;stroke-opacity:1;stroke-dasharray:none"
         id="path98"
         inkscape:connector-curvature="0" /><path
         d="m 269.406,48.9449 9.649,-3.4449 -9.582,-3.625 c 1.515,2.1012 1.48,4.957 -0.067,7.0699 z"
         style="fill:#000000;fill-opacity:1;fill-rule:evenodd;stroke:none"
         id="path100"
         inkscape:connector-curvature="0" /><path
         d="m 193.102,59.2543 50.781,17.793"
         style="fill:none;stroke:#000000;stroke-width:0.80000001;stroke-linecap:butt;stroke-linejoin:miter;stroke-miterlimit:4;stroke-opacity:1;stroke-dasharray:none"
         id="path102"
         inkscape:connector-curvature="0" /><path
         d="m 234.637,77.5699 10.242,-0.1597 -7.902,-6.5161 c 0.757,2.4809 -0.196,5.1719 -2.34,6.6758 z"
         style="fill:#000000;fill-opacity:1;fill-rule:evenodd;stroke:none"
         id="path104"
         inkscape:connector-curvature="0" /><text
         y="-4.9679699"
         x="139.52"
         id="text108"
         transform="scale(1,-1)"><tspan
           id="tspan110"
           sodipodi:role="line"
           y="-4.9679699"
           x="139.52 144.944 150.104 155.60001 158.384"
           style="font-size:8px;font-style:oblique;font-variant:normal;font-weight:bold;writing-mode:lr-tb;fill:#008080;fill-opacity:1;fill-rule:nonzero;stroke:none;font-family:DejaVu Sans;-inkscape-font-specification:DejaVuSans-BoldOblique">exo 2</tspan></text>
<path
         inkscape:connector-curvature="0"
         id="path114"
         style="fill:none;stroke:#767676;stroke-width:0.6399979;stroke-linecap:round;stroke-linejoin:round;stroke-miterlimit:4;stroke-opacity:1;stroke-dasharray:none"
         d="m 260.92106,80.405896 c 0,-4.237918 -3.44154,-7.679997 -7.6786,-7.679997 -4.24286,0 -7.68053,3.442079 -7.68053,7.679997 0,4.24175 3.43767,7.6801 7.68053,7.6801 4.23706,0 7.6786,-3.43835 7.6786,-7.6801 z" /><path
         d="m 248.555,84.6559 c 1.207,-0.6989 2.156,-1.7188 3.195,-2.625 0.859,-0.7539 1.844,-1.1868 2.961,-1.359 1.199,-0.1559 2.371,0.1871 3.469,0.648 0.265,0.1211 0.539,0.227 0.804,0.3602 0.286,0.1437 1.114,0.6277 0.832,0.4719 -0.812,-0.4489 -1.578,-0.9918 -2.429,-1.359 -0.457,-0.195 0.816,0.555 1.222,0.8398 4.418,3.0973 -1.711,-1.1488 3.184,2.2301 3.152,2.207 6.414,4.2461 9.629,6.3672 l 3.683,1.4379 c -3.265,-2.125 -6.585,-4.1559 -9.769,-6.4102 -2.438,-1.6918 -0.844,-0.5668 -3.066,-2.184 -0.387,-0.2769 -0.758,-0.5859 -1.165,-0.8359 -1.976,-1.2219 -3.98,-2.5188 -6.14,-3.4367 -1.172,-0.4262 -2.395,-0.7352 -3.649,-0.5 -1.152,0.25 -2.152,0.7769 -3.031,1.5699 -1.035,0.8949 -2,1.875 -3.176,2.5898 -1.058,0.7301 -2.14,1.4532 -3.363,1.8942 2.918,2.5508 4.106,2.1679 6.809,0.3008 z"
         style="fill:#007506;fill-opacity:1;fill-rule:nonzero;stroke:none"
         id="path116"
         inkscape:connector-curvature="0" /><text
         y="-32.919102"
         x="97.169502"
         id="text120"
         transform="scale(1,-1)"><tspan
           id="tspan122"
           sodipodi:role="line"
           y="-32.919102"
           x="97.169502 102.6255"
           style="font-size:8px;font-style:oblique;font-variant:normal;font-weight:bold;writing-mode:lr-tb;fill:#008080;fill-opacity:1;fill-rule:nonzero;stroke:none;font-family:DejaVu Sans;-inkscape-font-specification:DejaVuSans-BoldOblique">TP</tspan></text>
<path
         inkscape:connector-curvature="0"
         id="path126"
         style="fill:none;stroke:#767676;stroke-width:0.6399979;stroke-linecap:round;stroke-linejoin:round;stroke-miterlimit:4;stroke-opacity:1;stroke-dasharray:none"
         d="m 109.78481,64.066121 c 0,-4.242165 -3.43767,-7.679997 -7.67956,-7.679997 -4.242858,0 -7.679859,3.437832 -7.679859,7.679997 0,4.24175 3.437001,7.679686 7.679859,7.679686 4.24189,0 7.67956,-3.437936 7.67956,-7.679686 z" /><text
         y="-55.722698"
         x="51.1273"
         id="text130"
         transform="scale(1,-1)"><tspan
           id="tspan132"
           sodipodi:role="line"
           y="-55.722698"
           x="51.1273 55.8713 61.367298 67.063301 71.031128"
           style="font-size:8px;font-style:oblique;font-variant:normal;font-weight:bold;writing-mode:lr-tb;fill:#008080;fill-opacity:1;fill-rule:nonzero;stroke:none;font-family:DejaVu Sans;-inkscape-font-specification:DejaVuSans-BoldOblique">cours</tspan></text>
<path
         d="M 47.2852,61.8434 86.082,61.8473"
         style="fill:none;stroke:#000000;stroke-width:0.80000001;stroke-linecap:butt;stroke-linejoin:miter;stroke-miterlimit:4;stroke-opacity:1;stroke-dasharray:none"
         id="path134"
         inkscape:connector-curvature="0" /><path
         d="M 77.527,65.3941 87.1449,61.859 77.527,58.3238 c 1.5351,2.0864 1.5281,4.9453 0,7.0703 z"
         style="fill:#000000;fill-opacity:1;fill-rule:evenodd;stroke:none"
         id="path136"
         inkscape:connector-curvature="0" /><path
         d="M 98.1988,75.9102 89.9301,104.644"
         style="fill:none;stroke:#000000;stroke-width:0.80000001;stroke-linecap:butt;stroke-linejoin:miter;stroke-miterlimit:4;stroke-opacity:1;stroke-dasharray:none"
         id="path138"
         inkscape:connector-curvature="0" /><path
         d="m 88.8828,95.441 0.7383,10.219 6.059,-8.262 c -2.434,0.8989 -5.1762,0.102 -6.7973,-1.957 z"
         style="fill:#000000;fill-opacity:1;fill-rule:evenodd;stroke:none"
         id="path140"
         inkscape:connector-curvature="0" /><path
         inkscape:connector-curvature="0"
         id="path144"
         style="fill:none;stroke:#767676;stroke-width:0.6399979;stroke-linecap:round;stroke-linejoin:round;stroke-miterlimit:4;stroke-opacity:1;stroke-dasharray:none"
         d="m 94.554605,116.5267 c 0,-4.24227 -3.437097,-7.67979 -7.680048,-7.67979 -4.241793,0 -7.678891,3.43752 -7.678891,7.67979 0,4.24226 3.437098,7.67979 7.678891,7.67979 4.242951,0 7.680048,-3.43753 7.680048,-7.67979 z" /><path
         d="m 82.191,120.777 c 1.2039,-0.703 2.1531,-1.719 3.1961,-2.629 0.8551,-0.754 1.8399,-1.183 2.957,-1.359 1.1989,-0.152 2.3707,0.191 3.468,0.652 0.2699,0.121 0.543,0.227 0.8051,0.36 0.2848,0.144 1.1129,0.629 0.8359,0.472 -0.8121,-0.453 -1.582,-0.992 -2.4332,-1.359 -0.4539,-0.195 0.816,0.555 1.2223,0.84 4.4219,3.097 -1.7113,-1.149 3.184,2.23 3.1558,2.203 6.4178,4.246 9.6288,6.364 l 3.683,1.437 c -3.265,-2.121 -6.586,-4.156 -9.765,-6.406 -2.4378,-1.692 -0.848,-0.567 -3.071,-2.184 -0.386,-0.281 -0.754,-0.586 -1.1598,-0.836 -1.9801,-1.222 -3.9844,-2.523 -6.1402,-3.437 -1.1758,-0.426 -2.3989,-0.739 -3.6532,-0.504 -1.1519,0.25 -2.1519,0.777 -3.0308,1.574 -1.0352,0.895 -1.9961,1.871 -3.1758,2.586 -1.0582,0.73 -2.1402,1.457 -3.3594,1.895 2.9184,2.554 4.1012,2.171 6.8082,0.304 z"
         style="fill:#007506;fill-opacity:1;fill-rule:nonzero;stroke:none"
         id="path146"
         inkscape:connector-curvature="0" /><path
         d="M 112.859,68.3754 161.52,89.6602"
         style="fill:none;stroke:#000000;stroke-width:0.80000001;stroke-linecap:butt;stroke-linejoin:miter;stroke-miterlimit:4;stroke-opacity:1;stroke-dasharray:none"
         id="path148"
         inkscape:connector-curvature="0" /><path
         d="m 152.262,89.484 10.222,0.6172 -7.39,-7.0934 c 0.57,2.5274 -0.582,5.1402 -2.832,6.4762 z"
         style="fill:#000000;fill-opacity:1;fill-rule:evenodd;stroke:none"
         id="path150"
         inkscape:connector-curvature="0" /><path
         d="m 109.961,73.3363 18.203,34.6127"
         style="fill:none;stroke:#000000;stroke-width:0.80000001;stroke-linecap:butt;stroke-linejoin:miter;stroke-miterlimit:4;stroke-opacity:1;stroke-dasharray:none"
         id="path152"
         inkscape:connector-curvature="0" /><path
         d="m 121.043,102.031 7.602,6.863 -1.344,-10.1561 c -1.133,2.3321 -3.664,3.6561 -6.258,3.2931 z"
         style="fill:#000000;fill-opacity:1;fill-rule:evenodd;stroke:none"
         id="path154"
         inkscape:connector-curvature="0" /><path
         inkscape:connector-curvature="0"
         id="path158"
         style="fill:none;stroke:#767676;stroke-width:0.6399979;stroke-linecap:round;stroke-linejoin:round;stroke-miterlimit:4;stroke-opacity:1;stroke-dasharray:none"
         d="m 143.65147,116.81566 c 0,-4.24227 -3.43672,-7.67979 -7.67861,-7.67979 -4.23899,0 -7.68053,3.43752 -7.68053,7.67979 0,4.24227 3.44154,7.67979 7.68053,7.67979 4.24189,0 7.67861,-3.43752 7.67861,-7.67979 z" /><path
         inkscape:connector-curvature="0"
         id="path162"
         style="fill:none;stroke:#767676;stroke-width:0.6399979;stroke-linecap:round;stroke-linejoin:round;stroke-miterlimit:4;stroke-opacity:1;stroke-dasharray:none"
         d="m 178.85558,93.217939 c 0,-4.242164 -3.44153,-7.679272 -7.68053,-7.679272 -4.24189,0 -7.68246,3.437108 -7.68246,7.679272 0,4.239058 3.44057,7.679691 7.68246,7.679691 4.239,0 7.68053,-3.440633 7.68053,-7.679691 z" /><text
         y="-149.474"
         x="202.157"
         id="text166"
         transform="scale(1,-1)"><tspan
           id="tspan168"
           sodipodi:role="line"
           y="-149.474"
           x="202.157 208.853 214.349 218.173 223.597"
           style="font-size:8px;font-style:oblique;font-variant:normal;font-weight:bold;writing-mode:lr-tb;fill:#008080;fill-opacity:1;fill-rule:nonzero;stroke:none;font-family:DejaVu Sans;-inkscape-font-specification:DejaVuSans-BoldOblique">Noter</tspan></text>
<path
         inkscape:connector-curvature="0"
         id="path172"
         style="fill:none;stroke:#767676;stroke-width:0.6399979;stroke-linecap:round;stroke-linejoin:round;stroke-miterlimit:4;stroke-opacity:1;stroke-dasharray:none"
         d="m 261.48806,157.92817 c 0,-4.24123 -3.43768,-7.67876 -7.67957,-7.67876 -4.24189,0 -7.67957,3.43753 -7.67957,7.67876 0,4.2433 3.43768,7.68082 7.67957,7.68082 4.24189,0 7.67957,-3.43752 7.67957,-7.68082 z" /><path
         d="m 249.125,162.18 c 1.203,-0.704 2.152,-1.723 3.195,-2.629 0.856,-0.754 1.84,-1.188 2.957,-1.36 1.2,-0.156 2.371,0.192 3.469,0.653 0.266,0.117 0.543,0.226 0.805,0.359 0.285,0.145 1.113,0.625 0.832,0.473 -0.809,-0.453 -1.578,-0.996 -2.43,-1.364 -0.457,-0.195 0.817,0.559 1.223,0.84 4.418,3.098 -1.711,-1.148 3.183,2.231 3.153,2.207 6.418,4.25 9.629,6.367 l 3.684,1.437 c -3.266,-2.121 -6.586,-4.156 -9.766,-6.41 -2.441,-1.691 -0.847,-0.566 -3.07,-2.179 -0.387,-0.282 -0.758,-0.59 -1.16,-0.84 -1.981,-1.219 -3.985,-2.52 -6.141,-3.438 -1.176,-0.426 -2.398,-0.734 -3.652,-0.5 -1.153,0.25 -2.153,0.778 -3.031,1.571 -1.036,0.894 -1.997,1.875 -3.176,2.589 -1.059,0.731 -2.141,1.453 -3.36,1.895 2.914,2.551 4.102,2.172 6.809,0.305 z"
         style="fill:#007506;fill-opacity:1;fill-rule:nonzero;stroke:none"
         id="path174"
         inkscape:connector-curvature="0" /><path
         d="m 200.277,142.351 41.707,12.059"
         style="fill:none;stroke:#000000;stroke-width:0.80000001;stroke-linecap:butt;stroke-linejoin:miter;stroke-miterlimit:4;stroke-opacity:1;stroke-dasharray:none"
         id="path176"
         inkscape:connector-curvature="0" /><path
         d="m 232.785,155.445 10.215,-0.726 -8.254,-6.067 c 0.899,2.434 0.094,5.172 -1.961,6.793 z"
         style="fill:#000000;fill-opacity:1;fill-rule:evenodd;stroke:none"
         id="path178"
         inkscape:connector-curvature="0" /><path
         inkscape:connector-curvature="0"
         id="path182"
         style="fill:none;stroke:#767676;stroke-width:0.6399979;stroke-linecap:round;stroke-linejoin:round;stroke-miterlimit:4;stroke-opacity:1;stroke-dasharray:none"
         d="m 260.6877,113.12853 c 0,-4.24227 -3.43768,-7.67979 -7.68053,-7.67979 -4.24189,0 -7.6786,3.43752 -7.6786,7.67979 0,4.24227 3.43671,7.67876 7.6786,7.67876 4.24285,0 7.68053,-3.43649 7.68053,-7.67876 z" /><path
         d="m 248.324,117.379 c 1.203,-0.703 2.153,-1.719 3.196,-2.629 0.855,-0.754 1.839,-1.184 2.957,-1.359 1.199,-0.157 2.375,0.191 3.468,0.652 0.27,0.121 0.543,0.226 0.805,0.359 0.285,0.145 1.113,0.629 0.836,0.473 -0.813,-0.453 -1.582,-0.992 -2.434,-1.359 -0.453,-0.196 0.817,0.554 1.223,0.839 4.422,3.094 -1.711,-1.148 3.184,2.231 3.156,2.203 6.418,4.246 9.629,6.363 l 3.683,1.438 c -3.266,-2.121 -6.586,-4.157 -9.766,-6.407 -2.437,-1.695 -0.847,-0.566 -3.07,-2.183 -0.387,-0.281 -0.754,-0.586 -1.16,-0.84 -1.98,-1.219 -3.984,-2.52 -6.141,-3.438 -1.175,-0.421 -2.398,-0.734 -3.652,-0.5 -1.152,0.25 -2.152,0.778 -3.031,1.575 -1.031,0.894 -1.996,1.871 -3.176,2.586 -1.059,0.73 -2.141,1.457 -3.359,1.894 2.918,2.555 4.101,2.172 6.808,0.305 z"
         style="fill:#007506;fill-opacity:1;fill-rule:nonzero;stroke:none"
         id="path184"
         inkscape:connector-curvature="0" /><path
         d="m 181.129,98.148 57.957,12.402"
         style="fill:none;stroke:#000000;stroke-width:0.80000001;stroke-linecap:butt;stroke-linejoin:miter;stroke-miterlimit:4;stroke-opacity:1;stroke-dasharray:none"
         id="path186"
         inkscape:connector-curvature="0" /><path
         d="m 229.98,112.23 10.141,-1.445 -8.664,-5.469 c 1.066,2.364 0.461,5.153 -1.477,6.914 z"
         style="fill:#000000;fill-opacity:1;fill-rule:evenodd;stroke:none"
         id="path188"
         inkscape:connector-curvature="0" /><path
         inkscape:connector-curvature="0"
         id="path192"
         style="fill:none;stroke:#767676;stroke-width:0.6399979;stroke-linecap:round;stroke-linejoin:round;stroke-miterlimit:4;stroke-opacity:1;stroke-dasharray:none"
         d="m 195.09703,138.01871 c 0,-4.24226 -3.44056,-7.67875 -7.67956,-7.67875 -4.24189,0 -7.67957,3.43649 -7.67957,7.67875 0,4.24227 3.43768,7.67979 7.67957,7.67979 4.239,0 7.67956,-3.43752 7.67956,-7.67979 z" /><path
         d="m 130.641,126.691 -10.465,18.543"
         style="fill:none;stroke:#000000;stroke-width:0.80000001;stroke-linecap:butt;stroke-linejoin:miter;stroke-miterlimit:4;stroke-opacity:1;stroke-dasharray:none"
         id="path194"
         inkscape:connector-curvature="0" /><path
         d="m 121.285,136.039 -1.644,10.113 7.804,-6.636 c -2.574,0.312 -5.054,-1.098 -6.16,-3.477 z"
         style="fill:#000000;fill-opacity:1;fill-rule:evenodd;stroke:none"
         id="path196"
         inkscape:connector-curvature="0" /><text
         y="-85.195702"
         x="79.873001"
         id="text200"
         transform="scale(1,-1)"><tspan
           id="tspan202"
           sodipodi:role="line"
           y="-85.195702"
           x="79.873001 86.569 92.065002 95.889 101.313"
           style="font-size:8px;font-style:oblique;font-variant:normal;font-weight:bold;writing-mode:lr-tb;fill:#008080;fill-opacity:1;fill-rule:nonzero;stroke:none;font-family:DejaVu Sans;-inkscape-font-specification:DejaVuSans-BoldOblique">Noter</tspan></text>
<path
         inkscape:connector-curvature="0"
         id="path206"
         style="fill:none;stroke:#767676;stroke-width:0.6399979;stroke-linecap:round;stroke-linejoin:round;stroke-miterlimit:4;stroke-opacity:1;stroke-dasharray:none"
         d="m 122.6368,155.09654 c 0,-4.24227 -3.43767,-7.6829 -7.68053,-7.6829 -4.24189,0 -7.6786,3.44063 -7.6786,7.6829 0,4.23916 3.43671,7.67979 7.6786,7.67979 4.24286,0 7.68053,-3.44063 7.68053,-7.67979 z" /><path
         d="m 110.27,159.348 c 1.207,-0.704 2.156,-1.723 3.199,-2.629 0.855,-0.754 1.84,-1.188 2.957,-1.36 1.199,-0.156 2.371,0.192 3.469,0.649 0.265,0.121 0.543,0.226 0.804,0.359 0.285,0.149 1.113,0.629 0.832,0.473 -0.812,-0.449 -1.578,-0.992 -2.429,-1.36 -0.457,-0.195 0.816,0.559 1.222,0.84 4.418,3.098 -1.711,-1.148 3.184,2.231 3.152,2.207 6.414,4.246 9.629,6.367 l 3.683,1.437 c -3.265,-2.121 -6.586,-4.156 -9.765,-6.41 -2.442,-1.691 -0.848,-0.566 -3.071,-2.183 -0.386,-0.278 -0.757,-0.586 -1.164,-0.836 -1.976,-1.223 -3.98,-2.52 -6.14,-3.438 -1.172,-0.426 -2.395,-0.734 -3.649,-0.5 -1.152,0.25 -2.152,0.778 -3.031,1.57 -1.035,0.895 -2,1.875 -3.176,2.59 -1.058,0.731 -2.14,1.453 -3.363,1.895 2.918,2.551 4.105,2.168 6.809,0.305 z"
         style="fill:#007506;fill-opacity:1;fill-rule:nonzero;stroke:none"
         id="path208"
         inkscape:connector-curvature="0" /><path
         inkscape:connector-curvature="0"
         id="path212"
         style="fill:none;stroke:#767676;stroke-width:0.6399979;stroke-linecap:round;stroke-linejoin:round;stroke-miterlimit:4;stroke-opacity:1;stroke-dasharray:none"
         d="m 19.171914,108.39016 c 0,-4.24227 -3.437579,-7.67927 -7.680144,-7.67927 -4.2417739,0 -7.6792764,3.437 -7.6792764,7.67927 0,4.24227 3.4375025,7.67979 7.6792764,7.67979 4.242565,0 7.680144,-3.43752 7.680144,-7.67979 z" /><path
         d="m 6.80898,112.641 c 1.20704,-0.704 2.15586,-1.723 3.19492,-2.629 0.859,-0.754 1.8441,-1.184 2.957,-1.36 1.2032,-0.156 2.375,0.192 3.4692,0.653 0.2687,0.117 0.5429,0.226 0.8039,0.359 0.2859,0.144 1.114,0.625 0.8359,0.473 -0.8121,-0.454 -1.5777,-0.996 -2.4328,-1.364 -0.4531,-0.195 0.8199,0.559 1.2219,0.84 4.4219,3.098 -1.707,-1.144 3.184,2.231 3.1558,2.207 6.4179,4.25 9.6289,6.367 l 3.6832,1.437 c -3.261,-2.121 -6.5852,-4.156 -9.7653,-6.406 -2.4378,-1.695 -0.8437,-0.57 -3.0699,-2.184 -0.3871,-0.281 -0.7539,-0.589 -1.1609,-0.839 -1.9762,-1.219 -3.984,-2.52 -6.1399,-3.438 -1.1722,-0.426 -2.3992,-0.734 -3.65308,-0.5 -1.14805,0.25 -2.15196,0.777 -3.03086,1.57 -1.03125,0.895 -1.9961,1.875 -3.17227,2.59 -1.06172,0.731 -2.14375,1.453 -3.36289,1.895 2.91797,2.551 4.10195,2.172 6.80898,0.305 z"
         style="fill:#007506;fill-opacity:1;fill-rule:nonzero;stroke:none"
         id="path214"
         inkscape:connector-curvature="0" /><path
         d="M 29.9609,71.2934 17.1641,97.4922"
         style="fill:none;stroke:#000000;stroke-width:0.80000001;stroke-linecap:butt;stroke-linejoin:miter;stroke-miterlimit:4;stroke-opacity:1;stroke-dasharray:none"
         id="path216"
         inkscape:connector-curvature="0" /><path
         d="m 17.727,88.25 -1.043,10.191 7.398,-7.0859 C 21.5309,91.8199 18.9691,90.5578 17.727,88.25 z"
         style="fill:#000000;fill-opacity:1;fill-rule:evenodd;stroke:none"
         id="path218"
         inkscape:connector-curvature="0" /><text
         y="-81.006599"
         x="12.6098"
         id="text222"
         transform="scale(1,-1)"><tspan
           id="tspan224"
           sodipodi:role="line"
           y="-81.006599"
           x="12.6098 19.305799 24.8018 28.625801 34.049801"
           style="font-size:8px;font-style:oblique;font-variant:normal;font-weight:bold;writing-mode:lr-tb;fill:#008080;fill-opacity:1;fill-rule:nonzero;stroke:none;font-family:DejaVu Sans;-inkscape-font-specification:DejaVuSans-BoldOblique">Noter</tspan></text>
<path
         d="m 115.934,22.3242 -8.793,29.1211"
         style="fill:none;stroke:#000000;stroke-width:0.80000001;stroke-linecap:butt;stroke-linejoin:miter;stroke-miterlimit:4;stroke-opacity:1;stroke-dasharray:none"
         id="path226"
         inkscape:connector-curvature="0" /><path
         d="m 106.215,42.234 0.605,10.2269 6.164,-8.1839 c -2.445,0.8671 -5.175,0.0308 -6.769,-2.043 z"
         style="fill:#000000;fill-opacity:1;fill-rule:evenodd;stroke:none"
         id="path228"
         inkscape:connector-curvature="0" /><path
         inkscape:connector-curvature="0"
         id="path232"
         style="fill:none;stroke:#767676;stroke-width:0.6399979;stroke-linecap:round;stroke-linejoin:round;stroke-miterlimit:4;stroke-opacity:1;stroke-dasharray:none"
         d="m 62.925768,145.04704 c 0,-4.2433 -3.437483,-7.68082 -7.680048,-7.68082 -4.241793,0 -7.679373,3.43752 -7.679373,7.68082 0,4.24124 3.43758,7.67876 7.679373,7.67876 4.242565,0 7.680048,-3.43752 7.680048,-7.67876 z" /><path
         d="m 50.5621,149.297 c 1.2039,-0.703 2.1527,-1.719 3.1957,-2.629 0.8551,-0.754 1.8402,-1.184 2.957,-1.36 1.1993,-0.156 2.3711,0.192 3.4692,0.653 0.2648,0.117 0.543,0.226 0.8039,0.359 0.2851,0.145 1.1141,0.629 0.832,0.473 -0.8078,-0.453 -1.5777,-0.992 -2.4289,-1.36 -0.457,-0.199 0.816,0.555 1.2219,0.84 4.418,3.094 -1.7109,-1.148 3.184,2.231 3.1562,2.203 6.4179,4.246 9.6293,6.363 l 3.6828,1.438 c -3.2649,-2.122 -6.586,-4.157 -9.7649,-6.407 -2.4421,-1.695 -0.848,-0.566 -3.0711,-2.183 -0.3859,-0.282 -0.7531,-0.586 -1.1601,-0.84 -1.9801,-1.219 -3.984,-2.52 -6.1399,-3.438 -1.1761,-0.425 -2.3992,-0.734 -3.6531,-0.5 -1.1519,0.25 -2.1519,0.778 -3.0308,1.575 -1.0352,0.894 -1.9961,1.871 -3.1762,2.586 -1.0578,0.73 -2.1399,1.457 -3.359,1.894 2.9141,2.555 4.1012,2.172 6.8082,0.305 z"
         style="fill:#007506;fill-opacity:1;fill-rule:nonzero;stroke:none"
         id="path234"
         inkscape:connector-curvature="0" /><path
         inkscape:connector-curvature="0"
         id="path238"
         style="fill:none;stroke:#767676;stroke-width:0.6399979;stroke-linecap:round;stroke-linejoin:round;stroke-miterlimit:4;stroke-opacity:1;stroke-dasharray:none"
         d="m 62.452689,104.01428 c 0,-4.237396 -3.437097,-7.678336 -7.67889,-7.678336 -4.242951,0 -7.680048,3.44094 -7.680048,7.678336 0,4.24227 3.437097,7.68394 7.680048,7.68394 4.241793,0 7.67889,-3.44167 7.67889,-7.68394 z" /><text
         y="-75.157799"
         x="40.087101"
         id="text242"
         transform="scale(1,-1)"><tspan
           id="tspan244"
           sodipodi:role="line"
           y="-75.157799"
           x="40.087101 45.511101 50.671101 56.167099 58.951099"
           style="font-size:8px;font-style:oblique;font-variant:normal;font-weight:bold;writing-mode:lr-tb;fill:#008080;fill-opacity:1;fill-rule:nonzero;stroke:none;font-family:DejaVu Sans;-inkscape-font-specification:DejaVuSans-BoldOblique">exo 1</tspan></text>
<path
         d="m 36.8121,72.2422 10,21.4019"
         style="fill:none;stroke:#000000;stroke-width:0.80000001;stroke-linecap:butt;stroke-linejoin:miter;stroke-miterlimit:4;stroke-opacity:1;stroke-dasharray:none"
         id="path246"
         inkscape:connector-curvature="0" /><path
         d="M 39.977,87.398 47.25,94.6129 46.3828,84.402 c -1.2418,2.2781 -3.8316,3.4769 -6.4058,2.996 z"
         style="fill:#000000;fill-opacity:1;fill-rule:evenodd;stroke:none"
         id="path248"
         inkscape:connector-curvature="0" /><path
         d="m 53.3551,113.832 0,21.402"
         style="fill:none;stroke:#000000;stroke-width:0.80000001;stroke-linecap:butt;stroke-linejoin:miter;stroke-miterlimit:4;stroke-opacity:1;stroke-dasharray:none"
         id="path250"
         inkscape:connector-curvature="0" /><path
         d="m 49.8051,126.68 3.5347,9.617 3.5391,-9.617 c -2.0898,1.535 -4.9449,1.527 -7.0738,0 z"
         style="fill:#000000;fill-opacity:1;fill-rule:evenodd;stroke:none"
         id="path252"
         inkscape:connector-curvature="0" /><path
         d="m 204.543,12.8863 40.598,0.4028"
         style="fill:none;stroke:#000000;stroke-width:0.80000001;stroke-linecap:butt;stroke-linejoin:miter;stroke-miterlimit:4;stroke-opacity:1;stroke-dasharray:none"
         id="path254"
         inkscape:connector-curvature="0" /><path
         d="m 236.555,16.7539 9.648,-3.4418 -9.578,-3.62929 c 1.516,2.10239 1.477,4.95819 -0.07,7.07109 z"
         style="fill:#000000;fill-opacity:1;fill-rule:evenodd;stroke:none"
         id="path256"
         inkscape:connector-curvature="0" /><path
         d="m 134.723,12.8863 40.597,0.4028"
         style="fill:none;stroke:#000000;stroke-width:0.80000001;stroke-linecap:butt;stroke-linejoin:miter;stroke-miterlimit:4;stroke-opacity:1;stroke-dasharray:none"
         id="path258"
         inkscape:connector-curvature="0" /><path
         d="m 166.734,16.7539 9.649,-3.4418 -9.578,-3.62929 c 1.515,2.10239 1.476,4.95819 -0.071,7.07109 z"
         style="fill:#000000;fill-opacity:1;fill-rule:evenodd;stroke:none"
         id="path260"
         inkscape:connector-curvature="0" /><text
         y="-119.958"
         x="39.383598"
         id="text264"
         transform="scale(1,-1)"><tspan
           id="tspan266"
           sodipodi:role="line"
           y="-119.958"
           x="39.383598 46.079601 51.5756 55.399601 60.823601"
           style="font-size:8px;font-style:oblique;font-variant:normal;font-weight:bold;writing-mode:lr-tb;fill:#008080;fill-opacity:1;fill-rule:nonzero;stroke:none;font-family:DejaVu Sans;-inkscape-font-specification:DejaVuSans-BoldOblique">Noter</tspan></text>
<path
         d="m 144.789,123.265 32.508,11.66"
         style="fill:none;stroke:#000000;stroke-width:0.80000001;stroke-linecap:butt;stroke-linejoin:miter;stroke-miterlimit:4;stroke-opacity:1;stroke-dasharray:none"
         id="path268"
         inkscape:connector-curvature="0" /><path
         d="m 168.047,135.379 10.246,-0.082 -7.855,-6.574 c 0.738,2.484 -0.235,5.168 -2.391,6.656 z"
         style="fill:#000000;fill-opacity:1;fill-rule:evenodd;stroke:none"
         id="path270"
         inkscape:connector-curvature="0" /><path
         d="m 175.273,103.687 8.336,22.942"
         style="fill:none;stroke:#000000;stroke-width:0.80000001;stroke-linecap:butt;stroke-linejoin:miter;stroke-miterlimit:4;stroke-opacity:1;stroke-dasharray:none"
         id="path272"
         inkscape:connector-curvature="0" /><path
         d="m 177.352,119.805 6.609,7.828 0.039,-10.242 c -1.438,2.156 -4.125,3.121 -6.648,2.414 z"
         style="fill:#000000;fill-opacity:1;fill-rule:evenodd;stroke:none"
         id="path274"
         inkscape:connector-curvature="0" /><path
         d="m 179.133,63.3512 -5.391,19.6211"
         style="fill:none;stroke:#000000;stroke-width:0.80000001;stroke-linecap:butt;stroke-linejoin:miter;stroke-miterlimit:4;stroke-opacity:1;stroke-dasharray:none"
         id="path276"
         inkscape:connector-curvature="0" /><path
         d="m 172.586,73.7852 0.859,10.207 5.957,-8.3363 c -2.418,0.93 -5.172,0.164 -6.816,-1.8707 z"
         style="fill:#000000;fill-opacity:1;fill-rule:evenodd;stroke:none"
         id="path278"
         inkscape:connector-curvature="0" /><path
         d="M 184.418,20.3754 141.125,108.16"
         style="fill:none;stroke:#000000;stroke-width:0.80000001;stroke-linecap:butt;stroke-linejoin:miter;stroke-miterlimit:4;stroke-opacity:1;stroke-dasharray:none"
         id="path280"
         inkscape:connector-curvature="0" /><path
         d="m 141.727,98.9219 -1.082,10.1871 7.421,-7.062 c -2.55,0.457 -5.109,-0.817 -6.339,-3.1251 z"
         style="fill:#000000;fill-opacity:1;fill-rule:evenodd;stroke:none"
         id="path282"
         inkscape:connector-curvature="0" /><path
         d="M 235.785,54.0934 193.051,127.906"
         style="fill:none;stroke:#000000;stroke-width:0.80000001;stroke-linecap:butt;stroke-linejoin:miter;stroke-miterlimit:4;stroke-opacity:1;stroke-dasharray:none"
         id="path284"
         inkscape:connector-curvature="0" /><path
         d="m 194.266,118.726 -1.758,10.09 7.875,-6.547 c -2.574,0.282 -5.043,-1.156 -6.117,-3.543 z"
         style="fill:#000000;fill-opacity:1;fill-rule:evenodd;stroke:none"
         id="path286"
         inkscape:connector-curvature="0" /><text
         transform="scale(1,-1)"
         y="-130.6152"
         x="116.04175"
         id="text264-9"
         style="font-size:12px"><tspan
           id="tspan266-2"
           sodipodi:role="line"
           y="-130.6152"
           x="116.04175 122.73775 128.23375 132.05775 137.48175"
           style="font-size:8px;font-style:oblique;font-variant:normal;font-weight:bold;writing-mode:lr-tb;fill:#008080;fill-opacity:1;fill-rule:nonzero;stroke:none;font-family:DejaVu Sans;-inkscape-font-specification:DejaVuSans-BoldOblique">Noter</tspan></text>
<text
         transform="scale(1,-1)"
         y="-104.29105"
         x="191.30658"
         id="text264-1"
         style="font-size:12px"><tspan
           id="tspan266-9"
           sodipodi:role="line"
           y="-104.29105"
           x="191.30658 198.00258 203.49858 207.32259 212.74658"
           style="font-size:8px;font-style:oblique;font-variant:normal;font-weight:bold;writing-mode:lr-tb;fill:#008080;fill-opacity:1;fill-rule:nonzero;stroke:none;font-family:DejaVu Sans;-inkscape-font-specification:DejaVuSans-BoldOblique">Noter</tspan></text>
<text
         transform="scale(1,-1)"
         y="-68.327065"
         x="198.72183"
         id="text264-8"
         style="font-size:12px"><tspan
           id="tspan266-5"
           sodipodi:role="line"
           y="-68.327065"
           x="198.72183 205.41783 210.91383 214.73784 220.16183"
           style="font-size:8px;font-style:oblique;font-variant:normal;font-weight:bold;writing-mode:lr-tb;fill:#008080;fill-opacity:1;fill-rule:nonzero;stroke:none;font-family:DejaVu Sans;-inkscape-font-specification:DejaVuSans-BoldOblique">Noter</tspan></text>
<text
         transform="scale(1,-1)"
         y="-6.7804551"
         x="209.47395"
         id="text264-7"
         style="font-size:12px"><tspan
           id="tspan266-7"
           sodipodi:role="line"
           y="-6.7804551"
           x="209.47395 216.16997 221.66595 225.48996 230.91396"
           style="font-size:8px;font-style:oblique;font-variant:normal;font-weight:bold;writing-mode:lr-tb;fill:#008080;fill-opacity:1;fill-rule:nonzero;stroke:none;font-family:DejaVu Sans;-inkscape-font-specification:DejaVuSans-BoldOblique">Noter</tspan></text>
<text
         transform="scale(1,-1)"
         y="-29.34034"
         x="33.133724"
         id="text120-4"
         style="font-size:12px"><tspan
           id="tspan122-0"
           sodipodi:role="line"
           y="-29.34034"
           x="33.133724 38.589725"
           style="font-size:8px;font-style:oblique;font-variant:normal;font-weight:bold;writing-mode:lr-tb;fill:#008080;fill-opacity:1;fill-rule:nonzero;stroke:none;font-family:DejaVu Sans;-inkscape-font-specification:DejaVuSans-BoldOblique">TP</tspan></text>
<text
         transform="scale(1,-1)"
         y="-6.3439484"
         x="69.968735"
         id="text130-1"
         style="font-size:12px"><tspan
           id="tspan132-0"
           sodipodi:role="line"
           y="-6.3439484"
           x="69.968735 74.712738 80.208733 85.904739 89.872566"
           style="font-size:8px;font-style:oblique;font-variant:normal;font-weight:bold;writing-mode:lr-tb;fill:#008080;fill-opacity:1;fill-rule:nonzero;stroke:none;font-family:DejaVu Sans;-inkscape-font-specification:DejaVuSans-BoldOblique">cours</tspan></text>
<text
         transform="scale(1,-1)"
         y="-68.327065"
         x="121.58553"
         id="text60-5"
         style="font-size:12px"><tspan
           id="tspan62-1"
           sodipodi:role="line"
           y="-68.327065"
           x="121.58553 127.00954 132.16954 137.66554 140.44955"
           style="font-size:8px;font-style:oblique;font-variant:normal;font-weight:bold;writing-mode:lr-tb;fill:#008080;fill-opacity:1;fill-rule:nonzero;stroke:none;font-family:DejaVu Sans;-inkscape-font-specification:DejaVuSans-BoldOblique">exo 1</tspan></text>
<text
         transform="scale(1,-1)"
         y="-121.7169"
         x="148.28047"
         id="text60-6"
         style="font-size:12px"><tspan
           id="tspan62-0"
           sodipodi:role="line"
           y="-121.7169"
           x="148.28047 153.70447 158.86447 164.36047 167.14447"
           style="font-size:8px;font-style:oblique;font-variant:normal;font-weight:bold;writing-mode:lr-tb;fill:#008080;fill-opacity:1;fill-rule:nonzero;stroke:none;font-family:DejaVu Sans;-inkscape-font-specification:DejaVuSans-BoldOblique">exo 1</tspan></text>
<text
         transform="scale(1,-1)"
         y="-91.26162"
         x="112.43919"
         id="text108-2"
         style="font-size:12px"><tspan
           id="tspan110-2"
           sodipodi:role="line"
           y="-91.26162"
           x="112.43919 117.86319 123.02318 128.51918 131.30318"
           style="font-size:8px;font-style:oblique;font-variant:normal;font-weight:bold;writing-mode:lr-tb;fill:#008080;fill-opacity:1;fill-rule:nonzero;stroke:none;font-family:DejaVu Sans;-inkscape-font-specification:DejaVuSans-BoldOblique">exo 2</tspan></text>
<text
         transform="scale(1,-1)"
         y="-107.57518"
         x="159.1553"
         id="text108-1"
         style="font-size:12px"><tspan
           id="tspan110-5"
           sodipodi:role="line"
           y="-107.57518"
           x="159.1553 164.5793 169.7393 175.23531 178.0193"
           style="font-size:8px;font-style:oblique;font-variant:normal;font-weight:bold;writing-mode:lr-tb;fill:#008080;fill-opacity:1;fill-rule:nonzero;stroke:none;font-family:DejaVu Sans;-inkscape-font-specification:DejaVuSans-BoldOblique">exo 2</tspan></text>
<text
         transform="scale(1,-1)"
         y="-31.935677"
         x="179.58501"
         id="text120-8"
         style="font-size:12px"><tspan
           id="tspan122-9"
           sodipodi:role="line"
           y="-31.935677"
           x="179.58501 185.041"
           style="font-size:8px;font-style:oblique;font-variant:normal;font-weight:bold;writing-mode:lr-tb;fill:#008080;fill-opacity:1;fill-rule:nonzero;stroke:none;font-family:DejaVu Sans;-inkscape-font-specification:DejaVuSans-BoldOblique">TP</tspan></text>
<text
         transform="scale(1,-1)"
         y="-58.259838"
         x="226.3011"
         id="text120-5"
         style="font-size:12px"><tspan
           id="tspan122-96"
           sodipodi:role="line"
           y="-58.259838"
           x="226.3011 231.75711"
           style="font-size:8px;font-style:oblique;font-variant:normal;font-weight:bold;writing-mode:lr-tb;fill:#008080;fill-opacity:1;fill-rule:nonzero;stroke:none;font-family:DejaVu Sans;-inkscape-font-specification:DejaVuSans-BoldOblique">TP</tspan></text>
<text
         transform="scale(1,-1)"
         y="-45.287045"
         x="194.37776"
         id="text108-0"
         style="font-size:12px"><tspan
           id="tspan110-3"
           sodipodi:role="line"
           y="-45.287045"
           x="194.37776 199.80176 204.96176 210.45776 213.24176"
           style="font-size:8px;font-style:oblique;font-variant:normal;font-weight:bold;writing-mode:lr-tb;fill:#008080;fill-opacity:1;fill-rule:nonzero;stroke:none;font-family:DejaVu Sans;-inkscape-font-specification:DejaVuSans-BoldOblique">exo 2</tspan></text>
<text
         transform="scale(1,-1)"
         y="-25.31859"
         x="199.07495"
         id="text60-2"
         style="font-size:12px"><tspan
           id="tspan62-9"
           sodipodi:role="line"
           y="-25.31859"
           x="199.07495 204.49895 209.65895 215.15495 217.93895"
           style="font-size:8px;font-style:oblique;font-variant:normal;font-weight:bold;writing-mode:lr-tb;fill:#008080;fill-opacity:1;fill-rule:nonzero;stroke:none;font-family:DejaVu Sans;-inkscape-font-specification:DejaVuSans-BoldOblique">exo 1</tspan></text>
<text
         transform="scale(1,-1)"
         y="-66.416618"
         x="171.42822"
         id="text120-8-1"
         style="font-size:12px"><tspan
           id="tspan122-9-8"
           sodipodi:role="line"
           y="-66.416618"
           x="171.42822 176.88422"
           style="font-size:8px;font-style:oblique;font-variant:normal;font-weight:bold;writing-mode:lr-tb;fill:#008080;fill-opacity:1;fill-rule:nonzero;stroke:none;font-family:DejaVu Sans;-inkscape-font-specification:DejaVuSans-BoldOblique">TP</tspan></text>
<path
         sodipodi:nodetypes="cssc"
         transform="matrix(0.8,0,0,-0.8,0,175)"
         inkscape:connector-curvature="0"
         id="path3775"
         d="M 70.375046,202.87049 C 183.48724,214.23783 219.15961,172.81334 230.56223,151.82673 238.95654,136.37691 224.24965,119.93401 214.79955,102.72315 192.60822,62.307544 237.82833,27.405864 317.92903,25.95339"
         style="fill:none;stroke:#c92424;stroke-width:2;stroke-linecap:round;stroke-linejoin:miter;stroke-miterlimit:4;stroke-opacity:1;stroke-dasharray:none" /></g></g></svg>