<?xml version="1.0" encoding="UTF-8" standalone="no"?>
<!-- Generator: Adobe Illustrator 16.0.0, SVG Export Plug-In . SVG Version: 6.00 Build 0)  -->

<svg
   version="1.1"
   id="Layer_1"
   x="0px"
   y="0px"
   width="552.85114"
   height="493.12347"
   viewBox="0 0 552.85114 493.12347"
   enable-background="new 0 0 1224 1224"
   xml:space="preserve"
   sodipodi:docname="perceptron-example.svg"
   inkscape:version="1.1.2 (0a00cf5339, 2022-02-04)"
   xmlns:inkscape="http://www.inkscape.org/namespaces/inkscape"
   xmlns:sodipodi="http://sodipodi.sourceforge.net/DTD/sodipodi-0.dtd"
   xmlns:xlink="http://www.w3.org/1999/xlink"
   xmlns="http://www.w3.org/2000/svg"
   xmlns:svg="http://www.w3.org/2000/svg"><defs
   id="defs197">
	<defs
   id="defs35">
		<rect
   id="SVGID_3_"
   x="37.118999"
   y="58.803001"
   width="1153.881"
   height="1103.2841" />
	</defs>
	<clipPath
   id="SVGID_4_">
		<use
   xlink:href="#SVGID_3_"
   overflow="visible"
   id="use37"
   x="0"
   y="0"
   width="100%"
   height="100%" />
	</clipPath>
	
	
		
	
		
	
	

	<defs
   id="defs95">
		<rect
   id="SVGID_7_"
   x="37.118999"
   y="58.803001"
   width="1153.881"
   height="1103.2841" />
	</defs>
	<clipPath
   id="SVGID_8_">
		<use
   xlink:href="#SVGID_7_"
   overflow="visible"
   id="use97"
   x="0"
   y="0"
   width="100%"
   height="100%" />
	</clipPath>
	
	
		
	
		
	
		
	
		
	
		
	
		
	
	
	
	
	
	
	
		
	
		
	
	
	
	
	
		
	
		

	<defs
   id="defs149">
		<rect
   id="SVGID_9_"
   x="37.118999"
   y="58.803001"
   width="1153.881"
   height="1103.2841" />
	</defs>
	<clipPath
   id="SVGID_10_">
		<use
   xlink:href="#SVGID_9_"
   overflow="visible"
   id="use151"
   x="0"
   y="0"
   width="100%"
   height="100%" />
	</clipPath>
	
		
	
		

		
	
	<defs
   id="defs15">
		<rect
   id="SVGID_1_"
   x="37.118999"
   y="58.803001"
   width="1153.881"
   height="1103.2841" />
	</defs>
	<clipPath
   id="SVGID_2_">
		<use
   xlink:href="#SVGID_1_"
   overflow="visible"
   id="use17"
   x="0"
   y="0"
   width="100%"
   height="100%" />
	</clipPath>
	
	

		
	</defs><sodipodi:namedview
   id="namedview195"
   pagecolor="#ffffff"
   bordercolor="#666666"
   borderopacity="1.0"
   inkscape:pageshadow="2"
   inkscape:pageopacity="0.0"
   inkscape:pagecheckerboard="0"
   showgrid="false"
   inkscape:zoom="0.35661765"
   inkscape:cx="696.82474"
   inkscape:cy="-44.865979"
   inkscape:window-width="1920"
   inkscape:window-height="1055"
   inkscape:window-x="0"
   inkscape:window-y="32"
   inkscape:window-maximized="1"
   inkscape:current-layer="Layer_1"
   fit-margin-top="0"
   fit-margin-left="0"
   fit-margin-right="0"
   fit-margin-bottom="0" />



<polyline
   fill="none"
   stroke="#000000"
   stroke-width="3.276"
   stroke-linecap="round"
   stroke-linejoin="round"
   points="  79.167,677.586 79.167,1121.646 523.227,1121.646 "
   id="polyline8"
   transform="translate(-37.118999,-666.16292)" />
<polyline
   fill="none"
   stroke="#000000"
   stroke-width="3.276"
   stroke-linecap="round"
   stroke-linejoin="round"
   points="  74.743,689.746 79.167,677.586 83.593,689.746 "
   id="polyline10"
   transform="translate(-37.118999,-666.16292)" />
<polyline
   fill="none"
   stroke="#000000"
   stroke-width="3.276"
   stroke-linecap="round"
   stroke-linejoin="round"
   points="  511.067,1117.221 523.227,1121.646 511.067,1126.07 "
   id="polyline12"
   transform="translate(-37.118999,-666.16292)" />
<g
   clip-path="url(#SVGID_2_)"
   id="g26"
   transform="translate(-37.118999,-666.16292)">
		<text
   transform="rotate(-90,486.99535,432.88745)"
   font-family="GothamMedium"
   font-size="23.2601px"
   id="text24">size</text>
	</g>


<text
   font-family="GothamMedium"
   font-size="23.2601px"
   id="text40"
   x="182.65199"
   y="492.7941">domestication</text>









<path
   clip-path="url(#SVGID_8_)"
   fill="none"
   stroke="#c6262c"
   stroke-width="3.276"
   stroke-linecap="round"
   stroke-linejoin="round"
   d="m 362.553,701.436 c -0.63,-0.915 -0.847,-1.678 0.11,-2.479 0.687,-0.573 0.641,-1.155 0.127,-1.906 -3.246,-4.735 -4.806,-9.988 -4.77,-15.736 0.02,-3.246 -1.114,-6.153 -3.533,-8.275 -4.375,-3.841 -9.542,-5.802 -15.415,-5.102 -4.927,0.588 -9.479,2.59 -14.069,4.359 -2.004,0.772 -3.385,2.26 -3.391,4.467 -0.008,3.489 -1.696,5.983 -4.222,8.101 -1.858,1.558 -3.705,3.129 -5.567,4.682 -1.759,1.465 -3.335,3.105 -4.711,4.93 -0.913,1.21 -0.813,2.323 0.537,3.176 5.109,3.224 10.463,4.935 16.537,2.959 3.272,-1.063 5.556,0.879 5.36,4.381 -0.042,0.752 -0.026,1.51 0.461,2.104 0.845,1.028 1.124,2.209 1.102,3.489 -0.032,1.838 0.987,2.271 2.581,1.981 0.506,-0.091 1.015,-0.181 1.526,-0.226 0.738,-0.062 1.529,-0.142 1.896,0.718 0.352,0.822 -0.106,1.434 -0.7,1.914 -1.057,0.859 -1.46,2 -1.508,3.297 -0.093,2.567 -0.179,5.135 -0.228,7.703 -0.023,1.253 -0.2,2.635 1.872,2.333 0.782,-0.115 0.757,0.706 0.873,1.276 0.417,2.036 0.143,4.262 1.81,5.964 0.312,0.318 0.234,1.142 0.154,1.706 -0.906,6.413 0.464,12.366 3.356,18.099 4.792,9.496 8.326,19.632 14.503,28.423 0.083,0.119 0.191,0.254 0.202,0.388 0.342,4.351 2.892,8.287 2.856,12.585 -0.038,4.397 0.169,8.782 0.14,13.17 -0.027,4.267 -1.193,8.439 -1.44,12.678 -0.248,4.237 -2.059,6.825 -6.182,7.952 -2.078,0.566 -3.922,1.706 -5.129,3.602 -1.915,3.011 -0.661,5.611 2.813,6.148 2.394,0.37 4.671,-0.412 7.014,-0.431 3.576,-0.03 6.689,-0.935 8.482,-4.425 0.258,-0.499 0.747,-0.922 1.212,-1.267 2.353,-1.753 3.651,-4.111 4.394,-6.918 0.741,-2.802 1.725,-5.54 2.604,-8.307 0.188,-0.018 0.377,-0.035 0.566,-0.053 1.427,3.102 2.867,6.197 4.272,9.308 0.375,0.83 -0.173,1.42 -0.737,1.905 -1.281,1.103 -2.608,2.149 -3.894,3.246 -1.564,1.338 -2.162,3.882 -1.438,5.833 0.771,2.076 2.493,2.276 4.334,2.217 2.13,-0.068 4.26,-0.082 6.369,-0.485 4.675,-0.896 9.259,-7.131 8.724,-11.904 -0.667,-5.937 -2.016,-11.729 -3.96,-17.361 -2.849,-8.256 -6.337,-16.292 -8.304,-24.848 -0.809,-3.515 0.449,-6.12 3.841,-7.245 3.069,-1.017 6.114,-2.138 9.239,-2.951 5.999,-1.559 11.021,-4.648 15.492,-8.892 4.452,-4.226 9.689,-7.389 15.111,-10.227 1.244,-0.651 2.666,-1.282 3.95,-0.3 1.259,0.964 0.749,2.43 0.475,3.696 -0.468,2.157 -0.965,4.286 -0.69,6.532 1.361,11.089 5.381,21.211 11.725,30.303 3.505,5.023 6.105,10.199 6.442,16.338 0.302,5.511 -0.236,10.866 -3.518,15.6 -0.803,1.158 -1.709,1.869 -3.219,1.938 -3.006,0.14 -5.481,1.762 -7.67,3.573 -1.68,1.39 -1.427,3.623 -0.861,5.558 0.526,1.808 2.183,1.377 3.541,1.384 4.715,0.019 9.376,-0.707 14.066,-1.036 0.963,-0.068 1.917,-0.286 2.662,-0.944 6.253,-5.531 11.776,-11.396 14.922,-19.549 2.215,-5.74 1.821,-9.823 -2.646,-13.918 -2.51,-2.301 -3.463,-5.576 -3.743,-8.965 -0.113,-1.379 0.334,-1.976 1.795,-1.229 1.604,0.822 2.87,2.019 4.113,3.281 2.729,2.775 5.388,5.633 8.289,8.217 1.591,1.417 2.92,2.884 3.604,4.879 1.633,4.775 2.414,9.641 1.828,14.717 -0.29,2.527 -1.403,4.023 -3.897,4.638 -5.033,1.233 -4.987,2.097 -5.199,7.635 -0.051,1.346 0.635,1.973 1.896,2.256 3.985,0.896 7.841,0.327 11.75,-0.634 4.202,-1.031 6.777,-3.614 8.222,-7.523 2.065,-5.589 3.82,-11.283 5.028,-17.109 0.871,-4.208 0.998,-8.746 -2.724,-11.618 -3.994,-3.082 -6.998,-6.92 -9.905,-10.839 -3.606,-4.862 -4.556,-10.857 -6.096,-16.563 -0.036,-0.136 -0.004,-0.294 0.018,-0.438 0.655,-4.382 1.938,-8.588 3.516,-12.717 0.479,-1.253 1.01,-1.19 1.817,-0.248 1.384,1.62 2.809,3.208 4.271,4.757 3.09,3.27 6.586,5.832 11.212,6.508 6.947,1.012 13.911,-2.659 14.846,-9.566 0.372,-2.754 -0.784,-6.117 -1.763,-8.284 -2.837,-6.283 -4.773,-1.143 -5.329,-0.665 -0.717,0.619 -0.071,1.364 0.125,2.026 0.186,0.633 0.514,1.223 0.699,1.855 1.199,4.14 0.047,7.468 -3.266,8.107 -6.066,1.172 -10.028,-0.013 -12.878,-4.994 -3.106,-5.428 -3.271,-8.715 -3.065,-14.696 0.16,-4.658 -0.224,-9.247 -1.252,-13.78 -1.597,-7.042 -5.746,-12.125 -11.727,-16.124 -9.11,-6.092 -18.763,-9.98 -29.934,-9.1 -2.928,0.23 -5.854,0.521 -8.785,0.712 -9.246,0.602 -18.417,1.587 -27.456,3.825 -10.412,2.577 -20.651,2.87 -30.004,-3.761 -1.721,-1.22 -3.755,-2.006 -5.666,-2.949 -0.72,-0.354 -1.482,-0.761 -2.257,-0.846 -3.974,-0.434 -6.427,-2.933 -8.534,-5.996 z"
   id="path104"
   transform="translate(-37.118999,-666.16292)" /><path
   clip-path="url(#SVGID_8_)"
   fill="none"
   stroke="#c6262c"
   stroke-width="3.276"
   stroke-linecap="round"
   stroke-linejoin="round"
   d="m 192.211,855.438 c -0.218,0.892 -0.471,1.817 -0.435,2.717 0.137,3.458 -1.305,6.47 -2.51,9.545 l -0.226,0.6 c -1.195,0.01 -2.93,0.058 -4.609,0.227 0.095,-0.176 0.196,-0.349 0.311,-0.511 1.084,-1.544 0.781,-4.19 1.746,-5.743 0.415,-0.665 0.589,-2.15 0.526,-2.887 -0.387,-4.503 2.586,-6.808 3.153,-11.163 0.074,3.66 2.919,3.636 2.044,7.215 z m 82.652,11.149 c 3.243,-3.829 2.575,-7.142 3.824,-11.661 0.164,-0.593 0.612,-0.879 0.263,-1.313 -2.297,-2.849 -5.434,-7.961 -7.051,-10.196 -0.207,-0.285 -0.713,-0.437 -0.612,-1.02 0.311,0.142 0.542,0.226 0.754,0.344 9.848,5.475 13.838,14.318 14.433,25.089 0.068,1.242 -0.107,2.718 -1.331,3.233 -2.318,0.975 -3.32,2.985 -4.535,4.879 -1.323,2.064 -0.738,3.337 1.71,3.705 3.928,0.587 7.567,-0.356 11.032,-2.137 0.852,-0.438 1.587,-1.084 1.363,-2.171 -0.929,-4.515 0.469,-8.892 0.7,-13.337 0.142,-2.76 0.908,-5.648 -1.069,-8.167 -2.093,-2.665 -5.043,-5.404 -6.367,-8.533 -1.03,-2.433 -2.302,-4.748 -3.891,-6.876 -2.385,-3.194 -3.521,-6.543 -5.91,-9.734 -0.944,-1.26 -1.726,-2.574 -1.68,-4.338 2.002,2.477 5.167,4.615 7.099,6.776 2.907,3.252 4.849,7.054 7.407,10.47 2.093,2.796 3.163,5.484 5.521,7.938 0.361,0.377 0.882,0.776 1.479,0.513 0.631,-0.279 0.512,-0.93 0.508,-1.462 -0.013,-1.724 -0.04,-3.46 0.721,-5.057 0.753,-1.581 0.81,-3.158 0.335,-4.822 -0.589,-2.073 -0.427,-4.138 0.355,-6.136 0.392,-1.003 0.595,-2.015 0.316,-3.058 -1.15,-4.297 -2.74,-8.43 -3.386,-12.922 -0.634,-4.404 -3.84,-7.89 -6.704,-11.143 -2.301,-2.612 -4.425,-5.239 -5.913,-8.352 -0.958,-2.004 -2.327,-3.594 -4.136,-4.832 -2.034,-1.396 -3.871,-2.966 -5.401,-4.942 -4.417,-5.705 -10.5,-8.283 -17.52,-8.945 -6.929,-0.655 -13.889,-0.456 -20.816,-0.249 -5.816,0.174 -11.421,-1.756 -17.224,-1.241 -0.462,0.041 -0.985,-0.144 -1.42,-0.349 -4.318,-2.026 -8.839,-2.929 -13.61,-2.568 -0.273,0.02 -0.973,0.192 -0.808,-0.307 0.479,-1.448 -0.696,-1.145 -1.298,-1.272 -0.893,-0.19 -1.834,-0.141 -2.744,-0.27 -2.904,-0.411 -6.124,0.333 -8.674,-1.261 -4.29,-2.681 -9.162,-4.162 -13.392,-6.925 -2.83,-1.849 -5.859,-3.355 -8.974,-4.688 -1.806,-0.771 -3.982,-1.233 -5.267,-2.543 -2.197,-2.239 -4.898,-2.932 -7.654,-3.713 -3.274,-0.926 -6.14,-2.437 -8.307,-5.153 -0.681,-0.854 -1.545,-1.588 -2.415,-2.261 -1.519,-1.172 -2.087,-0.936 -2.257,0.992 -0.127,1.442 -0.58,1.657 -1.843,0.962 -1.501,-0.826 -3.103,-1.473 -4.68,-2.155 -0.441,-0.191 -1.017,-0.356 -1.381,0.077 -0.374,0.444 -0.042,0.958 0.199,1.366 1.188,2.007 2.357,4.027 3.638,5.974 0.708,1.075 0.619,1.669 -0.421,2.554 -3.671,3.123 -7.18,6.395 -7.445,11.736 -0.052,1.035 -0.967,1.782 -1.717,2.539 -3.135,3.163 -6.584,5.878 -10.657,7.753 -1.194,0.55 -1.826,1.435 -1.465,2.803 0.513,1.946 4.015,4.25 6.029,4.13 4.067,-0.244 7.357,-2.175 10.417,-4.626 1.544,-1.238 3.186,-2.256 5.2,-2.65 -1.474,1.233 -2.907,2.49 -4.025,4.024 -1.1,1.509 -2.443,2.708 -3.924,3.822 -0.588,0.443 -2.625,5.066 -2.125,5.396 0.535,0.351 0.444,0.298 1.271,0.874 1.891,1.317 3.687,0.929 5.378,-0.514 1.822,-1.554 3.669,-3.078 5.542,-4.572 1.753,-1.396 2.09,-1.243 2.485,0.892 0.191,1.04 0.28,2.055 0.03,3.097 -0.127,0.531 -0.258,1.155 0.223,1.562 1.095,0.927 1.516,2.32 2.867,3.177 5.394,3.415 8.167,9.492 13.434,13.238 2.87,2.041 4.592,5.688 6.839,8.604 0.407,0.527 0.766,1.21 1.544,1.183 1.761,-0.064 2.662,0.968 3.314,2.404 0.202,0.44 0.424,1.117 0.766,1.209 2.917,0.783 3.075,3.755 4.583,5.638 1.136,1.42 1.688,3.153 1.978,4.91 0.857,5.178 0.637,10.387 0.296,15.598 -0.297,4.552 -1.915,8.883 -2.277,13.399 -0.284,3.548 -1.251,6.864 -2.495,10.136 -1.065,2.801 -2.527,4.95 -6.142,4.66 -1.735,-0.14 -3.453,0.762 -4.831,1.942 -0.646,0.554 -1.254,1.312 -0.913,2.251 0.322,0.887 1.232,0.871 2.024,0.984 3.186,0.459 6.502,-0.393 9.605,0.959 0.312,0.136 0.731,0.046 1.098,0.029 1.5,-0.069 2.999,-0.141 4.499,-0.212 l 2.055,-4.682 4.602,-0.376 -0.064,0.17 c 2.309,-0.108 2.989,-0.485 5.298,-0.577 1.608,-0.065 2.623,-0.598 2.982,-2.338 0.177,-0.857 0.428,-2.222 1.438,-2.297 1.096,-0.08 1.135,-0.736 1.412,-1.353 0.479,-1.062 0.839,-1.135 1.38,-2.162 3.433,-6.508 4.097,-9.584 5.44,-16.732 0.933,-4.967 0.612,-10.16 2.792,-14.914 0.237,-0.519 0.135,-1.212 0.119,-1.822 -0.033,-1.151 0.459,-1.948 1.399,-2.615 3.201,-2.273 6.365,-4.598 9.537,-6.912 1.244,-0.906 2.525,-1.35 4.131,-0.982 1.87,0.428 3.787,0.259 5.675,-0.108 1.748,-0.34 3.516,-0.825 5.292,-0.443 1.727,0.371 3.397,0.296 5.111,0.01 3.247,-0.54 4.228,0.02 5.024,3.243 0.624,2.516 1.949,4.582 3.375,6.675 3.72,5.466 9.861,8.431 13.88,13.567 0.036,0.048 0.098,0.074 0.143,0.115 7.845,7.209 8.685,15.54 3.841,24.249 -0.695,1.25 -1.699,2.457 -3.31,2.266 -2.61,-0.31 -4.433,1.151 -6.344,2.465 -0.783,0.538 -1.46,1.255 -1.058,2.313 0.377,0.996 1.306,1.29 2.264,1.263 3.788,-0.112 7.58,-0.197 11.359,-0.446 3.005,-0.2 3.704,-0.986 4.573,-3.891 0.83,-2.775 2.879,-5.119 2.933,-8.184 0.005,-0.217 0.194,-0.456 0.349,-0.64 z"
   id="path108"
   transform="translate(-37.118999,-666.16292)" /><path
   clip-path="url(#SVGID_8_)"
   fill="none"
   stroke="#79b5e3"
   stroke-width="2.939"
   stroke-linecap="round"
   stroke-linejoin="round"
   stroke-miterlimit="10"
   d="m 252.483,1042.289 c 3.11,0.885 5.959,-0.884 8.833,-3.023 5.636,-4.191 11.369,-8.248 16.679,-12.859 1.053,-0.912 2.022,-1.92 3.05,-2.861 1.149,-1.05 1.861,-2.293 1.958,-3.881 0.061,-1.002 0.564,-1.803 1.288,-2.504 3.914,-3.789 8.916,-4.62 13.822,-2.297 0.908,0.431 1.567,1.023 2.026,1.94 3.042,6.062 6.102,12.113 9.201,18.145 0.555,1.081 0.438,1.407 -0.84,1.567 -1.966,0.246 -2.805,1.435 -2.638,3.281 0.154,1.695 1.033,2.443 3.082,2.492 1.779,0.045 3.561,-0.036 5.339,0.021 1.141,0.037 1.63,-0.502 1.876,-1.541 0.5,-2.115 0.218,-4.213 -0.042,-6.311 -0.823,-6.628 -1.669,-13.253 -2.501,-19.88 -0.061,-0.477 -0.049,-0.964 -0.126,-1.437 -0.124,-0.76 0.224,-1.043 0.935,-1.108 2.68,-0.246 5.355,-0.542 8.037,-0.766 0.926,-0.078 1.774,0.385 2.651,0.622 4.272,1.154 8.54,2.312 12.999,2.513 1.067,0.049 2.129,0.047 3.138,-0.29 0.843,-0.283 1.203,0.011 1.509,0.774 1.976,4.929 4.701,9.365 8.693,12.937 0.647,0.578 0.605,1.074 0.157,1.74 -1.772,2.634 -3.522,5.281 -5.25,7.945 -0.447,0.692 -0.937,0.94 -1.791,0.809 -3.198,-0.499 -4.504,0.755 -4.331,3.941 0.052,0.953 0.456,1.249 1.339,1.239 2.406,-0.026 4.811,-0.016 7.216,-0.01 0.559,0 1.03,-0.162 1.432,-0.557 3.884,-3.812 7.627,-7.743 10.695,-12.27 1.259,-1.858 1.715,-3.682 1.017,-5.963 -0.904,-2.956 -0.659,-6.093 -0.717,-9.164 -0.022,-1.163 0.733,-0.745 1.282,-0.545 4.295,1.559 8.529,3.307 12.889,4.649 2.701,0.832 4.203,2.315 5.135,4.965 1.334,3.788 3.434,7.315 3.622,11.472 0.023,0.512 0.247,1.029 0.455,1.513 0.621,1.453 1.226,1.637 2.536,0.822 3.352,-2.082 4.074,-3.962 2.994,-7.763 -1.747,-6.15 -3.505,-12.3 -5.214,-18.462 -0.253,-0.91 -0.726,-1.505 -1.516,-1.979 -2.021,-1.211 -4.062,-2.399 -5.997,-3.74 -3.28,-2.271 -4.932,-5.37 -4.133,-9.424 0.815,-4.144 -0.054,-8.029 -1.558,-11.839 -0.812,-2.056 -1.608,-4.131 -2.77,-6.021 -0.455,-0.737 -0.138,-1.119 0.317,-1.604 6.038,-6.444 9.553,-14.156 11.094,-22.761 1.28,-7.148 0.696,-14.096 -3.158,-20.489 -2.273,-3.774 -5.284,-6.617 -9.786,-7.44 -3.076,-0.562 -6.026,-0.049 -8.851,1.27 -1.843,0.86 -3.557,1.927 -5.083,3.266 -1.936,1.695 -2.166,4.243 -0.623,6.21 1.484,1.89 4.138,2.188 6.195,0.65 1.238,-0.926 2.475,-1.831 3.956,-2.34 2.476,-0.85 4.243,-0.326 5.819,1.791 1.955,2.624 3.021,5.632 3.121,8.854 0.296,9.569 -2.796,17.932 -9.281,25.017 -0.699,0.763 -1.333,0.979 -2.38,0.543 -2.688,-1.116 -5.521,-1.578 -8.448,-1.591 -9.097,-0.038 -18.153,0.628 -27.209,1.412 -7.374,0.64 -14.741,1.32 -22.03,2.662 -1.177,0.217 -2.389,0.454 -3.472,0.935 -2.085,0.925 -4.18,0.974 -6.35,0.526 -4.592,-0.947 -8.786,-2.785 -12.532,-5.612 -0.533,-0.402 -1.084,-0.844 -1.461,-1.382 -1.406,-2.015 -3.386,-3.089 -5.703,-3.633 -0.879,-0.207 -1.585,-0.639 -2.198,-1.29 -1.745,-1.86 -3.541,-3.683 -4.957,-5.811 -0.711,-1.068 -1.081,-0.79 -1.539,0.128 -0.964,1.932 -1.508,3.964 -1.302,6.124 0.078,0.818 -0.125,1.229 -0.892,1.523 -2.899,1.114 -4.95,3.092 -6.507,5.827 -0.95,1.672 -2.547,2.984 -3.893,4.421 -1.493,1.593 -1.54,3.383 0.044,4.886 0.619,0.587 1.021,1.209 1.312,2 0.655,1.779 2.301,2.765 4.146,2.282 6.272,-1.635 10.658,1.925 12.395,7.584 0.241,0.785 0.337,1.55 0.225,2.399 -0.286,2.165 0.35,4.297 0.387,6.458 0.134,7.778 -0.159,15.475 -5.315,21.938 -2.795,3.504 -6.312,6.328 -9.441,9.523 -0.403,0.41 -0.896,0.746 -1.249,1.195 -1.063,1.348 -2.349,1.837 -4.118,1.788 -2.998,-0.081 -4.511,1.956 -4.041,4.931 0.125,0.785 0.597,0.904 1.213,0.908 1.491,0.013 2.983,0.01 5.134,0.01 z"
   id="path112"
   transform="translate(-37.118999,-666.16292)" /><path
   clip-path="url(#SVGID_8_)"
   fill="#79b5e3"
   d="m 322.467,999.199 c 2.288,0 4.143,-1.854 4.143,-4.143 0,-2.289 -1.854,-4.143 -4.143,-4.143 -2.289,0 -4.143,1.854 -4.143,4.143 0,2.289 1.854,4.143 4.143,4.143"
   id="path116"
   transform="translate(-37.118999,-666.16292)" /><path
   clip-path="url(#SVGID_8_)"
   fill="#c6262c"
   d="m 222.216,807.207 c 2.288,0 4.144,-1.855 4.144,-4.144 0,-2.289 -1.855,-4.143 -4.144,-4.143 -2.288,0 -4.143,1.854 -4.143,4.143 0,2.289 1.856,4.144 4.143,4.144"
   id="path120"
   transform="translate(-37.118999,-666.16292)" /><path
   clip-path="url(#SVGID_8_)"
   fill="#c6262c"
   d="m 414.258,743.221 c 2.288,0 4.143,-1.855 4.143,-4.144 0,-2.289 -1.854,-4.143 -4.143,-4.143 -2.289,0 -4.143,1.854 -4.143,4.143 0,2.289 1.855,4.144 4.143,4.144"
   id="path124"
   transform="translate(-37.118999,-666.16292)" /><path
   clip-path="url(#SVGID_8_)"
   fill="none"
   stroke="#c6262c"
   stroke-width="3.276"
   stroke-linecap="round"
   stroke-linejoin="round"
   d="m 483.107,902.13 c -5.773,-0.373 -10.514,-2.64 -14.766,-6.43 -5.14,-4.582 -9.459,-9.847 -13.514,-15.366 -3.496,-4.756 -6.552,-9.828 -10.324,-14.385 -2.267,-2.738 -4.309,-5.577 -4.927,-9.194 -0.052,-0.3 -0.198,-0.59 -0.343,-0.864 -0.339,-0.646 -0.838,-1.067 -1.619,-0.937 -0.737,0.123 -1.057,0.692 -1.079,1.339 -0.048,1.403 -0.74,2.58 -1.258,3.808 -0.863,2.039 -2.376,2.247 -3.781,0.498 -0.771,-0.962 -1.377,-2.063 -2.008,-3.132 -0.493,-0.833 -0.997,-1.676 -2.108,-1.525 -1.215,0.165 -1.627,1.105 -1.854,2.2 -0.362,1.745 -0.216,3.508 -0.272,5.266 -0.149,4.593 -2.04,8.11 -6.406,9.938 -2.507,1.053 -4.809,2.404 -6.984,4.01 -0.869,0.641 -1.997,1.182 -1.691,2.513 0.298,1.29 1.51,1.216 2.524,1.366 0.203,0.031 0.399,0.107 0.598,0.163 1.227,0.354 1.381,1.131 0.805,2.142 -0.229,0.399 -0.54,0.759 -0.848,1.107 -3.117,3.537 -6.341,6.973 -9.686,10.293 -1.625,1.614 -2.866,3.469 -3.082,5.779 -0.338,3.644 0.04,7.24 1.214,10.723 0.555,1.647 1.602,2.848 3.275,3.512 2.093,0.829 3.903,2.119 5.533,3.672 1.462,1.392 2.902,2.815 4.442,4.119 3.615,3.069 9.437,2.283 11.395,-1.785 2.271,-4.719 4.192,-9.624 3.15,-15.09 -0.086,-0.453 -0.081,-0.929 -0.076,-1.395 0.006,-0.554 0.184,-1.04 0.798,-1.178 0.64,-0.143 1.252,-0.092 1.672,0.503 0.369,0.522 0.468,1.132 0.539,1.758 0.252,2.263 0.53,4.522 0.8,6.783 0.769,6.444 1.37,12.916 -0.332,19.285 -1.164,4.361 -1.544,8.749 -1.398,13.221 0.109,3.363 0.475,6.716 0.349,10.087 0,1.969 -0.07,3.939 0.015,5.903 0.166,3.836 1.456,5.126 5.303,5.477 2.887,0.263 5.752,0.601 8.543,1.485 2.021,0.638 4.132,0.892 6.262,1.055 5.259,0.404 10.429,-0.365 15.607,-1.035 1.523,-0.197 2.835,-0.85 3.826,-2.139 1.416,-1.844 3.423,-2.761 5.685,-2.734 4.335,0.054 8.53,-0.938 12.781,-1.492 4.479,-0.584 9.019,-1.468 13.353,0.239 3.866,1.524 7.511,1.265 11.36,0.146 4.767,-1.383 9.04,-0.371 12.42,3.438 1.096,1.236 2.393,1.758 3.99,1.635 2.683,-0.207 5.376,-0.329 8.043,-0.664 4.435,-0.557 6.728,-2.856 7.35,-7.303 0.461,-3.296 0.253,-6.614 0.067,-9.923 -0.075,-1.343 -0.352,-2.707 0.08,-4.009 0.52,-1.562 0.429,-3.036 -0.153,-4.545 -0.504,-1.303 -0.854,-2.668 -1.402,-3.948 -4.152,-9.71 -8.916,-19.027 -16.574,-26.57 -3.097,-3.051 -4.651,-6.79 -4.196,-11.249 0.137,-1.332 0.035,-2.684 -0.103,-4.03 -0.632,-6.128 -3.275,-11.507 -6.188,-16.785 -1.225,-2.222 -2.517,-4.406 -3.815,-6.585 -0.496,-0.831 -1.164,-1.509 -2.271,-1.244 -1.142,0.273 -1.542,1.168 -1.613,2.21 -0.06,0.875 -0.031,1.762 0.03,2.637 0.208,3.006 0.811,5.938 1.588,8.848 1.218,4.557 1.508,9.187 0.752,13.851 -0.442,2.727 -1.771,3.953 -4.528,4.293 -8.309,1.029 -16.617,0.771 -24.95,0.234 z"
   id="path128"
   transform="translate(-37.118999,-666.16292)" /><path
   clip-path="url(#SVGID_8_)"
   fill="#c6262c"
   d="m 481.75,934.036 c 2.288,0 4.143,-1.854 4.143,-4.143 0,-2.289 -1.854,-4.144 -4.143,-4.144 -2.289,0 -4.143,1.855 -4.143,4.144 0,2.289 1.855,4.143 4.143,4.143"
   id="path132"
   transform="translate(-37.118999,-666.16292)" /><path
   clip-path="url(#SVGID_8_)"
   fill="#79b5e3"
   d="m 329.497,1075.764 c 1.724,0 3.123,-1.398 3.123,-3.123 0,-1.725 -1.399,-3.123 -3.123,-3.123 -1.725,0 -3.124,1.398 -3.124,3.123 0,1.725 1.399,3.123 3.124,3.123"
   id="path136"
   transform="translate(-37.118999,-666.16292)" /><path
   clip-path="url(#SVGID_8_)"
   fill="none"
   stroke="#79b5e3"
   stroke-width="2.939"
   stroke-linecap="round"
   stroke-linejoin="round"
   stroke-miterlimit="10"
   d="m 304.937,1109.219 h -2.902 c -0.225,-0.088 -0.448,-0.181 -0.675,-0.262 -1.263,-0.446 -1.523,-1.59 -0.57,-2.544 0.367,-0.366 0.765,-0.706 1.127,-1.071 0.425,-0.429 0.974,-0.771 1.227,-1.342 0.796,-1.792 1.659,-3.559 2.145,-5.472 0.099,-0.393 0.243,-0.775 0.434,-1.14 0.63,-1.203 0.952,-2.501 0.999,-3.841 0.104,-3 -0.233,-5.939 -1.337,-8.769 -0.288,-0.737 -0.505,-1.5 -0.823,-2.233 -0.374,-0.863 -0.861,-1.708 -1.074,-2.608 -0.347,-1.473 -0.753,-2.932 -1.079,-4.41 -0.096,-0.433 -0.097,-0.893 -0.236,-1.309 -0.608,-1.812 -1.447,-3.495 -2.973,-4.734 -1.062,-0.862 -2.19,-1.668 -3.625,-1.652 -1.325,0.014 -2.264,-0.722 -3.256,-1.396 -0.222,-0.15 -0.318,-0.396 -0.367,-0.663 -0.04,-0.216 -0.123,-0.425 -0.187,-0.637 v -2.005 c 0.236,-0.609 0.53,-1.178 1.017,-1.64 0.257,-0.241 0.453,-0.543 0.512,-0.906 0.138,-0.856 0.532,-1.612 0.919,-2.37 0.15,-0.295 0.221,-0.657 0.54,-0.824 0.56,-0.294 0.87,-0.855 1.363,-1.22 0.198,-0.146 0.301,-0.376 0.328,-0.626 0.078,-0.724 -0.02,-1.404 -0.49,-1.998 -0.299,-0.378 -0.607,-0.757 -0.748,-1.229 -0.1,-0.338 -0.437,-0.714 -0.071,-1.024 0.373,-0.317 0.773,-0.022 1.139,0.144 0.114,0.052 0.222,0.141 0.306,0.235 0.973,1.093 2.283,1.678 3.545,2.33 0.364,0.188 0.641,0.078 0.791,-0.326 0.193,-0.521 0.392,-1.042 0.607,-1.555 0.217,-0.515 0.576,-0.644 1.075,-0.385 0.263,0.136 0.556,0.262 0.753,0.47 0.774,0.82 1.672,1.51 2.409,2.371 0.6,0.701 1.247,1.355 1.776,2.122 1.127,1.634 1.965,3.433 2.98,5.13 0.705,1.18 1.643,2.073 2.618,2.975 0.2,0.184 0.442,0.282 0.704,0.31 0.959,0.103 1.898,0.039 2.761,-0.445 0.778,-0.438 1.602,-0.682 2.504,-0.638 0.313,0.015 0.656,0.069 0.932,-0.096 0.702,-0.416 1.504,-0.389 2.261,-0.532 1.577,-0.296 3.176,-0.388 4.742,-0.853 1.393,-0.414 2.796,-0.845 4.24,-1.115 1.177,-0.22 2.338,-0.512 3.491,-0.887 1.524,-0.495 3.148,-0.702 4.772,-0.764 0.257,-0.01 0.526,-0.02 0.757,-0.159 0.4,-0.242 0.838,-0.269 1.291,-0.271 2.547,-0.01 5.094,-0.026 7.643,-0.041 0.299,-10e-4 0.593,-0.013 0.876,-0.129 1.917,-0.798 3.806,-1.645 5.39,-3.031 0.404,-0.354 0.805,-0.705 1.259,-1.006 1.063,-0.705 2.047,-1.525 3.062,-2.293 0.73,-0.553 1.265,-1.385 1.911,-2.071 0.899,-0.956 1.745,-1.973 2.526,-3.026 0.667,-0.902 1.31,-1.84 1.676,-2.917 0.148,-0.435 0.092,-0.98 0.337,-1.331 0.603,-0.869 0.87,-1.881 1.362,-2.795 0.417,-0.769 0.934,-1.468 1.365,-2.226 0.78,-1.367 1.881,-2.463 3.135,-3.41 0.521,0 1.245,-0.203 1.505,0.057 0.26,0.26 0.057,0.982 0.057,1.502 v 0.891 c -0.534,1.103 -0.86,2.294 -1.202,3.449 -0.626,2.118 -1.317,4.208 -2.091,6.272 -0.402,1.07 -0.874,2.13 -1.435,3.127 -1.146,2.035 -2.641,3.826 -4.148,5.604 -0.107,0.128 -0.219,0.268 -0.358,0.349 -0.934,0.536 -1.536,1.433 -2.33,2.118 -0.755,0.651 -1.548,1.255 -2.289,1.926 -0.944,0.854 -2.141,1.388 -3.069,2.283 -0.56,0.539 -0.849,1.149 -0.755,1.933 0.095,0.79 0.22,1.581 0.246,2.374 0.103,3.188 0.06,6.377 -0.063,9.564 -0.037,0.945 0.118,1.89 0.496,2.77 0.534,1.239 1.222,2.409 1.666,3.689 0.064,0.188 0.196,0.354 0.298,0.53 0.716,1.221 1.598,2.367 1.75,3.845 0.056,0.553 0.119,1.105 0.194,1.654 0.217,1.591 0.225,3.173 -0.118,4.752 -0.13,0.599 -0.474,0.947 -1.06,1.074 -0.884,0.192 -1.775,0.155 -2.662,0.05 -0.42,-0.05 -0.76,-0.285 -0.969,-0.677 -0.426,-0.806 -0.212,-2.305 0.479,-2.896 0.457,-0.394 0.496,-0.807 0.233,-1.279 -0.273,-0.489 -0.458,-1.01 -0.639,-1.535 -0.272,-0.791 -0.569,-1.569 -1.13,-2.219 -0.276,-0.32 -0.597,-0.567 -1.008,-0.426 -0.469,0.161 -0.309,0.611 -0.3,0.968 0.002,0.128 0.063,0.253 0.074,0.382 0.116,1.219 0.242,2.451 -0.07,3.647 -0.405,1.558 -1.187,2.999 -1.475,4.599 -0.02,0.106 -0.066,0.221 -0.135,0.303 -0.538,0.66 -0.679,1.468 -0.886,2.257 -0.192,0.731 -0.48,1.436 -0.621,2.184 -0.054,0.29 -0.224,0.541 -0.472,0.735 -0.665,0.521 -1.385,0.841 -2.259,0.754 -0.405,-0.039 -0.812,0.018 -1.219,0.09 -1.095,0.192 -2.493,-0.932 -2.565,-2.027 -0.068,-1.056 0.488,-1.914 1.561,-2.262 0.609,-0.199 0.974,-0.587 1.208,-1.139 0.117,-0.276 0.29,-0.515 0.437,-0.771 0.586,-1.02 1.113,-2.08 0.969,-3.295 -0.152,-1.273 -0.624,-2.476 -1.477,-3.421 -0.963,-1.068 -1.744,-2.265 -2.629,-3.385 -0.32,-0.404 -0.689,-0.776 -0.966,-1.214 -0.621,-0.984 -1.222,-1.981 -1.841,-2.967 -0.542,-0.864 -0.779,-0.946 -1.738,-0.628 -0.246,0.082 -0.502,0.153 -0.728,0.276 -1.583,0.88 -3.411,0.968 -5.088,1.557 -1.111,0.39 -2.362,0.381 -3.474,0.77 -1.628,0.57 -3.331,0.877 -4.945,1.48 -0.639,0.24 -1.374,0.161 -1.963,0.582 -0.454,0.324 -0.982,0.467 -1.522,0.477 -1.041,0.018 -1.764,0.726 -2.62,1.142 -0.146,0.07 -0.233,0.28 -0.322,0.441 -0.372,0.666 -0.49,1.415 -0.505,2.146 -0.042,1.87 -0.317,3.728 -0.246,5.604 0.038,0.981 0.014,1.966 0.003,2.949 -0.008,0.778 -0.004,1.569 -0.275,2.31 -0.468,1.271 -1.095,2.404 -2.607,2.688 -1.16,0.219 -2.303,0.146 -3.407,-0.244 -0.782,-0.275 -0.958,-0.818 -0.604,-1.551 0.097,-0.199 0.172,-0.41 0.258,-0.615 0.247,-0.594 0.663,-0.946 1.326,-1.046 0.749,-0.112 1.112,-0.51 1.13,-1.278 0.014,-0.551 -0.089,-1.105 -0.162,-1.654 -0.027,-0.196 -0.08,-0.429 -0.342,-0.446 -0.235,-0.017 -0.276,0.208 -0.374,0.359 -1.142,1.771 -1.833,3.784 -2.987,5.55 -0.07,0.107 -0.101,0.238 -0.152,0.357 -0.421,0.987 -0.792,2.002 -1.281,2.955 -0.294,0.572 -0.613,1.125 -0.882,1.717 -0.34,0.75 -0.838,1.445 -1.733,1.691 -0.304,0.081 -0.593,0.219 -0.886,0.332 z"
   id="path140"
   transform="translate(-37.118999,-666.16292)" />

<line
   clip-path="url(#SVGID_10_)"
   fill="none"
   stroke="#000000"
   stroke-width="5.46"
   x1="45.817001"
   y1="792.09698"
   x2="588.95898"
   y2="1008.675"
   id="line156"
   transform="translate(-37.118999,-666.16292)" />





</svg>
