<?xml version="1.0" encoding="UTF-8" standalone="no"?>
<!-- Created with Inkscape (http://www.inkscape.org/) -->

<svg
   xmlns:dc="http://purl.org/dc/elements/1.1/"
   xmlns:cc="http://creativecommons.org/ns#"
   xmlns:rdf="http://www.w3.org/1999/02/22-rdf-syntax-ns#"
   xmlns:svg="http://www.w3.org/2000/svg"
   xmlns="http://www.w3.org/2000/svg"
   xmlns:sodipodi="http://sodipodi.sourceforge.net/DTD/sodipodi-0.dtd"
   xmlns:inkscape="http://www.inkscape.org/namespaces/inkscape"
   version="1.1"
   id="svg2"
   xml:space="preserve"
   width="1000"
   height="350"
   viewBox="0 0 1000 350.00001"
   sodipodi:docname="dt-421.svg"
   inkscape:version="0.92.5 (2060ec1f9f, 2020-04-08)"><metadata
     id="metadata8"><rdf:RDF><cc:Work
         rdf:about=""><dc:format>image/svg+xml</dc:format><dc:type
           rdf:resource="http://purl.org/dc/dcmitype/StillImage" /><dc:title></dc:title></cc:Work></rdf:RDF></metadata><defs
     id="defs6"><clipPath
       clipPathUnits="userSpaceOnUse"
       id="clipPath18"><path
         d="M 0,0 H 2480 V 3509 H 0 Z"
         id="path16"
         inkscape:connector-curvature="0"
         style="clip-rule:evenodd" /></clipPath><clipPath
       clipPathUnits="userSpaceOnUse"
       id="clipPath50"><path
         d="M 116.66666,175 H 2366.6667 V 3390.625 H 116.66666 Z"
         id="path48"
         inkscape:connector-curvature="0"
         style="clip-rule:evenodd" /></clipPath><clipPath
       clipPathUnits="userSpaceOnUse"
       id="clipPath66"><path
         d="M 116.66666,175 H 2366.6667 V 3390.625 H 116.66666 Z"
         id="path64"
         inkscape:connector-curvature="0" /></clipPath><clipPath
       clipPathUnits="userSpaceOnUse"
       id="clipPath72"><path
         d="M 182.29166,1575 V 228.125 c -2e-5,-1.72591 0.61018,-3.19905 1.83056,-4.41943 1.22039,-1.22039 2.69353,-1.83057 4.41944,-1.83057 H 2294.7917 c 1.7259,0 3.1988,0.61018 4.4192,1.83057 1.2205,1.22038 1.8308,2.69352 1.8308,4.41943 V 1575 c 0,1.7258 -0.6103,3.199 -1.8308,4.4193 -1.2204,1.2204 -2.6933,1.8306 -4.4192,1.8307 H 188.54166 c -1.72591,-10e-5 -3.19905,-0.6103 -4.41944,-1.8307 -1.22038,-1.2203 -1.83058,-2.6935 -1.83056,-4.4193 z"
         id="path70"
         inkscape:connector-curvature="0" /></clipPath><clipPath
       clipPathUnits="userSpaceOnUse"
       id="clipPath78"><path
         d="M 254.16666,293.75 H 1638.5417 V 1490.625 H 254.16666 Z"
         id="path76"
         inkscape:connector-curvature="0" /></clipPath><clipPath
       clipPathUnits="userSpaceOnUse"
       id="clipPath90"><path
         d="M 116.66666,175 H 2366.6667 V 3390.625 H 116.66666 Z"
         id="path88"
         inkscape:connector-curvature="0" /></clipPath><clipPath
       clipPathUnits="userSpaceOnUse"
       id="clipPath96"><path
         d="M 182.29166,1575 V 228.125 c -2e-5,-1.72591 0.61018,-3.19905 1.83056,-4.41943 1.22039,-1.22039 2.69353,-1.83057 4.41944,-1.83057 H 2294.7917 c 1.7259,0 3.1988,0.61018 4.4192,1.83057 1.2205,1.22038 1.8308,2.69352 1.8308,4.41943 V 1575 c 0,1.7258 -0.6103,3.199 -1.8308,4.4193 -1.2204,1.2204 -2.6933,1.8306 -4.4192,1.8307 H 188.54166 c -1.72591,-10e-5 -3.19905,-0.6103 -4.41944,-1.8307 -1.22038,-1.2203 -1.83058,-2.6935 -1.83056,-4.4193 z"
         id="path94"
         inkscape:connector-curvature="0" /></clipPath><clipPath
       clipPathUnits="userSpaceOnUse"
       id="clipPath102"><path
         d="M 254.16666,293.75 H 1638.5417 V 1490.625 H 254.16666 Z"
         id="path100"
         inkscape:connector-curvature="0" /></clipPath><clipPath
       clipPathUnits="userSpaceOnUse"
       id="clipPath108"><path
         d="m 1054.1047,630.47968 h 28.1058 v 37.46417 h -28.1058 z"
         id="path106"
         inkscape:connector-curvature="0" /></clipPath><clipPath
       clipPathUnits="userSpaceOnUse"
       id="clipPath120"><path
         d="M 116.66666,175 H 2366.6667 V 3390.625 H 116.66666 Z"
         id="path118"
         inkscape:connector-curvature="0" /></clipPath><clipPath
       clipPathUnits="userSpaceOnUse"
       id="clipPath126"><path
         d="M 182.29166,1575 V 228.125 c -2e-5,-1.72591 0.61018,-3.19905 1.83056,-4.41943 1.22039,-1.22039 2.69353,-1.83057 4.41944,-1.83057 H 2294.7917 c 1.7259,0 3.1988,0.61018 4.4192,1.83057 1.2205,1.22038 1.8308,2.69352 1.8308,4.41943 V 1575 c 0,1.7258 -0.6103,3.199 -1.8308,4.4193 -1.2204,1.2204 -2.6933,1.8306 -4.4192,1.8307 H 188.54166 c -1.72591,-10e-5 -3.19905,-0.6103 -4.41944,-1.8307 -1.22038,-1.2203 -1.83058,-2.6935 -1.83056,-4.4193 z"
         id="path124"
         inkscape:connector-curvature="0" /></clipPath><clipPath
       clipPathUnits="userSpaceOnUse"
       id="clipPath132"><path
         d="M 254.16666,293.75 H 1638.5417 V 1490.625 H 254.16666 Z"
         id="path130"
         inkscape:connector-curvature="0" /></clipPath><clipPath
       clipPathUnits="userSpaceOnUse"
       id="clipPath144"><path
         d="M 116.66666,175 H 2366.6667 V 3390.625 H 116.66666 Z"
         id="path142"
         inkscape:connector-curvature="0" /></clipPath><clipPath
       clipPathUnits="userSpaceOnUse"
       id="clipPath150"><path
         d="M 182.29166,1575 V 228.125 c -2e-5,-1.72591 0.61018,-3.19905 1.83056,-4.41943 1.22039,-1.22039 2.69353,-1.83057 4.41944,-1.83057 H 2294.7917 c 1.7259,0 3.1988,0.61018 4.4192,1.83057 1.2205,1.22038 1.8308,2.69352 1.8308,4.41943 V 1575 c 0,1.7258 -0.6103,3.199 -1.8308,4.4193 -1.2204,1.2204 -2.6933,1.8306 -4.4192,1.8307 H 188.54166 c -1.72591,-10e-5 -3.19905,-0.6103 -4.41944,-1.8307 -1.22038,-1.2203 -1.83058,-2.6935 -1.83056,-4.4193 z"
         id="path148"
         inkscape:connector-curvature="0" /></clipPath><clipPath
       clipPathUnits="userSpaceOnUse"
       id="clipPath156"><path
         d="M 254.16666,293.75 H 1638.5417 V 1490.625 H 254.16666 Z"
         id="path154"
         inkscape:connector-curvature="0" /></clipPath><clipPath
       clipPathUnits="userSpaceOnUse"
       id="clipPath162"><path
         d="m 844.88593,972.19403 h 28.10565 v 37.46417 h -28.10565 z"
         id="path160"
         inkscape:connector-curvature="0" /></clipPath><clipPath
       clipPathUnits="userSpaceOnUse"
       id="clipPath174"><path
         d="M 116.66666,175 H 2366.6667 V 3390.625 H 116.66666 Z"
         id="path172"
         inkscape:connector-curvature="0" /></clipPath><clipPath
       clipPathUnits="userSpaceOnUse"
       id="clipPath180"><path
         d="M 182.29166,1575 V 228.125 c -2e-5,-1.72591 0.61018,-3.19905 1.83056,-4.41943 1.22039,-1.22039 2.69353,-1.83057 4.41944,-1.83057 H 2294.7917 c 1.7259,0 3.1988,0.61018 4.4192,1.83057 1.2205,1.22038 1.8308,2.69352 1.8308,4.41943 V 1575 c 0,1.7258 -0.6103,3.199 -1.8308,4.4193 -1.2204,1.2204 -2.6933,1.8306 -4.4192,1.8307 H 188.54166 c -1.72591,-10e-5 -3.19905,-0.6103 -4.41944,-1.8307 -1.22038,-1.2203 -1.83058,-2.6935 -1.83056,-4.4193 z"
         id="path178"
         inkscape:connector-curvature="0" /></clipPath><clipPath
       clipPathUnits="userSpaceOnUse"
       id="clipPath186"><path
         d="M 254.16666,293.75 H 1638.5417 V 1490.625 H 254.16666 Z"
         id="path184"
         inkscape:connector-curvature="0" /></clipPath><clipPath
       clipPathUnits="userSpaceOnUse"
       id="clipPath198"><path
         d="M 116.66666,175 H 2366.6667 V 3390.625 H 116.66666 Z"
         id="path196"
         inkscape:connector-curvature="0" /></clipPath><clipPath
       clipPathUnits="userSpaceOnUse"
       id="clipPath204"><path
         d="M 182.29166,1575 V 228.125 c -2e-5,-1.72591 0.61018,-3.19905 1.83056,-4.41943 1.22039,-1.22039 2.69353,-1.83057 4.41944,-1.83057 H 2294.7917 c 1.7259,0 3.1988,0.61018 4.4192,1.83057 1.2205,1.22038 1.8308,2.69352 1.8308,4.41943 V 1575 c 0,1.7258 -0.6103,3.199 -1.8308,4.4193 -1.2204,1.2204 -2.6933,1.8306 -4.4192,1.8307 H 188.54166 c -1.72591,-10e-5 -3.19905,-0.6103 -4.41944,-1.8307 -1.22038,-1.2203 -1.83058,-2.6935 -1.83056,-4.4193 z"
         id="path202"
         inkscape:connector-curvature="0" /></clipPath><clipPath
       clipPathUnits="userSpaceOnUse"
       id="clipPath210"><path
         d="M 254.16666,293.75 H 1638.5417 V 1490.625 H 254.16666 Z"
         id="path208"
         inkscape:connector-curvature="0" /></clipPath><clipPath
       clipPathUnits="userSpaceOnUse"
       id="clipPath216"><path
         d="m 565.63184,1315.2717 0.53527,37.4604 -28.10278,0.4013 -0.53528,-37.4603 z"
         id="path214"
         inkscape:connector-curvature="0" /></clipPath><clipPath
       clipPathUnits="userSpaceOnUse"
       id="clipPath228"><path
         d="M 116.66666,175 H 2366.6667 V 3390.625 H 116.66666 Z"
         id="path226"
         inkscape:connector-curvature="0" /></clipPath><clipPath
       clipPathUnits="userSpaceOnUse"
       id="clipPath234"><path
         d="M 182.29166,1575 V 228.125 c -2e-5,-1.72591 0.61018,-3.19905 1.83056,-4.41943 1.22039,-1.22039 2.69353,-1.83057 4.41944,-1.83057 H 2294.7917 c 1.7259,0 3.1988,0.61018 4.4192,1.83057 1.2205,1.22038 1.8308,2.69352 1.8308,4.41943 V 1575 c 0,1.7258 -0.6103,3.199 -1.8308,4.4193 -1.2204,1.2204 -2.6933,1.8306 -4.4192,1.8307 H 188.54166 c -1.72591,-10e-5 -3.19905,-0.6103 -4.41944,-1.8307 -1.22038,-1.2203 -1.83058,-2.6935 -1.83056,-4.4193 z"
         id="path232"
         inkscape:connector-curvature="0" /></clipPath><clipPath
       clipPathUnits="userSpaceOnUse"
       id="clipPath240"><path
         d="M 254.16666,293.75 H 1638.5417 V 1490.625 H 254.16666 Z"
         id="path238"
         inkscape:connector-curvature="0" /></clipPath><clipPath
       clipPathUnits="userSpaceOnUse"
       id="clipPath252"><path
         d="M 116.66666,175 H 2366.6667 V 3390.625 H 116.66666 Z"
         id="path250"
         inkscape:connector-curvature="0" /></clipPath><clipPath
       clipPathUnits="userSpaceOnUse"
       id="clipPath258"><path
         d="M 182.29166,1575 V 228.125 c -2e-5,-1.72591 0.61018,-3.19905 1.83056,-4.41943 1.22039,-1.22039 2.69353,-1.83057 4.41944,-1.83057 H 2294.7917 c 1.7259,0 3.1988,0.61018 4.4192,1.83057 1.2205,1.22038 1.8308,2.69352 1.8308,4.41943 V 1575 c 0,1.7258 -0.6103,3.199 -1.8308,4.4193 -1.2204,1.2204 -2.6933,1.8306 -4.4192,1.8307 H 188.54166 c -1.72591,-10e-5 -3.19905,-0.6103 -4.41944,-1.8307 -1.22038,-1.2203 -1.83058,-2.6935 -1.83056,-4.4193 z"
         id="path256"
         inkscape:connector-curvature="0" /></clipPath><clipPath
       clipPathUnits="userSpaceOnUse"
       id="clipPath264"><path
         d="M 254.16666,293.75 H 1638.5417 V 1490.625 H 254.16666 Z"
         id="path262"
         inkscape:connector-curvature="0" /></clipPath><clipPath
       clipPathUnits="userSpaceOnUse"
       id="clipPath270"><path
         d="m 1182.6146,1315.2717 0.5353,37.4604 -28.1028,0.4013 -0.5353,-37.4603 z"
         id="path268"
         inkscape:connector-curvature="0" /></clipPath><clipPath
       clipPathUnits="userSpaceOnUse"
       id="clipPath282"><path
         d="M 116.66666,175 H 2366.6667 V 3390.625 H 116.66666 Z"
         id="path280"
         inkscape:connector-curvature="0" /></clipPath><clipPath
       clipPathUnits="userSpaceOnUse"
       id="clipPath288"><path
         d="M 182.29166,1575 V 228.125 c -2e-5,-1.72591 0.61018,-3.19905 1.83056,-4.41943 1.22039,-1.22039 2.69353,-1.83057 4.41944,-1.83057 H 2294.7917 c 1.7259,0 3.1988,0.61018 4.4192,1.83057 1.2205,1.22038 1.8308,2.69352 1.8308,4.41943 V 1575 c 0,1.7258 -0.6103,3.199 -1.8308,4.4193 -1.2204,1.2204 -2.6933,1.8306 -4.4192,1.8307 H 188.54166 c -1.72591,-10e-5 -3.19905,-0.6103 -4.41944,-1.8307 -1.22038,-1.2203 -1.83058,-2.6935 -1.83056,-4.4193 z"
         id="path286"
         inkscape:connector-curvature="0" /></clipPath><clipPath
       clipPathUnits="userSpaceOnUse"
       id="clipPath294"><path
         d="M 254.16666,293.75 H 1638.5417 V 1490.625 H 254.16666 Z"
         id="path292"
         inkscape:connector-curvature="0" /></clipPath><clipPath
       clipPathUnits="userSpaceOnUse"
       id="clipPath306"><path
         d="M 116.66666,175 H 2366.6667 V 3390.625 H 116.66666 Z"
         id="path304"
         inkscape:connector-curvature="0" /></clipPath><clipPath
       clipPathUnits="userSpaceOnUse"
       id="clipPath312"><path
         d="M 182.29166,1575 V 228.125 c -2e-5,-1.72591 0.61018,-3.19905 1.83056,-4.41943 1.22039,-1.22039 2.69353,-1.83057 4.41944,-1.83057 H 2294.7917 c 1.7259,0 3.1988,0.61018 4.4192,1.83057 1.2205,1.22038 1.8308,2.69352 1.8308,4.41943 V 1575 c 0,1.7258 -0.6103,3.199 -1.8308,4.4193 -1.2204,1.2204 -2.6933,1.8306 -4.4192,1.8307 H 188.54166 c -1.72591,-10e-5 -3.19905,-0.6103 -4.41944,-1.8307 -1.22038,-1.2203 -1.83058,-2.6935 -1.83056,-4.4193 z"
         id="path310"
         inkscape:connector-curvature="0" /></clipPath><clipPath
       clipPathUnits="userSpaceOnUse"
       id="clipPath318"><path
         d="M 254.16666,293.75 H 1638.5417 V 1490.625 H 254.16666 Z"
         id="path316"
         inkscape:connector-curvature="0" /></clipPath><clipPath
       clipPathUnits="userSpaceOnUse"
       id="clipPath324"><path
         d="m 1292.5698,975.82971 0.5244,37.46049 -28.1029,0.3932 -0.5244,-37.4605 z"
         id="path322"
         inkscape:connector-curvature="0" /></clipPath><clipPath
       clipPathUnits="userSpaceOnUse"
       id="clipPath336"><path
         d="M 116.66666,175 H 2366.6667 V 3390.625 H 116.66666 Z"
         id="path334"
         inkscape:connector-curvature="0" /></clipPath><clipPath
       clipPathUnits="userSpaceOnUse"
       id="clipPath342"><path
         d="M 182.29166,1575 V 228.125 c -2e-5,-1.72591 0.61018,-3.19905 1.83056,-4.41943 1.22039,-1.22039 2.69353,-1.83057 4.41944,-1.83057 H 2294.7917 c 1.7259,0 3.1988,0.61018 4.4192,1.83057 1.2205,1.22038 1.8308,2.69352 1.8308,4.41943 V 1575 c 0,1.7258 -0.6103,3.199 -1.8308,4.4193 -1.2204,1.2204 -2.6933,1.8306 -4.4192,1.8307 H 188.54166 c -1.72591,-10e-5 -3.19905,-0.6103 -4.41944,-1.8307 -1.22038,-1.2203 -1.83058,-2.6935 -1.83056,-4.4193 z"
         id="path340"
         inkscape:connector-curvature="0" /></clipPath><clipPath
       clipPathUnits="userSpaceOnUse"
       id="clipPath348"><path
         d="M 254.16666,293.75 H 1638.5417 V 1490.625 H 254.16666 Z"
         id="path346"
         inkscape:connector-curvature="0" /></clipPath><clipPath
       clipPathUnits="userSpaceOnUse"
       id="clipPath360"><path
         d="M 116.66666,175 H 2366.6667 V 3390.625 H 116.66666 Z"
         id="path358"
         inkscape:connector-curvature="0" /></clipPath><clipPath
       clipPathUnits="userSpaceOnUse"
       id="clipPath366"><path
         d="M 182.29166,1575 V 228.125 c -2e-5,-1.72591 0.61018,-3.19905 1.83056,-4.41943 1.22039,-1.22039 2.69353,-1.83057 4.41944,-1.83057 H 2294.7917 c 1.7259,0 3.1988,0.61018 4.4192,1.83057 1.2205,1.22038 1.8308,2.69352 1.8308,4.41943 V 1575 c 0,1.7258 -0.6103,3.199 -1.8308,4.4193 -1.2204,1.2204 -2.6933,1.8306 -4.4192,1.8307 H 188.54166 c -1.72591,-10e-5 -3.19905,-0.6103 -4.41944,-1.8307 -1.22038,-1.2203 -1.83058,-2.6935 -1.83056,-4.4193 z"
         id="path364"
         inkscape:connector-curvature="0" /></clipPath><clipPath
       clipPathUnits="userSpaceOnUse"
       id="clipPath372"><path
         d="M 254.16666,293.75 H 1638.5417 V 1490.625 H 254.16666 Z"
         id="path370"
         inkscape:connector-curvature="0" /></clipPath><clipPath
       clipPathUnits="userSpaceOnUse"
       id="clipPath378"><path
         d="m 1480.9291,634.11536 0.5244,37.46051 -28.1029,0.39319 -0.5244,-37.46052 z"
         id="path376"
         inkscape:connector-curvature="0" /></clipPath><clipPath
       clipPathUnits="userSpaceOnUse"
       id="clipPath390"><path
         d="M 116.66666,175 H 2366.6667 V 3390.625 H 116.66666 Z"
         id="path388"
         inkscape:connector-curvature="0" /></clipPath><clipPath
       clipPathUnits="userSpaceOnUse"
       id="clipPath396"><path
         d="M 182.29166,1575 V 228.125 c -2e-5,-1.72591 0.61018,-3.19905 1.83056,-4.41943 1.22039,-1.22039 2.69353,-1.83057 4.41944,-1.83057 H 2294.7917 c 1.7259,0 3.1988,0.61018 4.4192,1.83057 1.2205,1.22038 1.8308,2.69352 1.8308,4.41943 V 1575 c 0,1.7258 -0.6103,3.199 -1.8308,4.4193 -1.2204,1.2204 -2.6933,1.8306 -4.4192,1.8307 H 188.54166 c -1.72591,-10e-5 -3.19905,-0.6103 -4.41944,-1.8307 -1.22038,-1.2203 -1.83058,-2.6935 -1.83056,-4.4193 z"
         id="path394"
         inkscape:connector-curvature="0" /></clipPath><clipPath
       clipPathUnits="userSpaceOnUse"
       id="clipPath402"><path
         d="M 254.16666,293.75 H 1638.5417 V 1490.625 H 254.16666 Z"
         id="path400"
         inkscape:connector-curvature="0" /></clipPath><clipPath
       clipPathUnits="userSpaceOnUse"
       id="clipPath414"><path
         d="M 116.66666,175 H 2366.6667 V 3390.625 H 116.66666 Z"
         id="path412"
         inkscape:connector-curvature="0" /></clipPath><clipPath
       clipPathUnits="userSpaceOnUse"
       id="clipPath420"><path
         d="M 182.29166,1575 V 228.125 c -2e-5,-1.72591 0.61018,-3.19905 1.83056,-4.41943 1.22039,-1.22039 2.69353,-1.83057 4.41944,-1.83057 H 2294.7917 c 1.7259,0 3.1988,0.61018 4.4192,1.83057 1.2205,1.22038 1.8308,2.69352 1.8308,4.41943 V 1575 c 0,1.7258 -0.6103,3.199 -1.8308,4.4193 -1.2204,1.2204 -2.6933,1.8306 -4.4192,1.8307 H 188.54166 c -1.72591,-10e-5 -3.19905,-0.6103 -4.41944,-1.8307 -1.22038,-1.2203 -1.83058,-2.6935 -1.83056,-4.4193 z"
         id="path418"
         inkscape:connector-curvature="0" /></clipPath><clipPath
       clipPathUnits="userSpaceOnUse"
       id="clipPath426"><path
         d="M 254.16666,293.75 H 1638.5417 V 1490.625 H 254.16666 Z"
         id="path424"
         inkscape:connector-curvature="0" /></clipPath><clipPath
       clipPathUnits="userSpaceOnUse"
       id="clipPath432"><path
         d="m 1018.1432,523.08234 h 99.9313 v 59.3183 h -99.9313 z"
         id="path430"
         inkscape:connector-curvature="0" /></clipPath><clipPath
       clipPathUnits="userSpaceOnUse"
       id="clipPath448"><path
         d="M 116.66666,175 H 2366.6667 V 3390.625 H 116.66666 Z"
         id="path446"
         inkscape:connector-curvature="0" /></clipPath><clipPath
       clipPathUnits="userSpaceOnUse"
       id="clipPath454"><path
         d="M 182.29166,1575 V 228.125 c -2e-5,-1.72591 0.61018,-3.19905 1.83056,-4.41943 1.22039,-1.22039 2.69353,-1.83057 4.41944,-1.83057 H 2294.7917 c 1.7259,0 3.1988,0.61018 4.4192,1.83057 1.2205,1.22038 1.8308,2.69352 1.8308,4.41943 V 1575 c 0,1.7258 -0.6103,3.199 -1.8308,4.4193 -1.2204,1.2204 -2.6933,1.8306 -4.4192,1.8307 H 188.54166 c -1.72591,-10e-5 -3.19905,-0.6103 -4.41944,-1.8307 -1.22038,-1.2203 -1.83058,-2.6935 -1.83056,-4.4193 z"
         id="path452"
         inkscape:connector-curvature="0" /></clipPath><clipPath
       clipPathUnits="userSpaceOnUse"
       id="clipPath460"><path
         d="M 254.16666,293.75 H 1638.5417 V 1490.625 H 254.16666 Z"
         id="path458"
         inkscape:connector-curvature="0" /></clipPath><clipPath
       clipPathUnits="userSpaceOnUse"
       id="clipPath472"><path
         d="M 116.66666,175 H 2366.6667 V 3390.625 H 116.66666 Z"
         id="path470"
         inkscape:connector-curvature="0" /></clipPath><clipPath
       clipPathUnits="userSpaceOnUse"
       id="clipPath478"><path
         d="M 182.29166,1575 V 228.125 c -2e-5,-1.72591 0.61018,-3.19905 1.83056,-4.41943 1.22039,-1.22039 2.69353,-1.83057 4.41944,-1.83057 H 2294.7917 c 1.7259,0 3.1988,0.61018 4.4192,1.83057 1.2205,1.22038 1.8308,2.69352 1.8308,4.41943 V 1575 c 0,1.7258 -0.6103,3.199 -1.8308,4.4193 -1.2204,1.2204 -2.6933,1.8306 -4.4192,1.8307 H 188.54166 c -1.72591,-10e-5 -3.19905,-0.6103 -4.41944,-1.8307 -1.22038,-1.2203 -1.83058,-2.6935 -1.83056,-4.4193 z"
         id="path476"
         inkscape:connector-curvature="0" /></clipPath><clipPath
       clipPathUnits="userSpaceOnUse"
       id="clipPath484"><path
         d="M 254.16666,293.75 H 1638.5417 V 1490.625 H 254.16666 Z"
         id="path482"
         inkscape:connector-curvature="0" /></clipPath><clipPath
       clipPathUnits="userSpaceOnUse"
       id="clipPath490"><path
         d="m 808.92419,864.79669 h 99.93127 v 59.3183 h -99.93127 z"
         id="path488"
         inkscape:connector-curvature="0" /></clipPath><clipPath
       clipPathUnits="userSpaceOnUse"
       id="clipPath506"><path
         d="M 116.66666,175 H 2366.6667 V 3390.625 H 116.66666 Z"
         id="path504"
         inkscape:connector-curvature="0" /></clipPath><clipPath
       clipPathUnits="userSpaceOnUse"
       id="clipPath512"><path
         d="M 182.29166,1575 V 228.125 c -2e-5,-1.72591 0.61018,-3.19905 1.83056,-4.41943 1.22039,-1.22039 2.69353,-1.83057 4.41944,-1.83057 H 2294.7917 c 1.7259,0 3.1988,0.61018 4.4192,1.83057 1.2205,1.22038 1.8308,2.69352 1.8308,4.41943 V 1575 c 0,1.7258 -0.6103,3.199 -1.8308,4.4193 -1.2204,1.2204 -2.6933,1.8306 -4.4192,1.8307 H 188.54166 c -1.72591,-10e-5 -3.19905,-0.6103 -4.41944,-1.8307 -1.22038,-1.2203 -1.83058,-2.6935 -1.83056,-4.4193 z"
         id="path510"
         inkscape:connector-curvature="0" /></clipPath><clipPath
       clipPathUnits="userSpaceOnUse"
       id="clipPath518"><path
         d="M 254.16666,293.75 H 1638.5417 V 1490.625 H 254.16666 Z"
         id="path516"
         inkscape:connector-curvature="0" /></clipPath><clipPath
       clipPathUnits="userSpaceOnUse"
       id="clipPath530"><path
         d="M 116.66666,175 H 2366.6667 V 3390.625 H 116.66666 Z"
         id="path528"
         inkscape:connector-curvature="0" /></clipPath><clipPath
       clipPathUnits="userSpaceOnUse"
       id="clipPath536"><path
         d="M 182.29166,1575 V 228.125 c -2e-5,-1.72591 0.61018,-3.19905 1.83056,-4.41943 1.22039,-1.22039 2.69353,-1.83057 4.41944,-1.83057 H 2294.7917 c 1.7259,0 3.1988,0.61018 4.4192,1.83057 1.2205,1.22038 1.8308,2.69352 1.8308,4.41943 V 1575 c 0,1.7258 -0.6103,3.199 -1.8308,4.4193 -1.2204,1.2204 -2.6933,1.8306 -4.4192,1.8307 H 188.54166 c -1.72591,-10e-5 -3.19905,-0.6103 -4.41944,-1.8307 -1.22038,-1.2203 -1.83058,-2.6935 -1.83056,-4.4193 z"
         id="path534"
         inkscape:connector-curvature="0" /></clipPath><clipPath
       clipPathUnits="userSpaceOnUse"
       id="clipPath542"><path
         d="M 254.16666,293.75 H 1638.5417 V 1490.625 H 254.16666 Z"
         id="path540"
         inkscape:connector-curvature="0" /></clipPath><clipPath
       clipPathUnits="userSpaceOnUse"
       id="clipPath548"><path
         d="m 500.43283,1206.511 h 99.93124 v 59.3182 h -99.93124 z"
         id="path546"
         inkscape:connector-curvature="0" /></clipPath><clipPath
       clipPathUnits="userSpaceOnUse"
       id="clipPath564"><path
         d="M 116.66666,175 H 2366.6667 V 3390.625 H 116.66666 Z"
         id="path562"
         inkscape:connector-curvature="0" /></clipPath><clipPath
       clipPathUnits="userSpaceOnUse"
       id="clipPath570"><path
         d="M 182.29166,1575 V 228.125 c -2e-5,-1.72591 0.61018,-3.19905 1.83056,-4.41943 1.22039,-1.22039 2.69353,-1.83057 4.41944,-1.83057 H 2294.7917 c 1.7259,0 3.1988,0.61018 4.4192,1.83057 1.2205,1.22038 1.8308,2.69352 1.8308,4.41943 V 1575 c 0,1.7258 -0.6103,3.199 -1.8308,4.4193 -1.2204,1.2204 -2.6933,1.8306 -4.4192,1.8307 H 188.54166 c -1.72591,-10e-5 -3.19905,-0.6103 -4.41944,-1.8307 -1.22038,-1.2203 -1.83058,-2.6935 -1.83056,-4.4193 z"
         id="path568"
         inkscape:connector-curvature="0" /></clipPath><clipPath
       clipPathUnits="userSpaceOnUse"
       id="clipPath576"><path
         d="M 254.16666,293.75 H 1638.5417 V 1490.625 H 254.16666 Z"
         id="path574"
         inkscape:connector-curvature="0" /></clipPath><clipPath
       clipPathUnits="userSpaceOnUse"
       id="clipPath588"><path
         d="M 116.66666,175 H 2366.6667 V 3390.625 H 116.66666 Z"
         id="path586"
         inkscape:connector-curvature="0" /></clipPath><clipPath
       clipPathUnits="userSpaceOnUse"
       id="clipPath594"><path
         d="M 182.29166,1575 V 228.125 c -2e-5,-1.72591 0.61018,-3.19905 1.83056,-4.41943 1.22039,-1.22039 2.69353,-1.83057 4.41944,-1.83057 H 2294.7917 c 1.7259,0 3.1988,0.61018 4.4192,1.83057 1.2205,1.22038 1.8308,2.69352 1.8308,4.41943 V 1575 c 0,1.7258 -0.6103,3.199 -1.8308,4.4193 -1.2204,1.2204 -2.6933,1.8306 -4.4192,1.8307 H 188.54166 c -1.72591,-10e-5 -3.19905,-0.6103 -4.41944,-1.8307 -1.22038,-1.2203 -1.83058,-2.6935 -1.83056,-4.4193 z"
         id="path592"
         inkscape:connector-curvature="0" /></clipPath><clipPath
       clipPathUnits="userSpaceOnUse"
       id="clipPath600"><path
         d="M 254.16666,293.75 H 1638.5417 V 1490.625 H 254.16666 Z"
         id="path598"
         inkscape:connector-curvature="0" /></clipPath><clipPath
       clipPathUnits="userSpaceOnUse"
       id="clipPath606"><path
         d="m 1121.5877,1206.511 h 90.5627 v 59.3182 h -90.5627 z"
         id="path604"
         inkscape:connector-curvature="0" /></clipPath><clipPath
       clipPathUnits="userSpaceOnUse"
       id="clipPath622"><path
         d="M 116.66666,175 H 2366.6667 V 3390.625 H 116.66666 Z"
         id="path620"
         inkscape:connector-curvature="0" /></clipPath><clipPath
       clipPathUnits="userSpaceOnUse"
       id="clipPath628"><path
         d="M 182.29166,1575 V 228.125 c -2e-5,-1.72591 0.61018,-3.19905 1.83056,-4.41943 1.22039,-1.22039 2.69353,-1.83057 4.41944,-1.83057 H 2294.7917 c 1.7259,0 3.1988,0.61018 4.4192,1.83057 1.2205,1.22038 1.8308,2.69352 1.8308,4.41943 V 1575 c 0,1.7258 -0.6103,3.199 -1.8308,4.4193 -1.2204,1.2204 -2.6933,1.8306 -4.4192,1.8307 H 188.54166 c -1.72591,-10e-5 -3.19905,-0.6103 -4.41944,-1.8307 -1.22038,-1.2203 -1.83058,-2.6935 -1.83056,-4.4193 z"
         id="path626"
         inkscape:connector-curvature="0" /></clipPath><clipPath
       clipPathUnits="userSpaceOnUse"
       id="clipPath634"><path
         d="M 254.16666,293.75 H 1638.5417 V 1490.625 H 254.16666 Z"
         id="path632"
         inkscape:connector-curvature="0" /></clipPath><clipPath
       clipPathUnits="userSpaceOnUse"
       id="clipPath646"><path
         d="M 116.66666,175 H 2366.6667 V 3390.625 H 116.66666 Z"
         id="path644"
         inkscape:connector-curvature="0" /></clipPath><clipPath
       clipPathUnits="userSpaceOnUse"
       id="clipPath652"><path
         d="M 182.29166,1575 V 228.125 c -2e-5,-1.72591 0.61018,-3.19905 1.83056,-4.41943 1.22039,-1.22039 2.69353,-1.83057 4.41944,-1.83057 H 2294.7917 c 1.7259,0 3.1988,0.61018 4.4192,1.83057 1.2205,1.22038 1.8308,2.69352 1.8308,4.41943 V 1575 c 0,1.7258 -0.6103,3.199 -1.8308,4.4193 -1.2204,1.2204 -2.6933,1.8306 -4.4192,1.8307 H 188.54166 c -1.72591,-10e-5 -3.19905,-0.6103 -4.41944,-1.8307 -1.22038,-1.2203 -1.83058,-2.6935 -1.83056,-4.4193 z"
         id="path650"
         inkscape:connector-curvature="0" /></clipPath><clipPath
       clipPathUnits="userSpaceOnUse"
       id="clipPath658"><path
         d="M 254.16666,293.75 H 1638.5417 V 1490.625 H 254.16666 Z"
         id="path656"
         inkscape:connector-curvature="0" /></clipPath><clipPath
       clipPathUnits="userSpaceOnUse"
       id="clipPath664"><path
         d="m 1231.5339,864.79669 h 90.5628 v 59.3183 h -90.5628 z"
         id="path662"
         inkscape:connector-curvature="0" /></clipPath><clipPath
       clipPathUnits="userSpaceOnUse"
       id="clipPath680"><path
         d="M 116.66666,175 H 2366.6667 V 3390.625 H 116.66666 Z"
         id="path678"
         inkscape:connector-curvature="0" /></clipPath><clipPath
       clipPathUnits="userSpaceOnUse"
       id="clipPath686"><path
         d="M 182.29166,1575 V 228.125 c -2e-5,-1.72591 0.61018,-3.19905 1.83056,-4.41943 1.22039,-1.22039 2.69353,-1.83057 4.41944,-1.83057 H 2294.7917 c 1.7259,0 3.1988,0.61018 4.4192,1.83057 1.2205,1.22038 1.8308,2.69352 1.8308,4.41943 V 1575 c 0,1.7258 -0.6103,3.199 -1.8308,4.4193 -1.2204,1.2204 -2.6933,1.8306 -4.4192,1.8307 H 188.54166 c -1.72591,-10e-5 -3.19905,-0.6103 -4.41944,-1.8307 -1.22038,-1.2203 -1.83058,-2.6935 -1.83056,-4.4193 z"
         id="path684"
         inkscape:connector-curvature="0" /></clipPath><clipPath
       clipPathUnits="userSpaceOnUse"
       id="clipPath692"><path
         d="M 254.16666,293.75 H 1638.5417 V 1490.625 H 254.16666 Z"
         id="path690"
         inkscape:connector-curvature="0" /></clipPath><clipPath
       clipPathUnits="userSpaceOnUse"
       id="clipPath704"><path
         d="M 116.66666,175 H 2366.6667 V 3390.625 H 116.66666 Z"
         id="path702"
         inkscape:connector-curvature="0" /></clipPath><clipPath
       clipPathUnits="userSpaceOnUse"
       id="clipPath710"><path
         d="M 182.29166,1575 V 228.125 c -2e-5,-1.72591 0.61018,-3.19905 1.83056,-4.41943 1.22039,-1.22039 2.69353,-1.83057 4.41944,-1.83057 H 2294.7917 c 1.7259,0 3.1988,0.61018 4.4192,1.83057 1.2205,1.22038 1.8308,2.69352 1.8308,4.41943 V 1575 c 0,1.7258 -0.6103,3.199 -1.8308,4.4193 -1.2204,1.2204 -2.6933,1.8306 -4.4192,1.8307 H 188.54166 c -1.72591,-10e-5 -3.19905,-0.6103 -4.41944,-1.8307 -1.22038,-1.2203 -1.83058,-2.6935 -1.83056,-4.4193 z"
         id="path708"
         inkscape:connector-curvature="0" /></clipPath><clipPath
       clipPathUnits="userSpaceOnUse"
       id="clipPath716"><path
         d="M 254.16666,293.75 H 1638.5417 V 1490.625 H 254.16666 Z"
         id="path714"
         inkscape:connector-curvature="0" /></clipPath><clipPath
       clipPathUnits="userSpaceOnUse"
       id="clipPath722"><path
         d="m 1419.8932,523.08234 h 90.5627 v 59.3183 h -90.5627 z"
         id="path720"
         inkscape:connector-curvature="0" /></clipPath><clipPath
       clipPathUnits="userSpaceOnUse"
       id="clipPath738"><path
         d="M 116.66666,175 H 2366.6667 V 3390.625 H 116.66666 Z"
         id="path736"
         inkscape:connector-curvature="0" /></clipPath><clipPath
       clipPathUnits="userSpaceOnUse"
       id="clipPath744"><path
         d="M 182.29166,1575 V 228.125 c -2e-5,-1.72591 0.61018,-3.19905 1.83056,-4.41943 1.22039,-1.22039 2.69353,-1.83057 4.41944,-1.83057 H 2294.7917 c 1.7259,0 3.1988,0.61018 4.4192,1.83057 1.2205,1.22038 1.8308,2.69352 1.8308,4.41943 V 1575 c 0,1.7258 -0.6103,3.199 -1.8308,4.4193 -1.2204,1.2204 -2.6933,1.8306 -4.4192,1.8307 H 188.54166 c -1.72591,-10e-5 -3.19905,-0.6103 -4.41944,-1.8307 -1.22038,-1.2203 -1.83058,-2.6935 -1.83056,-4.4193 z"
         id="path742"
         inkscape:connector-curvature="0" /></clipPath><clipPath
       clipPathUnits="userSpaceOnUse"
       id="clipPath750"><path
         d="M 254.16666,293.75 H 1638.5417 V 1490.625 H 254.16666 Z"
         id="path748"
         inkscape:connector-curvature="0" /></clipPath><clipPath
       clipPathUnits="userSpaceOnUse"
       id="clipPath764"><path
         d="M 116.66666,175 H 2366.6667 V 3390.625 H 116.66666 Z"
         id="path762"
         inkscape:connector-curvature="0" /></clipPath><clipPath
       clipPathUnits="userSpaceOnUse"
       id="clipPath770"><path
         d="M 182.29166,1575 V 228.125 c -2e-5,-1.72591 0.61018,-3.19905 1.83056,-4.41943 1.22039,-1.22039 2.69353,-1.83057 4.41944,-1.83057 H 2294.7917 c 1.7259,0 3.1988,0.61018 4.4192,1.83057 1.2205,1.22038 1.8308,2.69352 1.8308,4.41943 V 1575 c 0,1.7258 -0.6103,3.199 -1.8308,4.4193 -1.2204,1.2204 -2.6933,1.8306 -4.4192,1.8307 H 188.54166 c -1.72591,-10e-5 -3.19905,-0.6103 -4.41944,-1.8307 -1.22038,-1.2203 -1.83058,-2.6935 -1.83056,-4.4193 z"
         id="path768"
         inkscape:connector-curvature="0" /></clipPath><clipPath
       clipPathUnits="userSpaceOnUse"
       id="clipPath776"><path
         d="M 254.16666,293.75 H 1638.5417 V 1490.625 H 254.16666 Z"
         id="path774"
         inkscape:connector-curvature="0" /></clipPath><clipPath
       clipPathUnits="userSpaceOnUse"
       id="clipPath782"><path
         d="m 1235.0106,352.22516 h 62.4571 v 59.3183 h -62.4571 z"
         id="path780"
         inkscape:connector-curvature="0" /></clipPath><clipPath
       clipPathUnits="userSpaceOnUse"
       id="clipPath796"><path
         d="M 116.66666,175 H 2366.6667 V 3390.625 H 116.66666 Z"
         id="path794"
         inkscape:connector-curvature="0" /></clipPath><clipPath
       clipPathUnits="userSpaceOnUse"
       id="clipPath802"><path
         d="M 182.29166,1575 V 228.125 c -2e-5,-1.72591 0.61018,-3.19905 1.83056,-4.41943 1.22039,-1.22039 2.69353,-1.83057 4.41944,-1.83057 H 2294.7917 c 1.7259,0 3.1988,0.61018 4.4192,1.83057 1.2205,1.22038 1.8308,2.69352 1.8308,4.41943 V 1575 c 0,1.7258 -0.6103,3.199 -1.8308,4.4193 -1.2204,1.2204 -2.6933,1.8306 -4.4192,1.8307 H 188.54166 c -1.72591,-10e-5 -3.19905,-0.6103 -4.41944,-1.8307 -1.22038,-1.2203 -1.83058,-2.6935 -1.83056,-4.4193 z"
         id="path800"
         inkscape:connector-curvature="0" /></clipPath><clipPath
       clipPathUnits="userSpaceOnUse"
       id="clipPath808"><path
         d="M 254.16666,293.75 H 1638.5417 V 1490.625 H 254.16666 Z"
         id="path806"
         inkscape:connector-curvature="0" /></clipPath><clipPath
       clipPathUnits="userSpaceOnUse"
       id="clipPath822"><path
         d="M 116.66666,175 H 2366.6667 V 3390.625 H 116.66666 Z"
         id="path820"
         inkscape:connector-curvature="0" /></clipPath><clipPath
       clipPathUnits="userSpaceOnUse"
       id="clipPath828"><path
         d="M 182.29166,1575 V 228.125 c -2e-5,-1.72591 0.61018,-3.19905 1.83056,-4.41943 1.22039,-1.22039 2.69353,-1.83057 4.41944,-1.83057 H 2294.7917 c 1.7259,0 3.1988,0.61018 4.4192,1.83057 1.2205,1.22038 1.8308,2.69352 1.8308,4.41943 V 1575 c 0,1.7258 -0.6103,3.199 -1.8308,4.4193 -1.2204,1.2204 -2.6933,1.8306 -4.4192,1.8307 H 188.54166 c -1.72591,-10e-5 -3.19905,-0.6103 -4.41944,-1.8307 -1.22038,-1.2203 -1.83058,-2.6935 -1.83056,-4.4193 z"
         id="path826"
         inkscape:connector-curvature="0" /></clipPath><clipPath
       clipPathUnits="userSpaceOnUse"
       id="clipPath834"><path
         d="M 254.16666,293.75 H 1638.5417 V 1490.625 H 254.16666 Z"
         id="path832"
         inkscape:connector-curvature="0" /></clipPath><clipPath
       clipPathUnits="userSpaceOnUse"
       id="clipPath840"><path
         d="m 1036.2216,693.93945 h 62.457 v 59.3183 h -62.457 z"
         id="path838"
         inkscape:connector-curvature="0" /></clipPath><clipPath
       clipPathUnits="userSpaceOnUse"
       id="clipPath854"><path
         d="M 116.66666,175 H 2366.6667 V 3390.625 H 116.66666 Z"
         id="path852"
         inkscape:connector-curvature="0" /></clipPath><clipPath
       clipPathUnits="userSpaceOnUse"
       id="clipPath860"><path
         d="M 182.29166,1575 V 228.125 c -2e-5,-1.72591 0.61018,-3.19905 1.83056,-4.41943 1.22039,-1.22039 2.69353,-1.83057 4.41944,-1.83057 H 2294.7917 c 1.7259,0 3.1988,0.61018 4.4192,1.83057 1.2205,1.22038 1.8308,2.69352 1.8308,4.41943 V 1575 c 0,1.7258 -0.6103,3.199 -1.8308,4.4193 -1.2204,1.2204 -2.6933,1.8306 -4.4192,1.8307 H 188.54166 c -1.72591,-10e-5 -3.19905,-0.6103 -4.41944,-1.8307 -1.22038,-1.2203 -1.83058,-2.6935 -1.83056,-4.4193 z"
         id="path858"
         inkscape:connector-curvature="0" /></clipPath><clipPath
       clipPathUnits="userSpaceOnUse"
       id="clipPath866"><path
         d="M 254.16666,293.75 H 1638.5417 V 1490.625 H 254.16666 Z"
         id="path864"
         inkscape:connector-curvature="0" /></clipPath><clipPath
       clipPathUnits="userSpaceOnUse"
       id="clipPath880"><path
         d="M 116.66666,175 H 2366.6667 V 3390.625 H 116.66666 Z"
         id="path878"
         inkscape:connector-curvature="0" /></clipPath><clipPath
       clipPathUnits="userSpaceOnUse"
       id="clipPath886"><path
         d="M 182.29166,1575 V 228.125 c -2e-5,-1.72591 0.61018,-3.19905 1.83056,-4.41943 1.22039,-1.22039 2.69353,-1.83057 4.41944,-1.83057 H 2294.7917 c 1.7259,0 3.1988,0.61018 4.4192,1.83057 1.2205,1.22038 1.8308,2.69352 1.8308,4.41943 V 1575 c 0,1.7258 -0.6103,3.199 -1.8308,4.4193 -1.2204,1.2204 -2.6933,1.8306 -4.4192,1.8307 H 188.54166 c -1.72591,-10e-5 -3.19905,-0.6103 -4.41944,-1.8307 -1.22038,-1.2203 -1.83058,-2.6935 -1.83056,-4.4193 z"
         id="path884"
         inkscape:connector-curvature="0" /></clipPath><clipPath
       clipPathUnits="userSpaceOnUse"
       id="clipPath892"><path
         d="M 254.16666,293.75 H 1638.5417 V 1490.625 H 254.16666 Z"
         id="path890"
         inkscape:connector-curvature="0" /></clipPath><clipPath
       clipPathUnits="userSpaceOnUse"
       id="clipPath898"><path
         d="m 827.00269,1035.6538 h 62.45703 v 59.3182 h -62.45703 z"
         id="path896"
         inkscape:connector-curvature="0" /></clipPath><clipPath
       clipPathUnits="userSpaceOnUse"
       id="clipPath912"><path
         d="M 116.66666,175 H 2366.6667 V 3390.625 H 116.66666 Z"
         id="path910"
         inkscape:connector-curvature="0" /></clipPath><clipPath
       clipPathUnits="userSpaceOnUse"
       id="clipPath918"><path
         d="M 182.29166,1575 V 228.125 c -2e-5,-1.72591 0.61018,-3.19905 1.83056,-4.41943 1.22039,-1.22039 2.69353,-1.83057 4.41944,-1.83057 H 2294.7917 c 1.7259,0 3.1988,0.61018 4.4192,1.83057 1.2205,1.22038 1.8308,2.69352 1.8308,4.41943 V 1575 c 0,1.7258 -0.6103,3.199 -1.8308,4.4193 -1.2204,1.2204 -2.6933,1.8306 -4.4192,1.8307 H 188.54166 c -1.72591,-10e-5 -3.19905,-0.6103 -4.41944,-1.8307 -1.22038,-1.2203 -1.83058,-2.6935 -1.83056,-4.4193 z"
         id="path916"
         inkscape:connector-curvature="0" /></clipPath><clipPath
       clipPathUnits="userSpaceOnUse"
       id="clipPath924"><path
         d="M 254.16666,293.75 H 1638.5417 V 1490.625 H 254.16666 Z"
         id="path922"
         inkscape:connector-curvature="0" /></clipPath><clipPath
       clipPathUnits="userSpaceOnUse"
       id="clipPath938"><path
         d="M 116.66666,175 H 2366.6667 V 3390.625 H 116.66666 Z"
         id="path936"
         inkscape:connector-curvature="0" /></clipPath><clipPath
       clipPathUnits="userSpaceOnUse"
       id="clipPath944"><path
         d="M 182.29166,1575 V 228.125 c -2e-5,-1.72591 0.61018,-3.19905 1.83056,-4.41943 1.22039,-1.22039 2.69353,-1.83057 4.41944,-1.83057 H 2294.7917 c 1.7259,0 3.1988,0.61018 4.4192,1.83057 1.2205,1.22038 1.8308,2.69352 1.8308,4.41943 V 1575 c 0,1.7258 -0.6103,3.199 -1.8308,4.4193 -1.2204,1.2204 -2.6933,1.8306 -4.4192,1.8307 H 188.54166 c -1.72591,-10e-5 -3.19905,-0.6103 -4.41944,-1.8307 -1.22038,-1.2203 -1.83058,-2.6935 -1.83056,-4.4193 z"
         id="path942"
         inkscape:connector-curvature="0" /></clipPath><clipPath
       clipPathUnits="userSpaceOnUse"
       id="clipPath950"><path
         d="M 254.16666,293.75 H 1638.5417 V 1490.625 H 254.16666 Z"
         id="path948"
         inkscape:connector-curvature="0" /></clipPath><clipPath
       clipPathUnits="userSpaceOnUse"
       id="clipPath956"><path
         d="m 371.27362,1375.0999 h 359.12799 v 59.3182 H 371.27362 Z"
         id="path954"
         inkscape:connector-curvature="0" /></clipPath><clipPath
       clipPathUnits="userSpaceOnUse"
       id="clipPath970"><path
         d="M 116.66666,175 H 2366.6667 V 3390.625 H 116.66666 Z"
         id="path968"
         inkscape:connector-curvature="0" /></clipPath><clipPath
       clipPathUnits="userSpaceOnUse"
       id="clipPath976"><path
         d="M 182.29166,1575 V 228.125 c -2e-5,-1.72591 0.61018,-3.19905 1.83056,-4.41943 1.22039,-1.22039 2.69353,-1.83057 4.41944,-1.83057 H 2294.7917 c 1.7259,0 3.1988,0.61018 4.4192,1.83057 1.2205,1.22038 1.8308,2.69352 1.8308,4.41943 V 1575 c 0,1.7258 -0.6103,3.199 -1.8308,4.4193 -1.2204,1.2204 -2.6933,1.8306 -4.4192,1.8307 H 188.54166 c -1.72591,-10e-5 -3.19905,-0.6103 -4.41944,-1.8307 -1.22038,-1.2203 -1.83058,-2.6935 -1.83056,-4.4193 z"
         id="path974"
         inkscape:connector-curvature="0" /></clipPath><clipPath
       clipPathUnits="userSpaceOnUse"
       id="clipPath982"><path
         d="M 254.16666,293.75 H 1638.5417 V 1490.625 H 254.16666 Z"
         id="path980"
         inkscape:connector-curvature="0" /></clipPath><clipPath
       clipPathUnits="userSpaceOnUse"
       id="clipPath996"><path
         d="M 116.66666,175 H 2366.6667 V 3390.625 H 116.66666 Z"
         id="path994"
         inkscape:connector-curvature="0" /></clipPath><clipPath
       clipPathUnits="userSpaceOnUse"
       id="clipPath1002"><path
         d="M 182.29166,1575 V 228.125 c -2e-5,-1.72591 0.61018,-3.19905 1.83056,-4.41943 1.22039,-1.22039 2.69353,-1.83057 4.41944,-1.83057 H 2294.7917 c 1.7259,0 3.1988,0.61018 4.4192,1.83057 1.2205,1.22038 1.8308,2.69352 1.8308,4.41943 V 1575 c 0,1.7258 -0.6103,3.199 -1.8308,4.4193 -1.2204,1.2204 -2.6933,1.8306 -4.4192,1.8307 H 188.54166 c -1.72591,-10e-5 -3.19905,-0.6103 -4.41944,-1.8307 -1.22038,-1.2203 -1.83058,-2.6935 -1.83056,-4.4193 z"
         id="path1000"
         inkscape:connector-curvature="0" /></clipPath><clipPath
       clipPathUnits="userSpaceOnUse"
       id="clipPath1008"><path
         d="M 254.16666,293.75 H 1638.5417 V 1490.625 H 254.16666 Z"
         id="path1006"
         inkscape:connector-curvature="0" /></clipPath><clipPath
       clipPathUnits="userSpaceOnUse"
       id="clipPath1014"><path
         d="m 1009.1161,1375.0999 h 315.4081 v 59.3182 h -315.4081 z"
         id="path1012"
         inkscape:connector-curvature="0" /></clipPath><clipPath
       clipPathUnits="userSpaceOnUse"
       id="clipPath1028"><path
         d="M 116.66666,175 H 2366.6667 V 3390.625 H 116.66666 Z"
         id="path1026"
         inkscape:connector-curvature="0" /></clipPath><clipPath
       clipPathUnits="userSpaceOnUse"
       id="clipPath1034"><path
         d="M 182.29166,1575 V 228.125 c -2e-5,-1.72591 0.61018,-3.19905 1.83056,-4.41943 1.22039,-1.22039 2.69353,-1.83057 4.41944,-1.83057 H 2294.7917 c 1.7259,0 3.1988,0.61018 4.4192,1.83057 1.2205,1.22038 1.8308,2.69352 1.8308,4.41943 V 1575 c 0,1.7258 -0.6103,3.199 -1.8308,4.4193 -1.2204,1.2204 -2.6933,1.8306 -4.4192,1.8307 H 188.54166 c -1.72591,-10e-5 -3.19905,-0.6103 -4.41944,-1.8307 -1.22038,-1.2203 -1.83058,-2.6935 -1.83056,-4.4193 z"
         id="path1032"
         inkscape:connector-curvature="0" /></clipPath><clipPath
       clipPathUnits="userSpaceOnUse"
       id="clipPath1040"><path
         d="M 254.16666,293.75 H 1638.5417 V 1490.625 H 254.16666 Z"
         id="path1038"
         inkscape:connector-curvature="0" /></clipPath><clipPath
       clipPathUnits="userSpaceOnUse"
       id="clipPath1054"><path
         d="M 116.66666,175 H 2366.6667 V 3390.625 H 116.66666 Z"
         id="path1052"
         inkscape:connector-curvature="0" /></clipPath><clipPath
       clipPathUnits="userSpaceOnUse"
       id="clipPath1060"><path
         d="M 182.29166,1575 V 228.125 c -2e-5,-1.72591 0.61018,-3.19905 1.83056,-4.41943 1.22039,-1.22039 2.69353,-1.83057 4.41944,-1.83057 H 2294.7917 c 1.7259,0 3.1988,0.61018 4.4192,1.83057 1.2205,1.22038 1.8308,2.69352 1.8308,4.41943 V 1575 c 0,1.7258 -0.6103,3.199 -1.8308,4.4193 -1.2204,1.2204 -2.6933,1.8306 -4.4192,1.8307 H 188.54166 c -1.72591,-10e-5 -3.19905,-0.6103 -4.41944,-1.8307 -1.22038,-1.2203 -1.83058,-2.6935 -1.83056,-4.4193 z"
         id="path1058"
         inkscape:connector-curvature="0" /></clipPath><clipPath
       clipPathUnits="userSpaceOnUse"
       id="clipPath1066"><path
         d="M 254.16666,293.75 H 1638.5417 V 1490.625 H 254.16666 Z"
         id="path1064"
         inkscape:connector-curvature="0" /></clipPath><clipPath
       clipPathUnits="userSpaceOnUse"
       id="clipPath1072"><path
         d="m 1139.9222,1035.6538 h 274.8109 v 59.3182 h -274.8109 z"
         id="path1070"
         inkscape:connector-curvature="0" /></clipPath><clipPath
       clipPathUnits="userSpaceOnUse"
       id="clipPath1086"><path
         d="M 116.66666,175 H 2366.6667 V 3390.625 H 116.66666 Z"
         id="path1084"
         inkscape:connector-curvature="0" /></clipPath><clipPath
       clipPathUnits="userSpaceOnUse"
       id="clipPath1092"><path
         d="M 182.29166,1575 V 228.125 c -2e-5,-1.72591 0.61018,-3.19905 1.83056,-4.41943 1.22039,-1.22039 2.69353,-1.83057 4.41944,-1.83057 H 2294.7917 c 1.7259,0 3.1988,0.61018 4.4192,1.83057 1.2205,1.22038 1.8308,2.69352 1.8308,4.41943 V 1575 c 0,1.7258 -0.6103,3.199 -1.8308,4.4193 -1.2204,1.2204 -2.6933,1.8306 -4.4192,1.8307 H 188.54166 c -1.72591,-10e-5 -3.19905,-0.6103 -4.41944,-1.8307 -1.22038,-1.2203 -1.83058,-2.6935 -1.83056,-4.4193 z"
         id="path1090"
         inkscape:connector-curvature="0" /></clipPath><clipPath
       clipPathUnits="userSpaceOnUse"
       id="clipPath1098"><path
         d="M 254.16666,293.75 H 1638.5417 V 1490.625 H 254.16666 Z"
         id="path1096"
         inkscape:connector-curvature="0" /></clipPath><clipPath
       clipPathUnits="userSpaceOnUse"
       id="clipPath1112"><path
         d="M 116.66666,175 H 2366.6667 V 3390.625 H 116.66666 Z"
         id="path1110"
         inkscape:connector-curvature="0" /></clipPath><clipPath
       clipPathUnits="userSpaceOnUse"
       id="clipPath1118"><path
         d="M 182.29166,1575 V 228.125 c -2e-5,-1.72591 0.61018,-3.19905 1.83056,-4.41943 1.22039,-1.22039 2.69353,-1.83057 4.41944,-1.83057 H 2294.7917 c 1.7259,0 3.1988,0.61018 4.4192,1.83057 1.2205,1.22038 1.8308,2.69352 1.8308,4.41943 V 1575 c 0,1.7258 -0.6103,3.199 -1.8308,4.4193 -1.2204,1.2204 -2.6933,1.8306 -4.4192,1.8307 H 188.54166 c -1.72591,-10e-5 -3.19905,-0.6103 -4.41944,-1.8307 -1.22038,-1.2203 -1.83058,-2.6935 -1.83056,-4.4193 z"
         id="path1116"
         inkscape:connector-curvature="0" /></clipPath><clipPath
       clipPathUnits="userSpaceOnUse"
       id="clipPath1124"><path
         d="M 254.16666,293.75 H 1638.5417 V 1490.625 H 254.16666 Z"
         id="path1122"
         inkscape:connector-curvature="0" /></clipPath><clipPath
       clipPathUnits="userSpaceOnUse"
       id="clipPath1130"><path
         d="m 1349.141,693.93945 h 234.2139 v 59.3183 H 1349.141 Z"
         id="path1128"
         inkscape:connector-curvature="0" /></clipPath></defs><sodipodi:namedview
     pagecolor="#ffffff"
     bordercolor="#666666"
     borderopacity="1"
     objecttolerance="10"
     gridtolerance="10"
     guidetolerance="10"
     inkscape:pageopacity="0"
     inkscape:pageshadow="2"
     inkscape:window-width="1920"
     inkscape:window-height="1016"
     id="namedview4"
     showgrid="false"
     inkscape:zoom="0.59463081"
     inkscape:cx="-46.864086"
     inkscape:cy="473.28818"
     inkscape:window-x="0"
     inkscape:window-y="27"
     inkscape:window-maximized="1"
     inkscape:current-layer="g10" /><g
     id="g10"
     inkscape:groupmode="layer"
     inkscape:label="dt-421"
     transform="matrix(0.31999998,0,0,0.31999998,0,-772.56)"><g
       id="g2228"
       transform="matrix(0.95106746,0,0,0.95106746,663.50355,2112.5947)"><g
         id="g60"><g
           clip-path="url(#clipPath66)"
           id="g62"><g
             clip-path="url(#clipPath72)"
             id="g68"><g
               clip-path="url(#clipPath78)"
               id="g74"><g
                 transform="matrix(3.1228521,0,0,3.1220155,284.61447,293.76056)"
                 id="g80"><path
                   inkscape:connector-curvature="0"
                   id="path82"
                   style="fill:none;stroke:#333333;stroke-width:1;stroke-linecap:butt;stroke-linejoin:miter;stroke-miterlimit:10;stroke-dasharray:none;stroke-opacity:1"
                   d="M 299.22488,41.412609 250.90625,82.953125 V 117.45313" /></g></g></g></g></g><g
         id="g84"><g
           clip-path="url(#clipPath90)"
           id="g86"><g
             clip-path="url(#clipPath96)"
             id="g92"><g
               clip-path="url(#clipPath102)"
               id="g98"><g
                 clip-path="url(#clipPath108)"
                 id="g104"><g
                   transform="matrix(0,2.8098142,-2.8105669,0,1082.2105,635.16272)"
                   id="g110"><path
                     inkscape:connector-curvature="0"
                     id="path112"
                     style="fill:#333333;fill-opacity:1;fill-rule:nonzero;stroke:none"
                     d="M 0,0 10,5 0,10 Z" /></g></g></g></g></g></g><g
         id="g114"><g
           clip-path="url(#clipPath120)"
           id="g116"><g
             clip-path="url(#clipPath126)"
             id="g122"><g
               clip-path="url(#clipPath132)"
               id="g128"><g
                 transform="matrix(3.1228521,0,0,3.1220155,284.61447,293.76056)"
                 id="g134"><path
                   inkscape:connector-curvature="0"
                   id="path136"
                   style="fill:none;stroke:#333333;stroke-width:1;stroke-linecap:butt;stroke-linejoin:miter;stroke-miterlimit:10;stroke-dasharray:none;stroke-opacity:1"
                   d="m 235.24162,150.47552 -51.33146,41.93073 v 34.5" /></g></g></g></g></g><g
         id="g138"><g
           clip-path="url(#clipPath144)"
           id="g140"><g
             clip-path="url(#clipPath150)"
             id="g146"><g
               clip-path="url(#clipPath156)"
               id="g152"><g
                 clip-path="url(#clipPath162)"
                 id="g158"><g
                   transform="matrix(0,2.8098142,-2.8105669,0,872.99158,976.87708)"
                   id="g164"><path
                     inkscape:connector-curvature="0"
                     id="path166"
                     style="fill:#333333;fill-opacity:1;fill-rule:nonzero;stroke:none"
                     d="M 0,0 10,5 0,10 Z" /></g></g></g></g></g></g><g
         id="g168"><g
           clip-path="url(#clipPath174)"
           id="g170"><g
             clip-path="url(#clipPath180)"
             id="g176"><g
               clip-path="url(#clipPath186)"
               id="g182"><g
                 transform="matrix(3.1228521,0,0,3.1220155,284.61447,293.76056)"
                 id="g188"><path
                   inkscape:connector-curvature="0"
                   id="path190"
                   style="fill:none;stroke:#333333;stroke-width:1;stroke-linecap:butt;stroke-linejoin:miter;stroke-miterlimit:10;stroke-dasharray:none;stroke-opacity:1"
                   d="m 166.21725,256.9346 -81.09225,44.92478 0.5,35" /></g></g></g></g></g><g
         id="g192"><g
           clip-path="url(#clipPath198)"
           id="g194"><g
             clip-path="url(#clipPath204)"
             id="g200"><g
               clip-path="url(#clipPath210)"
               id="g206"><g
                 clip-path="url(#clipPath216)"
                 id="g212"><g
                   transform="matrix(0.04014701,2.8095272,-2.8102803,0.04013626,565.69873,1319.9542)"
                   id="g218"><path
                     inkscape:connector-curvature="0"
                     id="path220"
                     style="fill:#333333;fill-opacity:1;fill-rule:nonzero;stroke:none"
                     d="M 0,0 10,5 0,10 Z" /></g></g></g></g></g></g><g
         id="g222"><g
           clip-path="url(#clipPath228)"
           id="g224"><g
             clip-path="url(#clipPath234)"
             id="g230"><g
               clip-path="url(#clipPath240)"
               id="g236"><g
                 transform="matrix(3.1228521,0,0,3.1220155,284.61447,293.76056)"
                 id="g242"><path
                   inkscape:connector-curvature="0"
                   id="path244"
                   style="fill:none;stroke:#333333;stroke-width:1;stroke-linecap:butt;stroke-linejoin:miter;stroke-miterlimit:10;stroke-dasharray:none;stroke-opacity:1"
                   d="m 201.60306,256.9346 81.09225,44.92478 0.5,35" /></g></g></g></g></g><g
         id="g246"><g
           clip-path="url(#clipPath252)"
           id="g248"><g
             clip-path="url(#clipPath258)"
             id="g254"><g
               clip-path="url(#clipPath264)"
               id="g260"><g
                 clip-path="url(#clipPath270)"
                 id="g266"><g
                   transform="matrix(0.04014701,2.8095272,-2.8102803,0.04013626,1182.6815,1319.9542)"
                   id="g272"><path
                     inkscape:connector-curvature="0"
                     id="path274"
                     style="fill:#333333;fill-opacity:1;fill-rule:nonzero;stroke:none"
                     d="M 0,0 10,5 0,10 Z" /></g></g></g></g></g></g><g
         id="g276"><g
           clip-path="url(#clipPath282)"
           id="g278"><g
             clip-path="url(#clipPath288)"
             id="g284"><g
               clip-path="url(#clipPath294)"
               id="g290"><g
                 transform="matrix(3.1228521,0,0,3.1220155,284.61447,293.76056)"
                 id="g296"><path
                   inkscape:connector-curvature="0"
                   id="path298"
                   style="fill:none;stroke:#333333;stroke-width:1;stroke-linecap:butt;stroke-linejoin:miter;stroke-miterlimit:10;stroke-dasharray:none;stroke-opacity:1"
                   d="m 266.57086,150.47552 51.33148,41.93073 0.5,35.72656" /></g></g></g></g></g><g
         id="g300"><g
           clip-path="url(#clipPath306)"
           id="g302"><g
             clip-path="url(#clipPath312)"
             id="g308"><g
               clip-path="url(#clipPath318)"
               id="g314"><g
                 clip-path="url(#clipPath324)"
                 id="g320"><g
                   transform="matrix(0.03933086,2.8095388,-2.8102918,0.03932032,1292.6354,980.51227)"
                   id="g326"><path
                     inkscape:connector-curvature="0"
                     id="path328"
                     style="fill:#333333;fill-opacity:1;fill-rule:nonzero;stroke:none"
                     d="M 0,0 10,5 0,10 Z" /></g></g></g></g></g></g><g
         id="g330"><g
           clip-path="url(#clipPath336)"
           id="g332"><g
             clip-path="url(#clipPath342)"
             id="g338"><g
               clip-path="url(#clipPath348)"
               id="g344"><g
                 transform="matrix(3.1228521,0,0,3.1220155,284.61447,293.76056)"
                 id="g350"><path
                   inkscape:connector-curvature="0"
                   id="path352"
                   style="fill:none;stroke:#333333;stroke-width:1;stroke-linecap:butt;stroke-linejoin:miter;stroke-miterlimit:10;stroke-dasharray:none;stroke-opacity:1"
                   d="m 329.90012,41.412609 48.31863,41.540516 0.5,35.726565" /></g></g></g></g></g><g
         id="g354"><g
           clip-path="url(#clipPath360)"
           id="g356"><g
             clip-path="url(#clipPath366)"
             id="g362"><g
               clip-path="url(#clipPath372)"
               id="g368"><g
                 clip-path="url(#clipPath378)"
                 id="g374"><g
                   transform="matrix(0.03933086,2.8095388,-2.8102918,0.03932032,1480.9946,638.79791)"
                   id="g380"><path
                     inkscape:connector-curvature="0"
                     id="path382"
                     style="fill:#333333;fill-opacity:1;fill-rule:nonzero;stroke:none"
                     d="M 0,0 10,5 0,10 Z" /></g></g></g></g></g></g><g
         id="g384"><g
           clip-path="url(#clipPath390)"
           id="g386"><g
             clip-path="url(#clipPath396)"
             id="g392"><g
               clip-path="url(#clipPath402)"
               id="g398"><g
                 transform="matrix(3.1228521,0,0,3.1220155,1018.1432,523.08234)"
                 id="g404"><path
                   inkscape:connector-curvature="0"
                   id="path406"
                   style="fill:#e8e8e8;fill-opacity:0.49800002;fill-rule:nonzero;stroke:none"
                   d="M 0,0 H 32.03125 V 19 H 0 Z" /></g></g></g></g></g><g
         id="g408"><g
           clip-path="url(#clipPath414)"
           id="g410"><g
             clip-path="url(#clipPath420)"
             id="g416"><g
               clip-path="url(#clipPath426)"
               id="g422"><g
                 clip-path="url(#clipPath432)"
                 id="g428"><g
                   transform="matrix(3.1228521,0,0,3.1220155,1018.1432,523.08234)"
                   id="g434"><path
                     inkscape:connector-curvature="0"
                     id="path436"
                     style="fill:#e8e8e8;fill-opacity:1;fill-rule:nonzero;stroke:none"
                     d="M 0,1 H 32 V 18 H 0 Z" /><text
                     id="text440"
                     style="font-variant:normal;font-weight:normal;font-size:16px;font-family:'Liberation Sans';-inkscape-font-specification:LiberationSans;writing-mode:lr-tb;fill:#333333;fill-opacity:1;fill-rule:nonzero;stroke:none"
                     transform="translate(0,15)"><tspan
                       id="tspan438"
                       sodipodi:role="line"
                       y="0"
                       x="0 9.34375 18.6875 23.132812">== 1</tspan></text>
</g></g></g></g></g></g><g
         id="g442"><g
           clip-path="url(#clipPath448)"
           id="g444"><g
             clip-path="url(#clipPath454)"
             id="g450"><g
               clip-path="url(#clipPath460)"
               id="g456"><g
                 transform="matrix(3.1228521,0,0,3.1220155,808.92419,864.79669)"
                 id="g462"><path
                   inkscape:connector-curvature="0"
                   id="path464"
                   style="fill:#e8e8e8;fill-opacity:0.49800002;fill-rule:nonzero;stroke:none"
                   d="M 0,0 H 32.03125 V 19 H 0 Z" /></g></g></g></g></g><g
         id="g466"><g
           clip-path="url(#clipPath472)"
           id="g468"><g
             clip-path="url(#clipPath478)"
             id="g474"><g
               clip-path="url(#clipPath484)"
               id="g480"><g
                 clip-path="url(#clipPath490)"
                 id="g486"><g
                   transform="matrix(3.1228521,0,0,3.1220155,808.92419,864.79669)"
                   id="g492"><path
                     inkscape:connector-curvature="0"
                     id="path494"
                     style="fill:#e8e8e8;fill-opacity:1;fill-rule:nonzero;stroke:none"
                     d="M 0,1 H 32 V 18 H 0 Z" /><text
                     id="text498"
                     style="font-variant:normal;font-weight:normal;font-size:16px;font-family:'Liberation Sans';-inkscape-font-specification:LiberationSans;writing-mode:lr-tb;fill:#333333;fill-opacity:1;fill-rule:nonzero;stroke:none"
                     transform="translate(0,15)"><tspan
                       id="tspan496"
                       sodipodi:role="line"
                       y="0"
                       x="0 9.34375 18.6875 23.132812">== 2</tspan></text>
</g></g></g></g></g></g><g
         id="g500"><g
           clip-path="url(#clipPath506)"
           id="g502"><g
             clip-path="url(#clipPath512)"
             id="g508"><g
               clip-path="url(#clipPath518)"
               id="g514"><g
                 transform="matrix(3.1228521,0,0,3.1220155,500.43283,1206.511)"
                 id="g520"><path
                   inkscape:connector-curvature="0"
                   id="path522"
                   style="fill:#e8e8e8;fill-opacity:0.49800002;fill-rule:nonzero;stroke:none"
                   d="M 0,0 H 32.03125 V 19 H 0 Z" /></g></g></g></g></g><g
         id="g524"><g
           clip-path="url(#clipPath530)"
           id="g526"><g
             clip-path="url(#clipPath536)"
             id="g532"><g
               clip-path="url(#clipPath542)"
               id="g538"><g
                 clip-path="url(#clipPath548)"
                 id="g544"><g
                   transform="matrix(3.1228521,0,0,3.1220155,500.43283,1206.511)"
                   id="g550"><path
                     inkscape:connector-curvature="0"
                     id="path552"
                     style="fill:#e8e8e8;fill-opacity:1;fill-rule:nonzero;stroke:none"
                     d="M 0,1 H 32 V 18 H 0 Z" /><text
                     id="text556"
                     style="font-variant:normal;font-weight:normal;font-size:16px;font-family:'Liberation Sans';-inkscape-font-specification:LiberationSans;writing-mode:lr-tb;fill:#333333;fill-opacity:1;fill-rule:nonzero;stroke:none"
                     transform="translate(0,15)"><tspan
                       id="tspan554"
                       sodipodi:role="line"
                       y="0"
                       x="0 9.34375 18.6875 23.132812">== 4</tspan></text>
</g></g></g></g></g></g><g
         id="g558"><g
           clip-path="url(#clipPath564)"
           id="g560"><g
             clip-path="url(#clipPath570)"
             id="g566"><g
               clip-path="url(#clipPath576)"
               id="g572"><g
                 transform="matrix(3.1228521,0,0,3.1220155,1121.5877,1206.511)"
                 id="g578"><path
                   inkscape:connector-curvature="0"
                   id="path580"
                   style="fill:#e8e8e8;fill-opacity:0.49800002;fill-rule:nonzero;stroke:none"
                   d="M 0,0 H 29.359375 V 19 H 0 Z" /></g></g></g></g></g><g
         id="g582"><g
           clip-path="url(#clipPath588)"
           id="g584"><g
             clip-path="url(#clipPath594)"
             id="g590"><g
               clip-path="url(#clipPath600)"
               id="g596"><g
                 clip-path="url(#clipPath606)"
                 id="g602"><g
                   transform="matrix(3.1228521,0,0,3.1220155,1121.5877,1206.511)"
                   id="g608"><path
                     inkscape:connector-curvature="0"
                     id="path610"
                     style="fill:#e8e8e8;fill-opacity:1;fill-rule:nonzero;stroke:none"
                     d="M 0,1 H 29 V 18 H 0 Z" /><text
                     id="text614"
                     style="font-variant:normal;font-weight:normal;font-size:16px;font-family:'Liberation Sans';-inkscape-font-specification:LiberationSans;writing-mode:lr-tb;fill:#333333;fill-opacity:1;fill-rule:nonzero;stroke:none"
                     transform="translate(0,15)"><tspan
                       id="tspan612"
                       sodipodi:role="line"
                       y="0"
                       x="0 8.8984375 12.453125 20.453125">else</tspan></text>
</g></g></g></g></g></g><g
         id="g616"><g
           clip-path="url(#clipPath622)"
           id="g618"><g
             clip-path="url(#clipPath628)"
             id="g624"><g
               clip-path="url(#clipPath634)"
               id="g630"><g
                 transform="matrix(3.1228521,0,0,3.1220155,1231.5339,864.79669)"
                 id="g636"><path
                   inkscape:connector-curvature="0"
                   id="path638"
                   style="fill:#e8e8e8;fill-opacity:0.49800002;fill-rule:nonzero;stroke:none"
                   d="M 0,0 H 29.359375 V 19 H 0 Z" /></g></g></g></g></g><g
         id="g640"><g
           clip-path="url(#clipPath646)"
           id="g642"><g
             clip-path="url(#clipPath652)"
             id="g648"><g
               clip-path="url(#clipPath658)"
               id="g654"><g
                 clip-path="url(#clipPath664)"
                 id="g660"><g
                   transform="matrix(3.1228521,0,0,3.1220155,1231.5339,864.79669)"
                   id="g666"><path
                     inkscape:connector-curvature="0"
                     id="path668"
                     style="fill:#e8e8e8;fill-opacity:1;fill-rule:nonzero;stroke:none"
                     d="M 0,1 H 29 V 18 H 0 Z" /><text
                     id="text672"
                     style="font-variant:normal;font-weight:normal;font-size:16px;font-family:'Liberation Sans';-inkscape-font-specification:LiberationSans;writing-mode:lr-tb;fill:#333333;fill-opacity:1;fill-rule:nonzero;stroke:none"
                     transform="translate(0,15)"><tspan
                       id="tspan670"
                       sodipodi:role="line"
                       y="0"
                       x="0 8.8984375 12.453125 20.453125">else</tspan></text>
</g></g></g></g></g></g><g
         id="g674"><g
           clip-path="url(#clipPath680)"
           id="g676"><g
             clip-path="url(#clipPath686)"
             id="g682"><g
               clip-path="url(#clipPath692)"
               id="g688"><g
                 transform="matrix(3.1228521,0,0,3.1220155,1419.8932,523.08234)"
                 id="g694"><path
                   inkscape:connector-curvature="0"
                   id="path696"
                   style="fill:#e8e8e8;fill-opacity:0.49800002;fill-rule:nonzero;stroke:none"
                   d="M 0,0 H 29.359375 V 19 H 0 Z" /></g></g></g></g></g><g
         id="g698"><g
           clip-path="url(#clipPath704)"
           id="g700"><g
             clip-path="url(#clipPath710)"
             id="g706"><g
               clip-path="url(#clipPath716)"
               id="g712"><g
                 clip-path="url(#clipPath722)"
                 id="g718"><g
                   transform="matrix(3.1228521,0,0,3.1220155,1419.8932,523.08234)"
                   id="g724"><path
                     inkscape:connector-curvature="0"
                     id="path726"
                     style="fill:#e8e8e8;fill-opacity:1;fill-rule:nonzero;stroke:none"
                     d="M 0,1 H 29 V 18 H 0 Z" /><text
                     id="text730"
                     style="font-variant:normal;font-weight:normal;font-size:16px;font-family:'Liberation Sans';-inkscape-font-specification:LiberationSans;writing-mode:lr-tb;fill:#333333;fill-opacity:1;fill-rule:nonzero;stroke:none"
                     transform="translate(0,15)"><tspan
                       id="tspan728"
                       sodipodi:role="line"
                       y="0"
                       x="0 8.8984375 12.453125 20.453125">else</tspan></text>
</g></g></g></g></g></g><g
         id="g732"><g
           clip-path="url(#clipPath738)"
           id="g734"><g
             clip-path="url(#clipPath744)"
             id="g740"><g
               clip-path="url(#clipPath750)"
               id="g746"><g
                 transform="matrix(3.1228521,0,0,3.1220155,1266.9467,381.88431)"
                 id="g752"><path
                   inkscape:connector-curvature="0"
                   id="path754"
                   style="fill:#ececff;fill-opacity:1;fill-rule:nonzero;stroke:none"
                   d="m 20.226563,0 c -2e-6,1.3280947 -0.129551,2.64343 -0.388649,3.9460058 -0.2591,1.3025761 -0.642769,2.5673633 -1.151009,3.794363 -0.50824,1.2270003 -1.131285,2.3926352 -1.869135,3.4969062 -0.73785,1.10427 -1.576326,2.125959 -2.515431,3.065064 -0.939105,0.939105 -1.960794,1.777581 -3.065064,2.515429 -1.104271,0.73785 -2.2699059,1.360895 -3.4969062,1.869135 -1.2269997,0.50824 -2.4917869,0.891909 -3.794363,1.151009 C 2.64343,20.097012 1.3280947,20.226561 0,20.226563 c -1.3280947,-2e-6 -2.64343,-0.129551 -3.9460058,-0.388649 -1.3025761,-0.2591 -2.5673633,-0.642769 -3.794363,-1.151009 -1.2270003,-0.50824 -2.3926352,-1.131285 -3.4969062,-1.869135 -1.10427,-0.73785 -2.125959,-1.576326 -3.065064,-2.515431 -0.939105,-0.939105 -1.777581,-1.960794 -2.515429,-3.065064 -0.73785,-1.104271 -1.360895,-2.2699059 -1.869135,-3.4969062 -0.50824,-1.2269997 -0.891909,-2.4917869 -1.151009,-3.794363 C -20.097012,2.64343 -20.226561,1.3280947 -20.226563,0 c 2e-6,-1.3280947 0.129551,-2.64343 0.388649,-3.9460058 0.2591,-1.3025761 0.642769,-2.5673633 1.151009,-3.794363 0.50824,-1.2270003 1.131285,-2.3926352 1.869135,-3.4969062 0.73785,-1.10427 1.576326,-2.125959 2.515431,-3.065064 0.939105,-0.939105 1.960794,-1.777581 3.065064,-2.515429 1.104271,-0.73785 2.2699059,-1.360895 3.4969062,-1.869135 1.2269997,-0.50824 2.4917869,-0.891909 3.794363,-1.151009 1.3025758,-0.2591 2.6179111,-0.388649 3.9460058,-0.388651 1.3280947,2e-6 2.64343,0.129551 3.9460058,0.388649 1.3025761,0.2591 2.5673633,0.642769 3.794363,1.151009 1.2270003,0.50824 2.3926352,1.131285 3.4969062,1.869135 1.10427,0.73785 2.125959,1.576326 3.065064,2.515431 0.939105,0.939105 1.777581,1.960794 2.515429,3.065064 0.73785,1.104271 1.360895,2.2699059 1.869135,3.4969062 0.50824,1.2269997 0.891909,2.4917869 1.151009,3.794363 C 20.097012,-2.64343 20.226561,-1.3280947 20.226563,0 Z" /><path
                   inkscape:connector-curvature="0"
                   id="path756"
                   style="fill:none;stroke:#9370db;stroke-width:1;stroke-linecap:butt;stroke-linejoin:miter;stroke-miterlimit:10;stroke-dasharray:none;stroke-opacity:1"
                   d="m 20.226563,0 c -2e-6,1.3280947 -0.129551,2.64343 -0.388649,3.9460058 -0.2591,1.3025761 -0.642769,2.5673633 -1.151009,3.794363 -0.50824,1.2270003 -1.131285,2.3926352 -1.869135,3.4969062 -0.73785,1.10427 -1.576326,2.125959 -2.515431,3.065064 -0.939105,0.939105 -1.960794,1.777581 -3.065064,2.515429 -1.104271,0.73785 -2.2699059,1.360895 -3.4969062,1.869135 -1.2269997,0.50824 -2.4917869,0.891909 -3.794363,1.151009 C 2.64343,20.097012 1.3280947,20.226561 0,20.226563 c -1.3280947,-2e-6 -2.64343,-0.129551 -3.9460058,-0.388649 -1.3025761,-0.2591 -2.5673633,-0.642769 -3.794363,-1.151009 -1.2270003,-0.50824 -2.3926352,-1.131285 -3.4969062,-1.869135 -1.10427,-0.73785 -2.125959,-1.576326 -3.065064,-2.515431 -0.939105,-0.939105 -1.777581,-1.960794 -2.515429,-3.065064 -0.73785,-1.104271 -1.360895,-2.2699059 -1.869135,-3.4969062 -0.50824,-1.2269997 -0.891909,-2.4917869 -1.151009,-3.794363 C -20.097012,2.64343 -20.226561,1.3280947 -20.226563,0 c 2e-6,-1.3280947 0.129551,-2.64343 0.388649,-3.9460058 0.2591,-1.3025761 0.642769,-2.5673633 1.151009,-3.794363 0.50824,-1.2270003 1.131285,-2.3926352 1.869135,-3.4969062 0.73785,-1.10427 1.576326,-2.125959 2.515431,-3.065064 0.939105,-0.939105 1.960794,-1.777581 3.065064,-2.515429 1.104271,-0.73785 2.2699059,-1.360895 3.4969062,-1.869135 1.2269997,-0.50824 2.4917869,-0.891909 3.794363,-1.151009 1.3025758,-0.2591 2.6179111,-0.388649 3.9460058,-0.388651 1.3280947,2e-6 2.64343,0.129551 3.9460058,0.388649 1.3025761,0.2591 2.5673633,0.642769 3.794363,1.151009 1.2270003,0.50824 2.3926352,1.131285 3.4969062,1.869135 1.10427,0.73785 2.125959,1.576326 3.065064,2.515431 0.939105,0.939105 1.777581,1.960794 2.515429,3.065064 0.73785,1.104271 1.360895,2.2699059 1.869135,3.4969062 0.50824,1.2269997 0.891909,2.4917869 1.151009,3.794363 C 20.097012,-2.64343 20.226561,-1.3280947 20.226563,0 Z" /></g></g></g></g></g><g
         id="g758"><g
           clip-path="url(#clipPath764)"
           id="g760"><g
             clip-path="url(#clipPath770)"
             id="g766"><g
               clip-path="url(#clipPath776)"
               id="g772"><g
                 clip-path="url(#clipPath782)"
                 id="g778"><g
                   transform="matrix(3.1228521,0,0,3.1220155,1235.0106,352.22516)"
                   id="g784"><text
                     id="text788"
                     style="font-variant:normal;font-weight:normal;font-size:16px;font-family:'Liberation Sans';-inkscape-font-specification:LiberationSans;writing-mode:lr-tb;fill:#333333;fill-opacity:1;fill-rule:nonzero;stroke:none"
                     transform="translate(0,15)"><tspan
                       id="tspan786"
                       sodipodi:role="line"
                       y="0"
                       x="0 11.554688">D3</tspan></text>
</g></g></g></g></g></g><g
         id="g790"><g
           clip-path="url(#clipPath796)"
           id="g792"><g
             clip-path="url(#clipPath802)"
             id="g798"><g
               clip-path="url(#clipPath808)"
               id="g804"><g
                 transform="matrix(3.1228521,0,0,3.1220155,1068.1576,723.59863)"
                 id="g810"><path
                   inkscape:connector-curvature="0"
                   id="path812"
                   style="fill:#ececff;fill-opacity:1;fill-rule:nonzero;stroke:none"
                   d="m 20.226563,0 c -2e-6,1.3280947 -0.129551,2.64343 -0.388649,3.9460058 -0.2591,1.3025761 -0.642769,2.5673633 -1.151009,3.794363 -0.50824,1.2270003 -1.131285,2.3926352 -1.869135,3.4969062 -0.73785,1.10427 -1.576326,2.125959 -2.515431,3.065064 -0.939105,0.939105 -1.960794,1.777581 -3.065064,2.515429 -1.104271,0.73785 -2.2699059,1.360895 -3.4969062,1.869135 -1.2269997,0.50824 -2.4917869,0.891909 -3.794363,1.151009 C 2.64343,20.097012 1.3280947,20.226561 0,20.226563 c -1.3280947,-2e-6 -2.64343,-0.129551 -3.9460058,-0.388649 -1.3025761,-0.2591 -2.5673633,-0.642769 -3.794363,-1.151009 -1.2270003,-0.50824 -2.3926352,-1.131285 -3.4969062,-1.869135 -1.10427,-0.73785 -2.125959,-1.576326 -3.065064,-2.515431 -0.939105,-0.939105 -1.777581,-1.960794 -2.515429,-3.065064 -0.73785,-1.104271 -1.360895,-2.2699059 -1.869135,-3.4969062 -0.50824,-1.2269997 -0.891909,-2.4917869 -1.151009,-3.794363 C -20.097012,2.64343 -20.226561,1.3280947 -20.226563,0 c 2e-6,-1.3280947 0.129551,-2.64343 0.388649,-3.9460058 0.2591,-1.3025761 0.642769,-2.5673633 1.151009,-3.794363 0.50824,-1.2270003 1.131285,-2.3926352 1.869135,-3.4969062 0.73785,-1.10427 1.576326,-2.125959 2.515431,-3.065064 0.939105,-0.939105 1.960794,-1.777581 3.065064,-2.515429 1.104271,-0.73785 2.2699059,-1.360895 3.4969062,-1.869135 1.2269997,-0.50824 2.4917869,-0.891909 3.794363,-1.151009 1.3025758,-0.2591 2.6179111,-0.388649 3.9460058,-0.388651 1.3280947,2e-6 2.64343,0.129551 3.9460058,0.388649 1.3025761,0.2591 2.5673633,0.642769 3.794363,1.151009 1.2270003,0.50824 2.3926352,1.131285 3.4969062,1.869135 1.10427,0.73785 2.125959,1.576326 3.065064,2.515431 0.939105,0.939105 1.777581,1.960794 2.515429,3.065064 0.73785,1.104271 1.360895,2.2699059 1.869135,3.4969062 0.50824,1.2269997 0.891909,2.4917869 1.151009,3.794363 C 20.097012,-2.64343 20.226561,-1.3280947 20.226563,0 Z" /><path
                   inkscape:connector-curvature="0"
                   id="path814"
                   style="fill:none;stroke:#9370db;stroke-width:1;stroke-linecap:butt;stroke-linejoin:miter;stroke-miterlimit:10;stroke-dasharray:none;stroke-opacity:1"
                   d="m 20.226563,0 c -2e-6,1.3280947 -0.129551,2.64343 -0.388649,3.9460058 -0.2591,1.3025761 -0.642769,2.5673633 -1.151009,3.794363 -0.50824,1.2270003 -1.131285,2.3926352 -1.869135,3.4969062 -0.73785,1.10427 -1.576326,2.125959 -2.515431,3.065064 -0.939105,0.939105 -1.960794,1.777581 -3.065064,2.515429 -1.104271,0.73785 -2.2699059,1.360895 -3.4969062,1.869135 -1.2269997,0.50824 -2.4917869,0.891909 -3.794363,1.151009 C 2.64343,20.097012 1.3280947,20.226561 0,20.226563 c -1.3280947,-2e-6 -2.64343,-0.129551 -3.9460058,-0.388649 -1.3025761,-0.2591 -2.5673633,-0.642769 -3.794363,-1.151009 -1.2270003,-0.50824 -2.3926352,-1.131285 -3.4969062,-1.869135 -1.10427,-0.73785 -2.125959,-1.576326 -3.065064,-2.515431 -0.939105,-0.939105 -1.777581,-1.960794 -2.515429,-3.065064 -0.73785,-1.104271 -1.360895,-2.2699059 -1.869135,-3.4969062 -0.50824,-1.2269997 -0.891909,-2.4917869 -1.151009,-3.794363 C -20.097012,2.64343 -20.226561,1.3280947 -20.226563,0 c 2e-6,-1.3280947 0.129551,-2.64343 0.388649,-3.9460058 0.2591,-1.3025761 0.642769,-2.5673633 1.151009,-3.794363 0.50824,-1.2270003 1.131285,-2.3926352 1.869135,-3.4969062 0.73785,-1.10427 1.576326,-2.125959 2.515431,-3.065064 0.939105,-0.939105 1.960794,-1.777581 3.065064,-2.515429 1.104271,-0.73785 2.2699059,-1.360895 3.4969062,-1.869135 1.2269997,-0.50824 2.4917869,-0.891909 3.794363,-1.151009 1.3025758,-0.2591 2.6179111,-0.388649 3.9460058,-0.388651 1.3280947,2e-6 2.64343,0.129551 3.9460058,0.388649 1.3025761,0.2591 2.5673633,0.642769 3.794363,1.151009 1.2270003,0.50824 2.3926352,1.131285 3.4969062,1.869135 1.10427,0.73785 2.125959,1.576326 3.065064,2.515431 0.939105,0.939105 1.777581,1.960794 2.515429,3.065064 0.73785,1.104271 1.360895,2.2699059 1.869135,3.4969062 0.50824,1.2269997 0.891909,2.4917869 1.151009,3.794363 C 20.097012,-2.64343 20.226561,-1.3280947 20.226563,0 Z" /></g></g></g></g></g><g
         id="g816"><g
           clip-path="url(#clipPath822)"
           id="g818"><g
             clip-path="url(#clipPath828)"
             id="g824"><g
               clip-path="url(#clipPath834)"
               id="g830"><g
                 clip-path="url(#clipPath840)"
                 id="g836"><g
                   transform="matrix(3.1228521,0,0,3.1220155,1036.2216,693.93945)"
                   id="g842"><text
                     id="text846"
                     style="font-variant:normal;font-weight:normal;font-size:16px;font-family:'Liberation Sans';-inkscape-font-specification:LiberationSans;writing-mode:lr-tb;fill:#333333;fill-opacity:1;fill-rule:nonzero;stroke:none"
                     transform="translate(0,15)"><tspan
                       id="tspan844"
                       sodipodi:role="line"
                       y="0"
                       x="0 11.554688">D2</tspan></text>
</g></g></g></g></g></g><g
         id="g848"><g
           clip-path="url(#clipPath854)"
           id="g850"><g
             clip-path="url(#clipPath860)"
             id="g856"><g
               clip-path="url(#clipPath866)"
               id="g862"><g
                 transform="matrix(3.1228521,0,0,3.1220155,858.93872,1065.313)"
                 id="g868"><path
                   inkscape:connector-curvature="0"
                   id="path870"
                   style="fill:#ececff;fill-opacity:1;fill-rule:nonzero;stroke:none"
                   d="m 20.226563,0 c -2e-6,1.3280947 -0.129551,2.64343 -0.388649,3.9460058 -0.2591,1.3025761 -0.642769,2.5673633 -1.151009,3.794363 -0.50824,1.2270003 -1.131285,2.3926352 -1.869135,3.4969062 -0.73785,1.10427 -1.576326,2.125959 -2.515431,3.065064 -0.939105,0.939105 -1.960794,1.777581 -3.065064,2.515429 -1.104271,0.73785 -2.2699059,1.360895 -3.4969062,1.869135 -1.2269997,0.50824 -2.4917869,0.891909 -3.794363,1.151009 C 2.64343,20.097012 1.3280947,20.226561 0,20.226563 c -1.3280947,-2e-6 -2.64343,-0.129551 -3.9460058,-0.388649 -1.3025761,-0.2591 -2.5673633,-0.642769 -3.794363,-1.151009 -1.2270003,-0.50824 -2.3926352,-1.131285 -3.4969062,-1.869135 -1.10427,-0.73785 -2.125959,-1.576326 -3.065064,-2.515431 -0.939105,-0.939105 -1.777581,-1.960794 -2.515429,-3.065064 -0.73785,-1.104271 -1.360895,-2.2699059 -1.869135,-3.4969062 -0.50824,-1.2269997 -0.891909,-2.4917869 -1.151009,-3.794363 C -20.097012,2.64343 -20.226561,1.3280947 -20.226563,0 c 2e-6,-1.3280947 0.129551,-2.64343 0.388649,-3.9460058 0.2591,-1.3025761 0.642769,-2.5673633 1.151009,-3.794363 0.50824,-1.2270003 1.131285,-2.3926352 1.869135,-3.4969062 0.73785,-1.10427 1.576326,-2.125959 2.515431,-3.065064 0.939105,-0.939105 1.960794,-1.777581 3.065064,-2.515429 1.104271,-0.73785 2.2699059,-1.360895 3.4969062,-1.869135 1.2269997,-0.50824 2.4917869,-0.891909 3.794363,-1.151009 1.3025758,-0.2591 2.6179111,-0.388649 3.9460058,-0.388651 1.3280947,2e-6 2.64343,0.129551 3.9460058,0.388649 1.3025761,0.2591 2.5673633,0.642769 3.794363,1.151009 1.2270003,0.50824 2.3926352,1.131285 3.4969062,1.869135 1.10427,0.73785 2.125959,1.576326 3.065064,2.515431 0.939105,0.939105 1.777581,1.960794 2.515429,3.065064 0.73785,1.104271 1.360895,2.2699059 1.869135,3.4969062 0.50824,1.2269997 0.891909,2.4917869 1.151009,3.794363 C 20.097012,-2.64343 20.226561,-1.3280947 20.226563,0 Z" /><path
                   inkscape:connector-curvature="0"
                   id="path872"
                   style="fill:none;stroke:#9370db;stroke-width:1;stroke-linecap:butt;stroke-linejoin:miter;stroke-miterlimit:10;stroke-dasharray:none;stroke-opacity:1"
                   d="m 20.226563,0 c -2e-6,1.3280947 -0.129551,2.64343 -0.388649,3.9460058 -0.2591,1.3025761 -0.642769,2.5673633 -1.151009,3.794363 -0.50824,1.2270003 -1.131285,2.3926352 -1.869135,3.4969062 -0.73785,1.10427 -1.576326,2.125959 -2.515431,3.065064 -0.939105,0.939105 -1.960794,1.777581 -3.065064,2.515429 -1.104271,0.73785 -2.2699059,1.360895 -3.4969062,1.869135 -1.2269997,0.50824 -2.4917869,0.891909 -3.794363,1.151009 C 2.64343,20.097012 1.3280947,20.226561 0,20.226563 c -1.3280947,-2e-6 -2.64343,-0.129551 -3.9460058,-0.388649 -1.3025761,-0.2591 -2.5673633,-0.642769 -3.794363,-1.151009 -1.2270003,-0.50824 -2.3926352,-1.131285 -3.4969062,-1.869135 -1.10427,-0.73785 -2.125959,-1.576326 -3.065064,-2.515431 -0.939105,-0.939105 -1.777581,-1.960794 -2.515429,-3.065064 -0.73785,-1.104271 -1.360895,-2.2699059 -1.869135,-3.4969062 -0.50824,-1.2269997 -0.891909,-2.4917869 -1.151009,-3.794363 C -20.097012,2.64343 -20.226561,1.3280947 -20.226563,0 c 2e-6,-1.3280947 0.129551,-2.64343 0.388649,-3.9460058 0.2591,-1.3025761 0.642769,-2.5673633 1.151009,-3.794363 0.50824,-1.2270003 1.131285,-2.3926352 1.869135,-3.4969062 0.73785,-1.10427 1.576326,-2.125959 2.515431,-3.065064 0.939105,-0.939105 1.960794,-1.777581 3.065064,-2.515429 1.104271,-0.73785 2.2699059,-1.360895 3.4969062,-1.869135 1.2269997,-0.50824 2.4917869,-0.891909 3.794363,-1.151009 1.3025758,-0.2591 2.6179111,-0.388649 3.9460058,-0.388651 1.3280947,2e-6 2.64343,0.129551 3.9460058,0.388649 1.3025761,0.2591 2.5673633,0.642769 3.794363,1.151009 1.2270003,0.50824 2.3926352,1.131285 3.4969062,1.869135 1.10427,0.73785 2.125959,1.576326 3.065064,2.515431 0.939105,0.939105 1.777581,1.960794 2.515429,3.065064 0.73785,1.104271 1.360895,2.2699059 1.869135,3.4969062 0.50824,1.2269997 0.891909,2.4917869 1.151009,3.794363 C 20.097012,-2.64343 20.226561,-1.3280947 20.226563,0 Z" /></g></g></g></g></g><g
         id="g874"><g
           clip-path="url(#clipPath880)"
           id="g876"><g
             clip-path="url(#clipPath886)"
             id="g882"><g
               clip-path="url(#clipPath892)"
               id="g888"><g
                 clip-path="url(#clipPath898)"
                 id="g894"><g
                   transform="matrix(3.1228521,0,0,3.1220155,827.00269,1035.6538)"
                   id="g900"><text
                     id="text904"
                     style="font-variant:normal;font-weight:normal;font-size:16px;font-family:'Liberation Sans';-inkscape-font-specification:LiberationSans;writing-mode:lr-tb;fill:#333333;fill-opacity:1;fill-rule:nonzero;stroke:none"
                     transform="translate(0,15)"><tspan
                       id="tspan902"
                       sodipodi:role="line"
                       y="0"
                       x="0 11.554688">D1</tspan></text>
</g></g></g></g></g></g><g
         id="g906"><g
           clip-path="url(#clipPath912)"
           id="g908"><g
             clip-path="url(#clipPath918)"
             id="g914"><g
               clip-path="url(#clipPath924)"
               id="g920"><g
                 transform="matrix(3.1228521,0,0,3.1220155,340.0451,1465.6383)"
                 id="g926"><path
                   inkscape:connector-curvature="0"
                   id="path928"
                   style="fill:#ececff;fill-opacity:1;fill-rule:nonzero;stroke:none"
                   d="M -19.5,0 H 134.75 V -39 H -19.5 L 0,-19.5 Z" /><path
                   inkscape:connector-curvature="0"
                   id="path930"
                   style="fill:none;stroke:#9370db;stroke-width:1;stroke-linecap:butt;stroke-linejoin:miter;stroke-miterlimit:10;stroke-dasharray:none;stroke-opacity:1"
                   d="M -19.5,0 H 134.75 V -39 H -19.5 L 0,-19.5 Z" /></g></g></g></g></g><g
         id="g932"><g
           clip-path="url(#clipPath938)"
           id="g934"><g
             clip-path="url(#clipPath944)"
             id="g940"><g
               clip-path="url(#clipPath950)"
               id="g946"><g
                 clip-path="url(#clipPath956)"
                 id="g952"><g
                   transform="matrix(3.1228521,0,0,3.1220155,371.27362,1375.0999)"
                   id="g958"><text
                     id="text962"
                     style="font-variant:normal;font-weight:normal;font-size:16px;font-family:'Liberation Sans';-inkscape-font-specification:LiberationSans;writing-mode:lr-tb;fill:#333333;fill-opacity:1;fill-rule:nonzero;stroke:none"
                     transform="translate(0,15)"><tspan
                       id="tspan960"
                       sodipodi:role="line"
                       y="0"
                       x="0 8 16.898438 25.796875 34.695312 40.023438 48.023438 56.921875 65.820312 74.71875 80.046875 88.046875 96.945312 105.84375">keep-keep-keep</tspan></text>
</g></g></g></g></g></g><g
         id="g964"><g
           clip-path="url(#clipPath970)"
           id="g966"><g
             clip-path="url(#clipPath976)"
             id="g972"><g
               clip-path="url(#clipPath982)"
               id="g978"><g
                 transform="matrix(3.1228521,0,0,3.1220155,977.8877,1465.6383)"
                 id="g984"><path
                   inkscape:connector-curvature="0"
                   id="path986"
                   style="fill:#ececff;fill-opacity:1;fill-rule:nonzero;stroke:none"
                   d="M -19.5,0 H 121.39063 V -39 H -19.5 L 0,-19.5 Z" /><path
                   inkscape:connector-curvature="0"
                   id="path988"
                   style="fill:none;stroke:#9370db;stroke-width:1;stroke-linecap:butt;stroke-linejoin:miter;stroke-miterlimit:10;stroke-dasharray:none;stroke-opacity:1"
                   d="M -19.5,0 H 121.39063 V -39 H -19.5 L 0,-19.5 Z" /></g></g></g></g></g><g
         id="g990"><g
           clip-path="url(#clipPath996)"
           id="g992"><g
             clip-path="url(#clipPath1002)"
             id="g998"><g
               clip-path="url(#clipPath1008)"
               id="g1004"><g
                 clip-path="url(#clipPath1014)"
                 id="g1010"><g
                   transform="matrix(3.1228521,0,0,3.1220155,1009.1161,1375.0999)"
                   id="g1016"><text
                     id="text1020"
                     style="font-variant:normal;font-weight:normal;font-size:16px;font-family:'Liberation Sans';-inkscape-font-specification:LiberationSans;writing-mode:lr-tb;fill:#333333;fill-opacity:1;fill-rule:nonzero;stroke:none"
                     transform="translate(0,15)"><tspan
                       id="tspan1018"
                       sodipodi:role="line"
                       y="0"
                       x="0 5.328125 14.226562 17.78125 21.335938 26.664062 34.664062 43.5625 52.460938 61.359375 66.6875 74.6875 83.585938 92.484375">roll-keep-keep</tspan></text>
</g></g></g></g></g></g><g
         id="g1022"><g
           clip-path="url(#clipPath1028)"
           id="g1024"><g
             clip-path="url(#clipPath1034)"
             id="g1030"><g
               clip-path="url(#clipPath1040)"
               id="g1036"><g
                 transform="matrix(3.1228521,0,0,3.1220155,1108.6936,1126.1923)"
                 id="g1042"><path
                   inkscape:connector-curvature="0"
                   id="path1044"
                   style="fill:#ececff;fill-opacity:1;fill-rule:nonzero;stroke:none"
                   d="M -19.5,0 H 108.03125 V -39 H -19.5 L 0,-19.5 Z" /><path
                   inkscape:connector-curvature="0"
                   id="path1046"
                   style="fill:none;stroke:#9370db;stroke-width:1;stroke-linecap:butt;stroke-linejoin:miter;stroke-miterlimit:10;stroke-dasharray:none;stroke-opacity:1"
                   d="M -19.5,0 H 108.03125 V -39 H -19.5 L 0,-19.5 Z" /></g></g></g></g></g><g
         id="g1048"><g
           clip-path="url(#clipPath1054)"
           id="g1050"><g
             clip-path="url(#clipPath1060)"
             id="g1056"><g
               clip-path="url(#clipPath1066)"
               id="g1062"><g
                 clip-path="url(#clipPath1072)"
                 id="g1068"><g
                   transform="matrix(3.1228521,0,0,3.1220155,1139.9222,1035.6538)"
                   id="g1074"><text
                     id="text1078"
                     style="font-variant:normal;font-weight:normal;font-size:16px;font-family:'Liberation Sans';-inkscape-font-specification:LiberationSans;writing-mode:lr-tb;fill:#333333;fill-opacity:1;fill-rule:nonzero;stroke:none"
                     transform="translate(0,15)"><tspan
                       id="tspan1076"
                       sodipodi:role="line"
                       y="0"
                       x="0 5.328125 14.226562 17.78125 21.335938 26.664062 31.992188 40.890625 44.445312 48 53.328125 61.328125 70.226562 79.125">roll-roll-keep</tspan></text>
</g></g></g></g></g></g><g
         id="g1080"><g
           clip-path="url(#clipPath1086)"
           id="g1082"><g
             clip-path="url(#clipPath1092)"
             id="g1088"><g
               clip-path="url(#clipPath1098)"
               id="g1094"><g
                 transform="matrix(3.1228521,0,0,3.1220155,1317.9125,784.47791)"
                 id="g1100"><path
                   inkscape:connector-curvature="0"
                   id="path1102"
                   style="fill:#ececff;fill-opacity:1;fill-rule:nonzero;stroke:none"
                   d="M -19.5,0 H 94.671875 V -39 H -19.5 L 0,-19.5 Z" /><path
                   inkscape:connector-curvature="0"
                   id="path1104"
                   style="fill:none;stroke:#9370db;stroke-width:1;stroke-linecap:butt;stroke-linejoin:miter;stroke-miterlimit:10;stroke-dasharray:none;stroke-opacity:1"
                   d="M -19.5,0 H 94.671875 V -39 H -19.5 L 0,-19.5 Z" /></g></g></g></g></g><g
         id="g1106"><g
           clip-path="url(#clipPath1112)"
           id="g1108"><g
             clip-path="url(#clipPath1118)"
             id="g1114"><g
               clip-path="url(#clipPath1124)"
               id="g1120"><g
                 clip-path="url(#clipPath1130)"
                 id="g1126"><g
                   transform="matrix(3.1228521,0,0,3.1220155,1349.141,693.93945)"
                   id="g1132"><text
                     id="text1136"
                     style="font-variant:normal;font-weight:normal;font-size:16px;font-family:'Liberation Sans';-inkscape-font-specification:LiberationSans;writing-mode:lr-tb;fill:#333333;fill-opacity:1;fill-rule:nonzero;stroke:none"
                     transform="translate(0,15)"><tspan
                       id="tspan1134"
                       sodipodi:role="line"
                       y="0"
                       x="0 5.328125 14.226562 17.78125 21.335938 26.664062 31.992188 40.890625 44.445312 48 53.328125 58.65625 67.554688 71.109375">roll-roll-roll</tspan></text>
</g></g></g></g></g></g></g></g></svg>