<?xml version="1.0" encoding="UTF-8" standalone="no"?>
<!-- Generated by graphviz version 2.40.1 (20161225.0304) -->

<!-- Title: MC_Zombie Pages: 1 -->

<svg
   xmlns:dc="http://purl.org/dc/elements/1.1/"
   xmlns:cc="http://creativecommons.org/ns#"
   xmlns:rdf="http://www.w3.org/1999/02/22-rdf-syntax-ns#"
   xmlns:svg="http://www.w3.org/2000/svg"
   xmlns="http://www.w3.org/2000/svg"
   xmlns:sodipodi="http://sodipodi.sourceforge.net/DTD/sodipodi-0.dtd"
   xmlns:inkscape="http://www.inkscape.org/namespaces/inkscape"
   width="1000"
   height="400"
   viewBox="0 0 749.98155 299.99999"
   version="1.1"
   id="svg19494"
   sodipodi:docname="zombie-dot.svg"
   inkscape:version="0.92.5 (2060ec1f9f, 2020-04-08)">
  <metadata
     id="metadata19500">
    <rdf:RDF>
      <cc:Work
         rdf:about="">
        <dc:format>image/svg+xml</dc:format>
        <dc:type
           rdf:resource="http://purl.org/dc/dcmitype/StillImage" />
        <dc:title></dc:title>
      </cc:Work>
    </rdf:RDF>
  </metadata>
  <defs
     id="defs19498" />
  <sodipodi:namedview
     pagecolor="#ffffff"
     bordercolor="#666666"
     borderopacity="1"
     objecttolerance="10"
     gridtolerance="10"
     guidetolerance="10"
     inkscape:pageopacity="0"
     inkscape:pageshadow="2"
     inkscape:window-width="1920"
     inkscape:window-height="1043"
     id="namedview19496"
     showgrid="false"
     inkscape:zoom="0.3229927"
     inkscape:cx="-252.064"
     inkscape:cy="5.2753356"
     inkscape:window-x="618"
     inkscape:window-y="2160"
     inkscape:window-maximized="1"
     inkscape:current-layer="svg19494"
     units="px" />
  <g
     id="g342"
     transform="matrix(0.5532503,0,0,0.5532503,150.16164,135.6155)">
    <ellipse
       style="fill:none;stroke:#000000"
       id="ellipse18907"
       ry="18"
       rx="56.2015"
       cy="61.999992"
       cx="72.100601" />
    <text
       style="font-size:14px;font-family:Times, serif;text-anchor:middle;fill:#000000"
       id="text18909"
       font-size="14.00"
       y="66.200005"
       x="72.100601">StockE2_t1</text>
    <ellipse
       style="fill:#dd9955;fill-opacity:1;stroke:#dd9955;stroke-width:2.25;stroke-miterlimit:4;stroke-dasharray:none;stroke-opacity:1"
       id="ellipse18914"
       ry="18"
       rx="56.2015"
       cy="205.99998"
       cx="60.100601" />
    <text
       style="font-size:14px;font-family:Times, serif;text-anchor:middle;fill:#000000"
       id="text18916"
       font-size="14.00"
       y="210.2"
       x="60.100601">StockE3_t1</text>
    <path
       style="fill:none;stroke:#000000"
       inkscape:connector-curvature="0"
       id="path18921"
       d="M 70.5808,80.237672 C 68.5341,104.79897 64.8713,148.75257 62.4635,177.64587" />
    <polygon
       transform="translate(4,295.99997)"
       style="fill:#000000;stroke:#000000"
       id="polygon18923"
       points="54.9507,-118.3458 61.9266,-117.7644 57.6081,-108.0896 " />
    <ellipse
       style="fill:none;stroke:#000000"
       id="ellipse18928"
       ry="18"
       rx="32.4846"
       cy="133.99998"
       cx="177.1006" />
    <text
       style="font-size:14px;font-family:Times, serif;text-anchor:middle;fill:#000000"
       id="text18930"
       font-size="14.00"
       y="138.2"
       x="177.1006">type3</text>
    <path
       style="fill:none;stroke:#000000"
       inkscape:connector-curvature="0"
       id="path18935"
       d="m 95.9268,78.337872 c 15.4178,10.5723 35.595,24.407998 51.9754,35.640298" />
    <polygon
       transform="translate(4,295.99997)"
       style="fill:#000000;stroke:#000000"
       id="polygon18937"
       points="142.3308,-178.8555 146.2896,-184.6286 152.5575,-176.0867 " />
    <ellipse
       style="fill:#449944;fill-opacity:1;stroke:#449944;stroke-width:2.25;stroke-miterlimit:4;stroke-dasharray:none;stroke-opacity:1"
       id="ellipse18942"
       ry="18"
       rx="28.990999"
       cy="61.999992"
       cx="175.1006" />
    <text
       style="font-size:14px;font-family:Times, serif;text-anchor:middle;fill:#000000"
       id="text18944"
       font-size="14.00"
       y="66.200005"
       x="175.1006">init3</text>
    <path
       style="fill:none;stroke:#000000"
       inkscape:connector-curvature="0"
       id="path18949"
       d="M 162.1322,78.238672 C 142.2658,103.11487 104.1256,150.87307 80.5215,180.42957" />
    <polygon
       transform="translate(4,295.99997)"
       style="fill:#000000;stroke:#000000"
       id="polygon18951"
       points="73.7821,-117.749 79.2519,-113.3807 70.2766,-107.7508 " />
    <path
       style="fill:none;stroke:#000000"
       inkscape:connector-curvature="0"
       id="path18956"
       d="m 175.6053,80.168572 c 0.2139,7.7004 0.4683,16.8571 0.706,25.414798" />
    <polygon
       transform="translate(4,295.99997)"
       style="fill:#000000;stroke:#000000"
       id="polygon18958"
       points="168.8127,-190.3122 175.81,-190.5066 172.5892,-180.4133 " />
    <ellipse
       style="fill:#dd9955;fill-opacity:1;stroke:#dd9955;stroke-width:2.25;stroke-miterlimit:4;stroke-dasharray:none;stroke-opacity:1"
       id="ellipse18963"
       ry="18"
       rx="58.571301"
       cy="205.99998"
       cx="313.10059" />
    <text
       style="font-size:14px;font-family:Times, serif;text-anchor:middle;fill:#000000"
       id="text18965"
       font-size="14.00"
       y="210.2"
       x="313.10059">StockM3_t1</text>
    <path
       style="fill:none;stroke:#000000"
       inkscape:connector-curvature="0"
       id="path18970"
       d="m 189.9973,77.625972 c 17.1339,17.9645 46.119,48.328398 71.1033,74.373998 9.1505,9.5392 19.2249,20.0086 28.05,29.1689" />
    <polygon
       transform="translate(4,295.99997)"
       style="fill:#000000;stroke:#000000"
       id="polygon18972"
       points="282.7625,-112.2652 287.8028,-117.1228 292.222,-107.4936 " />
    <ellipse
       style="fill:#dd9955;fill-opacity:1;stroke:#dd9955;stroke-width:2.25;stroke-miterlimit:4;stroke-dasharray:none;stroke-opacity:1"
       id="ellipse18977"
       ry="18"
       rx="57.3456"
       cy="205.99998"
       cx="447.10059" />
    <text
       style="font-size:14px;font-family:Times, serif;text-anchor:middle;fill:#000000"
       id="text18979"
       font-size="14.00"
       y="210.2"
       x="447.10059">StockH3_t1</text>
    <path
       style="fill:none;stroke:#000000"
       inkscape:connector-curvature="0"
       id="path18984"
       d="m 197.3595,73.784072 c 46.2721,24.497 153.3363,81.177998 211.1111,111.764698" />
    <polygon
       transform="translate(4,295.99997)"
       style="fill:#000000;stroke:#000000"
       id="polygon18986"
       points="403.1669,-107.1812 406.4421,-113.3677 413.6424,-105.5956 " />
    <path
       style="fill:none;stroke:#000000"
       inkscape:connector-curvature="0"
       id="path18991"
       d="m 155.0938,147.54257 c -16.9915,10.4564 -40.8219,25.1212 -60.3632,37.1466" />
    <polygon
       transform="translate(4,295.99997)"
       style="fill:#000000;stroke:#000000"
       id="polygon18993"
       points="88.7762,-114.2177 92.4449,-108.2561 82.094,-105.9959 " />
    <path
       style="fill:none;stroke:#000000"
       inkscape:connector-curvature="0"
       id="path18998"
       d="m 200.79,146.54137 c 20.2899,10.7417 49.9021,26.4188 73.6264,38.9787" />
    <polygon
       transform="translate(4,295.99997)"
       style="fill:#000000;stroke:#000000"
       id="polygon19000"
       points="269.0418,-107.2474 272.317,-113.434 279.5173,-105.6618 " />
    <path
       style="fill:none;stroke:#000000"
       inkscape:connector-curvature="0"
       id="path19005"
       d="m 206.5098,141.71097 c 39.6646,10.4168 112.4966,29.6035 174.5908,46.289 4.1292,1.1096 8.4022,2.263 12.697,3.4261" />
    <polygon
       transform="translate(4,295.99997)"
       style="fill:#000000;stroke:#000000"
       id="polygon19007"
       points="389.233,-101.1006 391.0667,-107.8562 399.8007,-101.8588 " />
    <ellipse
       style="fill:#dd9955;fill-opacity:1;stroke:#dd9955;stroke-width:2.25;stroke-miterlimit:4;stroke-dasharray:none;stroke-opacity:1"
       id="ellipse19012"
       ry="18"
       rx="41.1703"
       cy="278"
       cx="174.1006" />
    <text
       style="font-size:14px;font-family:Times, serif;text-anchor:middle;fill:#000000"
       id="text19014"
       font-size="14.00"
       y="282.20001"
       x="174.1006">init3_t1</text>
    <path
       style="fill:none;stroke:#000000"
       inkscape:connector-curvature="0"
       id="path19019"
       d="m 171.2768,151.77707 c -3.108,10.4257 -6.608,23.9257 -8.1762,36.2229 -2.0239,15.8715 -1.6049,20.0807 0,36 0.8503,8.4335 2.4294,17.4971 4.1312,25.7446" />
    <polygon
       transform="translate(4,295.99997)"
       style="fill:#000000;stroke:#000000"
       id="polygon19021"
       points="159.8428,-45.3697 166.6797,-46.8719 165.4072,-36.3537 " />
    <ellipse
       style="fill:none;stroke:#000000"
       id="ellipse19026"
       ry="18"
       rx="31.879999"
       cy="205.99998"
       cx="204.1006" />
    <text
       style="font-size:14px;font-family:Times, serif;text-anchor:middle;fill:#000000"
       id="text19028"
       font-size="14.00"
       y="210.2"
       x="204.1006">face3</text>
    <path
       style="fill:none;stroke:#000000"
       inkscape:connector-curvature="0"
       id="path19033"
       d="m 183.7748,151.79777 c 3.0505,8.1347 6.732,17.9521 10.119,26.9841" />
    <polygon
       transform="translate(4,295.99997)"
       style="fill:#000000;stroke:#000000"
       id="polygon19035"
       points="186.6212,-115.9769 193.1755,-118.4348 193.4097,-107.8425 " />
    <ellipse
       style="fill:none;stroke:#000000"
       id="ellipse19040"
       ry="18"
       rx="58.571301"
       cy="61.999992"
       cx="281.10059" />
    <text
       style="font-size:14px;font-family:Times, serif;text-anchor:middle;fill:#000000"
       id="text19042"
       font-size="14.00"
       y="66.200005"
       x="281.10059">StockM2_t1</text>
    <path
       style="fill:none;stroke:#000000"
       inkscape:connector-curvature="0"
       id="path19047"
       d="m 257.2409,78.518272 c -15.1797,10.509 -34.9378,24.187698 -51.0371,35.333398" />
    <polygon
       transform="translate(4,295.99997)"
       style="fill:#000000;stroke:#000000"
       id="polygon19049"
       points="199.9182,-184.8229 203.9027,-179.0676 193.6885,-176.2531 " />
    <path
       style="fill:none;stroke:#000000"
       inkscape:connector-curvature="0"
       id="path19054"
       d="m 285.1535,80.237672 c 5.4821,24.669498 15.3116,68.902498 21.7309,97.789198" />
    <polygon
       transform="translate(4,295.99997)"
       style="fill:#000000;stroke:#000000"
       id="polygon19056"
       points="299.4947,-117.0922 306.328,-118.6108 305.0807,-108.0896 " />
    <ellipse
       style="fill:none;stroke:#000000"
       id="ellipse19061"
       ry="18"
       rx="57.3456"
       cy="61.999992"
       cx="415.10059" />
    <text
       style="font-size:14px;font-family:Times, serif;text-anchor:middle;fill:#000000"
       id="text19063"
       font-size="14.00"
       y="66.200005"
       x="415.10059">StockH2_t1</text>
    <path
       style="fill:none;stroke:#000000"
       inkscape:connector-curvature="0"
       id="path19068"
       d="M 373.6442,74.541372 C 329.0403,88.035072 258.6925,109.31677 215.3653,122.42407" />
    <polygon
       transform="translate(4,295.99997)"
       style="fill:#000000;stroke:#000000"
       id="polygon19070"
       points="210.3153,-176.915 212.3423,-170.2148 201.7572,-170.6692 " />
    <path
       style="fill:none;stroke:#000000"
       inkscape:connector-curvature="0"
       id="path19075"
       d="m 418.8074,80.304372 c 3.7243,18.2084 9.6988,46.928198 15.2932,71.695598 1.9334,8.5593 4.1349,17.8569 6.1697,26.2862" />
    <polygon
       transform="translate(4,295.99997)"
       style="fill:#000000;stroke:#000000"
       id="polygon19077"
       points="432.8759,-116.8598 439.6775,-118.5143 438.6402,-107.9704 " />
    <ellipse
       style="fill:none;stroke:#000000"
       id="ellipse19082"
       ry="18"
       rx="32.4846"
       cy="-154.00003"
       cx="476.10059" />
    <text
       style="font-size:14px;font-family:Times, serif;text-anchor:middle;fill:#000000"
       id="text19084"
       font-size="14.00"
       y="-149.80002"
       x="476.10059">type1</text>
    <ellipse
       style="fill:#dd9955;fill-opacity:1;stroke:#dd9955;stroke-width:2.25;stroke-miterlimit:4;stroke-dasharray:none;stroke-opacity:1"
       id="ellipse19089"
       ry="18"
       rx="41.1703"
       cy="-10.000024"
       cx="505.10059" />
    <text
       style="font-size:14px;font-family:Times, serif;text-anchor:middle;fill:#000000"
       id="text19091"
       font-size="14.00"
       y="-5.8000116"
       x="505.10059">init1_t1</text>
    <path
       style="fill:none;stroke:#000000"
       inkscape:connector-curvature="0"
       id="path19096"
       d="m 479.7149,-136.05353 c 4.9493,24.5761 13.8863,68.952702 19.7272,97.956102" />
    <polygon
       transform="translate(4,295.99997)"
       style="fill:#000000;stroke:#000000"
       id="polygon19098"
       points="492.0354,-333.2849 498.8976,-334.6669 497.4409,-324.1727 " />
    <ellipse
       style="fill:none;stroke:#000000"
       id="ellipse19103"
       ry="18"
       rx="31.879999"
       cy="-82.000023"
       cx="681.10059" />
    <text
       style="font-size:14px;font-family:Times, serif;text-anchor:middle;fill:#000000"
       id="text19105"
       font-size="14.00"
       y="-77.800011"
       x="681.10059">face1</text>
    <path
       style="fill:none;stroke:#000000"
       inkscape:connector-curvature="0"
       id="path19110"
       d="m 504.8339,-145.45223 c 32.9729,10.0191 88.5205,27.5418 135.2667,45.4522 2.205,0.844802 4.464,1.742602 6.7331,2.668802" />
    <polygon
       transform="translate(4,295.99997)"
       style="fill:#000000;stroke:#000000"
       id="polygon19112"
       points="641.5316,-390.0819 644.2487,-396.533 652.1061,-389.4259 " />
    <ellipse
       style="fill:none;stroke:#000000"
       id="ellipse19117"
       ry="18"
       rx="56.2015"
       cy="-82.000023"
       cx="193.1006" />
    <text
       style="font-size:14px;font-family:Times, serif;text-anchor:middle;fill:#000000"
       id="text19119"
       font-size="14.00"
       y="-77.800011"
       x="193.1006">StockE1_t1</text>
    <path
       style="fill:none;stroke:#000000"
       inkscape:connector-curvature="0"
       id="path19124"
       d="m 446.0614,-146.83403 c -42.1017,10.1062 -121.0156,29.2768 -187.9608,46.834 -4.2562,1.116302 -8.6635,2.292602 -13.0857,3.487502" />
    <polygon
       transform="translate(4,295.99997)"
       style="fill:#000000;stroke:#000000"
       id="polygon19126"
       points="240.0914,-395.8886 241.931,-389.1346 231.3627,-389.8836 " />
    <ellipse
       style="fill:none;stroke:#000000"
       id="ellipse19131"
       ry="18"
       rx="58.571301"
       cy="-82.000023"
       cx="402.10059" />
    <text
       style="font-size:14px;font-family:Times, serif;text-anchor:middle;fill:#000000"
       id="text19133"
       font-size="14.00"
       y="-77.800011"
       x="402.10059">StockM1_t1</text>
    <path
       style="fill:none;stroke:#000000"
       inkscape:connector-curvature="0"
       id="path19138"
       d="m 459.6776,-138.02093 c -9.5253,9.2679 -21.7184,21.1315 -32.4297,31.5533" />
    <polygon
       transform="translate(4,295.99997)"
       style="fill:#000000;stroke:#000000"
       id="polygon19140"
       points="420.4962,-404.6736 425.3777,-399.6565 415.7696,-395.1915 " />
    <ellipse
       style="fill:none;stroke:#000000"
       id="ellipse19145"
       ry="18"
       rx="57.3456"
       cy="-82.000023"
       cx="574.10059" />
    <text
       style="font-size:14px;font-family:Times, serif;text-anchor:middle;fill:#000000"
       id="text19147"
       font-size="14.00"
       y="-77.800011"
       x="574.10059">StockH1_t1</text>
    <path
       style="fill:none;stroke:#000000"
       inkscape:connector-curvature="0"
       id="path19152"
       d="m 495.9324,-139.42973 c 13.5909,9.9851 31.8887,23.4284 47.3642,34.7982" />
    <polygon
       transform="translate(4,295.99997)"
       style="fill:#000000;stroke:#000000"
       id="polygon19154"
       points="537.4248,-397.6636 541.5694,-403.3048 547.556,-394.5634 " />
    <path
       style="fill:none;stroke:#000000"
       inkscape:connector-curvature="0"
       id="path19159"
       d="m 656.0054,-70.825428 c -5.2418,2.2899 -10.7431,4.6607 -15.9048,6.8254 -31.6172,13.2595 -67.6855,27.6494 -94.5822,38.2379" />
    <polygon
       transform="translate(4,295.99997)"
       style="fill:#000000;stroke:#000000"
       id="polygon19161"
       points="540.0771,-324.9563 542.6367,-318.441 532.0493,-318.0422 " />
    <ellipse
       style="fill:#dd9955;fill-opacity:1;stroke:#dd9955;stroke-width:2.25;stroke-miterlimit:4;stroke-dasharray:none;stroke-opacity:1"
       id="ellipse19166"
       ry="18"
       rx="39.446602"
       cy="278"
       cx="537.10059" />
    <text
       style="font-size:14px;font-family:Times, serif;text-anchor:middle;fill:#000000"
       id="text19168"
       font-size="14.00"
       y="282.20001"
       x="537.10059">shot_t1</text>
    <path
       style="fill:none;stroke:#000000"
       inkscape:connector-curvature="0"
       id="path19173"
       d="m 681.1006,-63.814628 c 0,27.3163 0,80.5646 0,125.8146 0,0 0,0 0,71.999998 0,60.2774 -63.8677,104.1358 -106.5342,126.7099" />
    <polygon
       transform="translate(4,295.99997)"
       style="fill:#000000;stroke:#000000"
       id="polygon19175"
       points="568.8515,-38.3441 572.0457,-32.1154 561.5504,-30.6666 " />
    <ellipse
       style="fill:#dd9955;fill-opacity:1;stroke:#dd9955;stroke-width:2.25;stroke-miterlimit:4;stroke-dasharray:none;stroke-opacity:1"
       id="ellipse19180"
       ry="18"
       rx="43.439602"
       cy="278"
       cx="681.10059" />
    <text
       style="font-size:14px;font-family:Times, serif;text-anchor:middle;fill:#000000"
       id="text19182"
       font-size="14.00"
       y="282.20001"
       x="681.10059">brain_t1</text>
    <path
       style="fill:none;stroke:#000000"
       inkscape:connector-curvature="0"
       id="path19187"
       d="m 688.9743,-64.213528 c 11.1304,26.8076 30.1263,79.4145 30.1263,126.2135 0,0 0,0 0,71.999998 0,41.8632 -15.2002,88.3738 -26.3736,116.9075" />
    <polygon
       transform="translate(4,295.99997)"
       style="fill:#000000;stroke:#000000"
       id="polygon19189"
       points="685.4683,-46.3698 691.9603,-43.7518 684.9743,-35.7865 " />
    <ellipse
       style="fill:none;stroke:#000000"
       id="ellipse19194"
       ry="18"
       rx="32.4846"
       cy="-10.000024"
       cx="413.10059" />
    <text
       style="font-size:14px;font-family:Times, serif;text-anchor:middle;fill:#000000"
       id="text19196"
       font-size="14.00"
       y="-5.8000116"
       x="413.10059">type2</text>
    <path
       style="fill:none;stroke:#000000"
       inkscape:connector-curvature="0"
       id="path19201"
       d="m 381.8901,-4.7012284 c -51.3214,8.8938 -156.6387,27.9048004 -244.7895,48.7012004 -4.3485,1.0259 -8.8447,2.1458 -13.348,3.309" />
    <polygon
       transform="translate(4,295.99997)"
       style="fill:#000000;stroke:#000000"
       id="polygon19203"
       points="118.7101,-252.0357 120.4999,-245.2683 109.9373,-246.0952 " />
    <path
       style="fill:none;stroke:#000000"
       inkscape:connector-curvature="0"
       id="path19208"
       d="M 389.8055,2.7063716 C 370.2904,13.350972 342.0458,28.757172 319.2383,41.197572" />
    <polygon
       transform="translate(4,295.99997)"
       style="fill:#000000;stroke:#000000"
       id="polygon19210"
       points="313.2609,-257.7106 316.6129,-251.5654 306.1579,-249.8494 " />
    <path
       style="fill:none;stroke:#000000"
       inkscape:connector-curvature="0"
       id="path19215"
       d="m 413.6053,8.1685716 c 0.2139,7.7004004 0.4683,16.8571004 0.706,25.4148004" />
    <polygon
       transform="translate(4,295.99997)"
       style="fill:#000000;stroke:#000000"
       id="polygon19217"
       points="406.8127,-262.3122 413.81,-262.5066 410.5892,-252.4133 " />
    <ellipse
       style="fill:#dd9955;fill-opacity:1;stroke:#dd9955;stroke-width:2.25;stroke-miterlimit:4;stroke-dasharray:none;stroke-opacity:1"
       id="ellipse19222"
       ry="18"
       rx="41.1703"
       cy="133.99998"
       cx="484.10059" />
    <text
       style="font-size:14px;font-family:Times, serif;text-anchor:middle;fill:#000000"
       id="text19224"
       font-size="14.00"
       y="138.2"
       x="484.10059">init2_t1</text>
    <path
       style="fill:none;stroke:#000000"
       inkscape:connector-curvature="0"
       id="path19229"
       d="m 437.4993,2.1993716 c 15.4911,9.1861004 34.3126,23.3543004 43.6013,41.8006004 9.5807,19.0261 9.8125,43.2954 7.9333,61.836398" />
    <polygon
       transform="translate(4,295.99997)"
       style="fill:#000000;stroke:#000000"
       id="polygon19231"
       points="481.5299,-190.3539 488.4738,-189.4693 483.7382,-179.9918 " />
    <ellipse
       style="fill:none;stroke:#000000"
       id="ellipse19236"
       ry="18"
       rx="31.879999"
       cy="61.999992"
       cx="560.10059" />
    <text
       style="font-size:14px;font-family:Times, serif;text-anchor:middle;fill:#000000"
       id="text19238"
       font-size="14.00"
       y="66.200005"
       x="560.10059">face2</text>
    <path
       style="fill:none;stroke:#000000"
       inkscape:connector-curvature="0"
       id="path19243"
       d="M 437.7051,2.0511716 C 462.1248,14.011772 499.7229,32.427172 526.8037,45.691272" />
    <polygon
       transform="translate(4,295.99997)"
       style="fill:#000000;stroke:#000000"
       id="polygon19245"
       points="521.3849,-247.1064 524.464,-253.3928 531.9051,-245.8509 " />
    <path
       style="fill:none;stroke:#000000"
       inkscape:connector-curvature="0"
       id="path19250"
       d="m 543.6098,77.622872 c -10.1447,9.6108 -23.339,22.1107 -34.7251,32.897398" />
    <polygon
       transform="translate(4,295.99997)"
       style="fill:#000000;stroke:#000000"
       id="polygon19252"
       points="502.2031,-187.7605 507.0173,-182.6788 497.3507,-178.3421 " />
    <path
       style="fill:none;stroke:#000000"
       inkscape:connector-curvature="0"
       id="path19257"
       d="M 558.1792,80.044472 C 554.1712,117.68557 544.8937,204.81327 540.0954,249.87537" />
    <polygon
       transform="translate(4,295.99997)"
       style="fill:#000000;stroke:#000000"
       id="polygon19259"
       points="532.6113,-46.4595 539.572,-45.7182 535.0328,-36.1451 " />
    <path
       style="fill:none;stroke:#000000"
       inkscape:connector-curvature="0"
       id="path19264"
       d="m 569.798,79.311072 c 21.0994,37.664898 71.2918,127.264498 96.4263,172.132698" />
    <polygon
       transform="translate(4,295.99997)"
       style="fill:#000000;stroke:#000000"
       id="polygon19266"
       points="659.247,-42.7094 665.3541,-46.1305 667.1879,-35.6955 " />
    <path
       style="fill:none;stroke:#000000"
       inkscape:connector-curvature="0"
       id="path19271"
       d="m 196.6849,223.79777 c -3.3895,8.1347 -7.48,17.9521 -11.2434,26.9841" />
    <polygon
       transform="translate(4,295.99997)"
       style="fill:#000000;stroke:#000000"
       id="polygon19273"
       points="178.1505,-46.4195 184.612,-43.7271 177.535,-35.8425 " />
    <path
       style="fill:none;stroke:#000000"
       inkscape:connector-curvature="0"
       id="path19278"
       d="m 228.4661,217.79407 c 5.3904,2.2981 11.1359,4.5154 16.6345,6.2059 83.6757,25.7261 184.8175,41.0821 243.4404,48.5064" />
    <polygon
       transform="translate(4,295.99997)"
       style="fill:#000000;stroke:#000000"
       id="polygon19280"
       points="484.2725,-20.0001 485.1349,-26.9468 494.6275,-22.2415 " />
    <path
       style="fill:none;stroke:#000000"
       inkscape:connector-curvature="0"
       id="path19285"
       d="m 228.3732,218.11847 c 5.3961,2.2779 11.1675,4.4049 16.7274,5.8815 146.8646,39.0046 189.6481,13.9806 340,36 15.2681,2.236 31.8119,5.1569 46.7953,7.993" />
    <polygon
       transform="translate(4,295.99997)"
       style="fill:#000000;stroke:#000000"
       id="polygon19287"
       points="627.5036,-24.5183 628.8259,-31.3923 637.9848,-26.0664 " />
    <ellipse
       style="fill:#449944;fill-opacity:1;stroke:#449944;stroke-width:2.25;stroke-miterlimit:4;stroke-dasharray:none;stroke-opacity:1"
       id="ellipse19292"
       ry="18"
       rx="27.2661"
       cy="205.99998"
       cx="588.10059" />
    <text
       style="font-size:14px;font-family:Times, serif;text-anchor:middle;fill:#000000"
       id="text19294"
       font-size="14.00"
       y="210.2"
       x="588.10059">shot</text>
    <path
       style="fill:none;stroke:#000000"
       inkscape:connector-curvature="0"
       id="path19299"
       d="m 576.528,222.33787 c -6.2737,8.8569 -14.1697,20.0042 -21.2446,29.9924" />
    <polygon
       transform="translate(4,295.99997)"
       style="fill:#000000;stroke:#000000"
       id="polygon19301"
       points="548.2628,-45.4606 553.975,-41.4145 545.3387,-35.2773 " />
    <ellipse
       style="fill:#449944;fill-opacity:1;stroke:#449944;stroke-width:2.25;stroke-miterlimit:4;stroke-dasharray:none;stroke-opacity:1"
       id="ellipse19306"
       ry="18"
       rx="30.7577"
       cy="205.99998"
       cx="778.10059" />
    <text
       style="font-size:14px;font-family:Times, serif;text-anchor:middle;fill:#000000"
       id="text19308"
       font-size="14.00"
       y="210.2"
       x="778.10059">brain</text>
    <path
       style="fill:none;stroke:#000000"
       inkscape:connector-curvature="0"
       id="path19313"
       d="m 758.9366,220.22487 c -13.6962,10.1662 -32.3918,24.0434 -48.0275,35.6492" />
    <polygon
       transform="translate(4,295.99997)"
       style="fill:#000000;stroke:#000000"
       id="polygon19315"
       points="704.5322,-42.7204 708.7044,-37.0996 698.5886,-33.9498 " />
    <path
       style="fill:none;stroke:#000000"
       inkscape:connector-curvature="0"
       id="path19320"
       d="m 178.2637,-64.342828 c -21.2275,25.2624 -60.3855,71.8636996 -84.7517,100.8615" />
    <polygon
       transform="translate(4,295.99997)"
       style="fill:#000000;stroke:#000000"
       id="polygon19322"
       points="86.8126,-261.7093 92.1718,-257.2061 83.059,-251.8017 " />
    <path
       style="fill:none;stroke:#000000"
       inkscape:connector-curvature="0"
       id="path19327"
       d="m 232.4322,-69.127828 c 40.4479,13.2374 103.0027,33.7099 142.8778,46.7599" />
    <polygon
       transform="translate(4,295.99997)"
       style="fill:#000000;stroke:#000000"
       id="polygon19329"
       points="370.3392,-315.003 372.5165,-321.6557 380.9318,-315.2189 " />
    <ellipse
       style="fill:#449944;fill-opacity:1;stroke:#449944;stroke-width:2.25;stroke-miterlimit:4;stroke-dasharray:none;stroke-opacity:1"
       id="ellipse19334"
       ry="18"
       rx="28.990999"
       cy="-82.000023"
       cx="296.10059" />
    <text
       style="font-size:14px;font-family:Times, serif;text-anchor:middle;fill:#000000"
       id="text19336"
       font-size="14.00"
       y="-77.800011"
       x="296.10059">init2</text>
    <path
       style="fill:none;stroke:#000000"
       inkscape:connector-curvature="0"
       id="path19341"
       d="m 275.8271,-68.967028 c -38.5473,24.7804 -122.7642,78.9197996 -169.9579,109.2586" />
    <polygon
       transform="translate(4,295.99997)"
       style="fill:#000000;stroke:#000000"
       id="polygon19343"
       points="99.7471,-258.505 103.5324,-252.6168 93.2279,-250.1533 " />
    <path
       style="fill:none;stroke:#000000"
       inkscape:connector-curvature="0"
       id="path19348"
       d="m 294.2009,-63.762328 c -2.5585,24.5613 -7.137,68.5148996 -10.1467,97.4082" />
    <polygon
       transform="translate(4,295.99997)"
       style="fill:#000000;stroke:#000000"
       id="polygon19350"
       points="276.54,-262.3985 283.5023,-261.6731 278.985,-252.0896 " />
    <path
       style="fill:none;stroke:#000000"
       inkscape:connector-curvature="0"
       id="path19355"
       d="m 309.5201,-65.761328 c 20.5574,24.8762 60.0243,72.6343996 84.4494,102.1909" />
    <polygon
       transform="translate(4,295.99997)"
       style="fill:#000000;stroke:#000000"
       id="polygon19357"
       points="387.3633,-257.2297 392.7593,-261.6889 396.4316,-251.7508 " />
    <path
       style="fill:none;stroke:#000000"
       inkscape:connector-curvature="0"
       id="path19362"
       d="m 316.7486,-69.293628 c 18.1723,11.183 44.8847,27.6214 65.577,40.3551" />
    <polygon
       transform="translate(4,295.99997)"
       style="fill:#000000;stroke:#000000"
       id="polygon19364"
       points="376.7182,-321.8181 380.3869,-327.7797 387.0691,-319.5578 " />
    <path
       style="fill:none;stroke:#000000"
       inkscape:connector-curvature="0"
       id="path19369"
       d="m 387.2637,-64.342828 c -21.2275,25.2624 -60.3855,71.8636996 -84.7517,100.8615" />
    <polygon
       transform="translate(4,295.99997)"
       style="fill:#000000;stroke:#000000"
       id="polygon19371"
       points="295.8126,-261.7093 301.1718,-257.2061 292.059,-251.8017 " />
    <path
       style="fill:none;stroke:#000000"
       inkscape:connector-curvature="0"
       id="path19376"
       d="m 404.8764,-63.831428 c 1.1765,7.7004 2.5754,16.8571 3.8828,25.4148" />
    <polygon
       transform="translate(4,295.99997)"
       style="fill:#000000;stroke:#000000"
       id="polygon19378"
       points="401.3173,-333.7699 408.237,-334.8272 406.2875,-324.4133 " />
    <path
       style="fill:none;stroke:#000000"
       inkscape:connector-curvature="0"
       id="path19383"
       d="m 575.0792,-63.934228 c 0.0944,19.9003 -2.7924,51.7507 -19.9786,71.9341996 C 535.4711,31.053072 504.8081,44.304172 477.1763,51.901972" />
    <polygon
       transform="translate(4,295.99997)"
       style="fill:#000000;stroke:#000000"
       id="polygon19385"
       points="471.9862,-247.4067 473.7139,-240.6232 463.1594,-241.5469 " />
    <path
       style="fill:none;stroke:#000000"
       inkscape:connector-curvature="0"
       id="path19390"
       d="m 541.1314,-67.256028 c -27.1572,12.1449 -65.5584,29.3181 -93.2107,41.6843" />
    <polygon
       transform="translate(4,295.99997)"
       style="fill:#000000;stroke:#000000"
       id="polygon19392"
       points="442.324,-324.6917 445.1817,-318.3016 434.6241,-317.4142 " />
    <ellipse
       style="fill:#449944;fill-opacity:1;stroke:#449944;stroke-width:2.25;stroke-miterlimit:4;stroke-dasharray:none;stroke-opacity:1"
       id="ellipse19397"
       ry="18"
       rx="28.990999"
       cy="-226.00003"
       cx="461.10059" />
    <text
       style="font-size:14px;font-family:Times, serif;text-anchor:middle;fill:#000000"
       id="text19399"
       font-size="14.00"
       y="-221.80002"
       x="461.10059">init1</text>
    <path
       style="fill:none;stroke:#000000"
       inkscape:connector-curvature="0"
       id="path19404"
       d="m 464.8858,-207.83142 c 1.6468,7.9048 3.6133,17.3442 5.4364,26.0949" />
    <polygon
       transform="translate(4,295.99997)"
       style="fill:#000000;stroke:#000000"
       id="polygon19406"
       points="462.9026,-476.9894 469.7555,-478.4171 468.3687,-467.9134 " />
    <path
       style="fill:none;stroke:#000000"
       inkscape:connector-curvature="0"
       id="path19411"
       d="m 439.1691,-214.21592 c -45.5916,24.497 -151.0813,81.17799 -208.0065,111.76469" />
    <polygon
       transform="translate(4,295.99997)"
       style="fill:#000000;stroke:#000000"
       id="polygon19413"
       points="225.278,-401.4119 228.5913,-395.2456 218.1257,-393.5956 " />
    <path
       style="fill:none;stroke:#000000"
       inkscape:connector-curvature="0"
       id="path19418"
       d="m 452.2342,-208.68682 c -5.2426,10.4979 -11.865,24.2284 -17.1336,36.6868 -8.7103,20.597 -17.3687,44.36819 -23.6298,62.30629" />
    <polygon
       transform="translate(4,295.99997)"
       style="fill:#000000;stroke:#000000"
       id="polygon19420"
       points="404.1241,-406.7249 410.7404,-404.439 404.1666,-396.1302 " />
    <path
       style="fill:none;stroke:#000000"
       inkscape:connector-curvature="0"
       id="path19425"
       d="m 478.3185,-211.36462 c 11.6508,10.3566 27.0036,24.9198 38.7821,39.3646 16.298,19.9872 31.7526,44.90279 42.4471,63.44779" />
    <polygon
       transform="translate(4,295.99997)"
       style="fill:#000000;stroke:#000000"
       id="polygon19427"
       points="552.5618,-402.7221 558.6497,-406.1772 560.5416,-395.7527 " />
    <ellipse
       style="fill:#449944;fill-opacity:1;stroke:#449944;stroke-width:2.25;stroke-miterlimit:4;stroke-dasharray:none;stroke-opacity:1"
       id="ellipse19432"
       ry="18"
       rx="43.5214"
       cy="-226.00003"
       cx="220.1006" />
    <text
       style="font-size:14px;font-family:Times, serif;text-anchor:middle;fill:#000000"
       id="text19434"
       font-size="14.00"
       y="-221.80002"
       x="220.1006">StockE1</text>
    <path
       style="fill:none;stroke:#000000"
       inkscape:connector-curvature="0"
       id="path19439"
       d="m 256.2362,-215.83692 c 47.8375,13.4543 131.8565,37.0847 181.0176,50.9112" />
    <polygon
       transform="translate(4,295.99997)"
       style="fill:#000000;stroke:#000000"
       id="polygon19441"
       points="432.3208,-457.5524 434.216,-464.2909 442.8949,-458.2141 " />
    <path
       style="fill:none;stroke:#000000"
       inkscape:connector-curvature="0"
       id="path19446"
       d="m 216.6811,-207.76232 c -4.6256,24.6695 -12.9193,68.90249 -18.3355,97.78919" />
    <polygon
       transform="translate(4,295.99997)"
       style="fill:#000000;stroke:#000000"
       id="polygon19448"
       points="190.8954,-406.5634 197.7755,-405.2733 192.4924,-396.0896 " />
    <ellipse
       style="fill:#449944;fill-opacity:1;stroke:#449944;stroke-width:2.25;stroke-miterlimit:4;stroke-dasharray:none;stroke-opacity:1"
       id="ellipse19453"
       ry="18"
       rx="46.3894"
       cy="-226.00003"
       cx="347.10059" />
    <text
       style="font-size:14px;font-family:Times, serif;text-anchor:middle;fill:#000000"
       id="text19455"
       font-size="14.00"
       y="-221.80002"
       x="347.10059">StockM1</text>
    <path
       style="fill:none;stroke:#000000"
       inkscape:connector-curvature="0"
       id="path19460"
       d="m 373.8295,-211.08162 c 20.4053,11.3891 48.5979,27.1244 70.2158,39.1903" />
    <polygon
       transform="translate(4,295.99997)"
       style="fill:#000000;stroke:#000000"
       id="polygon19462"
       points="438.4279,-464.7858 441.8395,-470.8982 448.8657,-462.9683 " />
    <path
       style="fill:none;stroke:#000000"
       inkscape:connector-curvature="0"
       id="path19467"
       d="m 353.9552,-208.05352 c 9.4279,24.6839 26.4849,69.34239 37.5592,98.33679" />
    <polygon
       transform="translate(4,295.99997)"
       style="fill:#000000;stroke:#000000"
       id="polygon19469"
       points="384.3219,-404.2657 390.8612,-406.7633 391.1597,-396.1727 " />
    <ellipse
       style="fill:#449944;fill-opacity:1;stroke:#449944;stroke-width:2.25;stroke-miterlimit:4;stroke-dasharray:none;stroke-opacity:1"
       id="ellipse19474"
       ry="18"
       rx="44.664501"
       cy="-226.00003"
       cx="567.10059" />
    <text
       style="font-size:14px;font-family:Times, serif;text-anchor:middle;fill:#000000"
       id="text19476"
       font-size="14.00"
       y="-221.80002"
       x="567.10059">StockH1</text>
    <path
       style="fill:none;stroke:#000000"
       inkscape:connector-curvature="0"
       id="path19481"
       d="m 546.4513,-209.66212 c -12.8541,10.1703 -29.5253,23.3607 -43.4123,34.3483" />
    <polygon
       transform="translate(4,295.99997)"
       style="fill:#000000;stroke:#000000"
       id="polygon19483"
       points="496.4816,-473.7535 500.8251,-468.264 490.8111,-464.8039 " />
    <path
       style="fill:none;stroke:#000000"
       inkscape:connector-curvature="0"
       id="path19488"
       d="m 567.9872,-207.76232 c 1.1939,24.5613 3.3306,68.51489 4.7351,97.40819" />
    <polygon
       transform="translate(4,295.99997)"
       style="fill:#000000;stroke:#000000"
       id="polygon19490"
       points="565.2398,-405.9079 572.2315,-406.2478 569.2213,-396.0896 " />
  </g>
</svg>
