<?xml version="1.0" encoding="UTF-8" standalone="no"?>
<svg
   xmlns:dc="http://purl.org/dc/elements/1.1/"
   xmlns:cc="http://creativecommons.org/ns#"
   xmlns:rdf="http://www.w3.org/1999/02/22-rdf-syntax-ns#"
   xmlns:svg="http://www.w3.org/2000/svg"
   xmlns="http://www.w3.org/2000/svg"
   xmlns:sodipodi="http://sodipodi.sourceforge.net/DTD/sodipodi-0.dtd"
   xmlns:inkscape="http://www.inkscape.org/namespaces/inkscape"
   width="300"
   height="156.69757"
   version="1.1"
   id="svg34"
   sodipodi:docname="logo-alt.svg"
   inkscape:version="0.92.3 (2405546, 2018-03-11)">
  <metadata
     id="metadata40">
    <rdf:RDF>
      <cc:Work
         rdf:about="">
        <dc:format>image/svg+xml</dc:format>
        <dc:type
           rdf:resource="http://purl.org/dc/dcmitype/StillImage" />
        <dc:title></dc:title>
      </cc:Work>
    </rdf:RDF>
  </metadata>
  <defs
     id="defs38" />
  <sodipodi:namedview
     pagecolor="#ffffff"
     bordercolor="#666666"
     borderopacity="1"
     objecttolerance="10"
     gridtolerance="10"
     guidetolerance="10"
     inkscape:pageopacity="0"
     inkscape:pageshadow="2"
     inkscape:window-width="1920"
     inkscape:window-height="1016"
     id="namedview36"
     showgrid="false"
     fit-margin-top="0"
     fit-margin-left="0"
     fit-margin-right="0"
     fit-margin-bottom="0"
     inkscape:zoom="1.3262325"
     inkscape:cx="44.327422"
     inkscape:cy="133.69794"
     inkscape:window-x="0"
     inkscape:window-y="27"
     inkscape:window-maximized="1"
     inkscape:current-layer="svg34" />
  <g
     id="g32"
     transform="matrix(1.3903585,0,0,1.3903585,-0.69517925,-0.83282474)"
     style="fill:none;fill-rule:evenodd">
    <path
       d="m 85.95,3.171 c -19.715,6.52 -32.143,7.138 -32.28,7.147 l -0.007,0.002 c 0.322,-1.431 1.566,-7.64 1.566,-7.64 l -3.72,0.409 C 46.573,3.626 42.1,3.883 37.813,3.883 31.75,3.883 26.13,3.357 20.603,2.288 l -2.352,-0.46 c 0,0 -11.426,51.482 -12.139,54.757 -1.826,8.195 5.8,15.648 13.922,18.523 5.567,2.242 11.314,3.253 14.075,3.741 0.482,0.085 1.555,0.264 1.555,0.264 l -1.505,7.11 3.534,-0.593 c 0.336,0 35.364,-7.178 38.654,-21.947 C 77.947,56.51 90.06,1.816 90.06,1.816 l -4.11,1.355"
       id="path2"
       inkscape:connector-curvature="0"
       style="fill:#ffffff" />
    <path
       d="m 36.038,76.75 c 2.679,-12.074 5.34,-24.285 8.026,-36.352 -10.16,0.742 -24.667,-0.787 -31.147,-3.211 -1.507,6.768 -2.899,13.166 -4.403,19.936 -1.481,6.614 5.018,13.088 12.38,15.678 7.297,2.946 15.184,3.735 15.144,3.948"
       id="path4"
       inkscape:connector-curvature="0"
       style="fill:#494d48" />
    <path
       d="m 22.992,45.14 c -1.724,0.474 -2.645,-0.726 -4.356,-0.976 0.753,2.29 3.705,1.805 4.356,0.977 M 11.015,58.886 c 0.232,0 0.423,0.12 0.52,0.326 0.144,0.31 0.087,0.792 -0.12,1.194 0.346,-0.078 0.91,-0.43 1.743,-1.503 0.214,-0.3 0.51,-0.431 0.842,-0.454 0.838,-0.051 1.63,1.5 2.397,0.759 -0.103,0.059 -0.745,0.046 -0.785,-0.514 0,0 0.817,-0.617 0.889,-0.69 0.721,-0.633 1.532,-1.358 2.664,-1.38 a 8.06,8.06 0 0 1 -0.174,-1.308 c -0.032,-0.33 -0.042,-0.598 -0.133,-0.854 -3.428,0.651 -6.293,1.812 -7.528,2.621 -0.643,0.425 -1.557,1.342 -1.625,2.063 a 0.622,0.622 0 0 0 0.106,0.455 c 0.478,-0.476 0.876,-0.715 1.204,-0.715 m 20.28,2.434 c 0.02,0.052 0.031,0.107 0.061,0.16 0.118,0.315 0.248,0.689 0.334,1.143 3.386,-1.813 3.885,-5.1 3.885,-5.1 0,0 0.958,0.776 1.405,-0.598 -0.449,0.592 -1.316,0.357 -1.346,-0.596 -0.03,-1.258 -0.662,-2.55 -1.31,-3.797 -3.626,-6.823 2.021,-9.708 3.597,-9.708 0.32,0 0.559,0.102 0.7,0.302 0.324,0.482 -0.554,2.843 -0.623,3.089 0.46,-0.71 1.457,-2.15 1.59,-2.621 l 0.604,-1.827 c -0.322,-0.116 -0.553,-0.114 -0.982,-0.12 -2.095,-0.078 -4.043,1.279 -4.043,1.279 0,0 -0.034,-1.419 -1.695,-0.311 1.365,-0.586 1.33,0.621 0.958,0.924 -1.083,0.902 -4.062,3.825 -1.36,9.355 0.66,1.382 1.521,2.737 1.183,4.43 -0.466,2.384 -1.744,3.374 -2.958,3.995"
       id="path6"
       inkscape:connector-curvature="0"
       style="fill:#ffffff" />
    <path
       d="m 38.192,48.09 c 0.216,0.579 0.557,1.196 0.978,1.8 0.089,-0.084 0.146,-0.16 0.228,-0.236 0.299,-0.305 0.548,-0.577 0.78,-0.846 -0.714,-2.272 0.583,-5.58 0.583,-5.58 l -0.269,2.287 c -0.044,0.376 0.52,1.693 0.601,1.909 0.25,-0.514 0.427,-1.104 0.578,-1.829 0.277,-1.405 0.116,-2.5 -0.421,-3.166 a 1.882,1.882 0 0 0 -0.857,-0.59 c 0,0 -0.495,4.105 -2.2,6.25 m -9.45,8.159 c -0.222,-0.35 -0.973,-1.85 0.457,-4.054 0.628,-0.972 1.01,-2.264 1.41,-3.77 -0.295,-0.476 -1.217,-1.918 -1.217,-1.918 0,0 0.74,0.305 0.84,0.404 -0.386,-0.767 -1.207,-1.287 -1.207,-1.287 0.14,0.076 0.821,0.222 0.944,0.296 -0.525,-0.673 -2.095,-1.237 -2.095,-1.237 0,0 1.94,0.512 2.2,0.598 -0.886,-1.135 -3.031,-1.32 -3.031,-1.32 0,0 1.733,-0.32 3.523,0.614 -2.315,-2.608 -4.66,-1.509 -4.894,-1.47 -0.068,0.589 -0.455,0.902 -0.808,0.902 -0.303,0 -0.589,-0.205 -0.675,-0.639 -0.079,0 -0.161,0.011 -0.214,0.017 l -0.882,0.04 c 0,0 4.726,-2.904 8.006,0.535 -0.028,-0.215 -0.116,-0.782 -0.116,-0.782 0,0 1.779,-0.799 0.546,-1.706 0.683,1.091 -0.73,1.053 -0.73,1.053 0,0 -4.573,-2.376 -6.088,-0.934 -0.387,0.382 -1.242,1.32 -1.402,1.429 -0.172,0.103 -1.1,0.456 -1.892,0.672 h -0.042 c 0,0.169 -0.002,0.539 0.055,0.744 0.277,-0.1 0.848,-0.25 1.369,-0.25 0.969,0 1.153,0.525 1.165,0.829 0.045,0.41 -0.067,0.746 -0.327,1.01 -0.464,0.51 -1.285,0.565 -1.62,0.565 -0.179,0 -0.422,-0.028 -0.553,-0.072 -0.051,0.013 -0.142,0.027 -0.273,0.061 0.023,0.516 0.18,0.679 0.476,0.594 0.3,-0.082 0.975,0.047 1.134,0.087 l 0.133,0.027 v 0.15 c 0,0.248 -0.108,1.786 -0.108,1.786 -0.036,2.535 1.183,4.974 1.85,6.12 -0.062,-0.704 0.128,-3.803 0.128,-3.803 0,0 0.451,2.803 1.234,3.91 a 157.28,157.28 0 0 1 -0.138,-2.853 c 0,0 0.815,2.47 1.49,3.253 -0.095,-0.385 -0.35,-2.059 -0.35,-2.059 0,0 0.62,1.41 1.702,2.458 m -5.084,7.438 c -1.824,-0.623 -2.823,-1.291 -3.682,-2.93 -0.804,0.066 -1.284,0.804 -1.66,1.396 -0.274,0.45 -0.498,0.805 -0.832,0.805 -0.195,-0.019 -2.321,-0.298 -3.627,1.235 -0.541,0.663 -1.132,2.418 0.265,2.63 -1.128,-1.396 1.69,-3.637 2.606,-2.176 0,0 -1.362,2.363 -2.77,4.295 0.485,0.404 1.025,0.789 1.56,1.154 0.229,-0.433 0.523,-0.885 0.861,-1.342 0,0 1.354,-0.334 1.45,1.691 0.15,-0.416 0.27,-0.886 0.27,-0.886 h 0.132 a 0.946,0.946 0 0 0 0.882,-1.35 c 0.015,1.234 -0.942,0.862 -0.942,0.862 a 1.48,1.48 0 0 0 -0.624,-1.389 l -0.178,-0.107 0.136,-0.155 c 1.612,-1.832 2.793,-3.179 6.153,-3.733"
       id="path8"
       inkscape:connector-curvature="0"
       style="fill:#ffffff" />
    <path
       d="m 33.307,65.092 a 0.729,0.729 0 0 0 -0.294,0.089 c 0.285,0.108 0.45,0.406 0.45,0.826 0,0.603 -0.378,1.254 -1.08,1.254 -0.316,0 -0.638,-0.117 -0.991,-0.362 l -0.076,-0.053 v -0.105 c 0.266,-2.773 -0.603,-5.959 -2.42,-8.935 l 0.162,1.58 c 0,0 -1.988,-2.64 -2.158,-2.906 l 0.762,3.807 c 0,0 -1.934,-3.663 -1.995,-3.828 L 26.532,59.382 24.49,56.48 C 24.291,56.192 22.592,53.673 22.182,50.646 17.999,47.632 14.87,47.391 14,47.391 c -0.603,0 -1.756,0.215 -2.33,0.807 a 0.98,0.98 0 0 0 -0.291,0.588 c 0.224,-0.05 0.435,-0.08 0.628,-0.08 0.613,0 0.766,0.3 0.785,0.482 0.093,0.458 -0.379,1.025 -0.87,1.316 0.34,0.186 1.073,0.085 2.095,-0.32 0.159,-0.054 0.277,-0.081 0.406,-0.081 0.694,0 0.882,0.807 0.986,1.247 a 0.32,0.32 0 0 1 0.004,0.068 c 0.567,-0.11 1.613,-0.214 1.613,-0.214 0,0 -0.944,1.017 0.129,1.5 -0.453,-0.906 0.446,-1.371 0.791,-1.257 1.27,0.41 1.73,1.6 1.883,4.371 0.315,-0.828 0.751,-1.403 1.322,-1.746 l 0.582,-0.365 -0.349,0.596 c -1.248,2.213 -1.24,4.6 -1.05,5.05 0.422,1.075 1.122,2.386 2.798,3.204 -0.897,-2.581 1.047,-4.327 1.047,-4.327 0,0 -1.147,2.987 0.102,4.874 1.398,0.482 4.777,1.945 4.815,3.393 0,0 -3.317,0.43 -1.161,2.46 -0.963,-1.543 1.163,-1.814 1.163,-1.814 0,0 -0.065,2.647 -0.685,3.649 L 28.4,70.817 c -0.256,0.243 -0.527,0.362 -0.846,0.362 -0.43,0 -0.825,-0.2 -1.253,-0.408 -0.425,-0.203 -0.876,-0.417 -1.326,-0.417 -0.252,0 -0.485,0.07 -0.73,0.224 0.611,-0.2 1.053,0.064 1.104,0.588 0.053,0.308 -0.093,0.672 -0.387,0.733 -0.241,0.047 -0.453,0.093 -0.641,0.127 -1.367,0.269 -1.765,0.67 -1.815,1.378 0.071,0.032 0.158,0.06 0.23,0.089 0.31,-0.476 0.842,-0.77 1.38,-0.77 0.565,0 1.02,0.352 1.125,0.886 h 4.645 c 0.084,-0.348 0.192,-0.782 0.321,-1.285 0.286,-1.048 0.669,-2.492 0.916,-4.092 l 0.03,-0.163 0.163,0.01 c 0.114,0.018 0.241,0.028 0.36,0.028 1.093,0 1.64,-0.539 1.895,-0.993 0.375,-0.643 0.345,-1.385 0.13,-1.76 -0.079,-0.117 -0.185,-0.263 -0.394,-0.263"
       id="path10"
       inkscape:connector-curvature="0"
       style="fill:#ffffff" />
    <path
       d="m 37.69,83.162 c 2.692,-12.099 7.332,-33.115 8.075,-36.036 17.138,-1.13 32.962,-5.53 32.962,-5.53 0,0 -3.193,14.382 -4.786,21.547 -2.873,12.9 -36.271,20.076 -36.25,20.02"
       id="path12"
       inkscape:connector-curvature="0"
       style="fill:#494d48" />
    <path
       d="m 73.49,43.655 c 0.153,0.733 0.275,1.484 0.421,2.23 a 71.006,71.006 0 0 1 2.476,-0.241 c -0.758,0.638 -1.532,1.28 -2.31,1.932 0.05,0.79 0.073,1.587 0.107,2.39 -0.605,-0.357 -1.223,-0.703 -1.824,-1.044 -0.808,0.59 -1.627,1.18 -2.443,1.772 0.4,-0.863 0.776,-1.734 1.176,-2.602 -0.54,-0.419 -1.081,-0.833 -1.619,-1.235 0.864,-0.222 1.72,-0.44 2.571,-0.645 0.48,-0.858 0.963,-1.712 1.445,-2.557 m -12.832,6.368 c 0.148,0.721 0.294,1.431 0.423,2.148 0.857,-0.15 1.703,-0.298 2.537,-0.435 -0.77,0.684 -1.555,1.371 -2.325,2.071 0.04,0.767 0.065,1.535 0.108,2.306 -0.62,-0.294 -1.236,-0.588 -1.869,-0.869 -0.82,0.63 -1.629,1.245 -2.46,1.87 0.395,-0.866 0.782,-1.73 1.172,-2.603 -0.546,-0.38 -1.088,-0.759 -1.625,-1.135 a 715.75,715.75 0 0 1 2.587,-0.761 c 0.48,-0.867 0.97,-1.727 1.452,-2.592 M 49.871,60.757 c 0.138,0.71 0.3,1.42 0.434,2.13 0.838,-0.145 1.693,-0.293 2.53,-0.441 -0.784,0.69 -1.552,1.371 -2.335,2.063 0.046,0.76 0.089,1.532 0.116,2.287 -0.61,-0.281 -1.25,-0.569 -1.857,-0.86 l -2.457,1.834 c 0.381,-0.856 0.783,-1.718 1.176,-2.58 a 176.9,176.9 0 0 1 -1.641,-1.157 c 0.86,-0.235 1.728,-0.475 2.594,-0.719 l 1.44,-2.557 m -5.861,12.08 c 0.142,0.718 0.299,1.43 0.426,2.14 0.848,-0.128 1.686,-0.261 2.518,-0.399 -0.76,0.681 -1.545,1.355 -2.315,2.03 0.047,0.763 0.074,1.536 0.116,2.293 -0.613,-0.298 -1.246,-0.596 -1.857,-0.896 -0.82,0.596 -1.634,1.185 -2.45,1.777 0.391,-0.847 0.789,-1.703 1.182,-2.549 -0.543,-0.404 -1.09,-0.805 -1.63,-1.209 0.858,-0.213 1.72,-0.429 2.578,-0.649 0.476,-0.852 0.95,-1.684 1.433,-2.538"
       id="path14"
       inkscape:connector-curvature="0"
       style="fill:#ffffff" />
    <path
       d="M 51.774,5.532 C 40.93,6.714 30.634,6.745 20.14,4.71 c -2.257,10.146 -4.295,19.48 -6.555,29.626 9.435,2.826 20.054,3.85 31.029,3.075 2.327,-10.44 4.83,-21.441 7.16,-31.879"
       id="path16"
       inkscape:connector-curvature="0"
       style="fill:#494d48" />
    <path
       d="m 40.663,29.918 c -2.388,1.976 -4.925,2.826 -5.664,1.89 -0.738,-0.924 0.576,-3.28 2.973,-5.266 2.37,-1.978 4.892,-2.824 5.645,-1.906 0.75,0.94 -0.59,3.301 -2.954,5.282 m -14.774,1.89 c -1.13,0.936 -3.314,0.086 -4.888,-1.89 -1.585,-1.98 -1.959,-4.342 -0.838,-5.282 1.113,-0.918 3.307,-0.072 4.898,1.906 1.579,1.985 1.955,4.342 0.828,5.266 m 19.768,-8.853 c -1.092,-1.355 -4.458,-0.41 -7.767,2.09 l -3.944,-4.945 6.292,-5.25 0.476,0.606 -1.235,1.023 2.041,2.543 3.193,-2.657 -0.675,-0.863 -0.383,0.313 -0.901,-1.107 1.348,-1.116 0.89,1.116 -0.38,0.313 0.68,0.86 3.208,-2.655 -2.037,-2.54 -1.236,1.018 -0.48,-0.592 L 46.679,9.51 45.765,8.392 33.036,18.975 24.59,8.392 23.242,9.51 l 1.259,1.602 -0.709,0.592 -0.817,-1.019 -3.061,2.541 2.11,2.655 1.044,-0.86 -0.247,-0.313 1.34,-1.116 0.873,1.116 -1.34,1.107 -0.238,-0.313 -1.044,0.863 2.133,2.657 3.06,-2.543 -0.825,-1.023 0.717,-0.607 4.191,5.25 -5.962,4.947 c -2.277,-2.5 -5.262,-3.446 -6.915,-2.09 -1.57,1.306 -1.358,4.286 0.381,6.99 a 1.91,1.91 0 0 0 -0.29,0.192 c -0.607,0.51 -0.776,1.323 -0.372,1.828 0.4,0.505 1.225,0.505 1.824,0 0.106,-0.08 0.178,-0.165 0.258,-0.251 2.236,2.276 5.06,3.092 6.618,1.781 1.644,-1.354 1.344,-4.538 -0.59,-7.33 l 5.95,-4.944 3.946,4.944 c -3.07,2.792 -4.651,5.976 -3.561,7.33 1.028,1.31 4.189,0.495 7.348,-1.781 a 0.79,0.79 0 0 0 0.135,0.251 c 0.421,0.505 1.223,0.505 1.837,0 0.613,-0.505 0.783,-1.319 0.36,-1.828 a 0.637,0.637 0 0 0 -0.216,-0.193 c 2.845,-2.703 4.246,-5.683 3.218,-6.99"
       id="path18"
       inkscape:connector-curvature="0"
       style="fill:#ffffff" />
    <path
       d="m 46.357,44.185 c 2.349,-10.572 6.984,-31.394 6.984,-31.394 0,0 13.038,-0.55 33.382,-7.28 -1.505,6.865 -7.272,32.864 -7.272,32.864 0,0 -18.804,5.57 -33.094,5.81"
       id="path20"
       inkscape:connector-curvature="0"
       style="fill:#31a7b9" />
    <path
       d="m 55.599,27.627 a 0.498,0.498 0 0 1 -0.315,-0.35 0.502,0.502 0 0 1 0.152,-0.44 c 3.51,-3.31 12.272,-11.698 12.272,-11.698 -0.079,-0.076 -0.37,-0.507 -0.37,-0.507 l -12.926,12.27 4.515,4.498 c -0.376,-1.903 -1.612,-3.156 -3.328,-3.773 m 9.521,9.108 a 0.323,0.323 0 0 1 -0.108,-0.022 0.436,0.436 0 0 1 -0.336,-0.295 c -0.614,-1.67 -2.173,-2.738 -3.976,-3.332 0.032,0.01 4.534,4.693 4.534,4.693 l 12.79,-12.156 c 0,0 -0.294,-0.313 -0.372,-0.398 -4.253,3.883 -9.43,8.751 -12.208,11.38 a 0.454,0.454 0 0 1 -0.324,0.13"
       id="path22"
       inkscape:connector-curvature="0"
       style="fill:#ffffff" />
    <path
       d="m 65.292,35.45 c 2.953,-2.789 7.98,-7.521 12.062,-11.241 -0.751,-1.907 -2.31,-3.22 -4.422,-3.716 -2.4,2.266 -5.182,4.9 -7.867,7.46 L 60.9,31.921 c 2.01,0.573 3.548,1.788 4.393,3.527 M 67.71,16.447 A 1546.796,1546.796 0 0 1 56.619,27.024 c 1.773,0.841 3.008,2.317 3.578,4.25 l 4.212,-4.007 a 7580.5,7580.5 0 0 1 7.856,-7.459 c -0.444,-2.093 -1.68,-3.623 -3.516,-4.348 l -1.04,0.987 m -16.735,23.247 -0.26,-0.835 0.603,-0.835 0.25,0.835 -0.593,0.835 m -0.459,2.118 -1.266,0.627 1.619,-2.278 0.656,2.278 -1.01,-0.627 m -0.367,-1.059 -0.244,-0.842 0.59,-0.837 0.257,0.837 -0.603,0.842 m 1.203,0 -0.258,-0.842 0.6,-0.837 0.25,0.837 -0.592,0.842 m 1.24,-8.871 -0.25,-0.842 0.602,-0.839 0.236,0.84 -0.588,0.84 m -0.455,2.114 -1.267,0.626 1.612,-2.283 0.665,2.283 -1.01,-0.626 m -0.37,-1.063 -0.25,-0.835 0.593,-0.837 0.252,0.837 -0.595,0.835 m 1.2,0 -0.252,-0.835 0.6,-0.837 0.242,0.837 -0.59,0.835 m 1.373,-8.88 -0.243,-0.835 0.588,-0.832 0.252,0.832 -0.597,0.835 m -0.459,2.114 -1.274,0.64 1.638,-2.287 0.656,2.288 -1.02,-0.64 m -0.373,-1.049 -0.226,-0.844 0.599,-0.841 0.226,0.841 -0.599,0.844 m 1.2,0 -0.237,-0.844 0.593,-0.841 0.243,0.841 -0.599,0.844 m 1.458,-8.88 -0.243,-0.833 0.588,-0.841 0.256,0.841 -0.601,0.833 m -0.457,2.118 -1.27,0.623 1.636,-2.284 0.652,2.284 -1.018,-0.623 m -0.372,-1.061 -0.229,-0.841 0.599,-0.833 0.228,0.833 -0.598,0.84 m 1.199,0.001 -0.237,-0.841 0.588,-0.833 0.252,0.833 -0.603,0.84 m 5.616,-1.392 -0.24,-0.841 0.597,-0.835 0.235,0.835 -0.592,0.84 m -0.443,2.11 -1.275,0.632 1.61,-2.28 0.672,2.28 -1.007,-0.632 m -0.366,-1.054 -0.26,-0.84 0.599,-0.84 0.256,0.84 -0.595,0.84 m 1.187,0 -0.243,-0.84 0.597,-0.84 0.234,0.84 -0.588,0.84 m 6.472,-2.41 0.578,-0.826 -0.228,-0.837 -0.6,0.837 0.223,0.813 c 0.004,0.005 0.017,0.007 0.028,0.013 M 68.3,14.57 c 0.03,-0.036 0.083,-0.048 0.125,-0.07 a 0.566,0.566 0 0 1 0.233,-0.059 l -0.14,-0.5 -0.599,0.84 0.036,0.115 0.345,-0.326 m 1.543,0.357 0.11,-0.145 -0.229,-0.842 -0.493,0.687 c 0.216,0.093 0.42,0.19 0.612,0.3 m 5.957,-1.872 -0.226,-0.841 0.6,-0.833 0.23,0.833 -0.603,0.84 m -0.436,2.112 -1.287,0.637 1.634,-2.285 0.666,2.285 -1.013,-0.637 m -0.372,-1.05 -0.244,-0.844 0.595,-0.843 0.237,0.843 -0.588,0.844 m 1.184,0 -0.226,-0.844 0.599,-0.843 0.224,0.843 -0.597,0.844 m 5.582,-2.71 -0.25,-0.83 0.601,-0.844 0.24,0.843 -0.591,0.831 m -0.449,2.118 -1.271,0.621 1.612,-2.278 0.662,2.278 -1.003,-0.621 m -0.374,-1.064 -0.25,-0.836 0.593,-0.833 0.256,0.833 -0.6,0.837 m 1.201,-10e-4 -0.252,-0.836 0.598,-0.833 0.244,0.833 -0.59,0.837 m -1.983,6.669 -0.222,-0.842 0.594,-0.841 0.225,0.841 -0.597,0.842 m -0.433,2.109 -1.285,0.634 1.63,-2.28 0.663,2.28 -1.009,-0.634 m -0.379,-1.055 -0.24,-0.839 0.598,-0.841 0.235,0.841 -0.592,0.84 m 1.189,-10e-4 -0.225,-0.839 0.597,-0.841 0.226,0.841 -0.598,0.84 m -2.116,6.731 -0.252,-0.828 0.592,-0.846 0.259,0.846 -0.6,0.828 m -0.456,2.123 -1.27,0.621 1.636,-2.276 0.643,2.276 -1.01,-0.621 m -0.374,-1.061 -0.226,-0.842 0.59,-0.835 0.24,0.835 -0.604,0.842 m 1.204,0 -0.25,-0.842 0.59,-0.835 0.261,0.835 -0.6,0.842 m -2.03,6.749 -0.252,-0.837 0.6,-0.844 0.249,0.844 -0.597,0.837 m -0.455,2.12 -1.274,0.619 1.628,-2.28 0.65,2.28 -1.004,-0.62 m -0.368,-1.063 -0.243,-0.843 0.588,-0.83 0.247,0.83 -0.592,0.843 m 1.196,0 -0.25,-0.843 0.596,-0.83 0.254,0.83 -0.6,0.843 m -6.545,0.875 -0.25,-0.834 0.597,-0.842 0.244,0.842 -0.59,0.834 m -0.458,2.114 -1.265,0.624 1.614,-2.28 0.658,2.28 -1.007,-0.624 m -0.37,-1.059 -0.245,-0.839 0.588,-0.833 0.254,0.833 -0.597,0.84 m 1.204,-10e-4 -0.258,-0.839 0.6,-0.833 0.248,0.833 -0.59,0.84 m -7.242,0.416 -0.225,-0.842 0.59,-0.843 0.233,0.843 -0.599,0.842 m -0.439,2.107 -1.28,0.634 1.626,-2.283 0.667,2.283 -1.014,-0.634 m -0.374,-1.055 -0.24,-0.837 0.595,-0.843 0.233,0.843 -0.588,0.837 m 1.189,0 -0.226,-0.837 0.594,-0.843 0.229,0.843 -0.597,0.837 m -7.12,0.064 -0.247,-0.844 0.592,-0.832 0.258,0.832 -0.603,0.844 m -0.454,2.107 -1.27,0.638 1.633,-2.278 0.65,2.278 -1.014,-0.638 m -0.368,-1.048 -0.23,-0.842 0.59,-0.839 0.239,0.84 -0.599,0.84 m 1.199,10e-4 -0.249,-0.842 0.59,-0.839 0.259,0.84 -0.6,0.84"
       id="path24"
       inkscape:connector-curvature="0"
       style="fill:#ffffff" />
    <path
       d="m 98.886,3.612 h 5.033 v 1.109 h -3.783 v 2.595 h 3.433 v 1.128 h -3.433 V 11.7 h -1.25 V 3.612 m 11.032,5.568 -0.862,-2.2 c -0.195,-0.443 -0.409,-1.131 -0.409,-1.184 -0.002,0.033 -0.208,0.715 -0.397,1.183 l -0.873,2.2 h 2.54 z m -1.326,-5.649 h 0.139 l 3.538,8.166 h -1.29 l -0.603,-1.479 h -3.421 l -0.598,1.48 h -1.215 z m 5.058,4.128 c 0,-2.418 1.846,-4.139 4.126,-4.139 1.459,0 2.52,0.54 3.227,1.604 l -0.956,0.691 c -0.456,-0.699 -1.22,-1.164 -2.271,-1.164 -1.66,0 -2.844,1.284 -2.844,3.008 0,1.718 1.184,3.013 2.844,3.013 1.109,0 1.876,-0.495 2.379,-1.272 l 0.978,0.674 c -0.697,1.075 -1.837,1.729 -3.357,1.729 -2.28,0 -4.125,-1.73 -4.125,-4.144 m 9.917,1.195 V 3.612 h 1.251 v 5.175 c 0,1.306 0.642,1.885 1.83,1.885 1.17,0 1.834,-0.579 1.834,-1.885 V 3.612 h 1.231 v 5.242 c 0,1.96 -1.323,2.952 -3.066,2.952 -1.768,0 -3.08,-0.992 -3.08,-2.952 m 9.115,-5.242 h 1.248 v 6.977 h 3.724 V 11.7 h -4.972 V 3.612 m 8.361,1.108 h -2.39 V 3.616 h 6.053 v 1.106 h -2.393 v 6.976 h -1.27 V 4.721 m 8.964,-4.122 h 1.384 l -1.173,2.258 h -0.92 L 150.008,0.6 Z m -2.894,3.013 h 5.14 v 1.109 h -3.872 V 7.1 h 3.424 v 1.073 h -3.424 v 2.418 h 4.025 v 1.105 h -5.293 z m 13.971,6.98 c 2.087,0 3.071,-1.218 3.071,-2.936 0,-1.718 -0.984,-2.935 -3.071,-2.935 h -0.895 v 5.87 h 0.895 z m -2.143,-6.977 h 2.215 c 2.588,0 4.305,1.613 4.305,4.041 0,2.415 -1.695,4.041 -4.305,4.041 h -2.215 z m 9.148,-0.003 h 5.139 v 1.109 h -3.886 V 7.1 h 3.447 v 1.076 h -3.447 v 2.412 h 4.033 V 11.7 h -5.287 V 3.612 M 106.906,22.45 c -0.208,-0.122 -0.353,-0.24 -0.503,-0.323 -0.775,-0.504 -1.609,-0.707 -2.807,-0.707 -3.33,0 -5.565,2.089 -5.565,5.264 0,3.26 2.455,5.533 5.912,5.533 0.656,0 1.27,-0.114 2.4,-0.437 V 27.9 c 0,-0.164 -0.067,-0.464 -0.143,-0.668 -0.072,-0.198 -0.252,-0.387 -0.572,-0.702 h 2.757 v 6.657 c -0.408,0.086 -0.725,0.186 -0.93,0.222 -1.255,0.24 -2.383,0.354 -3.512,0.354 -1.526,0 -2.824,-0.214 -3.883,-0.674 A 6.696,6.696 0 0 1 96.038,26.92 c 0,-2.35 1.129,-4.48 3.072,-5.815 1.376,-0.952 2.857,-1.342 5.24,-1.342 1.003,0 1.403,0.067 2.556,0.34 v 2.347 m 5.082,10.976 c 0.411,-0.3 0.561,-0.468 0.686,-0.704 0.086,-0.154 0.17,-0.48 0.17,-0.63 l 0.027,-10.6 c 0,-0.562 -0.11,-0.74 -0.725,-1.423 h 7.04 v 2.57 c -0.45,-0.76 -0.828,-1.038 -1.425,-1.038 h -2.938 v 3.916 h 3.16 v 2.094 c -0.422,-0.577 -0.873,-0.769 -1.901,-0.769 h -1.276 v 5.01 c 1.07,0.168 1.479,0.204 2.254,0.204 0.292,0 0.573,0 0.854,-0.025 1.348,-0.106 1.904,-0.326 3.035,-1.178 l -0.856,2.573 h -8.105 M 123.025,30.7 c 0.879,0.54 1.204,0.693 2.132,0.98 0.729,0.226 1.476,0.35 1.999,0.35 1.554,0 2.76,-0.885 2.76,-2.055 0,-0.406 -0.172,-0.946 -0.425,-1.186 -0.295,-0.312 -1.132,-0.777 -1.804,-1.039 l -1.801,-0.704 c -1.707,-0.669 -2.683,-1.872 -2.683,-3.354 0,-2.233 2.002,-3.757 5.017,-3.757 0.87,0 1.554,0.095 2.524,0.354 v 2.35 c -1.184,-0.904 -1.81,-1.166 -2.88,-1.166 -1.55,0 -2.607,0.777 -2.607,1.966 0,0.833 0.626,1.448 2.049,2.041 l 1.684,0.68 c 2.152,0.886 3.041,1.852 3.041,3.462 0,2.431 -2.19,4.105 -5.367,4.105 -0.431,0 -0.912,-0.028 -1.384,-0.103 -0.7,-0.086 -0.943,-0.164 -1.576,-0.401 L 123.025,30.7 m 9.779,-10.634 h 10.02 l -0.828,2.666 a 2.42,2.42 0 0 0 -0.4,-0.521 c -0.398,-0.368 -1.173,-0.577 -2.177,-0.577 -0.275,0 -0.503,0.028 -1.03,0.075 v 10.386 c 0,0.039 0.027,0.12 0.06,0.253 0.042,0.14 0.075,0.26 0.142,0.374 0.097,0.228 0.298,0.4 0.706,0.704 h -3.716 c 0.403,-0.303 0.542,-0.476 0.628,-0.704 a 0.977,0.977 0 0 0 0.125,-0.374 c 0.022,-0.133 0.053,-0.206 0.053,-0.253 V 21.737 c -0.628,-0.064 -0.9,-0.064 -1.156,-0.064 -0.378,0 -0.673,0.036 -1.004,0.064 -0.875,0.076 -1.328,0.237 -2.199,0.825 l 0.776,-2.496 m 12.03,13.36 c 0.423,-0.3 0.606,-0.476 0.728,-0.704 0.02,-0.078 0.075,-0.229 0.125,-0.376 0.045,-0.131 0.045,-0.204 0.045,-0.254 l 0.058,-10.6 c 0,-0.37 0,-0.426 -0.141,-0.671 -0.114,-0.206 -0.267,-0.387 -0.634,-0.752 h 3.458 c -0.35,0.365 -0.492,0.546 -0.606,0.752 a 2.134,2.134 0 0 0 -0.125,0.671 v 10.6 c 0,0.123 0.097,0.44 0.2,0.63 0.105,0.228 0.32,0.403 0.803,0.704 h -3.91 m 55.422,21.726 c 0.426,-0.292 0.567,-0.46 0.698,-0.704 0.08,-0.145 0.172,-0.477 0.172,-0.632 l 0.028,-10.595 c 0,-0.551 -0.12,-0.738 -0.728,-1.431 h 7.043 v 2.579 c -0.447,-0.76 -0.825,-1.036 -1.426,-1.036 h -2.938 v 3.901 h 3.155 v 2.103 c -0.425,-0.58 -0.867,-0.76 -1.907,-0.76 h -1.27 v 5.002 c 1.076,0.164 1.482,0.198 2.257,0.198 0.284,0 0.564,0 0.848,-0.009 1.354,-0.117 1.904,-0.342 3.035,-1.197 l -0.848,2.581 h -8.119 m -46.6,-28.346 c 0,3.228 2.376,5.612 5.314,5.612 2.702,0 4.678,-2.259 4.678,-5.375 0,-3.275 -2.223,-5.81 -5.08,-5.81 -2.967,0 -4.912,2.134 -4.912,5.336 z m 5.05,-7.043 c 4.15,0 6.955,2.838 6.955,6.996 0,4.244 -2.758,7.004 -6.994,7.004 -4.191,0 -7.088,-2.9 -7.088,-7.107 0,-4.066 2.93,-6.893 7.127,-6.893 z m 9.882,13.663 c 0.411,-0.278 0.564,-0.44 0.689,-0.688 a 1.81,1.81 0 0 0 0.158,-0.646 l 0.011,-10.6 c 0,-0.37 0,-0.426 -0.125,-0.671 -0.1,-0.206 -0.239,-0.387 -0.592,-0.752 h 2.3 l 7.893,9.982 v -8.559 c 0,-0.072 -0.03,-0.145 -0.03,-0.259 -0.048,-0.167 -0.07,-0.312 -0.095,-0.39 -0.117,-0.197 -0.228,-0.376 -0.606,-0.774 h 3.033 c -0.356,0.398 -0.498,0.585 -0.567,0.774 a 2.02,2.02 0 0 0 -0.137,0.65 v 12.47 c -0.517,-0.239 -0.7,-0.342 -1.142,-0.69 a 7.045,7.045 0 0 1 -0.928,-0.785 c -0.195,-0.195 -0.406,-0.457 -0.7,-0.783 -0.198,-0.228 -0.34,-0.387 -0.429,-0.501 L 171.06,23.33 v 8.762 c 0,0.187 0.07,0.44 0.194,0.646 0.097,0.22 0.298,0.41 0.723,0.688 h -3.388 m 16.001,2.106 c 0.448,-0.426 0.629,-0.627 0.754,-1.03 a 1.07,1.07 0 0 0 0.122,-0.53 c 0,-0.08 0,-0.237 -0.02,-0.384 -0.855,-0.354 -1.13,-0.669 -1.13,-1.242 0,-0.83 0.625,-1.457 1.42,-1.457 0.781,0 1.273,0.61 1.273,1.632 0,0.554 -0.117,1.02 -0.417,1.557 -0.15,0.278 -0.35,0.532 -0.57,0.777 -0.286,0.317 -0.495,0.515 -1.081,0.958 l -0.35,-0.281 m -83.207,32.175 c 0.603,-0.554 0.73,-0.707 0.956,-0.958 0.22,-0.298 0.372,-0.598 0.372,-0.927 0,-0.694 -0.597,-1.265 -1.328,-1.265 -0.667,0 -1.279,0.563 -1.279,1.231 0,0.29 0.178,0.702 0.4,0.961 0.053,0.053 0.212,0.206 0.453,0.46 0.103,0.097 0.253,0.259 0.426,0.498 m -0.173,2.674 c -0.909,0.74 -1.003,0.855 -1.303,1.206 a 2.703,2.703 0 0 0 -0.581,1.635 c 0,1.367 1.178,2.345 2.76,2.345 0.895,0 1.804,-0.332 2.44,-0.903 0.164,-0.153 0.362,-0.342 0.59,-0.593 -1.79,-1.632 -2.213,-2.047 -3.906,-3.69 m -2.982,-4.28 c 0,-1.633 1.356,-2.839 3.23,-2.839 1.798,0 3.032,1.045 3.032,2.56 0,0.59 -0.175,1.209 -0.458,1.67 -0.29,0.477 -0.545,0.717 -1.34,1.446 1.323,1.312 1.976,1.92 3.58,3.315 2.135,1.852 3.627,3.038 4.536,3.578 0.398,0.218 1.198,0.571 2.38,1.053 h -2.833 c -1.1,0 -1.453,-0.075 -2.16,-0.446 -0.706,-0.353 -1.197,-0.72 -2.226,-1.69 a 9.476,9.476 0 0 1 -0.703,0.983 c -0.806,0.989 -1.94,1.448 -3.564,1.448 -2.604,0 -4.63,-1.699 -4.63,-3.837 0,-0.652 0.186,-1.29 0.533,-1.855 0.442,-0.777 0.867,-1.22 2.252,-2.423 -1.118,-1.075 -1.63,-1.994 -1.63,-2.964 m 3.084,-25.491 1.3,-2.877 h 1.78 l -1.88,2.877 z m -3.458,14.543 c 0.398,-0.292 0.55,-0.46 0.675,-0.704 0.1,-0.145 0.173,-0.482 0.173,-0.632 l 0.025,-10.598 c 0,-0.548 -0.097,-0.738 -0.731,-1.431 h 7.057 v 2.582 c -0.461,-0.758 -0.84,-1.034 -1.437,-1.034 h -2.94 v 3.9 h 3.176 v 2.1 c -0.422,-0.583 -0.89,-0.758 -1.912,-0.758 h -1.279 v 5.002 c 1.073,0.161 1.48,0.198 2.255,0.198 0.303,0 0.578,0 0.85,-0.009 1.357,-0.114 1.92,-0.34 3.05,-1.197 l -0.87,2.581 z m 22.301,-11.001 c -0.2,-0.136 -0.325,-0.206 -0.42,-0.278 -0.781,-0.49 -1.81,-0.744 -2.969,-0.744 -3.246,0 -5.503,2.19 -5.503,5.35 0,1.443 0.495,2.721 1.41,3.668 1.02,1.098 2.823,1.838 4.355,1.838 1.65,0 3.338,-0.598 5.036,-1.802 l -1.503,2.97 c -1.677,0.256 -2.38,0.317 -3.442,0.317 -1.298,0 -2.376,-0.173 -3.427,-0.524 -2.607,-0.888 -4.336,-3.4 -4.336,-6.238 0,-2.15 0.923,-4.122 2.582,-5.45 1.479,-1.187 3.28,-1.716 5.79,-1.716 0.737,0 1.254,0.047 2.427,0.312 v 2.297 m 6.201,4.389 c 0,3.217 2.377,5.618 5.3,5.618 2.716,0 4.668,-2.261 4.668,-5.375 0,-3.28 -2.199,-5.826 -5.09,-5.826 -2.957,0 -4.878,2.133 -4.878,5.339 v 0.245 z m 5.031,-7.04 c 4.156,0 6.971,2.832 6.971,6.98 0,4.244 -2.754,7.01 -6.988,7.01 -4.219,0 -7.099,-2.886 -7.099,-7.097 0,-4.083 2.938,-6.893 7.116,-6.893 z m 9.876,13.652 c 0.414,-0.284 0.556,-0.445 0.698,-0.682 0.078,-0.167 0.158,-0.485 0.158,-0.654 l 0.025,-10.595 c 0,-0.373 0,-0.426 -0.122,-0.665 -0.106,-0.204 -0.253,-0.39 -0.606,-0.766 h 2.315 l 7.892,9.992 v -8.56 c 0,-0.079 -0.031,-0.151 -0.056,-0.265 a 2.83,2.83 0 0 0 -0.075,-0.393 c -0.128,-0.195 -0.222,-0.36 -0.6,-0.774 h 2.999 c -0.348,0.415 -0.467,0.598 -0.545,0.774 a 2.053,2.053 0 0 0 -0.122,0.657 v 12.463 c -0.537,-0.236 -0.7,-0.32 -1.168,-0.674 a 8.414,8.414 0 0 1 -0.92,-0.802 c -0.197,-0.186 -0.397,-0.44 -0.706,-0.782 -0.192,-0.218 -0.345,-0.39 -0.422,-0.499 l -6.26,-7.873 v 8.762 c 0,0.189 0.047,0.453 0.189,0.654 0.111,0.223 0.284,0.398 0.74,0.682 h -3.414 m 17.778,-6.612 c 0,3.217 2.396,5.618 5.31,5.618 2.74,0 4.691,-2.261 4.691,-5.375 0,-3.28 -2.234,-5.826 -5.086,-5.826 -2.958,0 -4.915,2.133 -4.915,5.339 v 0.245 z m 5.065,-7.04 c 4.133,0 6.935,2.832 6.935,6.98 0,4.244 -2.755,7.01 -6.985,7.01 -4.184,0 -7.066,-2.886 -7.066,-7.097 0,-4.083 2.9,-6.893 7.116,-6.893 z m 8.797,13.652 c 0.47,-0.284 0.653,-0.445 0.82,-0.682 0.136,-0.2 0.234,-0.465 0.261,-0.654 l 1.524,-10.578 c 0.028,-0.036 0.028,-0.053 0.028,-0.109 0,-0.526 -0.123,-0.727 -0.729,-1.34 h 3.308 l 4.147,9.918 3.853,-9.917 h 3.132 c -0.483,0.598 -0.561,0.805 -0.561,1.317 0,0.036 0,0.095 0.005,0.114 l 1.276,10.595 c 0,0.06 0.056,0.155 0.103,0.264 a 0.95,0.95 0 0 0 0.2,0.368 c 0.178,0.225 0.392,0.412 0.956,0.704 h -3.833 c 0.423,-0.423 0.545,-0.715 0.545,-1.261 v -0.075 l -0.973,-9.801 -4.42,11.36 c -0.425,-0.203 -0.547,-0.292 -0.772,-0.515 a 10.45,10.45 0 0 1 -0.428,-0.59 c -0.07,-0.176 -0.17,-0.38 -0.284,-0.619 -0.158,-0.337 -0.264,-0.551 -0.314,-0.69 l -3.777,-8.91 -1.312,9.765 v 0.075 c 0,0.546 0.183,0.816 0.748,1.261 h -3.503 m 20.653,0 c 0.422,-0.292 0.575,-0.479 0.706,-0.704 0.052,-0.073 0.07,-0.217 0.141,-0.368 0.059,-0.13 0.059,-0.203 0.059,-0.264 l 0.022,-10.595 c 0,-0.373 0,-0.426 -0.125,-0.665 -0.097,-0.204 -0.247,-0.39 -0.623,-0.766 h 3.46 c -0.38,0.376 -0.502,0.562 -0.605,0.766 a 2.167,2.167 0 0 0 -0.145,0.665 v 10.595 c 0,0.133 0.095,0.453 0.212,0.632 0.108,0.225 0.336,0.412 0.784,0.704 h -3.886 m -77.07,19.008 c 0.853,0.54 1.2,0.688 2.118,0.98 0.742,0.226 1.481,0.349 1.993,0.349 1.581,0 2.788,-0.889 2.788,-2.056 0,-0.403 -0.198,-0.944 -0.428,-1.18 -0.334,-0.315 -1.129,-0.777 -1.813,-1.045 l -1.798,-0.702 c -1.732,-0.665 -2.71,-1.871 -2.71,-3.353 0,-2.245 2.037,-3.765 5.04,-3.765 0.88,0 1.556,0.103 2.5,0.353 v 2.362 c -1.172,-0.908 -1.77,-1.17 -2.851,-1.17 -1.582,0 -2.632,0.775 -2.632,1.958 0,0.841 0.625,1.451 2.084,2.047 l 1.649,0.68 c 2.173,0.888 3.06,1.858 3.06,3.465 0,2.434 -2.18,4.1 -5.39,4.1 a 8.32,8.32 0 0 1 -1.353,-0.101 c -0.704,-0.08 -0.95,-0.159 -1.576,-0.398 l -0.681,-2.524 m 22.64,-8.288 c -0.195,-0.123 -0.331,-0.2 -0.426,-0.276 -0.759,-0.476 -1.812,-0.738 -2.949,-0.738 -3.246,0 -5.504,2.18 -5.504,5.359 0,1.445 0.481,2.72 1.385,3.668 1.023,1.094 2.832,1.832 4.358,1.832 1.67,0 3.363,-0.587 5.056,-1.793 l -1.52,2.96 c -1.682,0.26 -2.382,0.312 -3.42,0.312 -1.322,0 -2.398,-0.159 -3.451,-0.512 -2.608,-0.892 -4.334,-3.415 -4.334,-6.256 a 6.96,6.96 0 0 1 2.58,-5.444 c 1.478,-1.181 3.3,-1.722 5.79,-1.722 0.756,0 1.25,0.059 2.435,0.312 v 2.298 m 4.061,11.012 c 0.422,-0.303 0.603,-0.482 0.728,-0.702 0.025,-0.075 0.075,-0.225 0.125,-0.381 0.044,-0.12 0.044,-0.198 0.044,-0.248 l 0.056,-10.606 c 0,-0.364 0,-0.423 -0.128,-0.67 -0.125,-0.199 -0.28,-0.388 -0.64,-0.75 h 3.461 c -0.361,0.362 -0.497,0.551 -0.617,0.75 a 2.28,2.28 0 0 0 -0.125,0.67 v 10.606 c 0,0.128 0.106,0.44 0.198,0.63 0.122,0.22 0.33,0.398 0.806,0.701 h -3.908 m 6.718,0 c 0.397,-0.303 0.545,-0.465 0.675,-0.702 0.1,-0.153 0.206,-0.487 0.206,-0.63 V 64.948 c 0,-0.557 -0.106,-0.74 -0.703,-1.42 h 7.043 V 66.1 c -0.486,-0.763 -0.834,-1.047 -1.465,-1.047 h -2.902 v 3.924 h 3.16 v 2.086 c -0.422,-0.568 -0.9,-0.757 -1.928,-0.757 h -1.284 v 5.002 c 1.111,0.172 1.481,0.209 2.257,0.209 0.305,0 0.575,0 0.853,-0.031 1.384,-0.109 1.93,-0.323 3.06,-1.172 l -0.88,2.57 h -8.092 m 11.505,0 c 0.4,-0.273 0.547,-0.446 0.672,-0.69 0.103,-0.165 0.18,-0.477 0.18,-0.641 l 0.023,-10.606 c 0,-0.364 0,-0.423 -0.139,-0.67 -0.086,-0.199 -0.233,-0.388 -0.586,-0.75 h 2.282 l 7.908,9.979 v -8.559 a 0.819,0.819 0 0 0 -0.042,-0.253 c -0.033,-0.17 -0.044,-0.312 -0.103,-0.387 -0.092,-0.21 -0.208,-0.382 -0.564,-0.78 h 3 c -0.351,0.398 -0.473,0.588 -0.551,0.78 -0.078,0.161 -0.12,0.47 -0.12,0.64 v 12.477 c -0.564,-0.245 -0.703,-0.34 -1.187,-0.693 a 8.131,8.131 0 0 1 -0.93,-0.791 c -0.17,-0.184 -0.37,-0.454 -0.699,-0.777 a 5.927,5.927 0 0 0 -0.425,-0.499 l -6.234,-7.878 v 8.767 c 0,0.178 0.044,0.44 0.166,0.64 0.134,0.226 0.306,0.418 0.76,0.691 h -3.411 m 26.498,-11.012 c -0.178,-0.123 -0.3,-0.2 -0.42,-0.276 -0.765,-0.476 -1.79,-0.738 -2.944,-0.738 -3.26,0 -5.512,2.18 -5.512,5.359 0,1.445 0.478,2.72 1.398,3.668 1.037,1.094 2.819,1.832 4.373,1.832 1.648,0 3.321,-0.587 5.025,-1.793 l -1.498,2.96 c -1.693,0.26 -2.399,0.312 -3.438,0.312 -1.298,0 -2.374,-0.159 -3.425,-0.512 -2.61,-0.892 -4.358,-3.415 -4.358,-6.256 0,-2.144 0.942,-4.102 2.604,-5.444 1.476,-1.181 3.275,-1.722 5.79,-1.722 0.72,0 1.248,0.059 2.405,0.312 v 2.298 m 4.094,11.012 c 0.42,-0.303 0.564,-0.465 0.695,-0.702 0.08,-0.153 0.17,-0.487 0.17,-0.63 l 0.027,-10.605 c 0,-0.557 -0.117,-0.74 -0.725,-1.42 h 7.038 V 66.1 c -0.445,-0.763 -0.823,-1.047 -1.424,-1.047 h -2.938 v 3.924 H 198 v 2.086 c -0.42,-0.568 -0.867,-0.757 -1.904,-0.757 h -1.27 v 5.002 c 1.07,0.172 1.484,0.209 2.257,0.209 0.283,0 0.564,0 0.85,-0.031 1.349,-0.109 1.902,-0.323 3.033,-1.172 l -0.85,2.57 h -8.114 m 11.043,-2.724 c 0.881,0.54 1.207,0.688 2.135,0.98 0.725,0.226 1.479,0.349 1.996,0.349 1.56,0 2.763,-0.889 2.763,-2.056 0,-0.403 -0.175,-0.944 -0.428,-1.18 -0.295,-0.315 -1.132,-0.777 -1.802,-1.045 l -1.804,-0.702 c -1.706,-0.665 -2.68,-1.871 -2.68,-3.353 0,-2.245 2.002,-3.765 5.007,-3.765 0.881,0 1.557,0.103 2.538,0.353 v 2.362 c -1.193,-0.908 -1.813,-1.17 -2.888,-1.17 -1.551,0 -2.61,0.775 -2.61,1.958 0,0.841 0.633,1.451 2.057,2.047 l 1.684,0.68 c 2.154,0.888 3.033,1.858 3.033,3.465 0,2.434 -2.185,4.1 -5.362,4.1 -0.426,0 -0.906,-0.023 -1.379,-0.101 -0.703,-0.08 -0.95,-0.159 -1.59,-0.398 l -0.67,-2.524 M 8.72,111.78 9.128,110.625 c -0.509,0.351 -0.75,0.443 -1.335,0.502 a 4.899,4.899 0 0 1 -0.501,0.025 c -0.318,0 -0.493,-0.017 -0.969,-0.084 v -4.667 l 0.034,-0.118 0.05,-0.184 a 0.51,0.51 0 0 1 0.1,-0.15 c 0.042,-0.05 0.1,-0.109 0.175,-0.2 h -1.52 c 0.143,0.183 0.21,0.258 0.243,0.35 0.05,0.1 0.058,0.126 0.058,0.302 l -0.025,4.776 c 0,0.025 -0.008,0.058 -0.016,0.117 -0.025,0.075 -0.042,0.134 -0.059,0.167 -0.05,0.1 -0.125,0.184 -0.3,0.318 h 3.656 z m 4.074,0 0.392,-1.164 c -0.51,0.385 -0.76,0.486 -1.378,0.536 -0.125,0.008 -0.25,0.008 -0.384,0.008 -0.35,0 -0.526,-0.017 -1.018,-0.092 v -2.258 h 0.576 c 0.467,0 0.676,0.083 0.868,0.343 v -0.946 h -1.427 v -1.765 h 1.319 c 0.275,0 0.442,0.126 0.65,0.469 v -1.163 h -3.18 c 0.275,0.31 0.326,0.393 0.326,0.644 l -0.009,4.785 a 0.738,0.738 0 0 1 -0.083,0.284 c -0.059,0.11 -0.126,0.184 -0.31,0.318 h 3.658 z m 0.801,-0.093 c 0.284,0.109 0.392,0.142 0.71,0.184 0.217,0.034 0.426,0.042 0.618,0.042 1.444,0 2.429,-0.753 2.429,-1.849 0,-0.727 -0.4,-1.162 -1.378,-1.564 l -0.75,-0.31 c -0.652,-0.267 -0.936,-0.543 -0.936,-0.92 0,-0.535 0.476,-0.886 1.186,-0.886 0.484,0 0.76,0.117 1.294,0.527 v -1.063 a 3.991,3.991 0 0 0 -1.136,-0.158 c -1.36,0 -2.27,0.685 -2.27,1.698 0,0.669 0.442,1.213 1.218,1.514 l 0.81,0.318 c 0.309,0.117 0.676,0.326 0.818,0.468 0.109,0.109 0.192,0.351 0.192,0.535 0,0.527 -0.542,0.929 -1.252,0.929 -0.234,0 -0.568,-0.059 -0.902,-0.16 a 3.433,3.433 0 0 1 -0.96,-0.442 l 0.31,1.137 z m 8.315,0.092 h -1.736 c 0.2,-0.134 0.267,-0.209 0.334,-0.31 0.017,-0.041 0.042,-0.1 0.058,-0.175 0.025,-0.05 0.025,-0.092 0.025,-0.117 l 0.009,-4.776 a 0.37,0.37 0 0 0 -0.025,-0.118 0.67,0.67 0 0 0 -0.042,-0.184 c -0.025,-0.075 -0.084,-0.159 -0.217,-0.35 h 3.13 v 1.153 c -0.241,-0.401 -0.383,-0.476 -0.951,-0.476 h -1.01 v 1.765 h 1.419 v 0.953 c -0.25,-0.284 -0.367,-0.334 -0.902,-0.334 h -0.517 v 2.367 c 0,0.017 0.008,0.05 0.033,0.117 a 0.865,0.865 0 0 0 0.059,0.176 c 0.05,0.092 0.141,0.175 0.333,0.31 z m 2.413,0 h -1.745 c 0.26,-0.142 0.376,-0.217 0.476,-0.318 a 3.88,3.88 0 0 0 0.209,-0.284 l 1.962,-4.768 a 0.737,0.737 0 0 0 0.05,-0.243 c 0,-0.108 -0.05,-0.2 -0.2,-0.418 h 1.335 l 2.18,5.429 c 0.016,0.025 0.033,0.067 0.066,0.117 0.059,0.067 0.1,0.134 0.142,0.167 0.1,0.1 0.209,0.176 0.484,0.318 h -1.936 c 0.233,-0.15 0.308,-0.26 0.308,-0.426 a 0.557,0.557 0 0 0 -0.025,-0.176 l -0.667,-1.748 h -2.23 l -0.668,1.748 a 0.504,0.504 0 0 0 -0.025,0.167 c 0,0.184 0.059,0.276 0.284,0.435 z m 2.405,-2.961 -0.869,-2.3 -0.885,2.3 z m 6.904,-3.045 v 1.037 c -0.083,-0.058 -0.142,-0.092 -0.192,-0.125 -0.342,-0.218 -0.81,-0.335 -1.327,-0.335 -1.47,0 -2.488,0.987 -2.488,2.418 0,0.652 0.217,1.23 0.626,1.656 0.467,0.494 1.277,0.828 1.97,0.828 0.752,0 1.511,-0.267 2.28,-0.811 l -0.685,1.338 c -0.76,0.117 -1.077,0.142 -1.545,0.142 a 4.733,4.733 0 0 1 -1.553,-0.234 c -1.177,-0.401 -1.962,-1.539 -1.962,-2.819 0,-0.97 0.426,-1.857 1.17,-2.46 0.667,-0.534 1.485,-0.777 2.613,-0.777 0.333,0 0.567,0.025 1.093,0.142 z m 1.044,-0.025 c 0.175,0.142 0.25,0.226 0.292,0.326 a 0.802,0.802 0 0 1 0.075,0.285 v 3.362 c 0,0.87 0.059,1.105 0.376,1.49 0.376,0.443 1.077,0.71 1.82,0.71 0.776,0 1.436,-0.234 1.853,-0.635 v 0.493 h 1.32 c -0.335,-0.234 -0.426,-0.36 -0.426,-0.619 v -4.801 c 0,-0.076 0.033,-0.201 0.075,-0.285 0.05,-0.108 0.125,-0.184 0.292,-0.326 h -1.57 c 0.234,0.218 0.318,0.368 0.318,0.61 v 3.33 c 0,0.962 -0.568,1.506 -1.562,1.506 -0.634,0 -1.21,-0.268 -1.427,-0.661 -0.109,-0.21 -0.159,-0.443 -0.159,-0.77 v -3.388 c 0,-0.242 0.092,-0.393 0.368,-0.627 z m 9.81,6.031 h -3.657 c 0.175,-0.134 0.25,-0.217 0.3,-0.318 0.017,-0.033 0.034,-0.092 0.059,-0.167 0.008,-0.058 0.017,-0.092 0.017,-0.117 l 0.025,-4.776 c 0,-0.176 -0.009,-0.201 -0.059,-0.302 -0.033,-0.092 -0.1,-0.167 -0.242,-0.35 h 1.52 c -0.076,0.091 -0.134,0.15 -0.176,0.2 a 0.51,0.51 0 0 0 -0.1,0.15 l -0.05,0.184 -0.033,0.118 v 4.667 c 0.475,0.067 0.65,0.084 0.968,0.084 0.175,0 0.334,-0.009 0.5,-0.025 0.585,-0.059 0.827,-0.15 1.337,-0.502 l -0.41,1.154 z m -0.852,-4.902 0.36,-1.129 h 4.524 l -0.376,1.205 c -0.066,-0.117 -0.142,-0.193 -0.183,-0.235 -0.184,-0.167 -0.535,-0.259 -0.985,-0.259 -0.126,0 -0.226,0.008 -0.46,0.034 v 4.684 c 0,0.017 0.009,0.058 0.025,0.117 a 0.993,0.993 0 0 0 0.059,0.167 c 0.05,0.1 0.142,0.184 0.325,0.318 h -1.678 c 0.176,-0.134 0.242,-0.217 0.284,-0.318 a 0.934,0.934 0 0 0 0.059,-0.167 c 0.008,-0.058 0.016,-0.092 0.016,-0.117 V 106.5 c -0.283,-0.025 -0.4,-0.025 -0.517,-0.025 -0.167,0 -0.31,0.017 -0.451,0.025 -0.4,0.033 -0.601,0.109 -1.002,0.376 z m 8.616,4.902 0.392,-1.163 c -0.509,0.385 -0.76,0.486 -1.377,0.536 -0.125,0.008 -0.25,0.008 -0.384,0.008 -0.35,0 -0.526,-0.017 -1.019,-0.092 v -2.258 h 0.576 c 0.468,0 0.677,0.083 0.869,0.343 v -0.946 h -1.428 v -1.765 h 1.32 c 0.275,0 0.442,0.126 0.65,0.469 v -1.163 h -3.18 c 0.275,0.31 0.325,0.393 0.325,0.644 l -0.008,4.785 a 0.738,0.738 0 0 1 -0.084,0.284 c -0.058,0.11 -0.125,0.184 -0.309,0.318 z m -1.545,-6.566 0.844,-1.297 h -0.802 l -0.593,1.297 z m 2.346,6.474 c 0.284,0.109 0.393,0.142 0.71,0.184 0.217,0.034 0.426,0.042 0.618,0.042 1.444,0 2.43,-0.753 2.43,-1.849 0,-0.727 -0.401,-1.162 -1.378,-1.564 l -0.751,-0.31 c -0.652,-0.267 -0.936,-0.543 -0.936,-0.92 0,-0.535 0.476,-0.886 1.186,-0.886 0.484,0 0.76,0.117 1.294,0.527 v -1.063 a 3.991,3.991 0 0 0 -1.135,-0.158 c -1.361,0 -2.271,0.685 -2.271,1.698 0,0.669 0.442,1.213 1.219,1.514 l 0.81,0.318 c 0.308,0.117 0.676,0.326 0.818,0.468 0.108,0.109 0.192,0.351 0.192,0.535 0,0.527 -0.543,0.929 -1.253,0.929 -0.233,0 -0.567,-0.059 -0.901,-0.16 a 3.433,3.433 0 0 1 -0.96,-0.442 z m 6.48,-5.939 h 2.053 c 1.177,0 1.862,0.184 2.538,0.653 0.76,0.518 1.16,1.313 1.16,2.283 0,0.954 -0.384,1.815 -1.068,2.384 -0.61,0.519 -1.353,0.711 -2.63,0.711 h -2.045 c 0.175,-0.142 0.233,-0.226 0.275,-0.318 a 0.533,0.533 0 0 0 0.058,-0.175 c 0.017,-0.059 0.017,-0.092 0.017,-0.126 l 0.034,-4.768 a 0.763,0.763 0 0 0 -0.076,-0.3 c -0.05,-0.085 -0.116,-0.16 -0.317,-0.344 z m 1.277,0.728 v 4.567 c 0.342,0.067 0.484,0.075 0.826,0.075 0.927,0 1.586,-0.217 2.037,-0.669 0.4,-0.401 0.651,-1.087 0.651,-1.748 0,-1.464 -1.027,-2.3 -2.813,-2.3 -0.342,0 -0.418,0.008 -0.701,0.075 z m 8.599,5.303 0.392,-1.163 c -0.51,0.385 -0.76,0.486 -1.377,0.536 -0.126,0.008 -0.25,0.008 -0.384,0.008 -0.351,0 -0.526,-0.017 -1.019,-0.092 v -2.258 h 0.576 c 0.468,0 0.676,0.083 0.868,0.343 v -0.946 h -1.427 v -1.765 h 1.319 c 0.275,0 0.442,0.126 0.651,0.469 v -1.163 h -3.18 c 0.275,0.31 0.325,0.393 0.325,0.644 l -0.009,4.785 a 0.738,0.738 0 0 1 -0.083,0.284 c -0.059,0.11 -0.125,0.184 -0.309,0.318 z m 6.762,0 0.41,-1.154 c -0.51,0.351 -0.752,0.443 -1.336,0.502 a 4.899,4.899 0 0 1 -0.501,0.025 c -0.318,0 -0.493,-0.017 -0.969,-0.084 v -4.667 l 0.034,-0.118 0.05,-0.184 a 0.51,0.51 0 0 1 0.1,-0.15 c 0.042,-0.05 0.1,-0.109 0.175,-0.2 h -1.52 c 0.143,0.183 0.21,0.258 0.243,0.35 0.05,0.1 0.058,0.126 0.058,0.302 l -0.025,4.776 c 0,0.025 -0.008,0.058 -0.016,0.117 -0.026,0.075 -0.042,0.134 -0.059,0.167 -0.05,0.1 -0.125,0.184 -0.3,0.318 z m 0.727,-3.923 c 0.267,-0.2 0.367,-0.293 0.492,-0.427 0.1,-0.108 0.192,-0.234 0.26,-0.36 0.133,-0.225 0.183,-0.45 0.183,-0.694 0,-0.468 -0.217,-0.744 -0.576,-0.744 a 0.653,0.653 0 0 0 -0.643,0.66 c 0,0.269 0.125,0.402 0.51,0.561 a 0.794,0.794 0 0 1 0.016,0.176 0.507,0.507 0 0 1 -0.059,0.243 c -0.058,0.175 -0.133,0.276 -0.342,0.468 z m 1.436,-2.108 c 0.175,0.142 0.25,0.226 0.292,0.326 a 0.802,0.802 0 0 1 0.075,0.285 v 3.362 c 0,0.87 0.058,1.105 0.376,1.49 0.375,0.443 1.077,0.71 1.82,0.71 0.776,0 1.436,-0.234 1.853,-0.635 v 0.493 h 1.32 c -0.335,-0.234 -0.427,-0.36 -0.427,-0.619 v -4.801 c 0,-0.076 0.034,-0.201 0.076,-0.285 0.05,-0.108 0.125,-0.184 0.292,-0.326 h -1.57 c 0.234,0.218 0.318,0.368 0.318,0.61 v 3.33 c 0,0.962 -0.568,1.506 -1.562,1.506 -0.634,0 -1.21,-0.268 -1.427,-0.661 -0.109,-0.21 -0.159,-0.443 -0.159,-0.77 v -3.388 c 0,-0.242 0.092,-0.393 0.367,-0.627 z m 7.706,6.031 c -0.2,-0.125 -0.284,-0.209 -0.334,-0.31 a 0.581,0.581 0 0 1 -0.084,-0.292 v -3.957 l 2.822,3.555 c 0.042,0.05 0.109,0.126 0.192,0.226 0.142,0.15 0.234,0.268 0.317,0.352 0.126,0.125 0.267,0.25 0.418,0.36 0.208,0.158 0.284,0.2 0.526,0.309 v -5.63 a 0.93,0.93 0 0 1 0.058,-0.293 c 0.034,-0.083 0.092,-0.167 0.25,-0.35 h -1.36 c 0.167,0.183 0.217,0.258 0.267,0.35 0.017,0.034 0.025,0.1 0.042,0.176 0.008,0.05 0.016,0.084 0.016,0.117 v 3.865 l -3.565,-4.509 h -1.035 c 0.159,0.167 0.226,0.251 0.267,0.343 0.059,0.109 0.059,0.134 0.059,0.301 l -0.009,4.785 a 0.76,0.76 0 0 1 -0.075,0.293 c -0.058,0.108 -0.125,0.184 -0.309,0.31 h 1.537 z m 6.453,0 H 90.73 c 0.192,-0.134 0.267,-0.217 0.325,-0.318 0.017,-0.033 0.034,-0.1 0.059,-0.167 0.025,-0.058 0.025,-0.092 0.025,-0.117 l 0.016,-4.785 c 0,-0.167 0,-0.192 -0.058,-0.3 -0.05,-0.093 -0.117,-0.177 -0.284,-0.344 h 1.561 a 1.388,1.388 0 0 0 -0.275,0.343 0.963,0.963 0 0 0 -0.059,0.301 v 4.785 c 0,0.058 0.042,0.2 0.092,0.284 0.05,0.1 0.15,0.184 0.36,0.318 z m -0.275,-6.03 h 1.244 l 1.878,5.077 1.628,-4.434 A 0.3,0.3 0 0 0 97,106.233 c 0,-0.167 -0.059,-0.25 -0.326,-0.485 h 1.41 l -2.504,6.224 a 3.459,3.459 0 0 1 -0.61,-0.318 c -0.225,-0.15 -0.375,-0.385 -0.55,-0.837 l -1.728,-4.425 a 1.467,1.467 0 0 0 -0.167,-0.293 c -0.05,-0.075 -0.109,-0.133 -0.31,-0.35 z m 9.459,6.03 h -3.657 c 0.184,-0.134 0.25,-0.209 0.309,-0.318 a 0.738,0.738 0 0 0 0.084,-0.284 l 0.008,-4.785 c 0,-0.25 -0.05,-0.334 -0.326,-0.644 h 3.181 v 1.163 c -0.209,-0.343 -0.376,-0.469 -0.651,-0.469 h -1.32 v 1.765 h 1.428 v 0.946 c -0.192,-0.26 -0.4,-0.343 -0.868,-0.343 h -0.576 v 2.258 c 0.493,0.075 0.668,0.092 1.019,0.092 0.133,0 0.259,0 0.384,-0.008 0.618,-0.05 0.868,-0.15 1.377,-0.536 z m 2.346,0 h -1.628 c 0.275,-0.192 0.376,-0.36 0.376,-0.602 l -0.009,-4.776 a 0.488,0.488 0 0 0 -0.025,-0.118 c -0.025,-0.083 -0.042,-0.15 -0.05,-0.175 -0.033,-0.067 -0.092,-0.142 -0.284,-0.36 h 1.804 c 1.269,0 2.095,0.627 2.095,1.573 0,0.36 -0.142,0.744 -0.392,0.978 -0.292,0.285 -0.526,0.385 -1.17,0.536 l 0.602,0.736 c 0.3,0.368 0.76,0.87 1.26,1.355 0.518,0.494 0.652,0.594 1.161,0.853 h -1.219 c -0.15,0 -0.25,-0.042 -0.5,-0.226 a 1.264,1.264 0 0 0 -0.168,-0.117 c -0.267,-0.226 -0.584,-0.594 -0.951,-1.096 l -0.894,-1.204 -0.317,-0.477 c 1.094,-0.15 1.645,-0.585 1.645,-1.296 0,-0.653 -0.468,-0.98 -1.42,-0.98 -0.05,0 -0.167,0 -0.308,0.01 v 4.784 c 0,0.243 0.091,0.385 0.392,0.602 z m 3.556,-0.092 -0.308,-1.137 c 0.392,0.242 0.542,0.31 0.96,0.443 0.334,0.1 0.668,0.159 0.901,0.159 0.71,0 1.253,-0.402 1.253,-0.929 0,-0.184 -0.084,-0.426 -0.192,-0.535 -0.142,-0.142 -0.51,-0.351 -0.819,-0.468 l -0.81,-0.318 c -0.776,-0.301 -1.218,-0.845 -1.218,-1.514 0,-1.013 0.91,-1.698 2.27,-1.698 0.393,0 0.702,0.041 1.136,0.158 v 1.063 c -0.534,-0.41 -0.81,-0.527 -1.294,-0.527 -0.71,0 -1.186,0.351 -1.186,0.887 0,0.376 0.284,0.652 0.936,0.92 l 0.75,0.31 c 0.978,0.4 1.378,0.836 1.378,1.563 0,1.096 -0.985,1.85 -2.429,1.85 -0.192,0 -0.4,-0.01 -0.618,-0.043 a 2.462,2.462 0 0 1 -0.71,-0.184 z m 5.936,0.092 c -0.208,-0.134 -0.308,-0.217 -0.359,-0.318 a 0.746,0.746 0 0 1 -0.091,-0.284 v -4.785 c 0,-0.083 0.025,-0.217 0.058,-0.3 0.05,-0.093 0.109,-0.177 0.276,-0.344 h -1.562 c 0.167,0.167 0.234,0.251 0.284,0.343 0.059,0.109 0.059,0.134 0.059,0.301 l -0.017,4.785 c 0,0.025 0,0.058 -0.025,0.117 -0.025,0.067 -0.042,0.134 -0.059,0.167 -0.058,0.1 -0.133,0.184 -0.325,0.318 z m 0.067,-4.902 c 0.401,-0.267 0.601,-0.343 1.002,-0.376 0.142,-0.008 0.284,-0.025 0.451,-0.025 0.117,0 0.234,0 0.518,0.025 v 4.676 c 0,0.025 -0.009,0.058 -0.017,0.117 a 0.934,0.934 0 0 1 -0.059,0.167 c -0.041,0.1 -0.108,0.184 -0.283,0.318 h 1.678 c -0.184,-0.134 -0.276,-0.217 -0.326,-0.318 a 0.985,0.985 0 0 1 -0.058,-0.167 0.584,0.584 0 0 1 -0.025,-0.117 v -4.684 c 0.233,-0.026 0.334,-0.034 0.459,-0.034 0.45,0 0.801,0.092 0.985,0.26 0.042,0.041 0.117,0.117 0.184,0.234 l 0.375,-1.205 h -4.525 l -0.359,1.13 z m 8.616,4.902 0.393,-1.163 c -0.51,0.385 -0.76,0.486 -1.378,0.536 -0.125,0.008 -0.25,0.008 -0.384,0.008 -0.35,0 -0.526,-0.017 -1.019,-0.092 v -2.258 h 0.577 c 0.467,0 0.676,0.083 0.868,0.343 v -0.946 h -1.428 v -1.765 h 1.32 c 0.275,0 0.442,0.126 0.65,0.469 v -1.163 h -3.18 c 0.275,0.31 0.325,0.393 0.325,0.644 l -0.008,4.785 a 0.738,0.738 0 0 1 -0.084,0.284 c -0.058,0.11 -0.125,0.184 -0.309,0.318 z m -1.544,-6.566 0.843,-1.297 h -0.802 l -0.592,1.297 h 0.55 z m 9.542,0.56 v 1.037 c -0.083,-0.058 -0.142,-0.092 -0.192,-0.125 -0.342,-0.218 -0.81,-0.335 -1.327,-0.335 -1.47,0 -2.488,0.987 -2.488,2.418 0,0.652 0.217,1.23 0.626,1.656 0.468,0.494 1.277,0.828 1.97,0.828 0.752,0 1.512,-0.267 2.28,-0.811 l -0.685,1.338 c -0.76,0.117 -1.077,0.142 -1.544,0.142 a 4.733,4.733 0 0 1 -1.553,-0.234 c -1.178,-0.401 -1.962,-1.539 -1.962,-2.819 0,-0.97 0.425,-1.857 1.169,-2.46 0.667,-0.534 1.486,-0.777 2.613,-0.777 0.334,0 0.567,0.025 1.093,0.142 z m 1.528,6.006 h -1.745 c 0.26,-0.142 0.376,-0.217 0.476,-0.318 a 3.88,3.88 0 0 0 0.209,-0.284 l 1.962,-4.768 a 0.737,0.737 0 0 0 0.05,-0.243 c 0,-0.108 -0.05,-0.2 -0.2,-0.418 h 1.335 l 2.18,5.429 c 0.016,0.025 0.033,0.067 0.066,0.117 0.059,0.067 0.1,0.134 0.142,0.167 0.1,0.1 0.209,0.176 0.484,0.318 h -1.937 c 0.234,-0.15 0.31,-0.26 0.31,-0.426 a 0.557,0.557 0 0 0 -0.026,-0.176 l -0.668,-1.748 h -2.229 l -0.668,1.748 a 0.504,0.504 0 0 0 -0.025,0.167 c 0,0.184 0.059,0.276 0.284,0.435 z m 2.405,-2.961 -0.869,-2.3 -0.885,2.3 z m 1.169,-1.94 0.359,-1.13 h 4.525 l -0.376,1.205 a 1.084,1.084 0 0 0 -0.184,-0.235 c -0.183,-0.167 -0.534,-0.259 -0.985,-0.259 -0.125,0 -0.225,0.008 -0.46,0.034 v 4.684 c 0,0.017 0.01,0.058 0.026,0.117 a 0.985,0.985 0 0 0 0.058,0.167 c 0.05,0.1 0.142,0.184 0.326,0.318 h -1.678 c 0.175,-0.134 0.242,-0.217 0.284,-0.318 a 0.934,0.934 0 0 0 0.058,-0.167 c 0.008,-0.058 0.017,-0.092 0.017,-0.117 V 106.5 c -0.284,-0.025 -0.4,-0.025 -0.518,-0.025 -0.167,0 -0.309,0.017 -0.45,0.025 -0.401,0.033 -0.602,0.109 -1.002,0.376 z m 6.62,4.901 c -0.192,-0.134 -0.259,-0.217 -0.317,-0.318 a 0.887,0.887 0 0 1 -0.084,-0.284 v -2.342 h 3.173 v 2.342 c 0,0.075 -0.033,0.2 -0.084,0.284 -0.05,0.11 -0.125,0.184 -0.317,0.318 h 1.67 c -0.175,-0.134 -0.267,-0.217 -0.3,-0.318 -0.034,-0.05 -0.05,-0.108 -0.067,-0.167 a 0.69,0.69 0 0 1 -0.025,-0.117 v -4.785 c 0,-0.234 0.05,-0.326 0.367,-0.644 h -1.595 c 0.167,0.192 0.234,0.268 0.267,0.351 0.017,0.034 0.034,0.1 0.059,0.176 0.008,0.05 0.017,0.1 0.017,0.117 v 1.774 h -3.156 v -1.774 c 0,-0.033 0.016,-0.067 0.025,-0.117 a 0.946,0.946 0 0 1 0.05,-0.176 2.49,2.49 0 0 1 0.275,-0.35 h -1.603 c 0.318,0.317 0.376,0.409 0.376,0.643 v 4.785 c 0,0.008 -0.017,0.042 -0.025,0.117 a 1.89,1.89 0 0 1 -0.058,0.167 c -0.059,0.1 -0.126,0.184 -0.318,0.318 z m 4.5,-3.053 c 0,-1.84 1.32,-3.112 3.214,-3.112 1.87,0 3.14,1.28 3.14,3.154 0,1.915 -1.244,3.162 -3.156,3.162 -1.895,0 -3.198,-1.305 -3.198,-3.204 z m 0.935,-0.042 v 0.109 c 0,1.455 1.077,2.535 2.396,2.535 1.228,0 2.113,-1.021 2.113,-2.426 0,-1.48 -1.002,-2.627 -2.296,-2.627 -1.336,0 -2.213,0.962 -2.213,2.41 z m 9.543,3.095 h -3.657 c 0.175,-0.134 0.25,-0.217 0.3,-0.318 0.017,-0.033 0.034,-0.092 0.06,-0.167 0.007,-0.058 0.016,-0.092 0.016,-0.117 l 0.025,-4.776 c 0,-0.176 -0.009,-0.201 -0.059,-0.302 -0.033,-0.092 -0.1,-0.167 -0.242,-0.35 h 1.52 c -0.075,0.091 -0.134,0.15 -0.176,0.2 a 0.51,0.51 0 0 0 -0.1,0.15 l -0.05,0.184 -0.033,0.118 v 4.667 c 0.476,0.067 0.65,0.084 0.968,0.084 0.176,0 0.334,-0.009 0.501,-0.025 0.585,-0.059 0.827,-0.15 1.336,-0.502 l -0.41,1.154 z m 2.17,0 h -1.761 c 0.192,-0.134 0.267,-0.217 0.326,-0.318 0.016,-0.033 0.033,-0.1 0.058,-0.167 0.025,-0.058 0.025,-0.092 0.025,-0.117 l 0.017,-4.785 c 0,-0.167 0,-0.192 -0.059,-0.3 -0.05,-0.093 -0.117,-0.177 -0.284,-0.344 h 1.562 a 1.4,1.4 0 0 0 -0.276,0.343 0.963,0.963 0 0 0 -0.058,0.301 v 4.785 c 0,0.058 0.041,0.2 0.092,0.284 0.05,0.1 0.15,0.184 0.359,0.318 z m 5.51,-0.318 c 0.226,0.176 0.393,0.301 0.502,0.385 0.576,0.443 0.734,0.535 1.102,0.703 0.367,0.167 0.567,0.209 0.91,0.209 h 0.233 c -0.484,0.41 -0.768,0.544 -1.177,0.544 -0.459,0 -1.118,-0.293 -1.72,-0.753 a 17.958,17.958 0 0 0 -0.793,-0.61 0.415,0.415 0 0 0 -0.117,-0.051 9.44,9.44 0 0 1 -0.818,0.05 c -1.853,0 -3.18,-1.322 -3.18,-3.187 0,-1.89 1.302,-3.137 3.255,-3.137 1.854,0 3.131,1.288 3.131,3.17 0,0.728 -0.2,1.431 -0.576,1.983 -0.184,0.276 -0.35,0.427 -0.751,0.694 z m -1.76,-5.186 c -1.462,0 -2.313,0.904 -2.313,2.443 0,0.669 0.158,1.17 0.534,1.673 0.225,0.292 0.484,0.527 0.76,0.677 0.308,0.168 0.784,0.268 1.219,0.268 0.375,0 0.634,-0.084 0.985,-0.318 a 2.1,2.1 0 0 0 0.592,-0.552 c 0.268,-0.376 0.41,-0.912 0.41,-1.506 0,-1.556 -0.919,-2.685 -2.188,-2.685 z m 3.572,-0.527 h 1.645 c -0.275,0.234 -0.367,0.385 -0.367,0.627 v 3.388 c 0,0.327 0.05,0.56 0.158,0.77 0.217,0.393 0.794,0.66 1.428,0.66 0.994,0 1.561,-0.543 1.561,-1.505 v -3.33 c 0,-0.242 -0.083,-0.392 -0.317,-0.61 h 1.57 c -0.167,0.142 -0.243,0.218 -0.293,0.326 a 0.76,0.76 0 0 0 -0.075,0.285 v 4.801 c 0,0.26 0.092,0.385 0.426,0.62 h -1.32 v -0.494 c -0.417,0.401 -1.076,0.635 -1.852,0.635 -0.744,0 -1.445,-0.267 -1.82,-0.71 -0.318,-0.385 -0.376,-0.62 -0.376,-1.49 v -3.362 a 0.822,0.822 0 0 0 -0.075,-0.285 c -0.042,-0.1 -0.117,-0.184 -0.293,-0.326 z m 9.81,6.031 0.393,-1.163 c -0.51,0.385 -0.76,0.486 -1.378,0.536 -0.125,0.008 -0.25,0.008 -0.384,0.008 -0.35,0 -0.526,-0.017 -1.018,-0.092 v -2.258 h 0.576 c 0.467,0 0.676,0.083 0.868,0.343 v -0.946 h -1.428 v -1.765 h 1.32 c 0.275,0 0.442,0.126 0.65,0.469 v -1.163 h -3.18 c 0.275,0.31 0.325,0.393 0.325,0.644 l -0.008,4.785 a 0.738,0.738 0 0 1 -0.084,0.284 c -0.058,0.11 -0.125,0.184 -0.309,0.318 z m 2.98,-6.03 h 2.055 c 1.177,0 1.861,0.183 2.538,0.652 0.76,0.518 1.16,1.313 1.16,2.283 0,0.954 -0.384,1.815 -1.069,2.384 -0.609,0.519 -1.352,0.711 -2.63,0.711 h -2.045 c 0.175,-0.142 0.234,-0.226 0.276,-0.318 a 0.533,0.533 0 0 0 0.058,-0.175 c 0.017,-0.059 0.017,-0.092 0.017,-0.126 l 0.033,-4.768 a 0.763,0.763 0 0 0 -0.075,-0.3 c -0.05,-0.085 -0.117,-0.16 -0.317,-0.344 z m 1.278,0.727 v 4.567 c 0.342,0.067 0.484,0.075 0.827,0.075 0.926,0 1.586,-0.217 2.037,-0.669 0.4,-0.401 0.651,-1.087 0.651,-1.748 0,-1.464 -1.027,-2.3 -2.814,-2.3 -0.342,0 -0.417,0.008 -0.7,0.075 z m 8.6,5.303 0.392,-1.163 c -0.51,0.385 -0.76,0.486 -1.378,0.536 -0.125,0.008 -0.25,0.008 -0.384,0.008 -0.35,0 -0.526,-0.017 -1.018,-0.092 v -2.258 h 0.576 c 0.467,0 0.676,0.083 0.868,0.343 v -0.946 h -1.428 v -1.765 h 1.32 c 0.275,0 0.442,0.126 0.65,0.469 v -1.163 h -3.18 c 0.275,0.31 0.325,0.393 0.325,0.644 l -0.008,4.785 a 0.738,0.738 0 0 1 -0.083,0.284 c -0.059,0.11 -0.126,0.184 -0.31,0.318 h 3.657 z m 6.762,0 0.409,-1.154 c -0.51,0.351 -0.751,0.443 -1.336,0.502 a 4.899,4.899 0 0 1 -0.5,0.025 c -0.318,0 -0.493,-0.017 -0.97,-0.084 v -4.667 l 0.034,-0.118 0.05,-0.184 a 0.51,0.51 0 0 1 0.1,-0.15 c 0.042,-0.05 0.1,-0.109 0.176,-0.2 h -1.52 c 0.142,0.183 0.21,0.258 0.242,0.35 0.05,0.1 0.059,0.126 0.059,0.302 l -0.025,4.776 c 0,0.025 -0.008,0.058 -0.017,0.117 -0.025,0.075 -0.042,0.134 -0.058,0.167 -0.05,0.1 -0.126,0.184 -0.3,0.318 z m 2.17,0 c -0.208,-0.134 -0.308,-0.217 -0.358,-0.318 a 0.746,0.746 0 0 1 -0.092,-0.284 v -4.785 c 0,-0.083 0.025,-0.217 0.058,-0.3 0.05,-0.093 0.109,-0.177 0.276,-0.344 h -1.561 c 0.166,0.167 0.233,0.251 0.283,0.343 0.059,0.109 0.059,0.134 0.059,0.301 l -0.017,4.785 c 0,0.025 0,0.058 -0.025,0.117 -0.025,0.067 -0.042,0.134 -0.058,0.167 -0.059,0.1 -0.134,0.184 -0.326,0.318 h 1.762 z m 4.092,0 0.409,-1.154 c -0.51,0.351 -0.752,0.443 -1.336,0.502 a 4.899,4.899 0 0 1 -0.501,0.025 c -0.317,0 -0.493,-0.017 -0.969,-0.084 v -4.667 l 0.034,-0.118 0.05,-0.184 a 0.51,0.51 0 0 1 0.1,-0.15 c 0.042,-0.05 0.1,-0.109 0.175,-0.2 h -1.52 c 0.143,0.183 0.21,0.258 0.243,0.35 0.05,0.1 0.059,0.126 0.059,0.302 l -0.026,4.776 c 0,0.025 -0.008,0.058 -0.016,0.117 -0.025,0.075 -0.042,0.134 -0.059,0.167 -0.05,0.1 -0.125,0.184 -0.3,0.318 z m 4.074,0 0.409,-1.154 c -0.51,0.351 -0.752,0.443 -1.336,0.502 a 4.899,4.899 0 0 1 -0.5,0.025 c -0.318,0 -0.493,-0.017 -0.97,-0.084 v -4.667 l 0.034,-0.118 0.05,-0.184 a 0.51,0.51 0 0 1 0.1,-0.15 c 0.042,-0.05 0.1,-0.109 0.176,-0.2 h -1.52 c 0.142,0.183 0.209,0.258 0.242,0.35 0.05,0.1 0.059,0.126 0.059,0.302 l -0.025,4.776 c 0,0.025 -0.009,0.058 -0.017,0.117 -0.025,0.075 -0.042,0.134 -0.058,0.167 -0.05,0.1 -0.126,0.184 -0.301,0.318 z m 4.074,0 0.392,-1.163 c -0.509,0.385 -0.76,0.486 -1.377,0.536 -0.125,0.008 -0.25,0.008 -0.384,0.008 -0.35,0 -0.526,-0.017 -1.019,-0.092 v -2.258 h 0.576 c 0.468,0 0.677,0.083 0.869,0.343 v -0.946 h -1.428 v -1.765 h 1.319 c 0.276,0 0.442,0.126 0.651,0.469 v -1.163 h -3.18 c 0.275,0.31 0.325,0.393 0.325,0.644 l -0.008,4.785 a 0.738,0.738 0 0 1 -0.084,0.284 c -0.058,0.11 -0.125,0.184 -0.309,0.318 z"
       id="path26"
       inkscape:connector-curvature="0"
       style="fill:#676764" />
    <path
       d="M 215.63,96.974 H 1"
       id="path28"
       inkscape:connector-curvature="0"
       style="stroke:#676764;stroke-linecap:square" />
    <path
       d="m 1.37,112.15 2.95,-7.71 m 208.355,7.71 2.951,-7.71"
       id="path30"
       inkscape:connector-curvature="0"
       style="stroke:#9d9b9d;stroke-linecap:square" />
  </g>
</svg>
