<?xml version="1.0" encoding="UTF-8" standalone="no"?>
<!-- Created with Inkscape (http://www.inkscape.org/) -->

<svg
   xmlns:dc="http://purl.org/dc/elements/1.1/"
   xmlns:cc="http://creativecommons.org/ns#"
   xmlns:rdf="http://www.w3.org/1999/02/22-rdf-syntax-ns#"
   xmlns:svg="http://www.w3.org/2000/svg"
   xmlns="http://www.w3.org/2000/svg"
   xmlns:sodipodi="http://sodipodi.sourceforge.net/DTD/sodipodi-0.dtd"
   xmlns:inkscape="http://www.inkscape.org/namespaces/inkscape"
   version="1.1"
   id="svg2"
   xml:space="preserve"
   width="800"
   height="562.80585"
   viewBox="0 0 800.00001 562.80585"
   sodipodi:docname="MDP.svg"
   inkscape:version="0.92.3 (2405546, 2018-03-11)"><metadata
     id="metadata8"><rdf:RDF><cc:Work
         rdf:about=""><dc:format>image/svg+xml</dc:format><dc:type
           rdf:resource="http://purl.org/dc/dcmitype/StillImage" /><dc:title></dc:title></cc:Work></rdf:RDF></metadata><defs
     id="defs6" /><sodipodi:namedview
     pagecolor="#ffffff"
     bordercolor="#666666"
     borderopacity="1"
     objecttolerance="10"
     gridtolerance="10"
     guidetolerance="10"
     inkscape:pageopacity="0"
     inkscape:pageshadow="2"
     inkscape:window-width="1600"
     inkscape:window-height="836"
     id="namedview4"
     showgrid="false"
     inkscape:zoom="0.50466897"
     inkscape:cx="152.95956"
     inkscape:cy="88.01838"
     inkscape:window-x="0"
     inkscape:window-y="27"
     inkscape:window-maximized="1"
     inkscape:current-layer="g10"
     fit-margin-top="0"
     fit-margin-left="0"
     fit-margin-right="0"
     fit-margin-bottom="0" /><g
     id="g10"
     inkscape:groupmode="layer"
     inkscape:label="ink_ext_XXXXXX"
     transform="matrix(1.3333333,0,0,-1.3333333,-9.192301e-5,564.15389)"><g
       id="g12"
       transform="matrix(0.34410409,0,0,0.34410409,-1.6829088e-4,-2.4679501)"><path
         d="M 1095.12,876.961 C 697.27,913.988 1272.27,1364.38 1246.91,920"
         style="fill:none;stroke:#808080;stroke-width:0.80000001;stroke-linecap:butt;stroke-linejoin:miter;stroke-miterlimit:4;stroke-dasharray:none;stroke-opacity:1"
         id="path14"
         inkscape:connector-curvature="0" /><path
         d="m 1247.11,923.211 1.68,1.519 -1.91,-5.511 -1.29,5.703 z"
         style="fill:#808080;fill-opacity:1;fill-rule:evenodd;stroke:none"
         id="path16"
         inkscape:connector-curvature="0" /><path
         d="m 1247.11,923.207 1.68,1.52 -1.91,-5.508 -1.29,5.703 z"
         style="fill:none;stroke:#808080;stroke-width:0.40000001;stroke-linecap:butt;stroke-linejoin:miter;stroke-miterlimit:4;stroke-dasharray:none;stroke-opacity:1"
         id="path18"
         inkscape:connector-curvature="0" /><path
         d="M 91.6406,1018.4 C -3.78906,854.961 26.0898,284.73 104.57,196.371"
         style="fill:none;stroke:#808080;stroke-width:8;stroke-linecap:butt;stroke-linejoin:miter;stroke-miterlimit:4;stroke-dasharray:none;stroke-opacity:1"
         id="path20"
         inkscape:connector-curvature="0" /><path
         d="m 83.3203,220.309 1.3281,22.582 25.2306,-52.5 -49.1407,31.25 z"
         style="fill:#808080;fill-opacity:1;fill-rule:evenodd;stroke:none"
         id="path22"
         inkscape:connector-curvature="0" /><path
         d="m 83.3203,220.313 1.3242,22.578 25.2465,-52.496 -49.1488,31.242 z"
         style="fill:none;stroke:#808080;stroke-width:4;stroke-linecap:butt;stroke-linejoin:miter;stroke-miterlimit:4;stroke-dasharray:none;stroke-opacity:1"
         id="path24"
         inkscape:connector-curvature="0" /><path
         d="M 215.98,1004.18 C 221.602,728.051 340.82,457.66 501.68,351.102 657.93,247.539 963.91,205.898 1266.33,84.4883"
         style="fill:none;stroke:#808080;stroke-width:1.60000002;stroke-linecap:butt;stroke-linejoin:miter;stroke-miterlimit:4;stroke-dasharray:none;stroke-opacity:1"
         id="path26"
         inkscape:connector-curvature="0" /><path
         d="m 1260.39,86.8789 -1.8,4.1797 9.22,-7.1484 -11.6,1.2109 z"
         style="fill:#808080;fill-opacity:1;fill-rule:evenodd;stroke:none"
         id="path28"
         inkscape:connector-curvature="0" /><path
         d="m 1260.39,86.8828 -1.79,4.168 9.22,-7.1485 -11.61,1.2188 z"
         style="fill:none;stroke:#808080;stroke-width:0.80000001;stroke-linecap:butt;stroke-linejoin:miter;stroke-miterlimit:4;stroke-dasharray:none;stroke-opacity:1"
         id="path30"
         inkscape:connector-curvature="0" /><path
         d="m 305.781,1119.3 c 274.957,-90.59 453.91,-167.109 506.41,-478.32"
         style="fill:none;stroke:#808080;stroke-width:3.20000005;stroke-linecap:butt;stroke-linejoin:miter;stroke-miterlimit:4;stroke-dasharray:none;stroke-opacity:1"
         id="path32"
         inkscape:connector-curvature="0" /><path
         d="m 810.078,653.602 5.231,7.378 -2.579,-23.171 -10.031,21.062 z"
         style="fill:#808080;fill-opacity:1;fill-rule:evenodd;stroke:none"
         id="path34"
         inkscape:connector-curvature="0" /><path
         d="m 810.074,653.598 5.235,7.382 -2.575,-23.164 -10.039,21.055 z"
         style="fill:none;stroke:#808080;stroke-width:1.60000002;stroke-linecap:butt;stroke-linejoin:miter;stroke-miterlimit:4;stroke-dasharray:none;stroke-opacity:1"
         id="path36"
         inkscape:connector-curvature="0" /><path
         d="m 305.391,1117.89 c 144.839,8.91 235.429,22.74 177.308,89.14 -58.129,66.37 -238.398,1.49 -291.648,-37.85"
         style="fill:none;stroke:#808080;stroke-width:2.4000001;stroke-linecap:butt;stroke-linejoin:miter;stroke-miterlimit:4;stroke-dasharray:none;stroke-opacity:1"
         id="path38"
         inkscape:connector-curvature="0" /><path
         d="m 198.789,1174.88 6.723,-1.01 -16.371,-6.09 10.66,13.82 z"
         style="fill:#808080;fill-opacity:1;fill-rule:evenodd;stroke:none"
         id="path40"
         inkscape:connector-curvature="0" /><path
         d="m 198.785,1174.88 6.719,-1.02 -16.363,-6.09 10.664,13.83 z"
         style="fill:none;stroke:#808080;stroke-width:1.20000005;stroke-linecap:butt;stroke-linejoin:miter;stroke-miterlimit:4;stroke-dasharray:none;stroke-opacity:1"
         id="path42"
         inkscape:connector-curvature="0" /><path
         d="M 1110.66,882.621 C 626.09,979.852 441.211,1038.21 216.051,1105.43"
         style="fill:none;stroke:#808080;stroke-width:3.20000005;stroke-linecap:butt;stroke-linejoin:miter;stroke-miterlimit:4;stroke-dasharray:none;stroke-opacity:1"
         id="path44"
         inkscape:connector-curvature="0" /><path
         d="m 228.32,1101.76 4.301,-7.97 -19.609,12.54 23.277,-0.27 z"
         style="fill:#808080;fill-opacity:1;fill-rule:evenodd;stroke:none"
         id="path46"
         inkscape:connector-curvature="0" /><path
         d="m 228.32,1101.76 4.297,-7.97 -19.605,12.54 23.281,-0.27 z"
         style="fill:none;stroke:#808080;stroke-width:1.60000002;stroke-linecap:butt;stroke-linejoin:miter;stroke-miterlimit:4;stroke-dasharray:none;stroke-opacity:1"
         id="path48"
         inkscape:connector-curvature="0" /><path
         d="m 1336.64,195.98 c -7.07,187.649 -144.1,305.821 -254.88,223.899 -110.819,-81.91 -234.1,-16.09 -259.42,104.93"
         style="fill:none;stroke:#808080;stroke-width:2.4000001;stroke-linecap:butt;stroke-linejoin:miter;stroke-miterlimit:4;stroke-dasharray:none;stroke-opacity:1"
         id="path50"
         inkscape:connector-curvature="0" /><path
         d="m 824.301,515.43 -3.711,-5.7 1.25,17.418 8.121,-15.429 z"
         style="fill:#808080;fill-opacity:1;fill-rule:evenodd;stroke:none"
         id="path52"
         inkscape:connector-curvature="0" /><path
         d="m 824.293,515.434 -3.703,-5.704 1.246,17.422 8.129,-15.429 z"
         style="fill:none;stroke:#808080;stroke-width:1.20000005;stroke-linecap:butt;stroke-linejoin:miter;stroke-miterlimit:4;stroke-dasharray:none;stroke-opacity:1"
         id="path54"
         inkscape:connector-curvature="0" /><path
         d="m 1337.7,194.77 -76.18,611.761"
         style="fill:none;stroke:#808080;stroke-width:5.5999999;stroke-linecap:butt;stroke-linejoin:miter;stroke-miterlimit:4;stroke-dasharray:none;stroke-opacity:1"
         id="path56"
         inkscape:connector-curvature="0" /><path
         d="m 1264.3,784.301 -9.73,-12.5 6.25,40.269 15.98,-37.5 z"
         style="fill:#808080;fill-opacity:1;fill-rule:evenodd;stroke:none"
         id="path58"
         inkscape:connector-curvature="0" /><path
         d="m 1264.3,784.301 -9.73,-12.504 6.25,40.281 15.98,-37.504 z"
         style="fill:none;stroke:#808080;stroke-width:2.79999995;stroke-linecap:butt;stroke-linejoin:miter;stroke-miterlimit:4;stroke-dasharray:none;stroke-opacity:1"
         id="path60"
         inkscape:connector-curvature="0" /><path
         d="M 265.43,175.98 C 687.191,189.73 938.551,150.039 1261.25,64.3398"
         style="fill:none;stroke:#808080;stroke-width:8;stroke-linecap:butt;stroke-linejoin:miter;stroke-miterlimit:4;stroke-dasharray:none;stroke-opacity:1"
         id="path62"
         inkscape:connector-curvature="0" /><path
         d="m 1230.31,72.5781 -11.36,19.5703 50.03,-29.8398 -58.24,-1.0977 z"
         style="fill:#808080;fill-opacity:1;fill-rule:evenodd;stroke:none"
         id="path64"
         inkscape:connector-curvature="0" /><path
         d="m 1230.32,72.5781 -11.38,19.5703 50.05,-29.8398 -58.25,-1.0938 z"
         style="fill:none;stroke:#808080;stroke-width:4;stroke-linecap:butt;stroke-linejoin:miter;stroke-miterlimit:4;stroke-dasharray:none;stroke-opacity:1"
         id="path66"
         inkscape:connector-curvature="0" /><path
         d="M 209.379,1014.49 C 257.969,543.129 423.441,370.59 187.301,214.648"
         style="fill:none;stroke:#808080;stroke-width:6.4000001;stroke-linecap:butt;stroke-linejoin:miter;stroke-miterlimit:4;stroke-dasharray:none;stroke-opacity:1"
         id="path68"
         inkscape:connector-curvature="0" /><path
         d="m 208.672,228.75 17.738,-3.629 -44.422,-14.019 30.313,35.386 z"
         style="fill:#808080;fill-opacity:1;fill-rule:evenodd;stroke:none"
         id="path70"
         inkscape:connector-curvature="0" /><path
         d="M 208.668,228.754 226.41,225.121 182,211.098 212.313,246.484 Z"
         style="fill:none;stroke:#808080;stroke-width:3.20000005;stroke-linecap:butt;stroke-linejoin:miter;stroke-miterlimit:4;stroke-dasharray:none;stroke-opacity:1"
         id="path72"
         inkscape:connector-curvature="0" /><path
         d="M 917.422,572.422 C 1143.24,540.309 1152.03,259.219 1285.43,103.602"
         style="fill:none;stroke:#808080;stroke-width:4;stroke-linecap:butt;stroke-linejoin:miter;stroke-miterlimit:4;stroke-dasharray:none;stroke-opacity:1"
         id="path74"
         inkscape:connector-curvature="0" /><path
         d="m 1275,115.738 0.9,11.293 12.15,-26.48 -24.3,16.051 z"
         style="fill:#808080;fill-opacity:1;fill-rule:evenodd;stroke:none"
         id="path76"
         inkscape:connector-curvature="0" /><path
         d="m 1275,115.742 0.9,11.289 12.15,-26.48 -24.3,16.047 z"
         style="fill:none;stroke:#808080;stroke-width:2;stroke-linecap:butt;stroke-linejoin:miter;stroke-miterlimit:4;stroke-dasharray:none;stroke-opacity:1"
         id="path78"
         inkscape:connector-curvature="0" /><path
         d="m 926.172,569.059 c 226.058,13.722 250.428,110.363 300.508,239.73"
         style="fill:none;stroke:#808080;stroke-width:4;stroke-linecap:butt;stroke-linejoin:miter;stroke-miterlimit:4;stroke-dasharray:none;stroke-opacity:1"
         id="path80"
         inkscape:connector-curvature="0" /><path
         d="m 1220.9,793.871 -10.35,-4.57 17.57,23.238 -2.65,-29.019 z"
         style="fill:#808080;fill-opacity:1;fill-rule:evenodd;stroke:none"
         id="path82"
         inkscape:connector-curvature="0" /><path
         d="m 1220.9,793.863 -10.36,-4.566 17.59,23.238 -2.66,-29.015 z"
         style="fill:none;stroke:#808080;stroke-width:2;stroke-linecap:butt;stroke-linejoin:miter;stroke-miterlimit:4;stroke-dasharray:none;stroke-opacity:1"
         id="path84"
         inkscape:connector-curvature="0" /><path
         d="m 305.738,1118.48 c 361.684,-48.79 701.762,69.76 911.922,-204.609"
         style="fill:none;stroke:#808080;stroke-width:2.4000001;stroke-linecap:butt;stroke-linejoin:miter;stroke-miterlimit:4;stroke-dasharray:none;stroke-opacity:1"
         id="path86"
         inkscape:connector-curvature="0" /><path
         d="m 1211.8,921.488 0.9,6.723 6.4,-16.25 -14.02,10.418 z"
         style="fill:#808080;fill-opacity:1;fill-rule:evenodd;stroke:none"
         id="path88"
         inkscape:connector-curvature="0" /><path
         d="m 1211.8,921.48 0.89,6.727 6.42,-16.25 -14.03,10.422 z"
         style="fill:none;stroke:#808080;stroke-width:1.20000005;stroke-linecap:butt;stroke-linejoin:miter;stroke-miterlimit:4;stroke-dasharray:none;stroke-opacity:1"
         id="path90"
         inkscape:connector-curvature="0" /><path
         d="M 1109.34,879.18 C 837.34,958.32 849.691,719.531 825.309,640.941"
         style="fill:none;stroke:#808080;stroke-width:4.80000019;stroke-linecap:butt;stroke-linejoin:miter;stroke-miterlimit:4;stroke-dasharray:none;stroke-opacity:1"
         id="path92"
         inkscape:connector-curvature="0" /><path
         d="m 831.02,659.301 11.992,6.328 -19.102,-29.258 0.781,34.918 z"
         style="fill:#808080;fill-opacity:1;fill-rule:evenodd;stroke:none"
         id="path94"
         inkscape:connector-curvature="0" /><path
         d="m 831.016,659.301 11.992,6.332 -19.102,-29.262 0.785,34.918 z"
         style="fill:none;stroke:#808080;stroke-width:2.4000001;stroke-linecap:butt;stroke-linejoin:miter;stroke-miterlimit:4;stroke-dasharray:none;stroke-opacity:1"
         id="path96"
         inkscape:connector-curvature="0" /><path
         d="M 744.801,488.672 C 572.77,325.738 466.289,283.559 197.301,198.051"
         style="fill:none;stroke:#808080;stroke-width:1.60000002;stroke-linecap:butt;stroke-linejoin:miter;stroke-miterlimit:4;stroke-dasharray:none;stroke-opacity:1"
         id="path98"
         inkscape:connector-curvature="0" /><path
         d="m 203.441,200 4.02,-2.109 -11.68,-0.313 9.731,6.453 z"
         style="fill:#808080;fill-opacity:1;fill-rule:evenodd;stroke:none"
         id="path100"
         inkscape:connector-curvature="0" /><path
         d="m 203.434,200.004 4.027,-2.113 -11.684,-0.309 9.735,6.441 z"
         style="fill:none;stroke:#808080;stroke-width:0.80000001;stroke-linecap:butt;stroke-linejoin:miter;stroke-miterlimit:4;stroke-dasharray:none;stroke-opacity:1"
         id="path102"
         inkscape:connector-curvature="0" /><path
         d="M 734.57,468.91 C 420.738,304.488 451.02,659.059 741.602,587.461"
         style="fill:none;stroke:#808080;stroke-width:6.4000001;stroke-linecap:butt;stroke-linejoin:miter;stroke-miterlimit:4;stroke-dasharray:none;stroke-opacity:1"
         id="path104"
         inkscape:connector-curvature="0" /><path
         d="m 716.762,593.602 -9.383,15.457 40.43,-23.118 -46.559,-1.722 z"
         style="fill:#808080;fill-opacity:1;fill-rule:evenodd;stroke:none"
         id="path106"
         inkscape:connector-curvature="0" /><path
         d="m 716.754,593.594 -9.371,15.472 40.43,-23.128 -46.567,-1.719 z"
         style="fill:none;stroke:#808080;stroke-width:3.20000005;stroke-linecap:butt;stroke-linejoin:miter;stroke-miterlimit:4;stroke-dasharray:none;stroke-opacity:1"
         id="path108"
         inkscape:connector-curvature="0" /><path
         d="m 755.66,672.379 c -183.711,214.93 -84.879,278.012 39.34,339.151 135.27,66.56 315.31,189.18 435.66,-93.909"
         style="fill:none;stroke:#808080;stroke-width:0.80000001;stroke-linecap:butt;stroke-linejoin:miter;stroke-miterlimit:4;stroke-dasharray:none;stroke-opacity:1"
         id="path110"
         inkscape:connector-curvature="0" /><path
         d="m 1229.41,920.551 0.82,2.109 0.75,-5.781 -3.68,4.531 z"
         style="fill:#808080;fill-opacity:1;fill-rule:evenodd;stroke:none"
         id="path112"
         inkscape:connector-curvature="0" /><path
         d="m 1229.42,920.547 0.81,2.117 0.75,-5.789 -3.68,4.531 z"
         style="fill:none;stroke:#808080;stroke-width:0.40000001;stroke-linecap:butt;stroke-linejoin:miter;stroke-miterlimit:4;stroke-dasharray:none;stroke-opacity:1"
         id="path114"
         inkscape:connector-curvature="0" /><path
         d="m 149.449,304.531 c 10.629,250.16 7.742,541.489 6.531,749.499"
         style="fill:none;stroke:#808080;stroke-width:8;stroke-linecap:butt;stroke-linejoin:miter;stroke-miterlimit:4;stroke-dasharray:none;stroke-opacity:1"
         id="path116"
         inkscape:connector-curvature="0" /><path
         d="m 156.172,1022.03 -15.902,-16.09 15.671,56.09 16.329,-55.9 z"
         style="fill:#808080;fill-opacity:1;fill-rule:evenodd;stroke:none"
         id="path118"
         inkscape:connector-curvature="0" /><path
         d="m 156.172,1022.03 -15.899,-16.09 15.661,56.09 16.332,-55.9 z"
         style="fill:none;stroke:#808080;stroke-width:4;stroke-linecap:butt;stroke-linejoin:miter;stroke-miterlimit:4;stroke-dasharray:none;stroke-opacity:1"
         id="path120"
         inkscape:connector-curvature="0" /><path
         d="m 1307.7,158.281 h 57.1914 v 57.1875 H 1307.7 Z"
         style="fill:#206060;fill-opacity:1;fill-rule:nonzero;stroke:none"
         id="path122"
         inkscape:connector-curvature="0" /><path
         d="m 1321.64,63.2109 8.83,109.4881"
         style="fill:none;stroke:#206060;stroke-width:8;stroke-linecap:butt;stroke-linejoin:miter;stroke-miterlimit:4;stroke-dasharray:none;stroke-opacity:1"
         id="path124"
         inkscape:connector-curvature="0" /><path
         d="m 1367.54,62.9297 c 0,-27.1484 -21.99,-49.1797 -49.18,-49.1797 -27.15,0 -49.18,22.0313 -49.18,49.1797 0,27.1914 22.03,49.1793 49.18,49.1793 27.19,0 49.18,-21.9879 49.18,-49.1793 z"
         style="fill:#80c4c4;fill-opacity:1;fill-rule:nonzero;stroke:none"
         id="path126"
         inkscape:connector-curvature="0" /><g
         id="g128"
         transform="scale(1.09302,-0.906977)"><path
           d="m 1251.15,-69.3883 c 0,29.9329 -20.11,54.2237 -44.99,54.2237 -24.84,0 -45,-24.2908 -45,-54.2237 0,-29.9717 20.16,-54.2277 45,-54.2277 24.88,0 44.99,24.256 44.99,54.2277 z"
           style="fill:none;stroke:#206060;stroke-width:8.03483963;stroke-linecap:round;stroke-linejoin:miter;stroke-miterlimit:4;stroke-dasharray:none;stroke-opacity:1"
           id="path130"
           inkscape:connector-curvature="0" /></g><g
         id="g132"
         transform="scale(10)"><text
   transform="matrix(1,0,0,-1,130.686,17.3574)"
   style="font-variant:normal;font-weight:normal;font-size:6.4000001px;font-family:'DejaVu Sans';-inkscape-font-specification:DejaVuSans;writing-mode:lr-tb;fill:#ffffff;fill-opacity:1;fill-rule:nonzero;stroke:none"
   id="text136"><tspan
     x="0"
     y="0"
     id="tspan134">a</tspan></text>

<text
   transform="matrix(1,0,0,-1,134.611,16.397244)"
   style="font-variant:normal;font-weight:normal;font-size:3.20000005px;font-family:'DejaVu Sans';-inkscape-font-specification:DejaVuSans;writing-mode:lr-tb;fill:#ffffff;fill-opacity:1;fill-rule:nonzero;stroke:none"
   id="text140"><tspan
     x="0"
     y="0"
     id="tspan138">2</tspan></text>

</g><path
         d="m 1075.43,850.23 h 57.1914 v 57.1914 H 1075.43 Z"
         style="fill:#206060;fill-opacity:1;fill-rule:nonzero;stroke:none"
         id="path142"
         inkscape:connector-curvature="0" /><path
         d="m 1111.09,873.211 133.87,-18.68"
         style="fill:none;stroke:#206060;stroke-width:8;stroke-linecap:butt;stroke-linejoin:miter;stroke-miterlimit:4;stroke-dasharray:none;stroke-opacity:1"
         id="path144"
         inkscape:connector-curvature="0" /><g
         id="g146"
         transform="scale(10)"><text
   transform="matrix(1,0,0,-1,107.401,86.6258)"
   style="font-variant:normal;font-weight:normal;font-size:6.4000001px;font-family:'DejaVu Sans';-inkscape-font-specification:DejaVuSans;writing-mode:lr-tb;fill:#ffffff;fill-opacity:1;fill-rule:nonzero;stroke:none"
   id="text150"><tspan
     x="0"
     y="0"
     id="tspan148">a</tspan></text>

<text
   transform="matrix(1,0,0,-1,111.326,85.666034)"
   style="font-variant:normal;font-weight:normal;font-size:3.20000005px;font-family:'DejaVu Sans';-inkscape-font-specification:DejaVuSans;writing-mode:lr-tb;fill:#ffffff;fill-opacity:1;fill-rule:nonzero;stroke:none"
   id="text154"><tspan
     x="0"
     y="0"
     id="tspan152">3</tspan></text>

</g><path
         d="m 186.949,981.449 h 57.1914 v 57.1523 H 186.949 Z"
         style="fill:#206060;fill-opacity:1;fill-rule:nonzero;stroke:none"
         id="path156"
         inkscape:connector-curvature="0" /><path
         d="m 269.531,1090.47 h 57.1484 v 57.1523 H 269.531 Z"
         style="fill:#206060;fill-opacity:1;fill-rule:nonzero;stroke:none"
         id="path158"
         inkscape:connector-curvature="0" /><path
         d="m 66.8398,990.309 h 57.1484 v 57.1523 H 66.8398 Z"
         style="fill:#206060;fill-opacity:1;fill-rule:nonzero;stroke:none"
         id="path160"
         inkscape:connector-curvature="0" /><path
         d="m 178.629,1112.23 -65.078,-72.19"
         style="fill:none;stroke:#206060;stroke-width:8;stroke-linecap:butt;stroke-linejoin:miter;stroke-miterlimit:4;stroke-dasharray:none;stroke-opacity:1"
         id="path162"
         inkscape:connector-curvature="0" /><path
         d="m 168.48,1119.57 130.309,1.37"
         style="fill:none;stroke:#206060;stroke-width:8;stroke-linecap:butt;stroke-linejoin:miter;stroke-miterlimit:4;stroke-dasharray:none;stroke-opacity:1"
         id="path164"
         inkscape:connector-curvature="0" /><g
         id="g166"
         transform="scale(10)"><text
   transform="matrix(1,0,0,-1,6.61172,100.708)"
   style="font-variant:normal;font-weight:normal;font-size:6.4000001px;font-family:'DejaVu Sans';-inkscape-font-specification:DejaVuSans;writing-mode:lr-tb;fill:#ffffff;fill-opacity:1;fill-rule:nonzero;stroke:none"
   id="text170"><tspan
     x="0"
     y="0"
     id="tspan168">a</tspan></text>

<text
   transform="matrix(1,0,0,-1,10.53672,99.747844)"
   style="font-variant:normal;font-weight:normal;font-size:3.20000005px;font-family:'DejaVu Sans';-inkscape-font-specification:DejaVuSans;writing-mode:lr-tb;fill:#ffffff;fill-opacity:1;fill-rule:nonzero;stroke:none"
   id="text174"><tspan
     x="0"
     y="0"
     id="tspan172">1</tspan></text>

<text
   transform="matrix(1,0,0,-1,26.85272,110.58654)"
   style="font-variant:normal;font-weight:normal;font-size:6.4000001px;font-family:'DejaVu Sans';-inkscape-font-specification:DejaVuSans;writing-mode:lr-tb;fill:#ffffff;fill-opacity:1;fill-rule:nonzero;stroke:none"
   id="text178"><tspan
     x="0"
     y="0"
     id="tspan176">a</tspan></text>

<text
   transform="matrix(1,0,0,-1,30.77772,109.62678)"
   style="font-variant:normal;font-weight:normal;font-size:3.20000005px;font-family:'DejaVu Sans';-inkscape-font-specification:DejaVuSans;writing-mode:lr-tb;fill:#ffffff;fill-opacity:1;fill-rule:nonzero;stroke:none"
   id="text182"><tspan
     x="0"
     y="0"
     id="tspan180">3</tspan></text>

</g><path
         d="m 234.488,147.301 h 57.1523 v 57.1875 H 234.488 Z"
         style="fill:#206060;fill-opacity:1;fill-rule:nonzero;stroke:none"
         id="path184"
         inkscape:connector-curvature="0" /><path
         d="m 119.262,273.09 h 57.1875 v 57.1914 H 119.262 Z"
         style="fill:#206060;fill-opacity:1;fill-rule:nonzero;stroke:none"
         id="path186"
         inkscape:connector-curvature="0" /><path
         d="m 149.18,290.551 -3.399,-115.43 116.059,2.027"
         style="fill:none;stroke:#206060;stroke-width:8;stroke-linecap:butt;stroke-linejoin:miter;stroke-miterlimit:4;stroke-dasharray:none;stroke-opacity:1"
         id="path188"
         inkscape:connector-curvature="0" /><path
         d="m 197.07,172.07 c 0,-27.148 -22.031,-49.179 -49.179,-49.179 -27.153,0 -49.1801,22.031 -49.1801,49.179 0,27.149 22.0271,49.18 49.1801,49.18 27.148,0 49.179,-22.031 49.179,-49.18 z"
         style="fill:#80c4c4;fill-opacity:1;fill-rule:nonzero;stroke:none"
         id="path190"
         inkscape:connector-curvature="0" /><g
         id="g192"
         transform="scale(1.09302,-0.906977)"><path
           d="m 180.298,-189.723 c 0,29.933 -20.156,54.224 -44.994,54.224 -24.841,0 -44.994,-24.291 -44.994,-54.224 0,-29.928 20.153,-54.219 44.994,-54.219 24.838,0 44.994,24.291 44.994,54.219 z"
           style="fill:none;stroke:#206060;stroke-width:8.03483963;stroke-linecap:round;stroke-linejoin:miter;stroke-miterlimit:4;stroke-dasharray:none;stroke-opacity:1"
           id="path194"
           inkscape:connector-curvature="0" /></g><g
         id="g196"
         transform="scale(10)"><text
   transform="matrix(1,0,0,-1,11.8277,28.7402)"
   style="font-variant:normal;font-weight:normal;font-size:6.4000001px;font-family:'DejaVu Sans';-inkscape-font-specification:DejaVuSans;writing-mode:lr-tb;fill:#ffffff;fill-opacity:1;fill-rule:nonzero;stroke:none"
   id="text200"><tspan
     x="0"
     y="0"
     id="tspan198">a</tspan></text>

<text
   transform="matrix(1,0,0,-1,15.7527,27.780044)"
   style="font-variant:normal;font-weight:normal;font-size:3.20000005px;font-family:'DejaVu Sans';-inkscape-font-specification:DejaVuSans;writing-mode:lr-tb;fill:#ffffff;fill-opacity:1;fill-rule:nonzero;stroke:none"
   id="text204"><tspan
     x="0"
     y="0"
     id="tspan202">4</tspan></text>

<text
   transform="matrix(1,0,0,-1,23.29333,16.333544)"
   style="font-variant:normal;font-weight:normal;font-size:6.4000001px;font-family:'DejaVu Sans';-inkscape-font-specification:DejaVuSans;writing-mode:lr-tb;fill:#ffffff;fill-opacity:1;fill-rule:nonzero;stroke:none"
   id="text208"><tspan
     x="0"
     y="0"
     id="tspan206">a</tspan></text>

<text
   transform="matrix(1,0,0,-1,27.21833,15.373778)"
   style="font-variant:normal;font-weight:normal;font-size:3.20000005px;font-family:'DejaVu Sans';-inkscape-font-specification:DejaVuSans;writing-mode:lr-tb;fill:#ffffff;fill-opacity:1;fill-rule:nonzero;stroke:none"
   id="text212"><tspan
     x="0"
     y="0"
     id="tspan210">2</tspan></text>

</g><path
         d="M 746.762,676.211 C 619.57,899.609 396.762,1011.6 209.449,1096.21"
         style="fill:none;stroke:#808080;stroke-width:7.19999981;stroke-linecap:butt;stroke-linejoin:miter;stroke-miterlimit:4;stroke-dasharray:none;stroke-opacity:1"
         id="path214"
         inkscape:connector-curvature="0" /><path
         d="m 235.699,1084.34 7.192,-19.06 -40,33.86 51.879,-7.61 z"
         style="fill:#808080;fill-opacity:1;fill-rule:evenodd;stroke:none"
         id="path216"
         inkscape:connector-curvature="0" /><path
         d="m 235.703,1084.34 7.184,-19.07 -39.996,33.88 51.879,-7.63 z"
         style="fill:none;stroke:#808080;stroke-width:3.5999999;stroke-linecap:butt;stroke-linejoin:miter;stroke-miterlimit:4;stroke-dasharray:none;stroke-opacity:1"
         id="path218"
         inkscape:connector-curvature="0" /><path
         d="m 171.949,1118.4 33.563,-103.09"
         style="fill:none;stroke:#206060;stroke-width:8;stroke-linecap:butt;stroke-linejoin:miter;stroke-miterlimit:4;stroke-dasharray:none;stroke-opacity:1"
         id="path220"
         inkscape:connector-curvature="0" /><path
         d="m 212.93,1119.03 c 0,-27.15 -22.032,-49.18 -49.18,-49.18 -27.148,0 -49.18,22.03 -49.18,49.18 0,27.18 22.032,49.18 49.18,49.18 27.148,0 49.18,-22 49.18,-49.18 z"
         style="fill:#80c4c4;fill-opacity:1;fill-rule:nonzero;stroke:none"
         id="path222"
         inkscape:connector-curvature="0" /><g
         id="g224"
         transform="scale(1.09302,-0.906977)"><path
           d="m 194.808,-1233.8 c 0,29.93 -20.156,54.22 -44.994,54.22 -24.838,0 -44.994,-24.29 -44.994,-54.22 0,-29.97 20.156,-54.22 44.994,-54.22 24.838,0 44.994,24.25 44.994,54.22 z"
           style="fill:none;stroke:#206060;stroke-width:8.03483963;stroke-linecap:round;stroke-linejoin:miter;stroke-miterlimit:4;stroke-dasharray:none;stroke-opacity:1"
           id="path226"
           inkscape:connector-curvature="0" /></g><g
         id="g228"
         transform="scale(10)"><text
   transform="matrix(1,0,0,-1,18.6598,99.7273)"
   style="font-variant:normal;font-weight:normal;font-size:6.4000001px;font-family:'DejaVu Sans';-inkscape-font-specification:DejaVuSans;writing-mode:lr-tb;fill:#ffffff;fill-opacity:1;fill-rule:nonzero;stroke:none"
   id="text232"><tspan
     x="0"
     y="0"
     id="tspan230">a</tspan></text>

<text
   transform="matrix(1,0,0,-1,22.5848,98.767144)"
   style="font-variant:normal;font-weight:normal;font-size:3.20000005px;font-family:'DejaVu Sans';-inkscape-font-specification:DejaVuSans;writing-mode:lr-tb;fill:#ffffff;fill-opacity:1;fill-rule:nonzero;stroke:none"
   id="text236"><tspan
     x="0"
     y="0"
     id="tspan234">2</tspan></text>

</g><path
         d="m 712.77,456.762 h 57.1914 v 57.1484 H 712.77 Z"
         style="fill:#206060;fill-opacity:1;fill-rule:nonzero;stroke:none"
         id="path238"
         inkscape:connector-curvature="0" /><path
         d="m 878.98,551.801 h 57.1484 v 57.1484 H 878.98 Z"
         style="fill:#206060;fill-opacity:1;fill-rule:nonzero;stroke:none"
         id="path240"
         inkscape:connector-curvature="0" /><path
         d="m 721.289,645.82 h 57.2305 v 57.1914 H 721.289 Z"
         style="fill:#206060;fill-opacity:1;fill-rule:nonzero;stroke:none"
         id="path242"
         inkscape:connector-curvature="0" /><path
         d="m 739.691,480.309 63.118,99.113 -59.02,103.816"
         style="fill:none;stroke:#206060;stroke-width:8;stroke-linecap:butt;stroke-linejoin:miter;stroke-miterlimit:4;stroke-dasharray:none;stroke-opacity:1"
         id="path244"
         inkscape:connector-curvature="0" /><path
         d="M 912.77,580.738 804.18,579.422"
         style="fill:none;stroke:#206060;stroke-width:8;stroke-linecap:butt;stroke-linejoin:miter;stroke-miterlimit:4;stroke-dasharray:none;stroke-opacity:1"
         id="path246"
         inkscape:connector-curvature="0" /><path
         d="m 853.09,580.352 c 0,-27.141 -22.039,-49.18 -49.18,-49.18 -27.148,0 -49.18,22.039 -49.18,49.18 0,27.187 22.032,49.218 49.18,49.218 27.141,0 49.18,-22.031 49.18,-49.218 z"
         style="fill:#80c4c4;fill-opacity:1;fill-rule:nonzero;stroke:none"
         id="path248"
         inkscape:connector-curvature="0" /><g
         id="g250"
         transform="scale(1.09302,-0.906977)"><path
           d="m 780.486,-639.879 c 0,29.933 -20.163,54.224 -44.994,54.224 -24.838,0 -44.994,-24.291 -44.994,-54.224 0,-29.972 20.156,-54.263 44.994,-54.263 24.831,0 44.994,24.291 44.994,54.263 z"
           style="fill:none;stroke:#206060;stroke-width:8.03483963;stroke-linecap:round;stroke-linejoin:miter;stroke-miterlimit:4;stroke-dasharray:none;stroke-opacity:1"
           id="path252"
           inkscape:connector-curvature="0" /></g><g
         id="g254"
         transform="scale(10)"><text
   transform="matrix(1,0,0,-1,77.6242,56.9078)"
   style="font-variant:normal;font-weight:normal;font-size:6.4000001px;font-family:'DejaVu Sans';-inkscape-font-specification:DejaVuSans;writing-mode:lr-tb;fill:#000000;fill-opacity:1;fill-rule:nonzero;stroke:none"
   id="text258"><tspan
     x="0"
     y="0"
     id="tspan256">s</tspan></text>

<text
   transform="matrix(1,0,0,-1,80.9617,55.62772)"
   style="font-variant:normal;font-weight:normal;font-size:3.32803011px;font-family:'DejaVu Sans';-inkscape-font-specification:DejaVuSans;writing-mode:lr-tb;fill:#000000;fill-opacity:1;fill-rule:nonzero;stroke:none"
   id="text262"><tspan
     x="0"
     y="0"
     id="tspan260">3</tspan></text>

</g><g
         id="g264"
         transform="scale(10)"><text
   transform="matrix(1,0,0,-1,71.2227,46.984)"
   style="font-variant:normal;font-weight:normal;font-size:6.4000001px;font-family:'DejaVu Sans';-inkscape-font-specification:DejaVuSans;writing-mode:lr-tb;fill:#ffffff;fill-opacity:1;fill-rule:nonzero;stroke:none"
   id="text268"><tspan
     x="0"
     y="0"
     id="tspan266">a</tspan></text>

<text
   transform="matrix(1,0,0,-1,75.1477,46.023844)"
   style="font-variant:normal;font-weight:normal;font-size:3.20000005px;font-family:'DejaVu Sans';-inkscape-font-specification:DejaVuSans;writing-mode:lr-tb;fill:#ffffff;fill-opacity:1;fill-rule:nonzero;stroke:none"
   id="text272"><tspan
     x="0"
     y="0"
     id="tspan270">4</tspan></text>

<text
   transform="matrix(1,0,0,-1,71.95708,66.070744)"
   style="font-variant:normal;font-weight:normal;font-size:6.4000001px;font-family:'DejaVu Sans';-inkscape-font-specification:DejaVuSans;writing-mode:lr-tb;fill:#ffffff;fill-opacity:1;fill-rule:nonzero;stroke:none"
   id="text276"><tspan
     x="0"
     y="0"
     id="tspan274">a</tspan></text>

<text
   transform="matrix(1,0,0,-1,75.88208,65.110978)"
   style="font-variant:normal;font-weight:normal;font-size:3.20000005px;font-family:'DejaVu Sans';-inkscape-font-specification:DejaVuSans;writing-mode:lr-tb;fill:#ffffff;fill-opacity:1;fill-rule:nonzero;stroke:none"
   id="text280"><tspan
     x="0"
     y="0"
     id="tspan278">2</tspan></text>

<text
   transform="matrix(1,0,0,-1,87.79258,56.632458)"
   style="font-variant:normal;font-weight:normal;font-size:6.4000001px;font-family:'DejaVu Sans';-inkscape-font-specification:DejaVuSans;writing-mode:lr-tb;fill:#ffffff;fill-opacity:1;fill-rule:nonzero;stroke:none"
   id="text284"><tspan
     x="0"
     y="0"
     id="tspan282">a</tspan></text>

<text
   transform="matrix(1,0,0,-1,91.71758,55.672302)"
   style="font-variant:normal;font-weight:normal;font-size:3.20000005px;font-family:'DejaVu Sans';-inkscape-font-specification:DejaVuSans;writing-mode:lr-tb;fill:#ffffff;fill-opacity:1;fill-rule:nonzero;stroke:none"
   id="text288"><tspan
     x="0"
     y="0"
     id="tspan286">3</tspan></text>

</g><g
         id="g290"
         transform="scale(10)"><text
   transform="matrix(1,0,0,-1,13.6094,110.773)"
   style="font-variant:normal;font-weight:normal;font-size:6.4000001px;font-family:'DejaVu Sans';-inkscape-font-specification:DejaVuSans;writing-mode:lr-tb;fill:#000000;fill-opacity:1;fill-rule:nonzero;stroke:none"
   id="text294"><tspan
     x="0"
     y="0"
     id="tspan292">s</tspan></text>

<text
   transform="matrix(1,0,0,-1,16.9469,109.49331)"
   style="font-variant:normal;font-weight:normal;font-size:3.32803011px;font-family:'DejaVu Sans';-inkscape-font-specification:DejaVuSans;writing-mode:lr-tb;fill:#000000;fill-opacity:1;fill-rule:nonzero;stroke:none"
   id="text298"><tspan
     x="0"
     y="0"
     id="tspan296">1</tspan></text>

<text
   transform="matrix(1,0,0,-1,129.0829,5.16431)"
   style="font-variant:normal;font-weight:normal;font-size:6.4000001px;font-family:'DejaVu Sans';-inkscape-font-specification:DejaVuSans;writing-mode:lr-tb;fill:#000000;fill-opacity:1;fill-rule:nonzero;stroke:none"
   id="text302"><tspan
     x="0"
     y="0"
     id="tspan300">s</tspan></text>

<text
   transform="matrix(1,0,0,-1,132.4204,3.88423)"
   style="font-variant:normal;font-weight:normal;font-size:3.32803011px;font-family:'DejaVu Sans';-inkscape-font-specification:DejaVuSans;writing-mode:lr-tb;fill:#000000;fill-opacity:1;fill-rule:nonzero;stroke:none"
   id="text306"><tspan
     x="0"
     y="0"
     id="tspan304">5</tspan></text>

<text
   transform="matrix(1,0,0,-1,12.0574,16.05453)"
   style="font-variant:normal;font-weight:normal;font-size:6.4000001px;font-family:'DejaVu Sans';-inkscape-font-specification:DejaVuSans;writing-mode:lr-tb;fill:#000000;fill-opacity:1;fill-rule:nonzero;stroke:none"
   id="text310"><tspan
     x="0"
     y="0"
     id="tspan308">s</tspan></text>

<text
   transform="matrix(1,0,0,-1,15.3949,14.77445)"
   style="font-variant:normal;font-weight:normal;font-size:3.32803011px;font-family:'DejaVu Sans';-inkscape-font-specification:DejaVuSans;writing-mode:lr-tb;fill:#000000;fill-opacity:1;fill-rule:nonzero;stroke:none"
   id="text314"><tspan
     x="0"
     y="0"
     id="tspan312">2</tspan></text>

</g><path
         d="m 1295.86,864.461 c 0,-27.152 -22.03,-49.18 -49.18,-49.18 -27.15,0 -49.18,22.028 -49.18,49.18 0,27.141 22.03,49.168 49.18,49.168 27.15,0 49.18,-22.027 49.18,-49.168 z"
         style="fill:#80c4c4;fill-opacity:1;fill-rule:nonzero;stroke:none"
         id="path316"
         inkscape:connector-curvature="0" /><g
         id="g318"
         transform="scale(1.09302,-0.906977)"><path
           d="m 1185.57,-953.119 c 0,29.932 -20.15,54.223 -44.99,54.223 -24.84,0 -44.99,-24.291 -44.99,-54.223 0,-29.929 20.15,-54.221 44.99,-54.221 24.84,0 44.99,24.292 44.99,54.221 z"
           style="fill:none;stroke:#206060;stroke-width:8.03483963;stroke-linecap:round;stroke-linejoin:miter;stroke-miterlimit:4;stroke-dasharray:none;stroke-opacity:1"
           id="path320"
           inkscape:connector-curvature="0" /></g><g
         id="g322"
         transform="scale(10)"><text
   transform="matrix(1,0,0,-1,121.861,85.2922)"
   style="font-variant:normal;font-weight:normal;font-size:6.4000001px;font-family:'DejaVu Sans';-inkscape-font-specification:DejaVuSans;writing-mode:lr-tb;fill:#000000;fill-opacity:1;fill-rule:nonzero;stroke:none"
   id="text326"><tspan
     x="0"
     y="0"
     id="tspan324">s</tspan></text>

<text
   transform="matrix(1,0,0,-1,125.1985,84.01212)"
   style="font-variant:normal;font-weight:normal;font-size:3.32803011px;font-family:'DejaVu Sans';-inkscape-font-specification:DejaVuSans;writing-mode:lr-tb;fill:#000000;fill-opacity:1;fill-rule:nonzero;stroke:none"
   id="text330"><tspan
     x="0"
     y="0"
     id="tspan328">4</tspan></text>

</g><g
         id="g332"
         transform="scale(10)"><text
   transform="matrix(1,0,0,-1,21.3039,10.0035)"
   style="font-style:oblique;font-variant:normal;font-weight:bold;font-size:4.80000019px;font-family:'DejaVu Sans';-inkscape-font-specification:DejaVuSans-BoldOblique;writing-mode:lr-tb;fill:#d40000;fill-opacity:1;fill-rule:nonzero;stroke:none"
   id="text354"><tspan
     x="0 1.992 5.3327999 7.1567998"
     y="0"
     sodipodi:role="line"
     id="tspan334">-0.3</tspan><tspan
     x="113.809 117.1498 118.9738"
     y="-2.2531199"
     sodipodi:role="line"
     id="tspan336">2.8</tspan><tspan
     x="83.8274 85.819397 89.160202 90.9842"
     y="-70.66832"
     sodipodi:role="line"
     id="tspan338">-0.4</tspan><tspan
     x="67.036797 70.377602 72.201599"
     y="-41.077721"
     sodipodi:role="line"
     id="tspan340">3.3</tspan><tspan
     x="40.198101 42.190102 45.530899 47.3549"
     y="-55.148418"
     sodipodi:role="line"
     id="tspan342">-0.1</tspan><tspan
     x="52.445 55.785801 57.609798"
     y="-31.43672"
     sodipodi:role="line"
     id="tspan344">5.2</tspan><tspan
     x="-21.264 -19.271999 -15.9312 -14.1072"
     y="-95.276222"
     sodipodi:role="line"
     id="tspan346">-1.3</tspan><tspan
     x="2.3480999 5.6889 7.5128999"
     y="-84.174217"
     sodipodi:role="line"
     id="tspan348">4.1</tspan><tspan
     x="5.8805199 7.87252 11.21332 13.03732"
     y="-104.84412"
     sodipodi:role="line"
     id="tspan350">-0.3</tspan><tspan
     x="-4.6526799 -2.6606801 0.68011999 2.5041201"
     y="-22.79332"
     sodipodi:role="line"
     id="tspan352">-1.3</tspan></text>

</g><g
         id="g356"
         transform="scale(10)"><text
   transform="matrix(1,0,0,-1,15.6262,38.6754)"
   style="font-variant:normal;font-weight:normal;font-size:4px;font-family:'DejaVu Sans';-inkscape-font-specification:DejaVuSans;writing-mode:lr-tb;fill:#666666;fill-opacity:1;fill-rule:nonzero;stroke:none"
   id="text396"><tspan
     x="0 2.5439999 3.816"
     y="0"
     sodipodi:role="line"
     id="tspan358">1.0</tspan><tspan
     x="20.6586 23.2026 24.4746"
     y="19.994101"
     sodipodi:role="line"
     id="tspan360">1.0</tspan><tspan
     x="50.650398 53.194401 54.4664"
     y="0.32030001"
     sodipodi:role="line"
     id="tspan362">0.2</tspan><tspan
     x="45.882431 48.42643 49.698429"
     y="-6.3918099"
     sodipodi:role="line"
     id="tspan364">0.8</tspan><tspan
     x="43.966019 46.510021 47.782021"
     y="-37.76841"
     sodipodi:role="line"
     id="tspan366">0.9</tspan><tspan
     x="51.33633 53.880329 55.152328"
     y="-42.282471"
     sodipodi:role="line"
     id="tspan368">0.1</tspan><tspan
     x="82.842934 85.386932 86.658928"
     y="-20.44887"
     sodipodi:role="line"
     id="tspan370">0.5</tspan><tspan
     x="87.449181 89.993179 91.265182"
     y="-13.72387"
     sodipodi:role="line"
     id="tspan372">0.5</tspan><tspan
     x="70.455078 72.999077 74.27108"
     y="-54.074669"
     sodipodi:role="line"
     id="tspan374">0.3</tspan><tspan
     x="80.312111 82.85611 84.128113"
     y="-56.838341"
     sodipodi:role="line"
     id="tspan376">0.1</tspan><tspan
     x="80.128128 82.672127 83.944122"
     y="-46.612541"
     sodipodi:role="line"
     id="tspan378">0.6</tspan><tspan
     x="34.661327 37.205326 38.477325"
     y="-76.829338"
     sodipodi:role="line"
     id="tspan380">0.3</tspan><tspan
     x="39.636326 42.180325 43.452328"
     y="-68.353951"
     sodipodi:role="line"
     id="tspan382">0.3</tspan><tspan
     x="30.516016 33.060017 34.332016"
     y="-67.70903"
     sodipodi:role="line"
     id="tspan384">0.4</tspan><tspan
     x="-16.065584 -13.521584 -12.249584"
     y="-55.005527"
     sodipodi:role="line"
     id="tspan386">1.0</tspan><tspan
     x="4.6668162 7.2108159 8.4828157"
     y="-24.107828"
     sodipodi:role="line"
     id="tspan388">0.8</tspan><tspan
     x="12.630486 15.174486 16.446486"
     y="-27.060558"
     sodipodi:role="line"
     id="tspan390">0.2</tspan><tspan
     x="109.56799 112.11198 113.38399"
     y="13.230842"
     sodipodi:role="line"
     id="tspan392">0.3</tspan><tspan
     x="118.56213 121.10612 122.37813"
     y="11.349592"
     sodipodi:role="line"
     id="tspan394">0.7</tspan></text>

</g><g
         id="g398"
         transform="scale(10)"><text
   transform="matrix(1,0,0,-1,151.307,111.504)"
   style="font-style:oblique;font-variant:normal;font-weight:bold;font-size:3.20000005px;font-family:'DejaVu Sans';-inkscape-font-specification:DejaVuSans-BoldOblique;writing-mode:lr-tb;fill:#000000;fill-opacity:1;fill-rule:nonzero;stroke:none"
   id="text408"><tspan
     x="0 2.1856 3.7151999 5.8751998"
     y="0"
     sodipodi:role="line"
     id="tspan400">État</tspan><tspan
     x="0.27500001 2.6494563 4.5470562 6.0766563 7.1840219 9.3824215"
     y="11.6805"
     sodipodi:role="line"
     id="tspan402">Action</tspan><tspan
     x="0 2.2432563 3.8208563 6.0192561 8.3202219 10.480222 12.771422 13.878788 14.976388 16.073988 17.603588"
     y="23.0098"
     sodipodi:role="line"
     id="tspan404">Probabilité</tspan><tspan
     x="0 2.2911999 4.4608002 5.5743999 7.1040001 8.6815996 10.8416 13.129766 15.033766 16.131365 17.660965 18.768332 20.966732"
     y="27.0098"
     sodipodi:role="line"
     id="tspan406">de transition</tspan></text>

</g><path
         d="m 1404.14,981.559 h 57.1875 v 57.1914 H 1404.14 Z"
         style="fill:#206060;fill-opacity:1;fill-rule:nonzero;stroke:none"
         id="path410"
         inkscape:connector-curvature="0" /><g
         id="g412"
         transform="scale(10)"><text
   transform="matrix(1,0,0,-1,140.272,99.7613)"
   style="font-variant:normal;font-weight:normal;font-size:6.4000001px;font-family:'DejaVu Sans';-inkscape-font-specification:DejaVuSans;writing-mode:lr-tb;fill:#ffffff;fill-opacity:1;fill-rule:nonzero;stroke:none"
   id="text416"><tspan
     x="0"
     y="0"
     id="tspan414">a</tspan></text>

<text
   transform="matrix(1,0,0,-1,144.197,98.801144)"
   style="font-variant:normal;font-weight:normal;font-size:3.20000005px;font-family:'DejaVu Sans';-inkscape-font-specification:DejaVuSans;writing-mode:lr-tb;fill:#ffffff;fill-opacity:1;fill-rule:nonzero;stroke:none"
   id="text420"><tspan
     x="0"
     y="0"
     id="tspan418">3</tspan></text>

</g><path
         d="m 1457.34,1129.65 c 0,-27.15 -22.03,-49.18 -49.18,-49.18 -27.14,0 -49.18,22.03 -49.18,49.18 0,27.15 22.04,49.18 49.18,49.18 27.15,0 49.18,-22.03 49.18,-49.18 z"
         style="fill:#80c4c4;fill-opacity:1;fill-rule:nonzero;stroke:none"
         id="path422"
         inkscape:connector-curvature="0" /><g
         id="g424"
         transform="scale(1.09302,-0.906977)"><path
           d="m 1333.31,-1245.51 c 0,29.93 -20.16,54.22 -44.99,54.22 -24.83,0 -45,-24.29 -45,-54.22 0,-29.94 20.17,-54.23 45,-54.23 24.83,0 44.99,24.29 44.99,54.23 z"
           style="fill:none;stroke:#206060;stroke-width:8.03483963;stroke-linecap:round;stroke-linejoin:miter;stroke-miterlimit:4;stroke-dasharray:none;stroke-opacity:1"
           id="path426"
           inkscape:connector-curvature="0" /></g><g
         id="g428"
         transform="scale(10)"><text
   transform="matrix(1,0,0,-1,138.007,111.813)"
   style="font-variant:normal;font-weight:normal;font-size:6.4000001px;font-family:'DejaVu Sans';-inkscape-font-specification:DejaVuSans;writing-mode:lr-tb;fill:#000000;fill-opacity:1;fill-rule:nonzero;stroke:none"
   id="text432"><tspan
     x="0"
     y="0"
     id="tspan430">s</tspan></text>

<text
   transform="matrix(1,0,0,-1,141.3445,110.53292)"
   style="font-variant:normal;font-weight:normal;font-size:3.32803011px;font-family:'DejaVu Sans';-inkscape-font-specification:DejaVuSans;writing-mode:lr-tb;fill:#000000;fill-opacity:1;fill-rule:nonzero;stroke:none"
   id="text436"><tspan
     x="0"
     y="0"
     id="tspan434">4</tspan></text>

</g><path
         d="m 1460.12,852.352 c -1.57,50.429 -32.78,81.636 -40.24,90.308"
         style="fill:none;stroke:#808080;stroke-width:2.4000001;stroke-linecap:butt;stroke-linejoin:miter;stroke-miterlimit:4;stroke-dasharray:none;stroke-opacity:1"
         id="path438"
         inkscape:connector-curvature="0" /><g
         id="g440"
         transform="scale(10)"><text
   transform="matrix(1,0,0,-1,138.556,87.95)"
   style="font-variant:normal;font-weight:normal;font-size:4px;font-family:'DejaVu Sans';-inkscape-font-specification:DejaVuSans;writing-mode:lr-tb;fill:#666666;fill-opacity:1;fill-rule:nonzero;stroke:none"
   id="text444"><tspan
     x="0 2.5439999 3.816"
     y="0"
     sodipodi:role="line"
     id="tspan442">0.3</tspan></text>

</g><g
         id="g446"
         transform="scale(10)"><text
   transform="matrix(1,0,0,-1,135.912,77.7031)"
   style="font-style:oblique;font-variant:normal;font-weight:bold;font-size:4.80000019px;font-family:'DejaVu Sans';-inkscape-font-specification:DejaVuSans-BoldOblique;writing-mode:lr-tb;fill:#d40000;fill-opacity:1;fill-rule:nonzero;stroke:none"
   id="text450"><tspan
     x="0 1.992 5.3327999 7.1567998"
     y="0"
     sodipodi:role="line"
     id="tspan448">-0.3</tspan></text>

</g><g
         id="g452"
         transform="scale(10)"><text
   transform="matrix(1,0,0,-1,151.259,78.1934)"
   style="font-style:oblique;font-variant:normal;font-weight:bold;font-size:3.20000005px;font-family:'DejaVu Sans';-inkscape-font-specification:DejaVuSans-BoldOblique;writing-mode:lr-tb;fill:#000000;fill-opacity:1;fill-rule:nonzero;stroke:none"
   id="text456"><tspan
     x="0 2.3487999 4.5472002 6.8256001"
     y="0"
     sodipodi:role="line"
     id="tspan454">Coût</tspan></text>

</g><g
         id="g458"
         transform="scale(10)"><text
   transform="matrix(1,0,0,-1,138.193,68.7641)"
   style="font-style:oblique;font-variant:normal;font-weight:bold;font-size:4.80000019px;font-family:'DejaVu Sans';-inkscape-font-specification:DejaVuSans-BoldOblique;writing-mode:lr-tb;fill:#d40000;fill-opacity:1;fill-rule:nonzero;stroke:none"
   id="text462"><tspan
     x="0 3.3408 5.1648002"
     y="0"
     sodipodi:role="line"
     id="tspan460">4.1</tspan></text>

</g><g
         id="g464"
         transform="scale(10)"><text
   transform="matrix(1,0,0,-1,151.307,69.5668)"
   style="font-style:oblique;font-variant:normal;font-weight:bold;font-size:3.20000005px;font-family:'DejaVu Sans';-inkscape-font-specification:DejaVuSans-BoldOblique;writing-mode:lr-tb;fill:#000000;fill-opacity:1;fill-rule:nonzero;stroke:none"
   id="text468"><tspan
     x="0 2.3073595 4.4769592 6.3745594 8.5729589 11.907359 14.208325 16.377926 18.656324 20.560326"
     y="0"
     sodipodi:role="line"
     id="tspan466">Récompense</tspan></text>

</g><path
         d="m 1738.98,650.16 h -417.34 v 570.15"
         style="fill:none;stroke:#808080;stroke-width:8;stroke-linecap:round;stroke-linejoin:round;stroke-miterlimit:4;stroke-dasharray:none;stroke-opacity:1"
         id="path470"
         inkscape:connector-curvature="0" /></g></g></svg>