<?xml version="1.0" encoding="UTF-8" standalone="no"?>
<!-- Generated by graphviz version 2.40.1 (20161225.0304) -->

<!-- Title: MC_Zombie Pages: 1 -->

<svg
   xmlns:dc="http://purl.org/dc/elements/1.1/"
   xmlns:cc="http://creativecommons.org/ns#"
   xmlns:rdf="http://www.w3.org/1999/02/22-rdf-syntax-ns#"
   xmlns:svg="http://www.w3.org/2000/svg"
   xmlns="http://www.w3.org/2000/svg"
   xmlns:sodipodi="http://sodipodi.sourceforge.net/DTD/sodipodi-0.dtd"
   xmlns:inkscape="http://www.inkscape.org/namespaces/inkscape"
   width="813pt"
   height="548pt"
   viewBox="0.00 0.00 812.98 548.00"
   version="1.1"
   id="svg19494"
   sodipodi:docname="zombie-dot.svg"
   inkscape:version="0.92.3 (2405546, 2018-03-11)">
  <metadata
     id="metadata19500">
    <rdf:RDF>
      <cc:Work
         rdf:about="">
        <dc:format>image/svg+xml</dc:format>
        <dc:type
           rdf:resource="http://purl.org/dc/dcmitype/StillImage" />
      </cc:Work>
    </rdf:RDF>
  </metadata>
  <defs
     id="defs19498" />
  <sodipodi:namedview
     pagecolor="#ffffff"
     bordercolor="#666666"
     borderopacity="1"
     objecttolerance="10"
     gridtolerance="10"
     guidetolerance="10"
     inkscape:pageopacity="0"
     inkscape:pageshadow="2"
     inkscape:window-width="1920"
     inkscape:window-height="1016"
     id="namedview19496"
     showgrid="false"
     inkscape:zoom="0.91356132"
     inkscape:cx="552.54828"
     inkscape:cy="297.99502"
     inkscape:window-x="0"
     inkscape:window-y="27"
     inkscape:window-maximized="1"
     inkscape:current-layer="svg19494" />
  <ellipse
     cx="72.100601"
     cy="310"
     rx="56.2015"
     ry="18"
     id="ellipse18907"
     style="fill:none;stroke:#000000" />
  <text
     x="72.100601"
     y="314.20001"
     font-size="14.00"
     id="text18909"
     style="font-size:14px;font-family:Times, serif;text-anchor:middle;fill:#000000">StockE2_t1</text>
  <ellipse
     cx="60.100601"
     cy="454"
     rx="56.2015"
     ry="18"
     id="ellipse18914"
     style="fill:#dd9955;stroke:#dd9955;stroke-opacity:1;stroke-width:2.24999994;stroke-miterlimit:4;stroke-dasharray:none;fill-opacity:1" />
  <text
     x="60.100601"
     y="458.20001"
     font-size="14.00"
     id="text18916"
     style="font-size:14px;font-family:Times, serif;text-anchor:middle;fill:#000000">StockE3_t1</text>
  <path
     d="m 70.5808,328.2377 c -2.0467,24.5613 -5.7095,68.5149 -8.1173,97.4082"
     id="path18921"
     inkscape:connector-curvature="0"
     style="fill:none;stroke:#000000" />
  <polygon
     points="57.6081,-108.0896 54.9507,-118.3458 61.9266,-117.7644 "
     id="polygon18923"
     style="fill:#000000;stroke:#000000"
     transform="translate(4,544)" />
  <ellipse
     cx="177.1006"
     cy="382"
     rx="32.4846"
     ry="18"
     id="ellipse18928"
     style="fill:none;stroke:#000000" />
  <text
     x="177.1006"
     y="386.20001"
     font-size="14.00"
     id="text18930"
     style="font-size:14px;font-family:Times, serif;text-anchor:middle;fill:#000000">type3</text>
  <path
     d="m 95.9268,326.3379 c 15.4178,10.5723 35.595,24.408 51.9754,35.6403"
     id="path18935"
     inkscape:connector-curvature="0"
     style="fill:none;stroke:#000000" />
  <polygon
     points="152.5575,-176.0867 142.3308,-178.8555 146.2896,-184.6286 "
     id="polygon18937"
     style="fill:#000000;stroke:#000000"
     transform="translate(4,544)" />
  <ellipse
     cx="175.1006"
     cy="310"
     rx="28.990999"
     ry="18"
     id="ellipse18942"
     style="fill:#449944;stroke:#449944;stroke-width:2.24999994;stroke-miterlimit:4;stroke-dasharray:none;stroke-opacity:1;fill-opacity:1" />
  <text
     x="175.1006"
     y="314.20001"
     font-size="14.00"
     id="text18944"
     style="font-size:14px;font-family:Times, serif;text-anchor:middle;fill:#000000">init3</text>
  <path
     d="m 162.1322,326.2387 c -19.8664,24.8762 -58.0066,72.6344 -81.6107,102.1909"
     id="path18949"
     inkscape:connector-curvature="0"
     style="fill:none;stroke:#000000" />
  <polygon
     points="70.2766,-107.7508 73.7821,-117.749 79.2519,-113.3807 "
     id="polygon18951"
     style="fill:#000000;stroke:#000000"
     transform="translate(4,544)" />
  <path
     d="m 175.6053,328.1686 c 0.2139,7.7004 0.4683,16.8571 0.706,25.4148"
     id="path18956"
     inkscape:connector-curvature="0"
     style="fill:none;stroke:#000000" />
  <polygon
     points="172.5892,-180.4133 168.8127,-190.3122 175.81,-190.5066 "
     id="polygon18958"
     style="fill:#000000;stroke:#000000"
     transform="translate(4,544)" />
  <ellipse
     cx="313.10059"
     cy="454"
     rx="58.571301"
     ry="18"
     id="ellipse18963"
     style="fill:#dd9955;stroke:#dd9955;stroke-opacity:1;stroke-width:2.24999994;stroke-miterlimit:4;stroke-dasharray:none;fill-opacity:1" />
  <text
     x="313.10059"
     y="458.20001"
     font-size="14.00"
     id="text18965"
     style="font-size:14px;font-family:Times, serif;text-anchor:middle;fill:#000000">StockM3_t1</text>
  <path
     d="m 189.9973,325.626 c 17.1339,17.9645 46.119,48.3284 71.1033,74.374 9.1505,9.5392 19.2249,20.0086 28.05,29.1689"
     id="path18970"
     inkscape:connector-curvature="0"
     style="fill:none;stroke:#000000" />
  <polygon
     points="292.222,-107.4936 282.7625,-112.2652 287.8028,-117.1228 "
     id="polygon18972"
     style="fill:#000000;stroke:#000000"
     transform="translate(4,544)" />
  <ellipse
     cx="447.10059"
     cy="454"
     rx="57.3456"
     ry="18"
     id="ellipse18977"
     style="fill:#dd9955;stroke:#dd9955;stroke-opacity:1;stroke-width:2.24999994;stroke-miterlimit:4;stroke-dasharray:none;fill-opacity:1" />
  <text
     x="447.10059"
     y="458.20001"
     font-size="14.00"
     id="text18979"
     style="font-size:14px;font-family:Times, serif;text-anchor:middle;fill:#000000">StockH3_t1</text>
  <path
     d="m 197.3595,321.7841 c 46.2721,24.497 153.3363,81.178 211.1111,111.7647"
     id="path18984"
     inkscape:connector-curvature="0"
     style="fill:none;stroke:#000000" />
  <polygon
     points="413.6424,-105.5956 403.1669,-107.1812 406.4421,-113.3677 "
     id="polygon18986"
     style="fill:#000000;stroke:#000000"
     transform="translate(4,544)" />
  <path
     d="m 155.0938,395.5426 c -16.9915,10.4564 -40.8219,25.1212 -60.3632,37.1466"
     id="path18991"
     inkscape:connector-curvature="0"
     style="fill:none;stroke:#000000" />
  <polygon
     points="82.094,-105.9959 88.7762,-114.2177 92.4449,-108.2561 "
     id="polygon18993"
     style="fill:#000000;stroke:#000000"
     transform="translate(4,544)" />
  <path
     d="m 200.79,394.5414 c 20.2899,10.7417 49.9021,26.4188 73.6264,38.9787"
     id="path18998"
     inkscape:connector-curvature="0"
     style="fill:none;stroke:#000000" />
  <polygon
     points="279.5173,-105.6618 269.0418,-107.2474 272.317,-113.434 "
     id="polygon19000"
     style="fill:#000000;stroke:#000000"
     transform="translate(4,544)" />
  <path
     d="m 206.5098,389.711 c 39.6646,10.4168 112.4966,29.6035 174.5908,46.289 4.1292,1.1096 8.4022,2.263 12.697,3.4261"
     id="path19005"
     inkscape:connector-curvature="0"
     style="fill:none;stroke:#000000" />
  <polygon
     points="399.8007,-101.8588 389.233,-101.1006 391.0667,-107.8562 "
     id="polygon19007"
     style="fill:#000000;stroke:#000000"
     transform="translate(4,544)" />
  <ellipse
     cx="174.1006"
     cy="526"
     rx="41.1703"
     ry="18"
     id="ellipse19012"
     style="fill:#dd9955;stroke:#dd9955;stroke-opacity:1;stroke-width:2.24999994;stroke-miterlimit:4;stroke-dasharray:none;fill-opacity:1" />
  <text
     x="174.1006"
     y="530.20001"
     font-size="14.00"
     id="text19014"
     style="font-size:14px;font-family:Times, serif;text-anchor:middle;fill:#000000">init3_t1</text>
  <path
     d="m 171.2768,399.7771 c -3.108,10.4257 -6.608,23.9257 -8.1762,36.2229 -2.0239,15.8715 -1.6049,20.0807 0,36 0.8503,8.4335 2.4294,17.4971 4.1312,25.7446"
     id="path19019"
     inkscape:connector-curvature="0"
     style="fill:none;stroke:#000000" />
  <polygon
     points="165.4072,-36.3537 159.8428,-45.3697 166.6797,-46.8719 "
     id="polygon19021"
     style="fill:#000000;stroke:#000000"
     transform="translate(4,544)" />
  <ellipse
     cx="204.1006"
     cy="454"
     rx="31.879999"
     ry="18"
     id="ellipse19026"
     style="fill:none;stroke:#000000" />
  <text
     x="204.1006"
     y="458.20001"
     font-size="14.00"
     id="text19028"
     style="font-size:14px;font-family:Times, serif;text-anchor:middle;fill:#000000">face3</text>
  <path
     d="m 183.7748,399.7978 c 3.0505,8.1347 6.732,17.9521 10.119,26.9841"
     id="path19033"
     inkscape:connector-curvature="0"
     style="fill:none;stroke:#000000" />
  <polygon
     points="193.4097,-107.8425 186.6212,-115.9769 193.1755,-118.4348 "
     id="polygon19035"
     style="fill:#000000;stroke:#000000"
     transform="translate(4,544)" />
  <ellipse
     cx="281.10059"
     cy="310"
     rx="58.571301"
     ry="18"
     id="ellipse19040"
     style="fill:none;stroke:#000000" />
  <text
     x="281.10059"
     y="314.20001"
     font-size="14.00"
     id="text19042"
     style="font-size:14px;font-family:Times, serif;text-anchor:middle;fill:#000000">StockM2_t1</text>
  <path
     d="m 257.2409,326.5183 c -15.1797,10.509 -34.9378,24.1877 -51.0371,35.3334"
     id="path19047"
     inkscape:connector-curvature="0"
     style="fill:none;stroke:#000000" />
  <polygon
     points="193.6885,-176.2531 199.9182,-184.8229 203.9027,-179.0676 "
     id="polygon19049"
     style="fill:#000000;stroke:#000000"
     transform="translate(4,544)" />
  <path
     d="m 285.1535,328.2377 c 5.4821,24.6695 15.3116,68.9025 21.7309,97.7892"
     id="path19054"
     inkscape:connector-curvature="0"
     style="fill:none;stroke:#000000" />
  <polygon
     points="305.0807,-108.0896 299.4947,-117.0922 306.328,-118.6108 "
     id="polygon19056"
     style="fill:#000000;stroke:#000000"
     transform="translate(4,544)" />
  <ellipse
     cx="415.10059"
     cy="310"
     rx="57.3456"
     ry="18"
     id="ellipse19061"
     style="fill:none;stroke:#000000" />
  <text
     x="415.10059"
     y="314.20001"
     font-size="14.00"
     id="text19063"
     style="font-size:14px;font-family:Times, serif;text-anchor:middle;fill:#000000">StockH2_t1</text>
  <path
     d="m 373.6442,322.5414 c -44.6039,13.4937 -114.9517,34.7754 -158.2789,47.8827"
     id="path19068"
     inkscape:connector-curvature="0"
     style="fill:none;stroke:#000000" />
  <polygon
     points="201.7572,-170.6692 210.3153,-176.915 212.3423,-170.2148 "
     id="polygon19070"
     style="fill:#000000;stroke:#000000"
     transform="translate(4,544)" />
  <path
     d="m 418.8074,328.3044 c 3.7243,18.2084 9.6988,46.9282 15.2932,71.6956 1.9334,8.5593 4.1349,17.8569 6.1697,26.2862"
     id="path19075"
     inkscape:connector-curvature="0"
     style="fill:none;stroke:#000000" />
  <polygon
     points="438.6402,-107.9704 432.8759,-116.8598 439.6775,-118.5143 "
     id="polygon19077"
     style="fill:#000000;stroke:#000000"
     transform="translate(4,544)" />
  <ellipse
     cx="476.10059"
     cy="94"
     rx="32.4846"
     ry="18"
     id="ellipse19082"
     style="fill:none;stroke:#000000" />
  <text
     x="476.10059"
     y="98.200012"
     font-size="14.00"
     id="text19084"
     style="font-size:14px;font-family:Times, serif;text-anchor:middle;fill:#000000">type1</text>
  <ellipse
     cx="505.10059"
     cy="238"
     rx="41.1703"
     ry="18"
     id="ellipse19089"
     style="fill:#dd9955;stroke:#dd9955;stroke-opacity:1;stroke-width:2.24999994;stroke-miterlimit:4;stroke-dasharray:none;fill-opacity:1" />
  <text
     x="505.10059"
     y="242.20001"
     font-size="14.00"
     id="text19091"
     style="font-size:14px;font-family:Times, serif;text-anchor:middle;fill:#000000">init1_t1</text>
  <path
     d="m 479.7149,111.9465 c 4.9493,24.5761 13.8863,68.9527 19.7272,97.9561"
     id="path19096"
     inkscape:connector-curvature="0"
     style="fill:none;stroke:#000000" />
  <polygon
     points="497.4409,-324.1727 492.0354,-333.2849 498.8976,-334.6669 "
     id="polygon19098"
     style="fill:#000000;stroke:#000000"
     transform="translate(4,544)" />
  <ellipse
     cx="681.10059"
     cy="166"
     rx="31.879999"
     ry="18"
     id="ellipse19103"
     style="fill:none;stroke:#000000" />
  <text
     x="681.10059"
     y="170.20001"
     font-size="14.00"
     id="text19105"
     style="font-size:14px;font-family:Times, serif;text-anchor:middle;fill:#000000">face1</text>
  <path
     d="m 504.8339,102.5478 c 32.9729,10.0191 88.5205,27.5418 135.2667,45.4522 2.205,0.8448 4.464,1.7426 6.7331,2.6688"
     id="path19110"
     inkscape:connector-curvature="0"
     style="fill:none;stroke:#000000" />
  <polygon
     points="652.1061,-389.4259 641.5316,-390.0819 644.2487,-396.533 "
     id="polygon19112"
     style="fill:#000000;stroke:#000000"
     transform="translate(4,544)" />
  <ellipse
     cx="193.1006"
     cy="166"
     rx="56.2015"
     ry="18"
     id="ellipse19117"
     style="fill:none;stroke:#000000" />
  <text
     x="193.1006"
     y="170.20001"
     font-size="14.00"
     id="text19119"
     style="font-size:14px;font-family:Times, serif;text-anchor:middle;fill:#000000">StockE1_t1</text>
  <path
     d="M 446.0614,101.166 C 403.9597,111.2722 325.0458,130.4428 258.1006,148 c -4.2562,1.1163 -8.6635,2.2926 -13.0857,3.4875"
     id="path19124"
     inkscape:connector-curvature="0"
     style="fill:none;stroke:#000000" />
  <polygon
     points="231.3627,-389.8836 240.0914,-395.8886 241.931,-389.1346 "
     id="polygon19126"
     style="fill:#000000;stroke:#000000"
     transform="translate(4,544)" />
  <ellipse
     cx="402.10059"
     cy="166"
     rx="58.571301"
     ry="18"
     id="ellipse19131"
     style="fill:none;stroke:#000000" />
  <text
     x="402.10059"
     y="170.20001"
     font-size="14.00"
     id="text19133"
     style="font-size:14px;font-family:Times, serif;text-anchor:middle;fill:#000000">StockM1_t1</text>
  <path
     d="m 459.6776,109.9791 c -9.5253,9.2679 -21.7184,21.1315 -32.4297,31.5533"
     id="path19138"
     inkscape:connector-curvature="0"
     style="fill:none;stroke:#000000" />
  <polygon
     points="415.7696,-395.1915 420.4962,-404.6736 425.3777,-399.6565 "
     id="polygon19140"
     style="fill:#000000;stroke:#000000"
     transform="translate(4,544)" />
  <ellipse
     cx="574.10059"
     cy="166"
     rx="57.3456"
     ry="18"
     id="ellipse19145"
     style="fill:none;stroke:#000000" />
  <text
     x="574.10059"
     y="170.20001"
     font-size="14.00"
     id="text19147"
     style="font-size:14px;font-family:Times, serif;text-anchor:middle;fill:#000000">StockH1_t1</text>
  <path
     d="m 495.9324,108.5703 c 13.5909,9.9851 31.8887,23.4284 47.3642,34.7982"
     id="path19152"
     inkscape:connector-curvature="0"
     style="fill:none;stroke:#000000" />
  <polygon
     points="547.556,-394.5634 537.4248,-397.6636 541.5694,-403.3048 "
     id="polygon19154"
     style="fill:#000000;stroke:#000000"
     transform="translate(4,544)" />
  <path
     d="m 656.0054,177.1746 c -5.2418,2.2899 -10.7431,4.6607 -15.9048,6.8254 -31.6172,13.2595 -67.6855,27.6494 -94.5822,38.2379"
     id="path19159"
     inkscape:connector-curvature="0"
     style="fill:none;stroke:#000000" />
  <polygon
     points="532.0493,-318.0422 540.0771,-324.9563 542.6367,-318.441 "
     id="polygon19161"
     style="fill:#000000;stroke:#000000"
     transform="translate(4,544)" />
  <ellipse
     cx="537.10059"
     cy="526"
     rx="39.446602"
     ry="18"
     id="ellipse19166"
     style="fill:#dd9955;stroke:#dd9955;stroke-opacity:1;stroke-width:2.24999994;stroke-miterlimit:4;stroke-dasharray:none;fill-opacity:1" />
  <text
     x="537.10059"
     y="530.20001"
     font-size="14.00"
     id="text19168"
     style="font-size:14px;font-family:Times, serif;text-anchor:middle;fill:#000000">shot_t1</text>
  <path
     d="m 681.1006,184.1854 c 0,27.3163 0,80.5646 0,125.8146 0,0 0,0 0,72 0,60.2774 -63.8677,104.1358 -106.5342,126.7099"
     id="path19173"
     inkscape:connector-curvature="0"
     style="fill:none;stroke:#000000" />
  <polygon
     points="561.5504,-30.6666 568.8515,-38.3441 572.0457,-32.1154 "
     id="polygon19175"
     style="fill:#000000;stroke:#000000"
     transform="translate(4,544)" />
  <ellipse
     cx="681.10059"
     cy="526"
     rx="43.439602"
     ry="18"
     id="ellipse19180"
     style="fill:#dd9955;stroke:#dd9955;stroke-opacity:1;stroke-width:2.24999994;stroke-miterlimit:4;stroke-dasharray:none;fill-opacity:1" />
  <text
     x="681.10059"
     y="530.20001"
     font-size="14.00"
     id="text19182"
     style="font-size:14px;font-family:Times, serif;text-anchor:middle;fill:#000000">brain_t1</text>
  <path
     d="m 688.9743,183.7865 c 11.1304,26.8076 30.1263,79.4145 30.1263,126.2135 0,0 0,0 0,72 0,41.8632 -15.2002,88.3738 -26.3736,116.9075"
     id="path19187"
     inkscape:connector-curvature="0"
     style="fill:none;stroke:#000000" />
  <polygon
     points="684.9743,-35.7865 685.4683,-46.3698 691.9603,-43.7518 "
     id="polygon19189"
     style="fill:#000000;stroke:#000000"
     transform="translate(4,544)" />
  <ellipse
     cx="413.10059"
     cy="238"
     rx="32.4846"
     ry="18"
     id="ellipse19194"
     style="fill:none;stroke:#000000" />
  <text
     x="413.10059"
     y="242.20001"
     font-size="14.00"
     id="text19196"
     style="font-size:14px;font-family:Times, serif;text-anchor:middle;fill:#000000">type2</text>
  <path
     d="M 381.8901,243.2988 C 330.5687,252.1926 225.2514,271.2036 137.1006,292 c -4.3485,1.0259 -8.8447,2.1458 -13.348,3.309"
     id="path19201"
     inkscape:connector-curvature="0"
     style="fill:none;stroke:#000000" />
  <polygon
     points="109.9373,-246.0952 118.7101,-252.0357 120.4999,-245.2683 "
     id="polygon19203"
     style="fill:#000000;stroke:#000000"
     transform="translate(4,544)" />
  <path
     d="m 389.8055,250.7064 c -19.5151,10.6446 -47.7597,26.0508 -70.5672,38.4912"
     id="path19208"
     inkscape:connector-curvature="0"
     style="fill:none;stroke:#000000" />
  <polygon
     points="306.1579,-249.8494 313.2609,-257.7106 316.6129,-251.5654 "
     id="polygon19210"
     style="fill:#000000;stroke:#000000"
     transform="translate(4,544)" />
  <path
     d="m 413.6053,256.1686 c 0.2139,7.7004 0.4683,16.8571 0.706,25.4148"
     id="path19215"
     inkscape:connector-curvature="0"
     style="fill:none;stroke:#000000" />
  <polygon
     points="410.5892,-252.4133 406.8127,-262.3122 413.81,-262.5066 "
     id="polygon19217"
     style="fill:#000000;stroke:#000000"
     transform="translate(4,544)" />
  <ellipse
     cx="484.10059"
     cy="382"
     rx="41.1703"
     ry="18"
     id="ellipse19222"
     style="fill:#dd9955;stroke:#dd9955;stroke-opacity:1;stroke-width:2.24999994;stroke-miterlimit:4;stroke-dasharray:none;fill-opacity:1" />
  <text
     x="484.10059"
     y="386.20001"
     font-size="14.00"
     id="text19224"
     style="font-size:14px;font-family:Times, serif;text-anchor:middle;fill:#000000">init2_t1</text>
  <path
     d="m 437.4993,250.1994 c 15.4911,9.1861 34.3126,23.3543 43.6013,41.8006 9.5807,19.0261 9.8125,43.2954 7.9333,61.8364"
     id="path19229"
     inkscape:connector-curvature="0"
     style="fill:none;stroke:#000000" />
  <polygon
     points="483.7382,-179.9918 481.5299,-190.3539 488.4738,-189.4693 "
     id="polygon19231"
     style="fill:#000000;stroke:#000000"
     transform="translate(4,544)" />
  <ellipse
     cx="560.10059"
     cy="310"
     rx="31.879999"
     ry="18"
     id="ellipse19236"
     style="fill:none;stroke:#000000" />
  <text
     x="560.10059"
     y="314.20001"
     font-size="14.00"
     id="text19238"
     style="font-size:14px;font-family:Times, serif;text-anchor:middle;fill:#000000">face2</text>
  <path
     d="m 437.7051,250.0512 c 24.4197,11.9606 62.0178,30.376 89.0986,43.6401"
     id="path19243"
     inkscape:connector-curvature="0"
     style="fill:none;stroke:#000000" />
  <polygon
     points="531.9051,-245.8509 521.3849,-247.1064 524.464,-253.3928 "
     id="polygon19245"
     style="fill:#000000;stroke:#000000"
     transform="translate(4,544)" />
  <path
     d="m 543.6098,325.6229 c -10.1447,9.6108 -23.339,22.1107 -34.7251,32.8974"
     id="path19250"
     inkscape:connector-curvature="0"
     style="fill:none;stroke:#000000" />
  <polygon
     points="497.3507,-178.3421 502.2031,-187.7605 507.0173,-182.6788 "
     id="polygon19252"
     style="fill:#000000;stroke:#000000"
     transform="translate(4,544)" />
  <path
     d="m 558.1792,328.0445 c -4.008,37.6411 -13.2855,124.7688 -18.0838,169.8309"
     id="path19257"
     inkscape:connector-curvature="0"
     style="fill:none;stroke:#000000" />
  <polygon
     points="535.0328,-36.1451 532.6113,-46.4595 539.572,-45.7182 "
     id="polygon19259"
     style="fill:#000000;stroke:#000000"
     transform="translate(4,544)" />
  <path
     d="m 569.798,327.3111 c 21.0994,37.6649 71.2918,127.2645 96.4263,172.1327"
     id="path19264"
     inkscape:connector-curvature="0"
     style="fill:none;stroke:#000000" />
  <polygon
     points="667.1879,-35.6955 659.247,-42.7094 665.3541,-46.1305 "
     id="polygon19266"
     style="fill:#000000;stroke:#000000"
     transform="translate(4,544)" />
  <path
     d="m 196.6849,471.7978 c -3.3895,8.1347 -7.48,17.9521 -11.2434,26.9841"
     id="path19271"
     inkscape:connector-curvature="0"
     style="fill:none;stroke:#000000" />
  <polygon
     points="177.535,-35.8425 178.1505,-46.4195 184.612,-43.7271 "
     id="polygon19273"
     style="fill:#000000;stroke:#000000"
     transform="translate(4,544)" />
  <path
     d="m 228.4661,465.7941 c 5.3904,2.2981 11.1359,4.5154 16.6345,6.2059 83.6757,25.7261 184.8175,41.0821 243.4404,48.5064"
     id="path19278"
     inkscape:connector-curvature="0"
     style="fill:none;stroke:#000000" />
  <polygon
     points="494.6275,-22.2415 484.2725,-20.0001 485.1349,-26.9468 "
     id="polygon19280"
     style="fill:#000000;stroke:#000000"
     transform="translate(4,544)" />
  <path
     d="m 228.3732,466.1185 c 5.3961,2.2779 11.1675,4.4049 16.7274,5.8815 146.8646,39.0046 189.6481,13.9806 340,36 15.2681,2.236 31.8119,5.1569 46.7953,7.993"
     id="path19285"
     inkscape:connector-curvature="0"
     style="fill:none;stroke:#000000" />
  <polygon
     points="637.9848,-26.0664 627.5036,-24.5183 628.8259,-31.3923 "
     id="polygon19287"
     style="fill:#000000;stroke:#000000"
     transform="translate(4,544)" />
  <ellipse
     cx="588.10059"
     cy="454"
     rx="27.2661"
     ry="18"
     id="ellipse19292"
     style="fill:#449944;stroke:#449944;stroke-width:2.24999994;stroke-miterlimit:4;stroke-dasharray:none;stroke-opacity:1;fill-opacity:1" />
  <text
     x="588.10059"
     y="458.20001"
     font-size="14.00"
     id="text19294"
     style="font-size:14px;font-family:Times, serif;text-anchor:middle;fill:#000000">shot</text>
  <path
     d="m 576.528,470.3379 c -6.2737,8.8569 -14.1697,20.0042 -21.2446,29.9924"
     id="path19299"
     inkscape:connector-curvature="0"
     style="fill:none;stroke:#000000" />
  <polygon
     points="545.3387,-35.2773 548.2628,-45.4606 553.975,-41.4145 "
     id="polygon19301"
     style="fill:#000000;stroke:#000000"
     transform="translate(4,544)" />
  <ellipse
     cx="778.10059"
     cy="454"
     rx="30.7577"
     ry="18"
     id="ellipse19306"
     style="fill:#449944;stroke:#449944;stroke-width:2.25;stroke-miterlimit:4;stroke-dasharray:none;stroke-opacity:1;fill-opacity:1" />
  <text
     x="778.10059"
     y="458.20001"
     font-size="14.00"
     id="text19308"
     style="font-size:14px;font-family:Times, serif;text-anchor:middle;fill:#000000">brain</text>
  <path
     d="m 758.9366,468.2249 c -13.6962,10.1662 -32.3918,24.0434 -48.0275,35.6492"
     id="path19313"
     inkscape:connector-curvature="0"
     style="fill:none;stroke:#000000" />
  <polygon
     points="698.5886,-33.9498 704.5322,-42.7204 708.7044,-37.0996 "
     id="polygon19315"
     style="fill:#000000;stroke:#000000"
     transform="translate(4,544)" />
  <path
     d="M 178.2637,183.6572 C 157.0362,208.9196 117.8782,255.5209 93.512,284.5187"
     id="path19320"
     inkscape:connector-curvature="0"
     style="fill:none;stroke:#000000" />
  <polygon
     points="83.059,-251.8017 86.8126,-261.7093 92.1718,-257.2061 "
     id="polygon19322"
     style="fill:#000000;stroke:#000000"
     transform="translate(4,544)" />
  <path
     d="m 232.4322,178.8722 c 40.4479,13.2374 103.0027,33.7099 142.8778,46.7599"
     id="path19327"
     inkscape:connector-curvature="0"
     style="fill:none;stroke:#000000" />
  <polygon
     points="380.9318,-315.2189 370.3392,-315.003 372.5165,-321.6557 "
     id="polygon19329"
     style="fill:#000000;stroke:#000000"
     transform="translate(4,544)" />
  <ellipse
     cx="296.10059"
     cy="166"
     rx="28.990999"
     ry="18"
     id="ellipse19334"
     style="fill:#449944;stroke:#449944;stroke-width:2.24999994;stroke-miterlimit:4;stroke-dasharray:none;stroke-opacity:1;fill-opacity:1" />
  <text
     x="296.10059"
     y="170.20001"
     font-size="14.00"
     id="text19336"
     style="font-size:14px;font-family:Times, serif;text-anchor:middle;fill:#000000">init2</text>
  <path
     d="M 275.8271,179.033 C 237.2798,203.8134 153.0629,257.9528 105.8692,288.2916"
     id="path19341"
     inkscape:connector-curvature="0"
     style="fill:none;stroke:#000000" />
  <polygon
     points="93.2279,-250.1533 99.7471,-258.505 103.5324,-252.6168 "
     id="polygon19343"
     style="fill:#000000;stroke:#000000"
     transform="translate(4,544)" />
  <path
     d="m 294.2009,184.2377 c -2.5585,24.5613 -7.137,68.5149 -10.1467,97.4082"
     id="path19348"
     inkscape:connector-curvature="0"
     style="fill:none;stroke:#000000" />
  <polygon
     points="278.985,-252.0896 276.54,-262.3985 283.5023,-261.6731 "
     id="polygon19350"
     style="fill:#000000;stroke:#000000"
     transform="translate(4,544)" />
  <path
     d="m 309.5201,182.2387 c 20.5574,24.8762 60.0243,72.6344 84.4494,102.1909"
     id="path19355"
     inkscape:connector-curvature="0"
     style="fill:none;stroke:#000000" />
  <polygon
     points="396.4316,-251.7508 387.3633,-257.2297 392.7593,-261.6889 "
     id="polygon19357"
     style="fill:#000000;stroke:#000000"
     transform="translate(4,544)" />
  <path
     d="m 316.7486,178.7064 c 18.1723,11.183 44.8847,27.6214 65.577,40.3551"
     id="path19362"
     inkscape:connector-curvature="0"
     style="fill:none;stroke:#000000" />
  <polygon
     points="387.0691,-319.5578 376.7182,-321.8181 380.3869,-327.7797 "
     id="polygon19364"
     style="fill:#000000;stroke:#000000"
     transform="translate(4,544)" />
  <path
     d="m 387.2637,183.6572 c -21.2275,25.2624 -60.3855,71.8637 -84.7517,100.8615"
     id="path19369"
     inkscape:connector-curvature="0"
     style="fill:none;stroke:#000000" />
  <polygon
     points="292.059,-251.8017 295.8126,-261.7093 301.1718,-257.2061 "
     id="polygon19371"
     style="fill:#000000;stroke:#000000"
     transform="translate(4,544)" />
  <path
     d="m 404.8764,184.1686 c 1.1765,7.7004 2.5754,16.8571 3.8828,25.4148"
     id="path19376"
     inkscape:connector-curvature="0"
     style="fill:none;stroke:#000000" />
  <polygon
     points="406.2875,-324.4133 401.3173,-333.7699 408.237,-334.8272 "
     id="polygon19378"
     style="fill:#000000;stroke:#000000"
     transform="translate(4,544)" />
  <path
     d="m 575.0792,184.0658 c 0.0944,19.9003 -2.7924,51.7507 -19.9786,71.9342 -19.6295,23.0531 -50.2925,36.3042 -77.9243,43.902"
     id="path19383"
     inkscape:connector-curvature="0"
     style="fill:none;stroke:#000000" />
  <polygon
     points="463.1594,-241.5469 471.9862,-247.4067 473.7139,-240.6232 "
     id="polygon19385"
     style="fill:#000000;stroke:#000000"
     transform="translate(4,544)" />
  <path
     d="m 541.1314,180.744 c -27.1572,12.1449 -65.5584,29.3181 -93.2107,41.6843"
     id="path19390"
     inkscape:connector-curvature="0"
     style="fill:none;stroke:#000000" />
  <polygon
     points="434.6241,-317.4142 442.324,-324.6917 445.1817,-318.3016 "
     id="polygon19392"
     style="fill:#000000;stroke:#000000"
     transform="translate(4,544)" />
  <ellipse
     cx="461.10059"
     cy="22"
     rx="28.990999"
     ry="18"
     id="ellipse19397"
     style="fill:#449944;stroke:#449944;stroke-width:2.24999994;stroke-miterlimit:4;stroke-dasharray:none;stroke-opacity:1;fill-opacity:1" />
  <text
     x="461.10059"
     y="26.200012"
     font-size="14.00"
     id="text19399"
     style="font-size:14px;font-family:Times, serif;text-anchor:middle;fill:#000000">init1</text>
  <path
     d="m 464.8858,40.1686 c 1.6468,7.9048 3.6133,17.3442 5.4364,26.0949"
     id="path19404"
     inkscape:connector-curvature="0"
     style="fill:none;stroke:#000000" />
  <polygon
     points="468.3687,-467.9134 462.9026,-476.9894 469.7555,-478.4171 "
     id="polygon19406"
     style="fill:#000000;stroke:#000000"
     transform="translate(4,544)" />
  <path
     d="m 439.1691,33.7841 c -45.5916,24.497 -151.0813,81.178 -208.0065,111.7647"
     id="path19411"
     inkscape:connector-curvature="0"
     style="fill:none;stroke:#000000" />
  <polygon
     points="218.1257,-393.5956 225.278,-401.4119 228.5913,-395.2456 "
     id="polygon19413"
     style="fill:#000000;stroke:#000000"
     transform="translate(4,544)" />
  <path
     d="M 452.2342,39.3132 C 446.9916,49.8111 440.3692,63.5416 435.1006,76 c -8.7103,20.597 -17.3687,44.3682 -23.6298,62.3063"
     id="path19418"
     inkscape:connector-curvature="0"
     style="fill:none;stroke:#000000" />
  <polygon
     points="404.1666,-396.1302 404.1241,-406.7249 410.7404,-404.439 "
     id="polygon19420"
     style="fill:#000000;stroke:#000000"
     transform="translate(4,544)" />
  <path
     d="M 478.3185,36.6354 C 489.9693,46.992 505.3221,61.5552 517.1006,76 c 16.298,19.9872 31.7526,44.9028 42.4471,63.4478"
     id="path19425"
     inkscape:connector-curvature="0"
     style="fill:none;stroke:#000000" />
  <polygon
     points="560.5416,-395.7527 552.5618,-402.7221 558.6497,-406.1772 "
     id="polygon19427"
     style="fill:#000000;stroke:#000000"
     transform="translate(4,544)" />
  <ellipse
     cx="220.1006"
     cy="22"
     rx="43.5214"
     ry="18"
     id="ellipse19432"
     style="fill:#449944;stroke:#449944;stroke-width:2.24999994;stroke-miterlimit:4;stroke-dasharray:none;stroke-opacity:1;fill-opacity:1" />
  <text
     x="220.1006"
     y="26.200012"
     font-size="14.00"
     id="text19434"
     style="font-size:14px;font-family:Times, serif;text-anchor:middle;fill:#000000">StockE1</text>
  <path
     d="m 256.2362,32.1631 c 47.8375,13.4543 131.8565,37.0847 181.0176,50.9112"
     id="path19439"
     inkscape:connector-curvature="0"
     style="fill:none;stroke:#000000" />
  <polygon
     points="442.8949,-458.2141 432.3208,-457.5524 434.216,-464.2909 "
     id="polygon19441"
     style="fill:#000000;stroke:#000000"
     transform="translate(4,544)" />
  <path
     d="m 216.6811,40.2377 c -4.6256,24.6695 -12.9193,68.9025 -18.3355,97.7892"
     id="path19446"
     inkscape:connector-curvature="0"
     style="fill:none;stroke:#000000" />
  <polygon
     points="192.4924,-396.0896 190.8954,-406.5634 197.7755,-405.2733 "
     id="polygon19448"
     style="fill:#000000;stroke:#000000"
     transform="translate(4,544)" />
  <ellipse
     cx="347.10059"
     cy="22"
     rx="46.3894"
     ry="18"
     id="ellipse19453"
     style="fill:#449944;stroke:#449944;stroke-width:2.24999994;stroke-miterlimit:4;stroke-dasharray:none;stroke-opacity:1;fill-opacity:1" />
  <text
     x="347.10059"
     y="26.200012"
     font-size="14.00"
     id="text19455"
     style="font-size:14px;font-family:Times, serif;text-anchor:middle;fill:#000000">StockM1</text>
  <path
     d="m 373.8295,36.9184 c 20.4053,11.3891 48.5979,27.1244 70.2158,39.1903"
     id="path19460"
     inkscape:connector-curvature="0"
     style="fill:none;stroke:#000000" />
  <polygon
     points="448.8657,-462.9683 438.4279,-464.7858 441.8395,-470.8982 "
     id="polygon19462"
     style="fill:#000000;stroke:#000000"
     transform="translate(4,544)" />
  <path
     d="m 353.9552,39.9465 c 9.4279,24.6839 26.4849,69.3424 37.5592,98.3368"
     id="path19467"
     inkscape:connector-curvature="0"
     style="fill:none;stroke:#000000" />
  <polygon
     points="391.1597,-396.1727 384.3219,-404.2657 390.8612,-406.7633 "
     id="polygon19469"
     style="fill:#000000;stroke:#000000"
     transform="translate(4,544)" />
  <ellipse
     cx="567.10059"
     cy="22"
     rx="44.664501"
     ry="18"
     id="ellipse19474"
     style="fill:#449944;stroke:#449944;stroke-width:2.24999994;stroke-miterlimit:4;stroke-dasharray:none;stroke-opacity:1;fill-opacity:1" />
  <text
     x="567.10059"
     y="26.200012"
     font-size="14.00"
     id="text19476"
     style="font-size:14px;font-family:Times, serif;text-anchor:middle;fill:#000000">StockH1</text>
  <path
     d="M 546.4513,38.3379 C 533.5972,48.5082 516.926,61.6986 503.039,72.6862"
     id="path19481"
     inkscape:connector-curvature="0"
     style="fill:none;stroke:#000000" />
  <polygon
     points="490.8111,-464.8039 496.4816,-473.7535 500.8251,-468.264 "
     id="polygon19483"
     style="fill:#000000;stroke:#000000"
     transform="translate(4,544)" />
  <path
     d="m 567.9872,40.2377 c 1.1939,24.5613 3.3306,68.5149 4.7351,97.4082"
     id="path19488"
     inkscape:connector-curvature="0"
     style="fill:none;stroke:#000000" />
  <polygon
     points="569.2213,-396.0896 565.2398,-405.9079 572.2315,-406.2478 "
     id="polygon19490"
     style="fill:#000000;stroke:#000000"
     transform="translate(4,544)" />
</svg>
